<?xml version="1.0" encoding="UTF-8"?><svg width="82px" height="82px" viewBox="0 0 82 82" version="1.1" xmlns="http://www.w3.org/2000/svg" xmlns:xlink="http://www.w3.org/1999/xlink"><title>å®‰å¿ƒè¿˜@4x</title><g id="--ðŸŸ ICON" stroke="none" stroke-width="1" fill="none" fill-rule="evenodd"><g id="è´¢å¯Œ" transform="translate(-476.000000, -3318.000000)"><g id="å®‰å¿ƒæ¢" transform="translate(446.000000, 3318.000000)"><g id="ICON" transform="translate(30.000000, 0.000000)"><rect id="çŸ©å½¢" x="0" y="0" width="82" height="82"/><g id="ç¼–ç»„-4" transform="translate(10.000000, 15.000000)"><path d="M55.6,0 C58.5823376,5.63802776e-15 61,2.41766235 61,5.4 L61.0012194,24.408785 C58.3533836,22.8768178 55.2790877,22 52,22 C42.0588745,22 34,30.0588745 34,40 C34,45.1108729 36.1300679,49.7242418 39.5508795,53.0007826 L5.4,53 C2.41766235,53 3.65231026e-16,50.5823376 0,47.6 L0,5.4 C-3.65231026e-16,2.41766235 2.41766235,-3.40331881e-16 5.4,0 L55.6,0 Z" id="å½¢çŠ¶ç»“åˆ" fill="#333333"/><circle id="æ¤­åœ†å½¢" fill="#333333" cx="52" cy="40" r="13"/><path d="M46.4374232,36.4408531 C47.6873209,35.1863823 49.7138054,35.1863823 50.9637031,36.4408531 L52.1023858,37.5847562 L53.181849,36.5013633 C54.3984496,35.2803114 56.3709489,35.2803114 57.5875495,36.5013633 C58.8041502,37.7224152 58.8041502,39.7021315 57.5875495,40.9231834 L52.2377703,46.2925363 L52.1883851,46.2440593 L51.9336202,46.5 L46.4374232,40.9836936 C45.1875256,39.7292228 45.1875256,37.6953239 46.4374232,36.4408531 Z" id="è·¯å¾„" fill="#FFFFFF"/><path d="M11.645388,8.3796006 C12.0818048,7.97428773 12.7983768,7.97038932 13.2383033,8.3779452 L13.2383033,8.3779452 L17.224,12.0699436 L21.2101788,8.3779452 C21.6501053,7.97038932 22.3666773,7.97428773 22.8030941,8.3796006 L23.963642,9.45743486 C24.4034584,9.86590499 24.4047054,10.5261868 23.9634427,10.9349807 L20.254,14.3699436 L23.5740215,14.3699961 C24.170353,14.3699961 24.6537752,14.8559945 24.6537752,15.4452515 L24.6537752,17.0122418 C24.6537752,17.6060889 24.1712445,18.0874971 23.5740215,18.0874971 L19.122,18.0869436 L19.122,20.3179436 L23.5740215,20.3179977 C24.170353,20.3179977 24.6537752,20.803996 24.6537752,21.393253 L24.6537752,22.9602433 C24.6537752,23.5540905 24.1712445,24.0354987 23.5740215,24.0354987 L19.122,24.0349436 L19.1223843,28.1586081 C19.1223843,28.7558443 18.637915,29.24 18.042758,29.24 L16.2510172,29.24 C15.654756,29.24 15.1713909,28.76209 15.1713909,28.1586081 L15.171,24.0349436 L10.7197537,24.0354987 C10.1234222,24.0354987 9.64,23.5495003 9.64,22.9602433 L9.64,21.393253 C9.64,20.7994059 10.1225307,20.3179977 10.7197537,20.3179977 L15.171,20.3179436 L15.171,18.0869436 L10.7197537,18.0874971 C10.1234222,18.0874971 9.64,17.6014988 9.64,17.0122418 L9.64,15.4452515 C9.64,14.8514043 10.1225307,14.3699961 10.7197537,14.3699961 L14.193,14.3699436 L10.4850395,10.9349807 C10.0752955,10.5553864 10.0471033,9.95894786 10.397308,9.54863502 L10.4848401,9.45743486 Z" id="Combined-Shape-Copy-15" fill="#FFFFFF"/></g></g></g></g></g></svg>