<?xml version="1.0" encoding="UTF-8"?><svg width="82px" height="82px" viewBox="0 0 82 82" version="1.1" xmlns="http://www.w3.org/2000/svg" xmlns:xlink="http://www.w3.org/1999/xlink"><title>白条提额@4x</title><g id="--🟠ICON" stroke="none" stroke-width="1" fill="none" fill-rule="evenodd"><g id="财富" transform="translate(-44.000000, -3318.000000)"><g id="白条提额" transform="translate(14.000000, 3318.000000)"><g id="ICON" transform="translate(30.000000, 0.000000)"><g id="编组-9" transform="translate(15.000000, 12.000000)"><path d="M46,2.27373675e-12 C48.7614237,2.27813476e-12 51,2.23857625 51,5 L51.0012194,30.408785 C48.3533836,28.8768178 45.2790877,28 42,28 C32.0588745,28 24,36.0588745 24,46 C24,51.1108729 26.1300679,55.7242418 29.5508795,59.0007826 L5,59 C2.23857625,59 -5.50001544e-16,56.7614237 0,54 L0,16 L16.1754057,2.27373675e-12 L46,2.27373675e-12 Z" id="形状结合" fill="#333333"/><path d="M16,0 L16,11 C16,13.7614237 13.7614237,16 11,16 L0,16 L0,16 L16,0 Z" id="矩形" fill="#666666"/><circle id="椭圆形备份" fill="#333333" cx="42" cy="46" r="13"/><path d="M42.2257799,40 C42.4544014,40 42.6634749,40.0652167 42.8240325,40.1730778 L47.4610476,43.7779863 C47.6240076,43.9113445 47.7257799,44.0892683 47.7257799,44.2857143 C47.7257799,44.6802034 47.3153742,45 46.8091132,45 L45.3742987,44.9998714 L45.3289446,45.2862535 L45.3289446,45.2862535 C44.5643852,49.6222853 40.4932821,52.5832043 36,52.2455093 C38.1682457,51.5070702 39.8586411,49.703697 40.270388,47.3685645 C40.4128579,46.5605776 40.3896989,45.7600576 40.2245214,44.9991442 L37.6424465,45 L37.6424465,45 C37.1361855,45 36.7257799,44.6802034 36.7257799,44.2857143 C36.7257799,44.0876712 36.8292137,43.9084527 36.9962832,43.7790705 L36.996083,43.7779863 L41.5298239,40.2493884 C41.6979411,40.0967183 41.9473654,40 42.2257799,40 Z" id="路径" fill="#FFFFFF"/></g></g></g></g></g></svg>