<?xml version="1.0" encoding="UTF-8"?><svg width="82px" height="82px" viewBox="0 0 82 82" version="1.1" xmlns="http://www.w3.org/2000/svg" xmlns:xlink="http://www.w3.org/1999/xlink"><title>沔쫹로沔쮢븸邏坍 5@4x</title><g id="--游ICON" stroke="none" stroke-width="1" fill="none" fill-rule="evenodd"><g id="沔쫹로" transform="translate(-478.000000, -248.000000)"><g id="沔쫹로沔쮢븸" transform="translate(448.000000, 248.000000)"><g id="ICON" transform="translate(30.000000, 0.000000)"><g id="模뒪즧-56" transform="translate(15.000000, 13.000000)"><path d="M47,0 C49.7614237,-5.07265313e-16 52,2.23857625 52,5 L52,52 C52,54.7614237 49.7614237,57 47,57 L12,57 L12,0 L47,0 Z M8,0 L8,57 L5,57 C2.23857625,57 3.38176876e-16,54.7614237 0,52 L0,5 C-3.38176876e-16,2.23857625 2.23857625,5.07265313e-16 5,0 L8,0 Z" id="濫뮎궜某낻" fill="#333333"/><path d="M31,0 L44,0 L44,17.0325448 C44,17.4130076 43.6915739,17.7214337 43.3111111,17.7214337 C43.2344108,17.7214337 43.158249,17.7086247 43.0857683,17.6835352 L37.9506857,15.9060066 C37.658727,15.804944 37.341273,15.804944 37.0493143,15.9060066 L31.9142317,17.6835352 C31.5546996,17.8079886 31.1623519,17.6174197 31.0378985,17.2578876 C31.012809,17.1854069 31,17.1092451 31,17.0325448 L31,0 L31,0 Z" id="麵뽼쪽" fill="#FFFFFF"/></g></g></g></g></g></svg>