<?xml version="1.0" encoding="UTF-8"?><svg width="82px" height="82px" viewBox="0 0 82 82" version="1.1" xmlns="http://www.w3.org/2000/svg" xmlns:xlink="http://www.w3.org/1999/xlink"><title>宝宝金@4x</title><g id="--🟠ICON" stroke="none" stroke-width="1" fill="none" fill-rule="evenodd"><g id="财富" transform="translate(-188.000000, -4572.000000)"><g id="宝宝金" transform="translate(158.000000, 4572.000000)"><g id="ICON" transform="translate(30.000000, 0.000000)"><g id="编组-12" transform="translate(7.000000, 9.000000)"><path d="M38.25,0 C39.0104251,1.52681434 41.3015023,3.66829055 45.1232316,6.42442862 C54.4754925,10.2117166 61.4706233,18.6325524 63.2866352,28.8537408 C66.0333541,29.8312059 68,32.4628127 68,35.5555556 C68,38.9095874 65.6870146,41.7212739 62.5750104,42.4707116 C58.9815681,54.9078526 47.5484288,64 34,64 C20.4515712,64 9.01843193,54.9078526 5.42435431,42.4697761 C2.31298537,41.7212739 0,38.9095874 0,35.5555556 C0,32.4624364 1.96712445,29.8305655 4.71395239,28.8520205 C6.40756116,19.3194768 12.6073545,11.3522471 21.0228579,7.25034429 C20.657458,5.97098789 19.9624269,4.53000022 19.8491258,4.29872003 L19.8333333,4.26666667 L19.8333333,4.26666667 C21.2211864,4.26666667 23.2888523,4.94914539 25.0373519,5.64550504 C25.9235733,5.36512991 26.8275048,5.12496459 27.7471934,4.92747212 C27.5079809,2.48576739 28.3333333,0 28.3333333,0 C29.914966,1.58783513 32.3795028,3.17567027 34.2483708,4.26871495 C35.3925699,4.27705459 36.5220022,4.35134794 37.6325488,4.48707353 C37.5206251,2.19670546 38.25,0 38.25,0 Z" id="形状结合" fill="#333333"/><path d="M42.5,44.8 C42.5,44.8 42.5,44.8 42.5,44.8 C42.5,49.9055657 38.3772887,52.6222222 33.2916667,52.6222222 C28.2060446,52.6222222 24.0833333,49.9055657 24.0833333,44.8 C24.0833333,44.8 24.0833333,44.8 24.0833333,44.8 C24.0833333,43.7993012 24.89456,42.9880745 25.8952588,42.9880745 C26.1121793,42.9880745 26.3273373,43.027026 26.5304901,43.1030748 C28.2861494,43.7602807 30.5398736,44.0888889 33.2916667,44.0888889 C36.0434598,44.0888889 38.297184,43.7602807 40.0528392,43.1030642 L40.0528432,43.1030748 C40.9900291,42.7522462 42.0341712,43.2275828 42.3849997,44.1647687 C42.4610485,44.3679216 42.5,44.5830795 42.5,44.8 Z" id="路径" fill="#FFFFFF"/><ellipse id="椭圆形" fill="#FFFFFF" cx="46.0416667" cy="32" rx="3.54166667" ry="3.55555556"/><ellipse id="椭圆形备份-6" fill="#FFFFFF" cx="21.9583333" cy="32" rx="3.54166667" ry="3.55555556"/></g></g></g></g></g></svg>