<?xml version="1.0" encoding="UTF-8"?><svg width="82px" height="82px" viewBox="0 0 82 82" version="1.1" xmlns="http://www.w3.org/2000/svg" xmlns:xlink="http://www.w3.org/1999/xlink"><title>报价有礼备份 3@4x</title><g id="--🟠ICON" stroke="none" stroke-width="1" fill="none" fill-rule="evenodd"><g id="保险" transform="translate(-332.000000, -476.000000)"><g id="报价有礼" transform="translate(302.000000, 476.000000)"><g id="ICON" transform="translate(30.000000, 0.000000)"><g id="编组-4" transform="translate(12.000000, 11.000000)"><g id="编组-2" fill="#333333"><path d="M28.1077599,0 C31.8011436,0 35.4945273,0.532904551 39.187911,1.59871365 C41.5576522,2.28256681 42.9243451,4.75798834 42.240502,7.12773248 C42.2331982,7.15304261 42.2256706,7.17828762 42.2179201,7.20346454 L39.6959052,15.397612 C32.3492781,12.2303994 23.9262503,12.4743237 16.7454223,16.129385 L13.9976012,7.20346917 C13.2719255,4.84619008 14.5946062,2.34696395 16.9518866,1.62129275 C16.977064,1.61354207 17.0023095,1.60601432 17.0276201,1.59871039 C20.7210001,0.532903462 24.41438,0 28.1077599,0 Z" id="形状结合"/><path d="M14.5,16.4469825 C23.348364,10.8219459 34.651636,10.8219459 43.5,16.4469825 C52.5304351,22.1877645 58,32.1460712 58,42.8467878 L58,47.6708582 C58,55.03234 52.03234,61 44.6708582,61 L13.3291418,61 C5.96766004,61 -2.65119218e-15,55.03234 0,47.6708582 L0,42.8467878 C-4.86317352e-15,32.1460712 5.46956485,22.1877645 14.5,16.4469825 Z" id="矩形备份-4"/></g><path d="M25.744,30.128 L24.72,26.544 L20.56,26.544 L22.928,30.128 L25.744,30.128 Z M44.4,50.64 L44.4,48.08 L36.656,48.08 C36.1013333,48.08 35.7173333,47.9733333 35.504,47.76 C35.2906667,47.5466667 35.184,47.1626667 35.184,46.608 L35.184,46.608 L35.184,26.544 L31.44,26.544 L31.44,46.768 C31.44,48.048 31.8133333,49.0186667 32.56,49.68 C33.2853333,50.32 34.3093333,50.64 35.632,50.64 L35.632,50.64 L44.4,50.64 Z M24.688,50.992 L24.688,38.096 L22.544,38.096 C24.3573333,36.7306667 26.2773333,35.1946667 28.304,33.488 L28.304,33.488 L28.304,31.088 L16.208,31.088 L16.208,33.488 L23.44,33.488 C21.392,35.5146667 18.672,37.7866667 15.28,40.304 L15.28,40.304 L19.536,40.304 C19.6426667,40.2186667 20.1226667,39.8773333 20.976,39.28 L20.976,39.28 L20.976,50.992 L24.688,50.992 Z M30.064,43.952 L28.784,38.128 L25.296,38.128 L27.472,43.952 L30.064,43.952 Z" id="礼" fill="#FFFFFF"/></g></g></g></g></g></svg>