<?xml version="1.0" encoding="UTF-8"?><svg width="82px" height="82px" viewBox="0 0 82 82" version="1.1" xmlns="http://www.w3.org/2000/svg" xmlns:xlink="http://www.w3.org/1999/xlink"><title>保险@4x</title><g id="--🟠ICON" stroke="none" stroke-width="1" fill="none" fill-rule="evenodd"><g id="财富" transform="translate(-474.000000, -1606.000000)"><g id="固收+" transform="translate(444.000000, 1606.000000)"><g id="ICON" transform="translate(30.000000, 0.000000)"><g id="保险" transform="translate(13.000000, 11.000000)"><path d="M2.66711929,6.25421914 C11.271403,2.08473971 19.7239912,0 28.0248839,0 C36.3257767,0 44.7783651,2.08473979 53.382649,6.25421938 C55.00517,7.04046108 56.0106938,8.71028134 55.9466565,10.5121275 L54.9443913,38.713315 C54.7594209,43.9179128 51.9987825,48.6899043 47.5791629,51.4447209 L31.6365672,61.381985 C29.4259191,62.7599159 26.6238487,62.7599159 24.4132005,61.381985 L8.47060488,51.4447209 C4.05098525,48.6899043 1.2903469,43.9179128 1.10537642,38.713315 L0.103111037,10.5121212 C0.0390805675,8.7102783 1.04460243,7.04046131 2.66711929,6.25421914 Z" id="Rectangle-12-Copy备份" fill="#333333"/><path d="M29.5,16 C30.0732025,16 30.587636,16.2250516 30.9388716,16.5817524 L30.9406878,16.582877 L40.4464689,25.0671671 L40.4427772,25.0772596 C40.7871826,25.3871852 41,25.8142209 41,26.2857143 C41,27.2324881 40.1418791,28 39.0833333,28 L34.9836063,27.999 L34.9443089,28.2147577 C33.0402947,38.0184685 24.2545273,44.7617034 14.6586063,44.1017054 C19.3678876,42.3540886 23.0707552,38.1638743 24.019765,32.781772 C24.3066284,31.1548891 24.3197962,29.5442825 24.0928147,27.9988986 L19.9166667,28 C18.8581209,28 18,27.2324881 18,26.2857143 C18,25.8101358 18.2165212,25.3797886 18.5662045,25.0692302 L18.5651792,25.0671671 L28.0363646,16.6074056 C28.3879458,16.2358755 28.9131751,16 29.5,16 Z" id="形状结合" fill="#FFFFFF"/></g></g></g></g></g></svg>