<?xml version="1.0" encoding="UTF-8"?><svg width="82px" height="82px" viewBox="0 0 82 82" version="1.1" xmlns="http://www.w3.org/2000/svg" xmlns:xlink="http://www.w3.org/1999/xlink"><title>猜涨跌@4x</title><g id="--🟠ICON" stroke="none" stroke-width="1" fill="none" fill-rule="evenodd"><g id="财富" transform="translate(-188.000000, -5022.000000)"><g id="猜涨跌" transform="translate(158.000000, 5022.000000)"><g id="ICON" transform="translate(30.000000, 0.000000)"><g id="猜涨跌" transform="translate(11.000000, 14.003443)"><path d="M0,44.9965567 L0,5 C-3.38176876e-16,2.23857625 2.23857625,-1.26909153e-15 5,0 L56,0 C58.7614237,-0.000659219815 61,2.23791703 61,4.99934078 C61,4.99956053 61,4.99978029 60.9993407,4.99999996 L60.9940671,44.9965568 C60.9930437,47.757723 58.7545741,49.9958974 55.9934078,49.9965567 L45,49.9965567 L45,49.9965567 L45,56.0384797 C45,57.695334 43.6568542,59.0384797 42,59.0384797 C41.5151326,59.0384797 41.0374898,58.9209562 40.607979,58.6959743 L24,49.9965567 L24,49.9965567 L5,49.9965567 C2.23857625,49.9965567 -4.73841006e-15,47.7579805 0,44.9965567 Z" id="路径" fill="#333333"/><path d="M44.4,24.7485567 L44.4,22.6045567 L36.624,22.6045567 L36.624,21.2285567 L43.216,21.2285567 L43.216,19.3405567 L36.624,19.3405567 L36.624,17.9645567 L43.888,17.9645567 L43.888,15.8205567 L36.624,15.8205567 L36.624,14.5405567 L33.008,14.5405567 L33.008,15.8205567 L25.616,15.8205567 L25.616,17.9645567 L33.008,17.9645567 L33.008,19.3405567 L26.288,19.3405567 L26.288,21.2285567 L33.008,21.2285567 L33.008,22.6045567 L25.232,22.6045567 L25.232,24.7485567 L44.4,24.7485567 Z M17.552,38.9885567 C19.728,38.8605567 21.296,38.3805567 22.256,37.5485567 C23.3226667,36.6312234 23.856,35.1165567 23.856,33.0045567 L23.856,33.0045567 L23.856,22.9885567 C23.856,21.6872234 23.632,20.5245567 23.184,19.5005567 C24.1653333,18.1565567 24.8053333,16.5032234 25.104,14.5405567 L25.104,14.5405567 L21.744,14.5405567 C21.5306667,15.4578901 21.2853333,16.2365567 21.008,16.8765567 C19.8986667,16.0658901 18.4266667,15.4472234 16.592,15.0205567 L16.592,15.0205567 L16.592,17.7405567 C17.9573333,18.2312234 18.9066667,18.8072234 19.44,19.4685567 C18.3946667,20.6632234 17.1146667,21.5485567 15.6,22.1245567 L15.6,22.1245567 L15.6,24.8125567 C17.4986667,24.1085567 19.0453333,23.3192234 20.24,22.4445567 L20.24,22.4445567 L20.24,26.0285567 C18.8746667,27.2018901 17.328,28.1832234 15.6,28.9725567 L15.6,28.9725567 L15.6,31.6605567 C17.648,30.8498901 19.1946667,30.0925567 20.24,29.3885567 L20.24,29.3885567 L20.24,33.4845567 C20.24,34.5725567 20.048,35.3192234 19.664,35.7245567 C19.3013333,36.1085567 18.5973333,36.3645567 17.552,36.4925567 L17.552,36.4925567 L17.552,38.9885567 Z M30.224,38.9885567 L30.224,34.7645567 L39.44,34.7645567 L39.44,35.0845567 C39.44,35.6178901 39.2693333,36.0338901 38.928,36.3325567 C38.608,36.6098901 38.1706667,36.7592234 37.616,36.7805567 L37.616,36.7805567 L37.616,38.9885567 C39.5146667,38.9885567 40.8693333,38.6792234 41.68,38.0605567 C42.5973333,37.3565567 43.056,36.0978901 43.056,34.2845567 L43.056,34.2845567 L43.056,25.8685567 L26.608,25.8685567 L26.608,38.9885567 L30.224,38.9885567 Z M39.44,29.5805567 L30.224,29.5805567 L30.224,28.0445567 L39.44,28.0445567 L39.44,29.5805567 Z M39.44,32.9405567 L30.224,32.9405567 L30.224,31.4045567 L39.44,31.4045567 L39.44,32.9405567 Z" id="猜" fill="#FFFFFF"/></g></g></g></g></g></svg>