<?xml version="1.0" encoding="UTF-8"?><svg width="82px" height="82px" viewBox="0 0 82 82" version="1.1" xmlns="http://www.w3.org/2000/svg" xmlns:xlink="http://www.w3.org/1999/xlink"><title>查看保单备份 3@4x</title><g id="--🟠ICON" stroke="none" stroke-width="1" fill="none" fill-rule="evenodd"><g id="保险" transform="translate(-620.000000, -476.000000)"><g id="查看保单" transform="translate(590.000000, 476.000000)"><g id="ICON" transform="translate(30.000000, 0.000000)"><g id="查看保单" transform="translate(13.000000, 9.000000)"><path d="M2.66711929,6.25421914 C11.271403,2.08473971 19.7239912,0 28.0248839,0 C36.3257767,0 44.7783651,2.08473979 53.382649,6.25421938 C55.00517,7.04046108 56.0106938,8.71028134 55.9466565,10.5121275 L54.9443913,38.713315 C54.7594209,43.9179128 51.9987825,48.6899043 47.5791629,51.4447209 L31.6365672,61.381985 C29.4259191,62.7599159 26.6238487,62.7599159 24.4132005,61.381985 L8.47060488,51.4447209 C4.05098525,48.6899043 1.2903469,43.9179128 1.10537642,38.713315 L0.103111037,10.5121212 C0.0390805675,8.7102783 1.04460243,7.04046131 2.66711929,6.25421914 Z" id="Rectangle-12-Copy备份" fill="#333333"/><path d="M36,33 C36.5522847,33 37,33.4477153 37,34 L37,37 C37,37.5522847 36.5522847,38 36,38 L20,38 C19.4477153,38 19,37.5522847 19,37 L19,34 C19,33.4477153 19.4477153,33 20,33 L36,33 Z M39,22 C39.5522847,22 40,22.4477153 40,23 L40,26 C40,26.5522847 39.5522847,27 39,27 L16,27 C15.4477153,27 15,26.5522847 15,26 L15,23 C15,22.4477153 15.4477153,22 16,22 L39,22 Z" id="形状结合" fill="#FFFFFF"/></g></g></g></g></g></svg>