<?xml version="1.0" encoding="UTF-8"?><svg width="82px" height="82px" viewBox="0 0 82 82" version="1.1" xmlns="http://www.w3.org/2000/svg" xmlns:xlink="http://www.w3.org/1999/xlink"><title>超医保备份 3@4x</title><g id="--🟠ICON" stroke="none" stroke-width="1" fill="none" fill-rule="evenodd"><g id="保险" transform="translate(-44.000000, -254.000000)"><g id="超医保" transform="translate(14.000000, 254.000000)"><g id="ICON" transform="translate(30.000000, 0.000000)"><g id="保险" transform="translate(13.000000, 11.000000)"><path d="M2.66711929,6.25421914 C11.271403,2.08473971 19.7239912,0 28.0248839,0 C36.3257767,0 44.7783651,2.08473979 53.382649,6.25421938 C55.00517,7.04046108 56.0106938,8.71028134 55.9466565,10.5121275 L54.9443913,38.713315 C54.7594209,43.9179128 51.9987825,48.6899043 47.5791629,51.4447209 L31.6365672,61.381985 C29.4259191,62.7599159 26.6238487,62.7599159 24.4132005,61.381985 L8.47060488,51.4447209 C4.05098525,48.6899043 1.2903469,43.9179128 1.10537642,38.713315 L0.103111037,10.5121212 C0.0390805675,8.7102783 1.04460243,7.04046131 2.66711929,6.25421914 Z" id="Rectangle-12-Copy备份" fill="#333333"/><path d="M19,41.024 L19,23.264 L17.208,23.264 C18.808,21.4506667 20.2693333,19.2106667 21.592,16.544 L21.592,16.544 L17.336,16.544 C16.1413333,19.7226667 14.424,22.6986667 12.184,25.472 L12.184,25.472 L15.128,25.472 L15.128,25.472 L15.32,25.28 L15.32,41.024 L19,41.024 Z M32.792,41.024 L32.792,30.976 L34.552,30.976 C35.6613333,34.1333333 37.0266667,37.2053333 38.648,40.192 L38.648,40.192 L41.272,40.192 C40.056,37.0346667 39.0746667,33.9626667 38.328,30.976 L38.328,30.976 L41.336,30.976 L41.336,28.544 L32.792,28.544 L32.792,26.24 L39.768,26.24 L39.768,17.216 L22.104,17.216 L22.104,26.24 L29.016,26.24 L29.016,28.544 L20.504,28.544 L20.504,30.976 L23.512,30.976 C22.7653333,34.3466667 21.7733333,37.4186667 20.536,40.192 L20.536,40.192 L23.16,40.192 C24.888,37.056 26.2533333,33.984 27.256,30.976 L27.256,30.976 L29.016,30.976 L29.016,41.024 L32.792,41.024 Z M36.024,23.808 L25.848,23.808 L25.848,19.648 L36.024,19.648 L36.024,23.808 Z" id="保" fill="#FFFFFF"/></g></g></g></g></g></svg>