<?xml version="1.0" encoding="UTF-8"?><svg width="82px" height="82px" viewBox="0 0 82 82" version="1.1" xmlns="http://www.w3.org/2000/svg" xmlns:xlink="http://www.w3.org/1999/xlink"><title>ICON@4x</title><g id="--ðŸŸ ICON" stroke="none" stroke-width="1" fill="none" fill-rule="evenodd"><g id="è´¢å¯Œ" transform="translate(-44.000000, -1384.000000)"><g id="æ¨¡æ‹Ÿç‚’è‚¡å¤§èµ›å¤‡ä»½" transform="translate(14.000000, 1384.000000)"><g id="ICON" transform="translate(30.000000, 0.000000)"><g id="ç¼–ç»„-5" transform="translate(14.000000, 12.000000)"><circle id="æ¤­åœ†å½¢" fill="#333333" cx="27" cy="34" r="27"/><path d="M41.974208,25 L29.5888195,25 C29.0978997,25 28.6999306,25.3979691 28.6999306,25.8888889 L28.6999306,29.6242905 L28.6999306,29.6242905 L33.0926119,29.6235661 L27.0073181,36.352865 L21.893285,32.287032 C20.9325337,31.558984 19.7871911,31.5128817 18.9334442,32.1831847 L12.5867513,39.0662314 C12.2602045,39.4203744 12.2751771,39.9701829 12.620514,40.3060288 L14.7180699,42.3459372 C15.0700051,42.6882001 15.6327638,42.6803591 15.9750267,42.328424 C15.986163,42.3169729 15.9969887,42.3052237 16.0074919,42.2931892 L20.3995321,37.2608262 L20.3995321,37.2608262 L25.6932891,41.4168724 L25.8547044,41.5636178 C26.5901041,42.1533614 27.7730282,42.1423921 28.6386852,41.5025127 L36.5131948,32.9907283 L42.614921,26.4783062 C42.9464616,26.1244502 42.9283714,25.5688265 42.5745154,25.2372859 C42.4118023,25.0848341 42.1971813,25 41.974208,25 Z" id="è·¯å¾„" fill="#FFFFFF"/><path d="M21,0 L25.6867769,7.03137665 C18.8079064,7.36081115 12.6038041,10.2644771 8.01674281,14.8001017 L1.59930674,2.9525663 C1.07321891,1.98132721 1.43408529,0.767503906 2.40532438,0.241416067 C2.69782802,0.0829765958 3.02523253,6.11083108e-17 3.35789068,0 L21,0 Z M50.6421093,0 C51.7466788,-5.97606585e-15 52.6421093,0.8954305 52.6421093,2 C52.6421093,2.33265815 52.5591327,2.66006266 52.4006933,2.9525663 L45.9836252,14.8004656 C41.3965277,10.2646324 35.1922776,7.36081996 28.3132231,7.03137665 L33,0 L50.6421093,0 Z" id="å½¢çŠ¶ç»“åˆ" fill="#333333"/></g></g></g></g></g></svg>