<?xml version="1.0" encoding="UTF-8"?><svg width="82px" height="82px" viewBox="0 0 82 82" version="1.1" xmlns="http://www.w3.org/2000/svg" xmlns:xlink="http://www.w3.org/1999/xlink"><title>车抵贷@4x</title><g id="--🟠ICON" stroke="none" stroke-width="1" fill="none" fill-rule="evenodd"><g id="保险" transform="translate(-188.000000, -118.000000)"><g id="车抵贷备份" transform="translate(158.000000, 118.000000)"><g id="ICON" transform="translate(30.000000, 0.000000)"><g id="编组-3" transform="translate(7.000000, 14.000000)"><path d="M4.12121212,43.9090909 L4.12121212,27.5869565 L4.12121212,27.5869565 C4.40548091,27.1739674 3.9276898,26.7081335 3.33789177,26.7075184 L1.21149,26.7058089 C0.542192803,26.7051109 0,26.1764871 0,25.5246377 L0,25.4367922 C0,21.3408355 2.00782722,19.2704315 6.16718355,19.0856456 C6.9487,19.1296636 7.77881093,18.0311139 8.60155289,16.4108685 L8.86105591,15.8825945 L8.99050132,15.606809 L9.24853517,15.0346567 L9.50510002,14.4386833 L9.8863362,13.5095633 L10.1375151,12.8730463 L10.5088366,11.9034778 L10.872447,10.9291923 L12.0118186,7.83578736 L12.2233409,7.27816348 L12.4284988,6.75103014 L12.6753995,6.14160999 L12.9109788,5.59510643 L13.0634717,5.26727856 L13.1947721,5.01462819 L13.3373648,4.76841367 C13.3868443,4.6874129 13.4383056,4.60748191 13.4918485,4.52861784 L13.6588214,4.29522351 L13.8388821,4.06821349 C13.9322841,3.9563017 14.0308185,3.84677758 14.1348217,3.73963147 L14.3502199,3.52850708 C14.3873681,3.49384718 14.425149,3.45945078 14.4635749,3.42531753 L14.7019708,3.22367297 L14.8271614,3.12521367 L15.0899015,2.93301029 L15.3696192,2.74707955 C15.5138222,2.65567947 15.6646162,2.56662519 15.8223378,2.47990705 L16.1471175,2.30958274 C16.3142255,2.22597514 16.4884855,2.14469724 16.6702342,2.06573936 L17.043816,1.9109141 L17.4379661,1.7622584 L17.8532826,1.61975506 C17.9953158,1.57327744 18.1409764,1.52782235 18.2903642,1.48338693 L18.7498092,1.3531368 L18.988105,1.29030062 L19.4822172,1.16919529 L20.0001889,1.05416502 L20.5426186,0.945192625 L20.8231921,0.892972763 L21.4034307,0.79305497 L22.3226394,0.654450894 L22.9688851,0.569538196 L23.6425809,0.49059747 L24.3443253,0.417611533 L25.4508418,0.319260276 L26.2253256,0.261086147 L27.0299524,0.208806675 L28.2947199,0.141402363 L29.6306754,0.0871643839 L30.5618587,0.0582917253 L31.5261772,0.0352278175 L32.5242294,0.0179554793 L32.8286452,0.0138863636 L32.8291285,0 L34.0858672,0.00286858141 L35.1708715,0 L35.1702581,0.0138863636 L35.4757706,0.0179554812 L36.4738228,0.0352278194 L37.4381413,0.0582917272 L38.3693246,0.0871643858 L39.7052801,0.141402365 L40.9700476,0.208806677 L41.7746744,0.261086149 L42.5491582,0.319260278 L43.6556747,0.417611535 L44.3574191,0.490597472 L45.0311149,0.569538198 L45.6773606,0.654450896 L45.9903767,0.699152103 L46.5965693,0.793054972 L47.1768079,0.892972765 L47.4573814,0.945192627 L47.9998111,1.05416502 L48.5177828,1.16919529 L49.011895,1.29030062 L49.2501908,1.3531368 L49.7096358,1.48338693 L49.9309346,1.55080517 L50.1467174,1.61975507 L50.5620339,1.7622584 L50.956184,1.9109141 L51.3297658,2.06573936 L51.5968144,2.18591741 L51.8528825,2.30958274 L52.1776622,2.47990705 L52.409091,2.61173758 L52.6303808,2.74707955 L52.9100985,2.93301029 L53.1728386,3.12521367 L53.2980292,3.22367297 L53.5364251,3.42531753 L53.6497801,3.52850709 L53.8651783,3.73963148 L54.0171235,3.90213535 L54.1611179,4.06821349 L54.3411786,4.29522351 L54.5081515,4.52861784 L54.5869171,4.6477145 L54.6626352,4.76841368 L54.8052279,5.01462819 L54.9365283,5.26727856 L55.0890212,5.59510644 L55.3246005,6.14160999 L55.5715012,6.75103014 L55.7766591,7.27816348 L55.9881814,7.83578736 L57.127553,10.9291923 L57.4911634,11.9034778 L57.8624849,12.8730463 L58.1136638,13.5095633 L58.4949,14.4386833 L58.7514648,15.0346567 L59.0094987,15.606809 L59.1389441,15.8825945 L59.3984471,16.4108685 C60.2211891,18.0311139 61.0513,19.1296636 61.8328165,19.0856456 C65.8954436,19.2661342 67.9054491,21.2455575 67.9967405,25.1543125 L68,25.5246377 C68,26.1330304 67.5276898,26.6340801 66.9205517,26.6987502 L66.78851,26.7058089 L64.6697817,26.7075184 C64.1221121,26.7080896 63.6710199,27.1097932 63.6093724,27.6270915 L63.8787879,27.5869565 L63.8787879,43.9090909 C63.8787879,45.6161529 62.4949407,47 60.7878788,47 L7.21212121,47 C5.50505926,47 4.12121212,45.6161529 4.12121212,43.9090909 Z" id="路径" fill="#333333"/><path d="M27.4717004,26.6982525 C27.6621112,26.8913036 27.8198865,27.047098 27.9450262,27.1656358 C30.2471267,29.3462858 32.3235405,30.3677641 34.1527879,30.3677641 C35.9896059,30.3677641 37.9882398,29.3305816 40.145444,27.0939604 C40.2042642,27.0329748 40.2945266,26.9355691 40.4162311,26.8017434 C40.780482,26.4012163 41.3973306,26.3632997 41.8078929,26.7162008 L44.2278303,28.7962722 C44.6466762,29.1562692 44.6943615,29.7876477 44.3343504,30.2064815 C44.3283778,30.21343 44.3223099,30.2202962 44.3161485,30.227078 C44.146829,30.4134463 44.0040998,30.5668705 43.8879609,30.6873507 C40.8081404,33.8822934 37.5642222,35.5652174 34.1527879,35.5652174 C30.7317761,35.5652174 27.3797792,33.8703228 24.0719162,30.6400303 C23.9978818,30.567732 23.8770893,30.4455365 23.7095388,30.2734439 C23.3242775,29.8777307 23.3327442,29.2446257 23.7284537,28.8593606 C23.7336418,28.8543093 23.7388847,28.8493146 23.7441814,28.8443772 L26.0778986,26.6689749 C26.4738567,26.2999102 27.091597,26.3128786 27.4717004,26.6982525 Z" id="路径" fill="#FFFFFF"/><path d="M46,47 L61,47 L61,50 C61,51.6568542 59.6568542,53 58,53 L49,53 C47.3431458,53 46,51.6568542 46,50 L46,47 L46,47 Z" id="矩形" fill="#333333"/><path d="M7,47 L22,47 L22,50 C22,51.6568542 20.6568542,53 19,53 L10,53 C8.34314575,53 7,51.6568542 7,50 L7,47 L7,47 Z" id="矩形备份-2" fill="#333333"/></g></g></g></g></g></svg>