<?xml version="1.0" encoding="UTF-8"?><svg width="82px" height="82px" viewBox="0 0 82 82" version="1.1" xmlns="http://www.w3.org/2000/svg" xmlns:xlink="http://www.w3.org/1999/xlink"><title>聪明投资者@4x</title><g id="--🟠ICON" stroke="none" stroke-width="1" fill="none" fill-rule="evenodd"><g id="财富" transform="translate(-188.000000, -662.000000)" fill="#333333"><g id="聪明投资者" transform="translate(158.000000, 662.000000)"><g id="ICON" transform="translate(30.000000, 0.000000)"><g id="编组-15" transform="translate(9.000000, 9.000000)"><path d="M26.344824,40.3807125 L26.261206,40.4209632 C24.3453415,41.3642438 22.8043458,42.8964748 21.8047213,45.1247536 L21.6774194,45.4193548 C21.5126988,47.1130785 21.5459396,48.6180069 21.6774194,49.5483871 L21.6774194,50.5806452 C20.3184333,52.799181 19.2861753,57.2722993 18.5806452,64 L4.50357597,64 C2.01631964,64 0,61.9485918 0,59.4180515 C0,55.7410759 1.81241687,50.8268983 5.69604465,47.2389625 C7.89178805,45.2034989 10.4816392,44.44982 13.2382283,43.920132 L14.0301659,43.7739738 L15.2325084,43.5655996 C16.7859595,43.3093184 18.3825621,43.0103238 20.0654674,42.540475 C20.1284452,42.5243131 20.2022185,42.5006557 20.2854909,42.4705422 L20.5625084,42.3618739 C20.6129953,42.3408811 20.6655328,42.3185343 20.7199588,42.2949634 L21.0678808,42.1398885 L22.9858376,41.2457585 L23.4439881,41.0406118 L23.8968968,40.8466353 C25.0200677,40.3792182 26.0203045,40.0761549 26.344824,40.3807125 Z M42.797784,42.5030582 C43.5431269,43.1020902 43.7185017,43.1448782 45.4722498,43.4443942 C47.1383105,43.7439101 49.6374016,44.1717901 54.153303,45.498218 C62.9220435,48.0654979 64.3688857,57.4534364 63.9304487,62.0317521 C63.8427613,63.14424 62.8781998,64 61.6944199,64 L45.4193548,64 C44.6603045,57.2899914 43.6608412,52.8712714 42.4209651,50.74384 L42.3225806,50.5806452 C42.5452637,48.5654533 42.5469721,46.8029876 42.3225806,45.4193548 C41.2659502,42.923644 39.5978024,41.2725573 37.5083412,40.307457 C38.679572,39.9302543 41.9201128,41.8022545 42.797784,42.5030582 Z" id="形状结合"/><path d="M31.8958691,45.1531172 C34.3438188,45.1531172 35.815859,45.9368607 36.3119897,47.5043477 C36.4591362,47.9694703 36.424668,48.4839637 36.2172013,48.9183056 L34.9163731,51.6416546 C36.9449829,54.7029849 38.5475828,58.7808138 39.7241727,63.8751414 L24.2758833,63.8751414 C25.2879888,58.8362722 26.806147,54.7750808 28.8303579,51.6915671 L27.5625075,48.8995517 C27.372015,48.4801969 27.3402516,47.9905587 27.4745131,47.5439107 C27.9536248,45.9500484 29.4274101,45.1531172 31.8958691,45.1531172 Z" id="路径"/><path d="M17.5250195,31.7459455 C16.3481958,31.1426219 14.9098556,30.0652584 14.4304089,28.9017058 C13.5586876,26.8762624 12.6869663,21.1446885 13.6894458,19.2916232 C14.1688925,18.3866379 15.0406138,17.9125979 15.9123351,17.6540307 C15.4789386,16.2185254 13.7330319,0.145342153 32.0827653,0.000969725668 C50.4324988,-0.143402702 48.9515583,15.8786272 48.7762284,17.3954634 C49.3864333,17.8695034 49.9966382,18.5159215 50.4324988,19.4640014 C51.1298759,21.0584994 50.6068431,23.256321 49.8222939,26.1867498 C49.6479497,26.7900733 49.5171915,27.3503024 49.4300193,27.6950587 C48.9941587,29.8928803 47.5994046,30.9271492 46.509753,31.6597564 C42.6305931,41.6576899 36.7464743,42.9505261 32.0827653,42.9505261 C25.8063719,42.9505261 20.4452859,38.7703557 17.5250195,31.7459455 Z" id="路径备份"/></g></g></g></g></g></svg>