<?xml version="1.0" encoding="UTF-8"?><svg width="82px" height="82px" viewBox="0 0 82 82" version="1.1" xmlns="http://www.w3.org/2000/svg" xmlns:xlink="http://www.w3.org/1999/xlink"><title>单单返@4x</title><g id="--🟠ICON" stroke="none" stroke-width="1" fill="none" fill-rule="evenodd"><g id="白条" transform="translate(-334.000000, -378.000000)"><g id="单单返" transform="translate(304.000000, 378.000000)"><g transform="translate(30.000000, 0.000000)" id="编组-76"><g transform="translate(9.065574, 10.000000)"><path d="M57.2257522,32.4678053 L57.1767923,32.6931253 C54.821421,31.6062815 52.1987259,31 49.4344262,31 C39.2171584,31 30.9344262,39.2827321 30.9344262,49.5 C30.9344262,53.4105703 32.1477711,57.0377487 34.2185294,60.0256038 C27.124339,62.6347579 19.5517678,62.701749 13.1692185,59.9642494 C-2.33853492,53.1999638 -0.698881946,39.6160856 1.16793084,34.3911242 C2.94081383,29.4290597 9.49733961,27.2900462 13.8940483,20.7251203 C15.1544789,18.8431141 15.7061655,16.7281713 16.1250579,14.585712 L16.2233373,14.0710986 C16.2875503,13.7278111 16.3495434,13.3842398 16.4116755,13.0412261 L16.5527029,12.2707415 C17.6032216,6.63262844 19.173309,1.31814537 31.860296,0.106964641 C49.0422427,-1.4392556 61.0355741,13.9929121 57.2257522,32.4678053 Z" id="Combined-Shape" fill="#333333"/><circle id="椭圆形备份" fill="#333333" cx="49.4344262" cy="49.5" r="13.5"/><path d="M43.8104262,56 L45.4844262,53.624 L47.1584262,56 L50.2544262,56 L47.0324262,51.428 L50.1464262,47 L47.0504262,47 L45.4844262,49.232 L43.9184262,47 L40.8224262,47 L43.9364262,51.428 L40.7144262,56 L43.8104262,56 Z M55.1144262,56.252 C57.5444262,56.252 59.7044262,54.812 59.7044262,52.04 C59.7044262,49.268 57.7244262,47.828 55.3844262,47.828 L54.3584262,47.828 L54.4844262,46.1 L59.0744262,46.1 L59.0744262,43.4 L51.7844262,43.4 L51.2624262,50.636 L55.2044262,50.636 C56.3024262,50.636 56.8244262,51.266 56.8244262,52.04 C56.8244262,52.814 56.3024262,53.444 55.1144262,53.444 C53.9264262,53.444 53.3864262,52.94 53.0984262,52.112 L50.6144262,53.552 C51.3884262,55.406 53.1164262,56.252 55.1144262,56.252 Z" id="x5" fill="#FFFFFF"/><path d="M23.8684618,19.7861082 C25.1945057,20.8584592 23.3020189,32.0729565 17.0136741,33.5040138 C10.8185906,34.1366445 14.5530153,29.8982228 16.1939428,28.5648456 C17.8348704,27.2314683 19.4462862,25.3447165 20.4565877,23.165966 C21.1123017,21.7518959 22.5678792,18.7343474 23.8684618,19.7861082 Z" id="路径-18" fill="#FFFFFF"/></g></g></g></g></g></svg>