<?xml version="1.0" encoding="UTF-8"?><svg width="82px" height="82px" viewBox="0 0 82 82" version="1.1" xmlns="http://www.w3.org/2000/svg" xmlns:xlink="http://www.w3.org/1999/xlink"><title>定投加油站@4x</title><g id="--🟠ICON" stroke="none" stroke-width="1" fill="none" fill-rule="evenodd"><g id="财富" transform="translate(-620.000000, -1020.000000)"><g id="定投加油站" transform="translate(590.000000, 1020.000000)"><g id="ICON" transform="translate(30.000000, 0.000000)"><g id="编组-39" transform="translate(13.000000, 13.000000)"><path d="M65,7 L65,12.2479808 L61.9580231,12.2478988 C60.4978027,12.2477238 59.3140283,13.4314343 59.3139889,14.8916547 L59.3141246,14.8917903 L59.3147526,40.7119464 C59.3149523,43.6323872 56.9475249,45.9999297 54.0270842,46.0000008 L54.0270199,45.9999847 L48.3333333,45.9998721 L48.3333333,40.7518913 L51.4102087,40.7513706 C52.870229,40.7506116 54.0536884,39.5669808 54.0542358,38.1069603 L54.054,22 L48,22 L48,17 L54.054,17 L54.0548639,12.2879257 C54.0550635,9.36753521 56.4225277,7.00012864 59.3429182,7 L65,7 Z" id="形状结合" fill="#333333"/><path d="M0,56 L0,50.7 L2.666,50.7 L2.66666667,4.48974822 C2.66666667,2.01012875 4.67679542,2.23185555e-15 7.15641489,0 L43.8435851,0 C46.3232046,-4.55498708e-16 48.3333333,2.01012875 48.3333333,4.48974822 L48.333,50.7 L51.3478261,50.7 L51.3478261,56 L0,56 Z" id="形状结合" fill="#333333"/><path d="M39.5010144,19.0425532 L28.064699,19.0425532 C27.5124142,19.0425532 27.064699,19.4902684 27.064699,20.0425532 L27.064699,23.3880745 L27.064699,23.3880745 L31.2754027,23.3873937 L25.4422071,29.7110256 L20.5400353,25.890296 C19.6190855,25.2061374 18.5211915,25.1628144 17.7028131,25.7927091 L11.7371266,32.1352814 C11.3605432,32.5356557 11.3776851,33.1649111 11.7755074,33.5441895 L13.5578509,35.2434513 C13.9575805,35.624548 14.5905653,35.6094431 14.971662,35.2097135 C14.9795114,35.2014802 14.9872198,35.1931137 14.9947838,35.1846174 L19.1081648,30.5642515 L19.1081648,30.5642515 L24.1826149,34.4697559 L24.3373432,34.607655 C25.0422772,35.1618467 26.1761958,35.1515387 27.0059908,34.5502335 L34.5542797,26.551571 L40.1902213,20.6546122 C40.5540115,20.2739738 40.5403533,19.6704951 40.1597149,19.3067048 C39.9823241,19.1371659 39.7463936,19.0425532 39.5010144,19.0425532 Z" id="Fill-3备份" fill="#FFFFFF"/></g></g></g></g></g></svg>