<?xml version="1.0" encoding="UTF-8"?><svg width="82px" height="82px" viewBox="0 0 82 82" version="1.1" xmlns="http://www.w3.org/2000/svg" xmlns:xlink="http://www.w3.org/1999/xlink"><title>定投专区@4x</title><g id="--🟠ICON" stroke="none" stroke-width="1" fill="none" fill-rule="evenodd"><g id="财富" transform="translate(-188.000000, -1606.000000)"><g id="定投专区" transform="translate(158.000000, 1606.000000)"><g id="ICON" transform="translate(30.000000, 0.000000)"><g id="编组-7" transform="translate(11.000000, 14.000000)"><path d="M16.6707599,0 C17.4048789,5.17173198e-16 18,0.595121054 18,1.32924008 L18,4 L42,4 L42,1.32924008 C42,0.595121054 42.5951211,3.56900082e-16 43.3292401,0 L48.6707599,0 C49.4048789,5.17173198e-16 50,0.595121054 50,1.32924008 L50,4 L55,4 C57.7614237,4 60,6.23857625 60,9 L60,16 C60,16.2677744 59.973688,16.5294033 59.9235084,16.7824424 L59.8876389,16.941029 C59.4018489,14.6882338 57.3980785,13 55,13 L55,13 L5,13 C2.60192148,13 0.598151082,14.6882338 0.112361062,16.941029 L0.0764915968,16.7824424 C0.0263120074,16.5294033 -7.48650811e-17,16.2677744 0,16 L0,9 C-3.38176876e-16,6.23857625 2.23857625,4 5,4 L10,4 L10,1.32924008 C10,0.595121054 10.5951211,3.56900082e-16 11.3292401,0 L16.6707599,0 Z" id="形状结合" fill="#333333"/><path d="M5,16 L55,16 C57.7614237,16 60,18.2385763 60,21 L60,51 C60,53.7614237 57.7614237,56 55,56 L5,56 C2.23857625,56 -5.50001544e-16,53.7614237 0,51 L0,21 C-3.38176876e-16,18.2385763 2.23857625,16 5,16 Z" id="矩形备份-3" fill="#333333"/><path d="M45.7014802,26 L31.7874219,26 C31.2351372,26 30.7874219,26.4477153 30.7874219,27 L30.7874219,31.1381006 L30.7874219,31.1381006 L35.7291884,31.1372957 L28.8832329,38.6142944 L23.1299457,34.0967022 C22.0491005,33.28776 20.76059,33.2365352 19.8001247,33.9813164 L12.6728106,41.6155263 C12.2996936,42.0151793 12.3167244,42.6404043 12.7110445,43.0191529 L15.0626415,45.2778863 C15.4609511,45.6604669 16.0939877,45.647716 16.4765683,45.2494063 C16.4861605,45.2394198 16.4955442,45.229235 16.5047135,45.2188587 L21.4494736,39.6231402 L21.4494736,39.6231402 L27.4049502,44.2409693 L27.5865424,44.4040197 C28.4138672,45.0592904 29.7446568,45.0471023 30.7185208,44.3361252 L39.5773442,34.8785871 L46.418081,27.6675507 C46.7935253,27.2717831 46.7770499,26.6465922 46.3812822,26.2711479 C46.1977617,26.0970515 45.9544413,26 45.7014802,26 Z" id="路径" fill="#FFFFFF"/></g></g></g></g></g></svg>