<?xml version="1.0" encoding="UTF-8"?><svg width="82px" height="82px" viewBox="0 0 82 82" version="1.1" xmlns="http://www.w3.org/2000/svg" xmlns:xlink="http://www.w3.org/1999/xlink"><title>订单公益@4x</title><g id="--🟠ICON" stroke="none" stroke-width="1" fill="none" fill-rule="evenodd"><g id="白条" transform="translate(-46.000000, -378.000000)"><g id="订单公益" transform="translate(16.000000, 378.000000)"><g id="ICON" transform="translate(30.000000, 0.000000)"><g id="编组-12" transform="translate(9.000000, 9.000000)"><rect id="Rectangle" fill="#333333" x="0" y="0" width="64" height="64" rx="32"/><path d="M31.9978489,19.813258 C37.3522555,19.813258 40.3004548,21.923055 42.863535,25.2237971 C44.2576226,27.0191071 45.2516741,29.1667455 45.7040596,31.5188596 C47.4557348,33.3068531 48.478367,35.4592346 48.478367,37.7754474 C48.478367,41.522792 45.8016046,44.841305 41.6880402,46.8804715 L41.2336476,47.09781 C38.703796,48.2648091 35.6729278,48.9601095 32.4088747,49 L31.6978519,48.9985221 C22.8498275,48.8477379 15.7446482,43.8807366 15.7446482,37.7754474 C15.7446482,35.5860897 16.6583322,33.5431091 18.2384212,31.8161193 C18.5957295,29.7294226 19.3788433,27.7964604 20.4900645,26.1183969 C23.0126372,22.3090411 26.6434422,19.813258 31.9978489,19.813258 Z M33.7015859,33.0388194 L31.4037678,33.0388194 L31.2522618,33.0437357 C29.9074192,33.1316085 29.0788781,34.3806493 29.6660025,35.4346671 L29.73711,35.5509087 L30.8860191,36.5797507 L31.0390153,36.6932797 C31.1105182,36.7405957 31.1865008,36.7837232 31.2661914,36.8226624 L31.3884119,36.8779298 L31.3889584,38.6103074 L31.3871597,38.7428136 C31.3569855,39.818435 30.9422877,40.1837282 29.7757903,40.1837282 C29.4967302,40.1837282 29.1561741,40.0155402 28.7403552,39.6048251 C28.2814407,39.1515433 27.5437314,39.1579122 27.0926355,39.6190504 C26.6415395,40.0801886 26.6478777,40.8214724 27.1067923,41.2747542 C27.9257844,42.0836939 28.8200394,42.5253333 29.7757903,42.5253333 C30.9453588,42.5253333 31.8859183,42.2091986 32.554528,41.6179897 C33.2232678,42.2095198 34.1634657,42.5253333 35.3324399,42.5253333 C36.2881908,42.5253333 37.1824458,42.0836939 38.0014379,41.2747542 C38.4603525,40.8214724 38.4666907,40.0801886 38.0155947,39.6190504 C37.5644987,39.1579122 36.8267895,39.1515433 36.367875,39.6048251 C35.9520561,40.0155402 35.6115,40.1837282 35.3324399,40.1837282 C34.2242674,40.1837282 33.794594,39.8540511 33.7285264,38.8988725 L33.7210705,38.7428136 L33.7199899,36.8716449 C33.8438538,36.8201734 33.9610505,36.7597726 34.0691776,36.6904426 L34.2242656,36.5797507 L35.3731746,35.5509087 L35.4437895,35.4346671 C36.0266341,34.3806493 35.1979401,33.1316085 33.8530921,33.0437357 L33.7015859,33.0388194 Z M27.0301082,29.7212704 C26.0071572,29.7212704 25.1778916,30.5403575 25.1778916,31.5507526 C25.1778916,32.5611478 26.0071572,33.3802349 27.0301082,33.3802349 C28.0530592,33.3802349 28.8823248,32.5611478 28.8823248,31.5507526 C28.8823248,30.5403575 28.0530592,29.7212704 27.0301082,29.7212704 Z M37.1149401,29.7212704 C36.0919891,29.7212704 35.2627235,30.5403575 35.2627235,31.5507526 C35.2627235,32.5611478 36.0919891,33.3802349 37.1149401,33.3802349 C38.1378911,33.3802349 38.9671567,32.5611478 38.9671567,31.5507526 C38.9671567,30.5403575 38.1378911,29.7212704 37.1149401,29.7212704 Z M42.9871598,19 C44.7285023,19 50.0299514,20.3938805 50.9053858,23.3450203 C51.3687327,24.9069895 50.0255829,26.8210366 49.14578,27.6900407 C48.2870919,28.5381892 46.5454296,29.4280488 44.7467656,25.9520326 C42.9481016,22.4760163 39.5351965,20.7380081 38.6553936,19.8690041 C37.8658269,19.0891286 40.5650266,19.0091414 42.3988345,19.0009376 Z M25.3446064,19.8690041 C24.4648035,20.7380081 21.0518984,22.4760163 19.2532344,25.9520326 C17.4545704,29.4280488 15.7129081,28.5381892 14.85422,27.6900407 C13.9744171,26.8210366 12.6312673,24.9069895 13.0946142,23.3450203 C13.9700486,20.3938805 19.2714977,19 21.0128402,19 L21.6011655,19.0009376 C23.4349734,19.0091414 26.1341731,19.0891286 25.3446064,19.8690041 Z" id="形状结合" fill="#FFFFFF"/></g></g></g></g></g></svg>