<?xml version="1.0" encoding="UTF-8"?><svg width="82px" height="82px" viewBox="0 0 82 82" version="1.1" xmlns="http://www.w3.org/2000/svg" xmlns:xlink="http://www.w3.org/1999/xlink"><title>多花多攒@4x</title><g id="--🟠ICON" stroke="none" stroke-width="1" fill="none" fill-rule="evenodd"><g id="财富" transform="translate(-476.000000, -3726.000000)"><g id="多花多攒" transform="translate(446.000000, 3726.000000)"><g id="ICON" transform="translate(30.000000, 0.000000)"><g id="编组-12" transform="translate(13.000000, 13.000000)"><path d="M7.43871749,0 L48.5612825,0 C51.4146504,6.32080116e-15 53.7604193,2.25006397 53.8792066,5.10095816 L55.7689951,50.4558815 C55.8913704,53.3928899 53.6096595,55.8730104 50.6726512,55.9953857 C50.5988311,55.9984616 50.5249551,56 50.451071,56 L5.54892901,56 C2.60937226,56 0.226390686,53.6170184 0.226390686,50.6774617 C0.226390686,50.6035776 0.227929103,50.5297015 0.231004937,50.4558815 L2.12079341,5.10095816 C2.23958067,2.25006397 4.58534964,2.30051201e-15 7.43871749,0 Z" id="矩形" fill="#333333"/><path d="M20,8.92682927 L20,11.6492851 L20,11.6492851 C20,17.5499922 23.2805808,21.6341463 28,21.6341463 C32.6190061,21.6341463 35.8597495,17.7219372 35.9955624,12.0234371 L36,11.6492851 L36,8.92682927 C36,8.37454452 36.4477153,7.92682927 37,7.92682927 L40.3333333,7.92682927 C40.8856181,7.92682927 41.3333333,8.37454452 41.3333333,8.92682927 L41.3333333,11.6492851 L41.3333333,11.6492851 C41.3333333,20.3577939 35.9196419,27.097561 28,27.097561 C20.2080942,27.097561 14.8419538,20.5734525 14.6708795,12.0691081 L14.6666667,11.6492851 L14.6666667,8.92682927 C14.6666667,8.37454452 15.1143819,7.92682927 15.6666667,7.92682927 L19,7.92682927 C19.5522847,7.92682927 20,8.37454452 20,8.92682927 Z" id="路径" fill="#FFFFFF"/></g></g></g></g></g></svg>