<?xml version="1.0" encoding="UTF-8"?><svg width="82px" height="82px" viewBox="0 0 82 82" version="1.1" xmlns="http://www.w3.org/2000/svg" xmlns:xlink="http://www.w3.org/1999/xlink"><title>问答备份 4@4x</title><g id="--🟠ICON" stroke="none" stroke-width="1" fill="none" fill-rule="evenodd"><g id="财富" transform="translate(-43.000000, -5290.000000)"><g id="ETF专题" transform="translate(13.000000, 5290.000000)"><g id="ICON" transform="translate(30.000000, 0.000000)"><g id="问答" transform="translate(11.000000, 14.003443)"><path d="M0,46.9965567 L0,5 C-3.38176876e-16,2.23857625 2.23857625,-3.80913106e-16 5,0 L56,0 C58.7614237,-0.000633865135 61,2.23794239 61,4.99936613 C61,4.99957744 61,4.99978874 60.9993661,4.99999996 L60.9940417,46.9965568 C60.9930577,49.7577329 58.754584,51.9959228 55.9934078,51.9965567 L45,51.9965567 L45,51.9965567 L45,58.0384797 C45,59.695334 43.6568542,61.0384797 42,61.0384797 C41.5151326,61.0384797 41.0374898,60.9209562 40.607979,60.6959743 L24,51.9965567 L24,51.9965567 L5,51.9965567 C2.23857625,51.9965567 -4.73841006e-15,49.7579805 0,46.9965567 Z" id="路径" fill="#333333"/><path d="M19.7674419,36.2523707 L20.8372093,31.9733009 L12.2790698,31.9733009 L13.3488372,28.7639986 L20.8372093,28.7639986 L20.8372093,24.4849288 L14.4186047,24.4849288 L14.4186047,21.2756265 L22.9767442,21.2756265 L24.0465116,16.9965567 L12.2790698,16.9965567 L8,36.2523707 L19.7674419,36.2523707 Z M30.4651163,36.2523707 L33.6744186,21.2756265 L37.9534884,21.2756265 L39.0232558,16.9965567 L26.1860465,16.9965567 L25.1162791,21.2756265 L29.3953488,21.2756265 L26.1860465,36.2523707 L30.4651163,36.2523707 Z M41.1627907,36.2523707 L43.3023256,28.7639986 L50.7906977,28.7639986 L50.7906977,24.4849288 L43.3023256,24.4849288 L44.372093,21.2756265 L52.9302326,21.2756265 L54,16.9965567 L42.2325581,16.9965567 L37.9534884,36.2523707 L41.1627907,36.2523707 Z" id="ETF" fill="#FFFFFF"/></g></g></g></g></g></svg>