<?xml version="1.0" encoding="UTF-8"?><svg width="82px" height="82px" viewBox="0 0 82 82" version="1.1" xmlns="http://www.w3.org/2000/svg" xmlns:xlink="http://www.w3.org/1999/xlink"><title>ETF指数图@4x</title><g id="--🟠ICON" stroke="none" stroke-width="1" fill="none" fill-rule="evenodd"><g id="财富" transform="translate(-188.000000, -2652.000000)"><g id="ETF指数图" transform="translate(158.000000, 2652.000000)"><g id="ICON" transform="translate(30.000000, 0.000000)"><g id="编组-17" transform="translate(13.000000, 13.000000)"><rect id="矩形" fill="#333333" x="0" y="0" width="56" height="56" rx="5"/><path d="M16.7674419,38.255814 L17.8372093,33.9767442 L9.27906977,33.9767442 L10.3488372,30.7674419 L17.8372093,30.7674419 L17.8372093,26.4883721 L11.4186047,26.4883721 L11.4186047,23.2790698 L19.9767442,23.2790698 L21.0465116,19 L9.27906977,19 L5,38.255814 L16.7674419,38.255814 Z M27.4651163,38.255814 L30.6744186,23.2790698 L34.9534884,23.2790698 L36.0232558,19 L23.1860465,19 L22.1162791,23.2790698 L26.3953488,23.2790698 L23.1860465,38.255814 L27.4651163,38.255814 Z M38.1627907,38.255814 L40.3023256,30.7674419 L47.7906977,30.7674419 L47.7906977,26.4883721 L40.3023256,26.4883721 L41.372093,23.2790698 L49.9302326,23.2790698 L51,19 L39.2325581,19 L34.9534884,38.255814 L38.1627907,38.255814 Z" id="ETF" fill="#FFFFFF"/></g></g></g></g></g></svg>