<?xml version="1.0" encoding="UTF-8"?><svg width="82px" height="82px" viewBox="0 0 82 82" version="1.1" xmlns="http://www.w3.org/2000/svg" xmlns:xlink="http://www.w3.org/1999/xlink"><title>é˜²ç™Œé™©å¤‡ä»½ 3@4x</title><g id="--ðŸŸ ICON" stroke="none" stroke-width="1" fill="none" fill-rule="evenodd"><g id="ä¿é™©" transform="translate(-620.000000, -118.000000)"><g id="é˜²ç™Œé™©" transform="translate(590.000000, 118.000000)"><g id="ICON" transform="translate(30.000000, 0.000000)"><g id="ç¼–ç»„-9" transform="translate(15.000810, 11.000000)"><path d="M5,0 L47,0 C49.7614237,-5.07265313e-16 52,2.23857625 52,5 L52,45 C52,53.836556 44.836556,61 36,61 L5,61 C2.23857625,61 3.38176876e-16,58.7614237 0,56 L0,5 C-3.38176876e-16,2.23857625 2.23857625,-3.80913106e-16 5,0 Z" id="çŸ©å½¢" fill="#333333"/><path d="M25.9992369,12 C27.1037803,12 27.9991897,12.8954009 27.9991897,13.999934 L27.9991762,14.0815256 C28.0086252,18.8319441 28.844886,22.0522827 30.5373599,23.9357994 C30.6134825,23.4075043 30.6947481,22.9538898 30.7794318,22.5919453 L30.7794318,22.5919453 C31.4594662,19.5919917 35.2616588,18.926002 37.8937921,22.0359539 C41.3059649,25.9258938 47.5442808,41.8156484 41.4039698,45.0395986 C36.0416982,47.8175557 31.4594662,43.9276158 30.7794318,41.4836535 C29.9751294,38.6681479 29.8766925,33.1793534 30.1107676,28.6855435 C28.3706302,27.7292209 26.9983846,26.2570251 25.9988285,24.3009567 C24.9999948,26.2570251 23.6277492,27.7292209 21.8874209,28.6868883 C22.1216869,33.1793534 22.02325,38.6681479 21.2189476,41.4836535 C20.5389132,43.9276158 15.9566811,47.8175557 10.5944095,45.0395986 C4.45409858,41.8156484 10.6924145,25.9258938 14.1045873,22.0359539 C16.7367206,18.926002 20.5389132,19.5919917 21.2209477,22.5919453 L21.2189476,22.5919453 C21.3036313,22.9538898 21.3848968,23.4075043 21.4608633,23.9343077 C23.1631654,22.0415189 23.9992842,18.7950938 23.9992842,13.999934 C23.9992842,13.3472554 24.3119375,12.7676001 24.7956449,12.4025661 L24.9101472,12.3222017 C25.2234922,12.1184001 25.5974903,12 25.9991424,12 L25.9991424,12 L25.9992369,12 Z" id="å½¢çŠ¶ç»“åˆ" fill="#FFFFFF"/></g></g></g></g></g></svg>