<?xml version="1.0" encoding="UTF-8"?><svg width="82px" height="82px" viewBox="0 0 82 82" version="1.1" xmlns="http://www.w3.org/2000/svg" xmlns:xlink="http://www.w3.org/1999/xlink"><title>分期免息备份 5@4x</title><g id="--🟠ICON" stroke="none" stroke-width="1" fill="none" fill-rule="evenodd"><g id="白条" transform="translate(-622.000000, -118.000000)"><g id="分期商城" transform="translate(592.000000, 118.000000)"><g id="ICON" transform="translate(30.000000, 0.000000)"><g id="分期免息" transform="translate(11.000000, 13.000000)"><path d="M43.1006886,4.39650603 C43.1872067,4.53851619 43.2677856,4.68406064 43.3422167,4.83276262 L46.9286815,11.9994394 L19.0856815,11.9994394 L34.8524145,2.39362996 C37.6831915,0.669010927 41.3760696,1.56572909 43.1006886,4.39650603 Z" id="形状结合" fill="#333333"/><path d="M7.00807451,0 C8.45713022,0 9.72023477,1.00620295 10.0716824,2.44050367 L12.8947368,13.9617337 L55.7894737,13.9617337 C58.1148832,13.9617337 60,15.8850818 60,18.2576518 L60,23.6275494 L57.5852632,23.6275494 L53.9543437,46.8221287 C53.1945769,52.0933206 48.7620175,55.9993483 43.540037,55.9993483 L14.1284586,56 L14.1236978,55.9919258 C16.1944538,54.1597681 17.5,51.4823473 17.5,48.5 C17.5,42.9771525 13.0228475,38.5 7.5,38.5 C6.39292447,38.5 5.32786675,38.6798996 4.33246578,39.01206 L4.20955088,38.7981858 L4.21015308,25.4541578 C4.210401,19.9604544 3.54967907,14.4866739 2.24223091,9.15081826 L0,0 L7.00807451,0 Z" id="形状结合" fill="#333333"/><path d="M19.4,33.268 C24.608,31.8866667 28.164,28.956 30.068,24.476 L30.068,24.476 L25.784,24.476 C24.7386667,26.996 22.6106667,29.0026667 19.4,30.496 L19.4,30.496 L19.4,33.268 Z M44.6,33.268 L44.6,30.496 C43.0693333,29.7866667 41.8093333,29.012 40.82,28.172 C39.6066667,27.1266667 38.7106667,25.8946667 38.132,24.476 L38.132,24.476 L33.904,24.476 C35.7706667,28.9373333 39.336,31.868 44.6,33.268 L44.6,33.268 Z M24.076,45.896 C26.484,43.1333333 28.3133333,39.792 29.564,35.872 L29.564,35.872 L38.216,35.872 L38.216,40.912 C38.216,42.2746667 37.488,43.0866667 36.032,43.348 L36.032,43.348 L36.032,45.896 C38.328,45.8586667 39.924,45.4666667 40.82,44.72 C41.828,43.8986667 42.332,42.3866667 42.332,40.184 L42.332,40.184 L42.332,33.156 L21.388,33.156 L21.388,35.872 L25.42,35.872 C24.4493333,39.344 22.9746667,42.6853333 20.996,45.896 L20.996,45.896 L24.076,45.896 Z" id="分" fill="#FFFFFF"/><path d="M7.5,41 C11.6421356,41 15,44.3578644 15,48.5 C15,52.6421356 11.6421356,56 7.5,56 C3.35786438,56 0,52.6421356 0,48.5 C0,44.3578644 3.35786438,41 7.5,41 Z" id="路径备份" fill="#333333"/></g></g></g></g></g></svg>