<?xml version="1.0" encoding="UTF-8"?><svg width="82px" height="82px" viewBox="0 0 82 82" version="1.1" xmlns="http://www.w3.org/2000/svg" xmlns:xlink="http://www.w3.org/1999/xlink"><title>高端理财@4x</title><g id="--🟠ICON" stroke="none" stroke-width="1" fill="none" fill-rule="evenodd"><g id="财富" transform="translate(-45.000000, -254.000000)"><g id="高端理财" transform="translate(14.000000, 254.000000)"><g id="ICON" transform="translate(31.000000, 0.000000)"><g id="高端理财" transform="translate(12.000000, 13.000000)"><path d="M57.9999783,36.2869522 C57.8604017,49.2667533 46.8303321,60 33.4975503,60 L33.4975503,60 L9.96287562,60 C9.76954469,60 9.57663568,59.9819565 9.38665815,59.9461042 C7.70035761,59.6278681 6.59132227,58.0028701 6.90955839,56.3165695 L6.90955839,56.3165695 L7.19025897,54.8269263 L30.0815815,54.8275862 C42.5563576,54.8275862 53.3178474,47.2719524 57.8210933,36.7135362 Z" id="形状结合" fill="#333333"/><path d="M6.27341284,51.7241379 L30.0815815,51.7241379 L30.0815815,51.7241379 C45.3513292,51.7241379 57.834348,39.0789453 56.9181631,24.186396 C56.078327,10.7121846 44.6260162,0 30.654197,0 L20.1562454,0 C14.2773925,0 9.2002014,4.10571536 8.09314469,9.7790675 L1.18851064,45.5643367 C0.646656955,48.3726506 2.48398601,51.0884981 5.29229995,51.6303518 C5.61561228,51.6927337 5.94413732,51.7241379 6.27341284,51.7241379 Z" id="路径备份-2" fill="#333333"/><ellipse id="椭圆形" fill="#FFFFFF" cx="38.3222992" cy="19.6551724" rx="5.17868908" ry="5.17241379"/></g></g></g></g></g></svg>