<?xml version="1.0" encoding="UTF-8"?><svg width="82px" height="82px" viewBox="0 0 82 82" version="1.1" xmlns="http://www.w3.org/2000/svg" xmlns:xlink="http://www.w3.org/1999/xlink"><title>工资理财@4x</title><g id="--🟠ICON" stroke="none" stroke-width="1" fill="none" fill-rule="evenodd"><g id="财富" transform="translate(-620.000000, -4084.000000)" fill="#333333"><g id="工资理财" transform="translate(590.000000, 4084.000000)"><g id="ICON" transform="translate(30.000000, 0.000000)"><g id="编组-28" transform="translate(11.000000, 10.771224)"><path d="M51.7795475,3.65966979 C51.7832869,3.67437137 51.7869574,3.68909041 51.7905589,3.7038264 L53.4669813,10.5631717 C53.5212427,10.7851904 53.559287,11.0074031 53.5818672,11.228557 L6.07157269,11.2280467 C6.70411148,10.4679613 7.57374495,9.89366877 8.60459294,9.6314668 L45.8771015,0.150995142 C48.4759107,-0.510026556 51.1185258,1.06086059 51.7795475,3.65966979 Z" id="形状结合" transform="translate(29.826720, 5.614278) scale(-1, -1) rotate(-180.000000) translate(-29.826720, -5.614278) "/><path d="M55,14.2287763 C57.7614237,14.2287763 60,16.4673525 60,19.2287763 L59.999,32.2287763 L51.08,32.2287763 C47.7221087,32.2287763 45,34.9150678 45,38.2287763 C45,41.5424848 47.7221087,44.2287763 51.08,44.2287763 L59.999,44.2287763 L60,55.2287763 C60,57.9902 57.7614237,60.2287763 55,60.2287763 L5,60.2287763 C2.23857625,60.2287763 -1.81738399e-13,57.9902 -1.81188398e-13,55.2287763 L-1.81188398e-13,19.2287763 C-1.81526574e-13,16.4673525 2.23857625,14.2287763 5,14.2287763 L55,14.2287763 Z M52,35.2287763 C53.6568542,35.2287763 55,36.571922 55,38.2287763 C55,39.8856305 53.6568542,41.2287763 52,41.2287763 C50.3431458,41.2287763 49,39.8856305 49,38.2287763 C49,36.571922 50.3431458,35.2287763 52,35.2287763 Z" id="形状结合" transform="translate(30.000000, 37.228776) rotate(-180.000000) translate(-30.000000, -37.228776) "/></g></g></g></g></g></svg>