<?xml version="1.0" encoding="UTF-8"?><svg width="82px" height="82px" viewBox="0 0 82 82" version="1.1" xmlns="http://www.w3.org/2000/svg" xmlns:xlink="http://www.w3.org/1999/xlink"><title>å·¥èµ„è®¡ç®—å™¨@4x</title><g id="--ðŸŸ ICON" stroke="none" stroke-width="1" fill="none" fill-rule="evenodd"><g id="è´¢å¯Œ" transform="translate(-46.000000, -6580.000000)"><g id="å·¥èµ„è®¡ç®—å™¨" transform="translate(16.000000, 6580.000000)"><g id="ICON" transform="translate(30.000000, 0.000000)"><g id="ç¼–ç»„-3" transform="translate(17.000000, 11.000000)"><path d="M5,0 L44,0 C46.7614237,-5.07265313e-16 49,2.23857625 49,5 L49,54 C49,56.7614237 46.7614237,59 44,59 L5,59 C2.23857625,59 3.38176876e-16,56.7614237 0,54 L0,5 C-3.38176876e-16,2.23857625 2.23857625,5.07265313e-16 5,0 Z" id="çŸ©å½¢" fill="#333333"/><path d="M15,42 C15.5522847,42 16,42.4477153 16,43 L16,50 C16,50.5522847 15.5522847,51 15,51 L8,51 C7.44771525,51 7,50.5522847 7,50 L7,43 C7,42.4477153 7.44771525,42 8,42 L15,42 Z M28,42 C28.5522847,42 29,42.4477153 29,43 L29,50 C29,50.5522847 28.5522847,51 28,51 L21,51 C20.4477153,51 20,50.5522847 20,50 L20,43 C20,42.4477153 20.4477153,42 21,42 L28,42 Z M41,42 C41.5522847,42 42,42.4477153 42,43 L42,50 C42,50.5522847 41.5522847,51 41,51 L34,51 C33.4477153,51 33,50.5522847 33,50 L33,43 C33,42.4477153 33.4477153,42 34,42 L41,42 Z M15,29 C15.5522847,29 16,29.4477153 16,30 L16,37 C16,37.5522847 15.5522847,38 15,38 L8,38 C7.44771525,38 7,37.5522847 7,37 L7,30 C7,29.4477153 7.44771525,29 8,29 L15,29 Z M28,29 C28.5522847,29 29,29.4477153 29,30 L29,37 C29,37.5522847 28.5522847,38 28,38 L21,38 C20.4477153,38 20,37.5522847 20,37 L20,30 C20,29.4477153 20.4477153,29 21,29 L28,29 Z M41,29 C41.5522847,29 42,29.4477153 42,30 L42,37 C42,37.5522847 41.5522847,38 41,38 L34,38 C33.4477153,38 33,37.5522847 33,37 L33,30 C33,29.4477153 33.4477153,29 34,29 L41,29 Z M41,7 C41.5522847,7 42,7.44771525 42,8 L42,21 C42,21.5522847 41.5522847,22 41,22 L8,22 C7.44771525,22 7,21.5522847 7,21 L7,8 C7,7.44771525 7.44771525,7 8,7 L41,7 Z" id="å½¢çŠ¶ç»“åˆ" fill="#FFFFFF"/></g></g></g></g></g></svg>