<?xml version="1.0" encoding="UTF-8"?><svg width="82px" height="82px" viewBox="0 0 82 82" version="1.1" xmlns="http://www.w3.org/2000/svg" xmlns:xlink="http://www.w3.org/1999/xlink"><title>å·¥å…·å¤‡ä»½ 2@4x</title><g id="--ðŸŸ ICON" stroke="none" stroke-width="1" fill="none" fill-rule="evenodd"><g id="ç¤¾åŒº" transform="translate(-620.000000, -118.000000)"><g id="å·¥å…·" transform="translate(590.000000, 118.000000)"><g id="ICON" transform="translate(30.000000, 0.000000)"><g id="å·¥å…·" transform="translate(11.000000, 13.000000)"><path d="M5,8 L55,8 C57.7614237,8 60,10.2385763 60,13 L60,29 L60,29 L0,29 L0,13 C-3.38176876e-16,10.2385763 2.23857625,8 5,8 Z" id="çŸ©å½¢å¤‡ä»½-4" fill="#333333"/><path d="M0,29 L23.5683594,29 L25,19 L35,19 L37.2783203,29 L60,29 L60,50 C60,52.7614237 57.7614237,55 55,55 L5,55 C2.23857625,55 -5.50001544e-16,52.7614237 0,50 L0,29 L0,29 Z" id="çŸ©å½¢å¤‡ä»½-31" fill="#333333"/><path d="M39,0 C41.7614237,-5.07265313e-16 44,2.23857625 44,5 L44,8 L38,8 L38,7 C38,5.8954305 37.1045695,5 36,5 L36,5 L24,5 C22.8954305,5 22,5.8954305 22,7 L22,7 L22,8 L16,8 L16,5 C16,2.23857625 18.2385763,5.07265313e-16 21,0 L39,0 Z" id="å½¢çŠ¶ç»“åˆå¤‡ä»½-9" fill="#333333"/><path d="M30,17 C34.8379226,17 38.8734344,20.4355289 39.7999676,25.0000191 L60,25 L60,30 L39.5419205,30.0008825 C38.2673844,34.0575337 34.4773171,37 30,37 C25.5226829,37 21.7326156,34.0575337 20.4580795,30.0008825 L0,30 L0,25 L20.2000324,25.0000191 C21.1265656,20.4355289 25.1620774,17 30,17 Z M30,22 C27.2385763,22 25,24.2385763 25,27 C25,29.7614237 27.2385763,32 30,32 C32.7614237,32 35,29.7614237 35,27 C35,24.2385763 32.7614237,22 30,22 Z" id="å½¢çŠ¶ç»“åˆ" fill="#FFFFFF"/></g></g></g></g></g></svg>