<?xml version="1.0" encoding="UTF-8"?><svg width="82px" height="82px" viewBox="0 0 82 82" version="1.1" xmlns="http://www.w3.org/2000/svg" xmlns:xlink="http://www.w3.org/1999/xlink"><title>国债逆回购@4x</title><g id="--🟠ICON" stroke="none" stroke-width="1" fill="none" fill-rule="evenodd"><g id="财富" transform="translate(-44.000000, -5158.000000)"><g id="国债逆回购" transform="translate(14.000000, 5158.000000)"><g id="ICON" transform="translate(30.000000, 0.000000)"><g id="编组-8" transform="translate(9.000000, 9.000000)"><rect id="Rectangle" fill="#333333" x="0" y="0" width="64" height="64" rx="32"/><path d="M19,28.4940193 C18.7511918,28.4940193 18.5113132,28.401261 18.3272287,28.2338635 C17.9500552,27.8908802 17.8954572,27.3256024 18.1815354,26.9192874 L18.2601628,26.821241 L25.0748591,19.3272217 C25.2643776,19.1188111 25.533008,19 25.8147033,19 C26.3275392,19 26.7502105,19.3860402 26.8079756,19.8833789 L26.8147033,20 L26.814,23.494 L35.2390197,23.4940193 C41.0380096,23.4940193 45.7390197,28.1950294 45.7390197,33.9940193 C45.7390197,39.7930092 41.0380096,44.4940193 35.2390197,44.4940193 L22.7390197,44.4940193 C22.186735,44.4940193 21.7390197,44.0463041 21.7390197,43.4940193 L21.7390197,40.4940193 C21.7390197,39.9417346 22.186735,39.4940193 22.7390197,39.4940193 L35.2390197,39.4940193 L35.2390197,39.4940193 C38.2024989,39.4940193 40.6185589,37.1502393 40.7346525,34.2152265 L40.7390197,33.9940193 C40.7390197,31.0305402 38.3952397,28.6144802 35.4602269,28.4983865 L35.2390197,28.4940193 L19,28.4940193 Z" id="路径" fill="#FFFFFF"/></g></g></g></g></g></svg>