<?xml version="1.0" encoding="UTF-8"?><svg width="82px" height="82px" viewBox="0 0 82 82" version="1.1" xmlns="http://www.w3.org/2000/svg" xmlns:xlink="http://www.w3.org/1999/xlink"><title>è‚¡ç¥¨@4x</title><g id="--ðŸŸ ICON" stroke="none" stroke-width="1" fill="none" fill-rule="evenodd"><g id="è´¢å¯Œ" transform="translate(-476.000000, -118.000000)" fill="#333333"><g id="è‚¡ç¥¨" transform="translate(446.000000, 118.000000)"><g id="ICON" transform="translate(30.000000, 0.000000)"><g id="è‚¡ç¥¨" transform="translate(14.000000, 12.000000)"><path d="M16,52 L16,60 C16,61.1045695 15.1045695,62 14,62 L9,62 C7.8954305,62 7,61.1045695 7,60 L7,52 L16,52 Z M46,45 L46,53 C46,54.1045695 45.1045695,55 44,55 L39,55 C37.8954305,55 37,54.1045695 37,53 L37,45 L46,45 Z M14,7 C15.1045695,7 16,7.8954305 16,9 L16,17 L7,17 L7,9 C7,7.8954305 7.8954305,7 9,7 L14,7 Z M44,0 C45.1045695,-2.02906125e-16 46,0.8954305 46,2 L46,10 L37,10 L37,2 C37,0.8954305 37.8954305,-1.91384796e-17 39,0 L44,0 Z" id="å½¢çŠ¶ç»“åˆ"/><path d="M5,17 L18,17 C20.7614237,17 23,19.2385763 23,22 L23,47 C23,49.7614237 20.7614237,52 18,52 L5,52 C2.23857625,52 -5.50001544e-16,49.7614237 0,47 L0,22 C-3.38176876e-16,19.2385763 2.23857625,17 5,17 Z" id="Rectangle-2"/><path d="M35,10 L48,10 C50.7614237,10 53,12.2385763 53,15 L53,40 C53,42.7614237 50.7614237,45 48,45 L35,45 C32.2385763,45 30,42.7614237 30,40 L30,15 C30,12.2385763 32.2385763,10 35,10 Z" id="Rectangle-2å¤‡ä»½"/></g></g></g></g></g></svg>