<?xml version="1.0" encoding="UTF-8"?><svg width="82px" height="82px" viewBox="0 0 82 82" version="1.1" xmlns="http://www.w3.org/2000/svg" xmlns:xlink="http://www.w3.org/1999/xlink"><title>å¥½ç‰©é‡‘æ¦œå¤‡ä»½ 4@4x</title><g id="--ðŸŸ ICON" stroke="none" stroke-width="1" fill="none" fill-rule="evenodd"><g id="ç™½æ¡" transform="translate(-334.000000, -248.000000)"><g id="å¥½ç‰©é‡‘æ¦œ" transform="translate(304.000000, 248.000000)"><g id="ç¼–ç»„-5" transform="translate(30.000000, 0.000000)"><rect id="çŸ©å½¢" x="0" y="0" width="82" height="82"/><g id="ç¼–ç»„-3" transform="translate(6.005368, 10.869461)"><path d="M16.9132038,0 L55.0918876,0 C56.9507167,2.32307391e-15 58.6596409,1.0199828 59.5419667,2.65605934 L70.214195,22.4453273 C71.2741086,24.4107006 70.919226,26.8386343 69.3411291,28.4184189 L39.392821,58.3987549 C37.4194017,60.3742847 34.2181459,60.3759956 32.2426161,58.4025762 C32.234566,58.3945348 32.2265432,58.3864662 32.2185476,58.3783706 L2.62852089,28.4181134 C1.0666671,26.8367177 0.720755201,24.4207706 1.77611187,22.4646464 L12.4635345,2.65529963 C13.3459927,1.01964622 15.0546844,3.4140448e-16 16.9132038,0 Z" id="Path-36" fill="#333333"/><path d="M13.1946325,30.8745389 C15.2746325,29.9625389 16.9626325,28.8905389 18.2586325,27.6585389 C19.8426325,28.7145389 21.3546325,29.4745389 22.7946325,29.9385389 L22.7946325,29.9385389 L22.7946325,28.0665389 C21.6426325,27.4905389 20.5786325,26.8425389 19.6026325,26.1225389 C19.7306325,25.9625389 19.8186325,25.8425389 19.8666325,25.7625389 C21.3866325,23.5225389 22.1466325,20.5065389 22.1466325,16.7145389 L22.1466325,16.7145389 L22.1466325,14.9865389 L17.7066325,14.9865389 L18.0186325,12.5385389 L15.3306325,12.5385389 L15.0186325,14.9865389 L13.1946325,14.9865389 L13.1946325,16.7145389 L14.8026325,16.7145389 L13.9386325,23.5305389 C14.5786325,24.5385389 15.4666325,25.4985389 16.6026325,26.4105389 C15.6746325,27.3865389 14.5386325,28.2505389 13.1946325,29.0025389 L13.1946325,29.0025389 L13.1946325,30.8745389 Z M24.5226325,30.8745389 C26.4906325,30.8745389 27.8826325,30.5945389 28.6986325,30.0345389 C29.7066325,29.3465389 30.2106325,28.0665389 30.2106325,26.1945389 L30.2106325,26.1945389 L30.2106325,22.4025389 L34.7946325,22.4025389 L34.7946325,20.4825389 L30.2106325,20.4825389 L30.2106325,19.2825389 L34.0986325,15.1785389 L34.0986325,13.2585389 L23.2986325,13.2585389 L23.2986325,15.1785389 L30.7386325,15.1785389 L27.3786325,18.7065389 L27.3786325,20.4825389 L22.5546325,20.4825389 L22.5546325,22.4025389 L27.3786325,22.4025389 L27.3786325,26.5305389 C27.3786325,27.3785389 27.1386325,27.9945389 26.6586325,28.3785389 C26.2266325,28.7145389 25.5146325,28.9145389 24.5226325,28.9785389 L24.5226325,28.9785389 L24.5226325,30.8745389 Z M17.9226325,24.6345389 C17.4586325,24.1705389 17.0266325,23.6505389 16.6266325,23.0745389 L16.6266325,23.0745389 L17.4666325,16.7145389 L19.6026325,16.7145389 C19.6026325,19.9145389 19.0986325,22.4505389 18.0906325,24.3225389 C18.0426325,24.4345389 17.9866325,24.5385389 17.9226325,24.6345389 Z M53.3946325,30.8985389 C55.1066325,30.7705389 56.3146325,30.4185389 57.0186325,29.8425389 C57.8826325,29.1385389 58.3146325,27.9385389 58.3146325,26.2425389 L58.3146325,26.2425389 L58.3146325,14.4585389 L48.3786325,14.4585389 C48.5226325,14.0425389 48.7386325,13.4025389 49.0266325,12.5385389 L49.0266325,12.5385389 L46.1226325,12.5385389 C45.6426325,14.9865389 45.0906325,17.1705389 44.4666325,19.0905389 L44.4666325,19.0905389 L46.5066325,19.0905389 C46.9386325,18.0665389 47.3146325,17.1625389 47.6346325,16.3785389 L47.6346325,16.3785389 L47.8986325,16.3785389 L47.8986325,18.0345389 C47.8986325,19.8105389 47.6746325,21.7545389 47.2266325,23.8665389 C46.6826325,26.3625389 45.8986325,28.5865389 44.8746325,30.5385389 L44.8746325,30.5385389 L47.0106325,30.5385389 C48.0986325,28.5865389 48.9386325,26.4505389 49.5306325,24.1305389 C50.0906325,21.9385389 50.3706325,19.9065389 50.3706325,18.0345389 L50.3706325,18.0345389 L50.3706325,16.3785389 L51.7146325,16.3785389 L51.7146325,18.2985389 C51.7146325,20.1065389 51.5306325,21.9465389 51.1626325,23.8185389 C50.7466325,25.8825389 50.0186325,28.1225389 48.9786325,30.5385389 L48.9786325,30.5385389 L51.0906325,30.5385389 C52.0506325,28.7465389 52.8266325,26.6105389 53.4186325,24.1305389 C53.9306325,22.0025389 54.1866325,19.9705389 54.1866325,18.0345389 L54.1866325,18.0345389 L54.1866325,16.3785389 L55.5546325,16.3785389 L55.5546325,26.4585389 C55.5546325,27.2905389 55.4026325,27.8905389 55.0986325,28.2585389 C54.7786325,28.6425389 54.2106325,28.8825389 53.3946325,28.9785389 L53.3946325,28.9785389 L53.3946325,30.8985389 Z M43.4586325,30.8985389 L43.4586325,23.6985389 L45.9066325,23.1945389 L45.9066325,21.3465389 L43.4586325,21.8505389 L43.4586325,17.3385389 L44.8026325,17.3385389 L44.8026325,15.4905389 L43.4586325,15.4905389 L43.4586325,12.5385389 L40.7706325,12.5385389 L40.7706325,15.4905389 L39.9066325,15.4905389 C40.0346325,14.6905389 40.1226325,14.0905389 40.1706325,13.6905389 L40.1706325,13.6905389 L37.8186325,13.6905389 C37.6106325,16.4585389 37.3546325,18.7625389 37.0506325,20.6025389 L37.0506325,20.6025389 L38.8266325,20.6025389 C39.2746325,18.5545389 39.5146325,17.4665389 39.5466325,17.3385389 L39.5466325,17.3385389 L40.7706325,17.3385389 L40.7706325,22.4025389 L37.1946325,23.1225389 L37.1946325,24.9945389 L40.7706325,24.2505389 L40.7706325,30.8985389 L43.4586325,30.8985389 Z" id="å¥½ç‰©" fill="#FFFFFF"/><path d="M43.8750264,38.8416767 L45.2926117,40.185294 C45.6840503,40.5563078 45.7107565,41.1708921 45.3529768,41.5744625 L38.239481,49.5983824 C37.1403573,50.838178 35.2442886,50.9522151 34.004493,49.8530914 C33.9145648,49.7733668 33.8295086,49.6883105 33.749784,49.5983824 L26.6362882,41.5744625 C26.2785084,41.1708921 26.3052146,40.5563078 26.6966533,40.185294 L28.1141847,38.8417277 C28.5150267,38.4618012 29.1479646,38.4787566 29.5278911,38.8795986 C29.5355186,38.8876459 29.5430117,38.8958196 29.5503673,38.9041162 L35.9941171,46.1721751 L35.9941171,46.1721751 L42.4388914,38.9040114 C42.8053068,38.4907825 43.4373335,38.4528326 43.8505624,38.8192481 C43.8588406,38.8265884 43.8669964,38.8340657 43.8750264,38.8416767 Z" id="è·¯å¾„" fill="#FFFFFF"/></g></g></g></g></g></svg>