<?xml version="1.0" encoding="UTF-8"?><svg width="82px" height="82px" viewBox="0 0 82 82" version="1.1" xmlns="http://www.w3.org/2000/svg" xmlns:xlink="http://www.w3.org/1999/xlink"><title>黄金定投@4x</title><g id="--🟠ICON" stroke="none" stroke-width="1" fill="none" fill-rule="evenodd"><g id="财富" transform="translate(-188.000000, -5512.000000)"><g id="黄金定投" transform="translate(158.000000, 5512.000000)"><g id="ICON" transform="translate(30.000000, 0.000000)"><g id="编组-7" transform="translate(11.000000, 14.000000)"><path d="M16.6707599,0 C17.4048789,5.17173198e-16 18,0.595121054 18,1.32924008 L18,4 L42,4 L42,1.32924008 C42,0.595121054 42.5951211,3.56900082e-16 43.3292401,0 L48.6707599,0 C49.4048789,5.17173198e-16 50,0.595121054 50,1.32924008 L50,4 L55,4 C57.7614237,4 60,6.23857625 60,9 L60,16 C60,16.2677744 59.973688,16.5294033 59.9235084,16.7824424 L59.8876389,16.941029 C59.4018489,14.6882338 57.3980785,13 55,13 L55,13 L5,13 C2.60192148,13 0.598151082,14.6882338 0.112361062,16.941029 L0.0764915968,16.7824424 C0.0263120074,16.5294033 -7.48650811e-17,16.2677744 0,16 L0,9 C-3.38176876e-16,6.23857625 2.23857625,4 5,4 L10,4 L10,1.32924008 C10,0.595121054 10.5951211,3.56900082e-16 11.3292401,0 L16.6707599,0 Z" id="形状结合" fill="#333333"/><path d="M5,16 L55,16 C57.7614237,16 60,18.2385763 60,21 L60,51 C60,53.7614237 57.7614237,56 55,56 L5,56 C2.23857625,56 -5.50001544e-16,53.7614237 0,51 L0,21 C-3.38176876e-16,18.2385763 2.23857625,16 5,16 Z" id="矩形备份-3" fill="#333333"/><path d="M25.1636116,37.9230769 C26.0514141,37.9230769 26.8093978,38.5642429 26.9566202,39.4397535 L28.2077952,46.880313 C28.374312,47.8705642 27.7065432,48.80831 26.7162919,48.9748267 C26.6166641,48.9915798 26.5158132,49 26.4147867,49 L15.8124677,49 C14.8083136,49 13.9942858,48.1859723 13.9942858,47.1818182 C13.9942858,47.0807916 14.0027061,46.9799408 14.0194591,46.880313 L15.2706341,39.4397535 C15.4178565,38.5642429 16.1758402,37.9230769 17.0636427,37.9230769 L25.1636116,37.9230769 Z M42.9360644,37.9230769 C43.8238669,37.9230769 44.5818505,38.5642429 44.7290729,39.4397535 L45.980248,46.880313 C46.1467647,47.8705642 45.4789959,48.80831 44.4887446,48.9748267 C44.3891168,48.9915798 44.288266,49 44.1872394,49 L33.5849204,49 C32.5807663,49 31.7667386,48.1859723 31.7667386,47.1818182 C31.7667386,47.0807916 31.7751588,46.9799408 31.7919119,46.880313 L33.0430869,39.4397535 C33.1903093,38.5642429 33.9482929,37.9230769 34.8360955,37.9230769 L42.9360644,37.9230769 Z M33.8613287,24 C34.752762,24 35.5127232,24.6462881 35.6559041,25.5261476 L36.8667187,32.966707 C37.0280048,33.9578237 36.3552941,34.8920307 35.3641775,35.0533167 C35.2676263,35.0690287 35.1699645,35.0769231 35.0721432,35.0769231 L24.9275638,35.0769231 C23.9234098,35.0769231 23.109382,34.2628953 23.109382,33.2587413 C23.109382,33.16092 23.1172764,33.0632582 23.1329884,32.966707 L24.3438029,25.5261476 C24.4869839,24.6462881 25.246945,24 26.1383784,24 L33.8613287,24 Z" id="形状结合" fill="#FFFFFF"/></g></g></g></g></g></svg>