<?xml version="1.0" encoding="UTF-8"?><svg width="82px" height="82px" viewBox="0 0 82 82" version="1.1" xmlns="http://www.w3.org/2000/svg" xmlns:xlink="http://www.w3.org/1999/xlink"><title>é»„é‡‘@4x</title><g id="--ðŸŸ ICON" stroke="none" stroke-width="1" fill="none" fill-rule="evenodd"><g id="è´¢å¯Œ" transform="translate(-188.000000, -4220.000000)" fill="#333333"><g id="é»„é‡‘" transform="translate(158.000000, 4220.000000)"><g id="ICON" transform="translate(30.000000, 0.000000)"><g id="é»„é‡‘" transform="translate(7.714443, 15.000000)"><path d="M24.8155583,28 C26.7627504,28 28.4270407,29.402164 28.7575251,31.3211057 L31.5130807,47.3211057 C31.8880236,49.4981939 30.4270963,51.5670239 28.2500081,51.9419668 C28.0257725,51.9805852 27.7986506,52 27.5711138,52 L4,52 C1.790861,52 3.4861003e-14,50.209139 3.46389584e-14,48 C3.46389584e-14,47.7724632 0.0194148068,47.5453413 0.0580331629,47.3211057 L2.81358872,31.3211057 C3.14407312,29.402164 4.80836345,28 6.75555556,28 L24.8155583,28 Z M59.8155583,28 C61.7627504,28 63.4270407,29.402164 63.7575251,31.3211057 L66.5130807,47.3211057 C66.8880236,49.4981939 65.4270963,51.5670239 63.2500081,51.9419668 C63.0257725,51.9805852 62.7986506,52 62.5711138,52 L39,52 C36.790861,52 35,50.209139 35,48 C35,47.7724632 35.0194148,47.5453413 35.0580332,47.3211057 L37.8135887,31.3211057 C38.1440731,29.402164 39.8083634,28 41.7555556,28 L59.8155583,28 Z M41.8970486,0 C43.8524052,-3.59193182e-16 45.5211656,1.41365217 45.8426243,3.34240405 L48.5092909,19.3424041 C48.8724711,21.5214853 47.4003925,23.5823955 45.2213112,23.9455757 C45.0039855,23.9817966 44.7840387,24 44.5637152,24 L22.0073986,24 C19.7982596,24 18.0073986,22.209139 18.0073986,20 C18.0073986,19.7796766 18.025602,19.5597298 18.0618229,19.3424041 L20.7284896,3.34240405 C21.0499482,1.41365217 22.7187087,3.59193182e-16 24.6740653,0 L41.8970486,0 Z" id="å½¢çŠ¶ç»“åˆ"/></g></g></g></g></g></svg>