<?xml version="1.0" encoding="UTF-8"?><svg width="82px" height="82px" viewBox="0 0 82 82" version="1.1" xmlns="http://www.w3.org/2000/svg" xmlns:xlink="http://www.w3.org/1999/xlink"><title>黄金豆@4x</title><g id="--🟠ICON" stroke="none" stroke-width="1" fill="none" fill-rule="evenodd"><g id="财富" transform="translate(-332.000000, -1248.000000)"><g id="黄金豆" transform="translate(302.000000, 1248.000000)"><g id="ICON" transform="translate(30.000000, 0.000000)"><g id="编组-76" transform="translate(12.700483, 10.558647)"><path d="M31.8963575,0.106235706 C50.1957131,-1.52746979 62.6162909,15.9228954 56.364018,35.7935203 C49.9135698,56.9026158 28.2411605,65.9623681 13.1841243,59.5556093 C-2.34118182,52.8374205 -0.699672983,39.3461127 1.16925277,34.156758 C2.94414242,29.2285087 9.50808929,27.1040719 13.9097745,20.5838843 C18.9572034,13.1071606 12.6518924,1.92885215 31.8963575,0.106235706 Z" id="路径-17" fill="#333333"/><path d="M25.576742,18.3278937 C27.1322605,19.5856589 24.912275,32.7391935 17.5357191,34.4176871 C10.2685636,35.1597024 14.6492382,30.1884385 16.5741316,28.6245143 C18.4990251,27.0605901 20.3892997,24.8476104 21.574436,22.2921441 C22.3436227,20.633575 24.0510909,17.0942787 25.576742,18.3278937 Z" id="路径-18" fill="#FFFFFF"/></g></g></g></g></g></svg>