<?xml version="1.0" encoding="UTF-8"?><svg width="82px" height="82px" viewBox="0 0 82 82" version="1.1" xmlns="http://www.w3.org/2000/svg" xmlns:xlink="http://www.w3.org/1999/xlink"><title>还白条@4x</title><g id="--🟠ICON" stroke="none" stroke-width="1" fill="none" fill-rule="evenodd"><g id="财富" transform="translate(-188.000000, -3726.000000)"><g id="还白条" transform="translate(158.000000, 3726.000000)"><g id="ICON" transform="translate(30.000000, 0.000000)"><g id="编组-9" transform="translate(15.000000, 12.000000)"><path d="M46,2.27373675e-12 C48.7614237,2.27813476e-12 51,2.23857625 51,5 L51.0012194,30.408785 C48.3533836,28.8768178 45.2790877,28 42,28 C32.0588745,28 24,36.0588745 24,46 C24,51.1108729 26.1300679,55.7242418 29.5508795,59.0007826 L5,59 C2.23857625,59 -5.50001544e-16,56.7614237 0,54 L0,16 L16.1754057,2.27373675e-12 L46,2.27373675e-12 Z" id="形状结合" fill="#333333"/><path d="M16,0 L16,11 C16,13.7614237 13.7614237,16 11,16 L0,16 L0,16 L16,0 Z" id="矩形" fill="#666666"/><circle id="椭圆形备份" fill="#333333" cx="42" cy="46" r="13"/><path d="M36,45.5 C36,45.2713785 36.0652167,45.062305 36.1730778,44.9017473 L39.7779863,40.2647323 C39.9113445,40.1017723 40.0892683,40 40.2857143,40 C40.6802034,40 41,40.4104056 41,40.9166667 L40.9998714,42.3514812 C41.0952338,42.3648767 41.1907045,42.3799874 41.2862535,42.3968353 C45.6222853,43.1613947 48.5832043,47.2324978 48.2455093,51.7257799 C47.5070702,49.5575341 45.703697,47.8671388 43.3685645,47.4553919 C42.5605776,47.312922 41.7600576,47.336081 40.9991442,47.5012584 L41,50.0833333 L41,50.0833333 C41,50.5895944 40.6802034,51 40.2857143,51 C40.1206784,51 39.9687151,50.9281709 39.847771,50.8075442 L39.7779863,50.7296969 L36.2493884,46.195956 C36.0967183,46.0278388 36,45.7784145 36,45.5 Z" id="路径" fill="#FFFFFF"/></g></g></g></g></g></svg>