<?xml version="1.0" encoding="UTF-8"?><svg width="82px" height="82px" viewBox="0 0 82 82" version="1.1" xmlns="http://www.w3.org/2000/svg" xmlns:xlink="http://www.w3.org/1999/xlink"><title>还金条@4x</title><g id="--🟠ICON" stroke="none" stroke-width="1" fill="none" fill-rule="evenodd"><g id="财富" transform="translate(-332.000000, -3726.000000)"><g id="还金条" transform="translate(302.000000, 3726.000000)"><g id="ICON" transform="translate(30.000000, 0.000000)"><g id="编组-2" transform="translate(15.000000, 12.000000)"><path d="M46,0 C48.7614233,0 51,2.23857625 51,5 L51.0012191,30.408785 C48.3533833,28.8768178 45.2790874,28 41.9999998,28 C32.0588742,28 23.9999998,36.0588745 23.9999998,46 C23.9999998,51.1108729 26.1300677,55.7242418 29.5508793,59.0007826 L5,59 C2.23857623,59 0,56.7614237 0,54 L0,23 L21,0 L46,0 Z" id="形状结合" fill="#333333"/><path d="M6.34015921,4.54747351e-13 L12.8429996,4.54747351e-13 C13.6259747,4.54544945e-13 14.2607014,0.634726686 14.2607014,1.41770173 C14.2607014,1.76491697 14.1332804,2.1000596 13.9026031,2.3595715 L2.47730522,15.2130316 C1.95712491,15.7982345 1.06103481,15.8509457 0.475831968,15.3307653 C0.173169144,15.0617317 -1.50472026e-15,14.6761111 0,14.2711619 L0,6.82977808 C-9.96755543e-16,5.94317858 0.31264323,5.08497504 0.882933353,4.40613203 L3.45517991,1.34426659 C4.17109945,0.492074078 5.22715747,4.54063628e-13 6.34015921,4.54747351e-13 Z" id="矩形备份-11" fill="#333333"/><circle id="椭圆形备份-7" fill="#333333" cx="42" cy="46" r="13"/><path d="M36.0012591,45.772961 C36.0012591,45.5443395 36.0664759,45.3352659 36.1743369,45.1747083 L39.7792454,40.5376933 C39.9126037,40.3747333 40.0905274,40.272961 40.2869734,40.272961 C40.6814625,40.272961 41.0012591,40.6833666 41.0012591,41.1896277 L41.0011305,42.6244422 C41.096493,42.6378377 41.1919636,42.6529484 41.2875126,42.6697963 C45.6235444,43.4343557 48.5844634,47.5054588 48.2467685,51.9987409 C47.5083293,49.8304951 45.7049562,48.1400997 43.3698236,47.7283529 C42.5618367,47.585883 41.7613168,47.609042 41.0004033,47.7742194 L41.0012591,50.3562943 L41.0012591,50.3562943 C41.0012591,50.8625554 40.6814625,51.272961 40.2869734,51.272961 C40.1219375,51.272961 39.9699742,51.2011319 39.8490302,51.0805052 L39.7792454,51.0026579 L36.2506475,46.468917 C36.0979774,46.3007998 36.0012591,46.0513755 36.0012591,45.772961 Z" id="路径" fill="#FFFFFF"/></g></g></g></g></g></svg>