<?xml version="1.0" encoding="UTF-8"?><svg width="82px" height="82px" viewBox="0 0 82 82" version="1.1" xmlns="http://www.w3.org/2000/svg" xmlns:xlink="http://www.w3.org/1999/xlink"><title>黄金T+D@4x</title><g id="--🟠ICON" stroke="none" stroke-width="1" fill="none" fill-rule="evenodd"><g id="财富" transform="translate(-476.000000, -5512.000000)"><g id="黄金T+D" transform="translate(446.000000, 5512.000000)"><g id="ICON" transform="translate(30.000000, 0.000000)"><g id="编组-15" transform="translate(7.000000, 16.000000)"><path d="M10.4358713,0 L55.5641287,0 C58.0951341,4.23240264e-16 60.2269557,1.89129722 60.5285129,4.4042739 L65.3285129,44.4042739 C65.6575233,47.1460276 63.7016085,49.6353738 60.9598548,49.9643842 C60.7621657,49.9881069 60.5632361,50 60.3641287,50 L5.63587132,50 C2.87444758,50 0.635871325,47.7614237 0.635871325,45 C0.635871325,44.8008926 0.64776444,44.601963 0.671487132,44.4042739 L5.47148713,4.4042739 C5.77304433,1.89129722 7.90486589,-4.23240264e-16 10.4358713,0 Z" id="矩形" fill="#333333"/><text id="T+D" fill="#FFFFFF" fill-rule="nonzero" font-family="JDLANGZHENGTI-B--GBK1-0, JingDongLangZhengTi" font-size="24" font-weight="bold"><tspan x="9" y="35">T+D</tspan></text></g></g></g></g></g></svg>