<?xml version="1.0" encoding="UTF-8"?><svg width="82px" height="82px" viewBox="0 0 82 82" version="1.1" xmlns="http://www.w3.org/2000/svg" xmlns:xlink="http://www.w3.org/1999/xlink"><title>é»„é‡‘å›žæ”¶@4x</title><g id="--ðŸŸ ICON" stroke="none" stroke-width="1" fill="none" fill-rule="evenodd"><g id="è´¢å¯Œ" transform="translate(-620.000000, -5512.000000)" fill="#333333"><g id="é»„é‡‘å›žæ”¶" transform="translate(590.000000, 5512.000000)"><g id="ICON" transform="translate(30.000000, 0.000000)"><g id="é»„é‡‘" transform="translate(10.002961, 14.000000)"><path d="M58.2036847,35.4732571 C58.9206277,35.461237 59.5115691,36.03269 59.5235891,36.7496331 C59.5275441,36.9855323 59.467144,37.2180504 59.3488793,37.4222012 L50.4593398,52.7674972 C50.2310624,53.161554 49.8130119,53.4071994 49.3576736,53.4148335 L14.4603001,53.9999115 C13.743357,54.0119315 13.1524157,53.4404785 13.1403957,52.7235355 C13.1364407,52.4876363 13.1968408,52.2551182 13.3151055,52.0509674 L22.204645,36.7056713 C22.4329224,36.3116145 22.8509729,36.0659691 23.3063112,36.0583351 L58.2036847,35.4732571 Z M18.8686119,1.26923835 C19.0730711,1.38312451 19.2429445,1.55015944 19.3602595,1.75267078 L28.2537059,17.1047109 C28.4829806,17.5004894 28.4870855,17.9877122 28.2645118,18.3872976 L11.3242292,48.800099 C10.9753052,49.4265205 10.1846315,49.6514766 9.55821002,49.3025526 C9.35375079,49.1886664 9.18387736,49.0216315 9.06656242,48.8191202 L0.173116018,33.46708 C-0.056158717,33.0713015 -0.0602636332,32.5840787 0.162310057,32.1844933 L17.1025927,1.77169192 C17.4515167,1.14527048 18.2421904,0.92031435 18.8686119,1.26923835 Z M42.7541822,0 C43.2095457,2.90603988e-15 43.6316251,0.238562514 43.8664888,0.628684162 L61.819634,30.4498536 C62.1894651,31.0641636 61.9912758,31.8619676 61.3769659,32.2317987 C61.1748047,32.3535051 60.9432969,32.4178147 60.7073274,32.4178147 L42.9207329,32.4178147 C42.4653694,32.4178147 42.04329,32.1792522 41.8084263,31.7891305 L23.855281,1.96796107 C23.4854499,1.3536511 23.6836392,0.555847127 24.2979492,0.186016022 C24.5001103,0.0643095822 24.7316182,-1.28892074e-15 24.9675876,0 L42.7541822,0 Z" id="å½¢çŠ¶ç»“åˆ"/></g></g></g></g></g></svg>