<?xml version="1.0" encoding="UTF-8"?><svg width="82px" height="82px" viewBox="0 0 82 82" version="1.1" xmlns="http://www.w3.org/2000/svg" xmlns:xlink="http://www.w3.org/1999/xlink"><title>汇款转入@4x</title><g id="--🟠ICON" stroke="none" stroke-width="1" fill="none" fill-rule="evenodd"><g id="财富" transform="translate(-44.000000, -4442.000000)"><g id="汇款转入" transform="translate(14.000000, 4442.000000)"><g id="ICON" transform="translate(30.000000, 0.000000)"><g id="编组-11备份" transform="translate(11.000000, 7.306498)"><path d="M16.9987793,11.6935022 L35.2566669,0.815061691 C37.9976942,-0.818101029 41.5436757,0.0800005898 43.1768384,2.8210278 L43.2478953,2.94368391 L43.2478953,2.94368391 L47.8974609,11.6935022 L16.9987793,11.6935022 Z" id="Rectangle-56" fill="#333333"/><path d="M5,14.6935022 L55,14.6935022 C57.7614237,14.6935022 60,16.9320784 60,19.6935022 L60,57.6935022 C60,60.4549259 57.7614237,62.6935022 55,62.6935022 L5,62.6935022 C2.23857625,62.6935022 -5.50001544e-16,60.4549259 0,57.6935022 L0,19.6935022 C-3.38176876e-16,16.9320784 2.23857625,14.6935022 5,14.6935022 Z" id="Rectangle-56" fill="#333333"/><path d="M42.8147033,43.1875215 C43.3669881,43.1875215 43.8147033,42.7398063 43.8147033,42.1875215 L43.8147033,39.1875215 C43.8147033,38.6352368 43.3669881,38.1875215 42.8147033,38.1875215 L24.8147033,38.1875022 L24.8147033,34.6935022 C24.8147033,34.1412174 24.3669881,33.6935022 23.8147033,33.6935022 C23.533008,33.6935022 23.2643776,33.8123133 23.0748591,34.0207239 L16.2601628,41.5147432 C15.8885977,41.9233479 15.9186241,42.5558005 16.3272287,42.9273657 C16.5113132,43.0947632 16.7511918,43.1875215 17,43.1875215 L42.8147033,43.1875215 Z" id="路径" fill="#FFFFFF"/></g></g></g></g></g></svg>