<?xml version="1.0" encoding="UTF-8"?><svg width="82px" height="82px" viewBox="0 0 82 82" version="1.1" xmlns="http://www.w3.org/2000/svg" xmlns:xlink="http://www.w3.org/1999/xlink"><title>回款专区@4x</title><g id="--🟠ICON" stroke="none" stroke-width="1" fill="none" fill-rule="evenodd"><g id="财富" transform="translate(-620.000000, -4800.000000)"><g id="回款专区" transform="translate(590.000000, 4800.000000)"><g id="ICON" transform="translate(30.000000, 0.000000)"><g id="编组-7" transform="translate(11.000000, 14.000000)"><path d="M16.6707599,0 C17.4048789,5.17173198e-16 18,0.595121054 18,1.32924008 L18,4 L42,4 L42,1.32924008 C42,0.595121054 42.5951211,3.56900082e-16 43.3292401,0 L48.6707599,0 C49.4048789,5.17173198e-16 50,0.595121054 50,1.32924008 L50,4 L55,4 C57.7614237,4 60,6.23857625 60,9 L60,16 C60,16.2677744 59.973688,16.5294033 59.9235084,16.7824424 L59.8876389,16.941029 C59.4018489,14.6882338 57.3980785,13 55,13 L55,13 L5,13 C2.60192148,13 0.598151082,14.6882338 0.112361062,16.941029 L0.0764915968,16.7824424 C0.0263120074,16.5294033 -7.48650811e-17,16.2677744 0,16 L0,9 C-3.38176876e-16,6.23857625 2.23857625,4 5,4 L10,4 L10,1.32924008 C10,0.595121054 10.5951211,3.56900082e-16 11.3292401,0 L16.6707599,0 Z" id="形状结合" fill="#333333"/><path d="M5,16 L55,16 C57.7614237,16 60,18.2385763 60,21 L60,51 C60,53.7614237 57.7614237,56 55,56 L5,56 C2.23857625,56 -5.50001544e-16,53.7614237 0,51 L0,21 C-3.38176876e-16,18.2385763 2.23857625,16 5,16 Z" id="矩形备份-3" fill="#333333"/><path d="M35.7995455,23.7164201 L37.3024948,25.2431117 C37.6920095,25.6387796 37.6934563,26.27802 37.3102501,26.6663113 L33.033,30.999 L36.8937527,31 C37.4426354,31 37.8875928,31.4442547 37.8875928,31.9979321 L37.8875928,34.304731 C37.8875928,34.8558737 37.4460857,35.3026632 36.8937527,35.3026632 L31.999,35.302 L31.999,37.999 L36.8937527,38 C37.4426354,38 37.8875928,38.4442547 37.8875928,38.9979321 L37.8875928,41.304731 C37.8875928,41.8558737 37.4460857,42.3026632 36.8937527,42.3026632 L31.999,42.302 L32,47.0000398 C32,47.5523026 31.5566468,48 30.9906311,48 L29.0093689,48 C28.4519098,48 28,47.5452911 28,47.0000398 L27.999,42.302 L22.9938401,42.3026632 C22.4449574,42.3026632 22,41.8584085 22,41.304731 L22,38.9979321 C22,38.4467894 22.4415071,38 22.9938401,38 L27.999,37.999 L27.999,35.302 L22.9938401,35.3026632 C22.4449574,35.3026632 22,34.8584085 22,34.304731 L22,31.9979321 C22,31.4467894 22.4415071,31 22.9938401,31 L27.05,30.999 L22.7737353,26.6663113 C22.4200066,26.3078886 22.3940294,25.7356394 22.6984898,25.3385184 L22.7814906,25.2431117 L24.2844399,23.7164201 C24.6779224,23.3167217 25.3020105,23.316436 25.6872421,23.7067795 L25.6872421,23.7067795 L30.042,28.119 L34.3967433,23.7067795 C34.7819749,23.316436 35.406063,23.3167217 35.7995455,23.7164201 Z" id="Combined-Shape-Copy-15" fill="#FFFFFF"/></g></g></g></g></g></svg>