<?xml version="1.0" encoding="UTF-8"?><svg width="82px" height="82px" viewBox="0 0 82 82" version="1.1" xmlns="http://www.w3.org/2000/svg" xmlns:xlink="http://www.w3.org/1999/xlink"><title>惠民保备份 3@4x</title><g id="--🟠ICON" stroke="none" stroke-width="1" fill="none" fill-rule="evenodd"><g id="保险" transform="translate(-620.000000, -254.000000)"><g id="惠民保" transform="translate(590.000000, 254.000000)"><g id="ICON" transform="translate(30.000000, 0.000000)"><g id="惠民保" transform="translate(13.000000, 11.000000)"><path d="M2.66711929,6.25421914 C11.271403,2.08473971 19.7239912,0 28.0248839,0 C36.3257767,0 44.7783651,2.08473979 53.382649,6.25421938 C55.00517,7.04046108 56.0106938,8.71028134 55.9466565,10.5121275 L54.9443913,38.713315 C54.7594209,43.9179128 51.9987825,48.6899043 47.5791629,51.4447209 L31.6365672,61.381985 C29.4259191,62.7599159 26.6238487,62.7599159 24.4132005,61.381985 L8.47060488,51.4447209 C4.05098525,48.6899043 1.2903469,43.9179128 1.10537642,38.713315 L0.103111037,10.5121212 C0.0390805675,8.7102783 1.04460243,7.04046131 2.66711929,6.25421914 Z" id="Rectangle-12-Copy备份" fill="#333333"/><path d="M28.448,20.736 L28.448,18.176 L23.36,18.176 L23.36,16.544 L19.36,16.544 L19.36,18.176 L13.984,18.176 L13.984,20.736 L28.448,20.736 Z M30.848,41.024 C32.5546667,38.144 33.408,35.04 33.408,31.712 L33.408,31.712 L33.408,26.56 L36.416,26.56 L36.416,41.024 L40,41.024 L40,26.56 L42.4,26.56 L42.4,23.904 L33.408,23.904 L33.408,20.192 L36.128,20.192 C38.6666667,20.192 40.576,20 41.856,19.616 L41.856,19.616 L41.856,16.992 C40.4693333,17.3973333 38.5493333,17.6 36.096,17.6 L36.096,17.6 L29.856,17.6 L29.856,31.808 C29.856,35.264 29.2693333,38.336 28.096,41.024 L28.096,41.024 L30.848,41.024 Z M17.376,41.024 C19.3173333,40.9173333 20.768,40.448 21.728,39.616 C22.7733333,38.72 23.296,37.3226667 23.296,35.424 L23.296,35.424 L23.296,31.552 L28.32,31.552 L28.32,28.992 L23.296,28.992 L23.296,26.976 L28.832,26.976 L28.832,24.416 L25.952,24.416 L27.872,21.504 L24.288,21.504 L23.04,24.416 L19.424,24.416 L18.208,21.504 L14.624,21.504 L16.544,24.416 L13.6,24.416 L13.6,26.976 L19.808,26.976 L19.808,28.992 L14.144,28.992 L14.144,31.552 L19.808,31.552 L19.808,35.744 C19.808,36.6826667 19.6373333,37.3546667 19.296,37.76 C18.9546667,38.1653333 18.3146667,38.4213333 17.376,38.528 L17.376,38.528 L17.376,41.024 Z M15.776,40.096 L18.24,32.864 L15.072,32.864 L13.536,40.096 L15.776,40.096 Z M28.32,39.424 L27.584,32.864 L24.384,32.864 L26.112,39.424 L28.32,39.424 Z" id="新" fill="#FFFFFF"/></g></g></g></g></g></svg>