<?xml version="1.0" encoding="UTF-8"?><svg width="82px" height="82px" viewBox="0 0 82 82" version="1.1" xmlns="http://www.w3.org/2000/svg" xmlns:xlink="http://www.w3.org/1999/xlink"><title>健康金@4x</title><g id="--🟠ICON" stroke="none" stroke-width="1" fill="none" fill-rule="evenodd"><g id="保险" transform="translate(-188.000000, -254.000000)"><g id="健康金" transform="translate(158.000000, 254.000000)"><g id="ICON" transform="translate(30.000000, 0.000000)"><g id="编组" transform="translate(12.014108, 13.000000)"><path d="M56.4560669,1.01211881 C59.0854454,6.81180781 58.3137613,17.5761599 54.4969106,27.7607979 C52.2217899,26.7223609 49.6941142,26.1441957 47.0314045,26.1441957 C37.0903083,26.1441957 29.0314045,34.2030409 29.0314045,44.1441957 C29.0314045,46.9559074 29.6760841,49.617042 30.8256908,51.9878512 C29.417837,52.2627685 27.9577436,52.4074395 26.4477696,52.4074395 C21.7731875,52.4074395 17.4397769,50.9610697 13.8790907,48.495641 L7.22917021,56.1778645 C6.3715579,57.1685769 4.87319468,57.2764758 3.88248227,56.4188635 C3.84244716,56.384207 3.80358346,56.34822 3.76595648,56.3109629 L0.703223539,53.2783363 C-0.227896998,52.3563686 -0.235316822,50.8541437 0.686650897,49.9230232 C0.734841161,49.8743545 0.785116227,49.8277954 0.83733483,49.7834765 L8.53881983,43.2486088 C5.98906298,39.6971239 4.48981756,35.3545905 4.48981756,30.6653318 C4.48981756,18.6574973 14.3207276,8.92322408 26.4477696,8.92322408 C30.1112754,8.92322408 36.4569488,10.1110162 43.2506413,7.12571036 C44.788892,6.44976738 46.4120848,5.33256103 47.980973,4.18101309 L48.4276288,3.85141644 L48.6291089,3.70182976 L48.6291089,3.70182976 L49.0295288,3.40359261 C52.4175566,0.877230611 55.389803,-1.37153508 56.4560669,1.01211881 Z" id="形状结合" fill="#333333"/><path d="M29.7782925,14.8042034 L32.7450044,18.2563397 C31.0410196,19.6874675 28.7300691,20.5926333 25.8571945,21.0242226 C21.5982314,21.6888603 18.5271456,24.4435753 16.5198347,29.5881587 L16.3594084,30.0105301 L12.0557753,28.4555171 C14.5408029,21.7341492 18.8124217,17.686553 24.7569443,16.6149025 L25.1557229,16.5478712 C27.1220445,16.2524467 28.5860868,15.7106529 29.5738984,14.9667001 L29.7782925,14.8042034 Z" id="路径-9" fill="#FFFFFF"/><path d="M46.9858921,31 C54.1655938,31 59.9858921,36.8202983 59.9858921,44 C59.9858921,51.1797017 54.1655938,57 46.9858921,57 C39.8061904,57 33.9858921,51.1797017 33.9858921,44 C33.9858921,36.8202983 39.8061904,31 46.9858921,31 Z" id="路径备份-2" fill="#333333"/><path d="M47.6929899,38.9243043 L52.0614587,43.2928842 C52.451953,43.6834244 52.451953,44.3165756 52.0614587,44.7071158 L47.6929899,49.0756957 C47.3024886,49.466243 46.6693236,49.4662511 46.2787943,49.0757317 C46.2787883,49.0757257 46.2787823,49.0757197 46.2787943,49.0756957 L41.9103255,44.7071158 C41.5198312,44.3165756 41.5198312,43.6834244 41.9103255,43.2928842 L46.2787943,38.9243043 C46.6692956,38.533757 47.3024606,38.5337489 47.6929899,38.9242683 C47.6929959,38.9242743 47.6930019,38.9242803 47.6929899,38.9243043 Z" id="矩形备份-8" fill="#FFFFFF"/></g></g></g></g></g></svg>