<?xml version="1.0" encoding="UTF-8"?><svg width="82px" height="82px" viewBox="0 0 82 82" version="1.1" xmlns="http://www.w3.org/2000/svg" xmlns:xlink="http://www.w3.org/1999/xlink"><title>äº¤æ˜“è®°å½•@4x</title><g id="--ðŸŸ ICON" stroke="none" stroke-width="1" fill="none" fill-rule="evenodd"><g id="è´¢å¯Œ" transform="translate(-188.000000, -3096.000000)"><g id="äº¤æ˜“è®°å½•" transform="translate(158.000000, 3096.000000)"><g id="ICON" transform="translate(30.000000, 0.000000)"><g id="ç¼–ç»„-9" transform="translate(16.000000, 14.000000)"><path d="M46,2 C48.7614237,2 51,4.23857625 51,7 L51,43 C51,51.836556 43.836556,59 35,59 L5,59 C2.23857625,59 -5.50001544e-16,56.7614237 0,54 L0,7 C-3.38176876e-16,4.23857625 2.23857625,2 5,2 L11.599,2 L12.9310218,6.43673943 C13.5436193,8.47873097 15.3794231,9.89932183 17.4927108,9.99486556 L17.7201533,10 L33.2798467,10 C35.4878878,10 37.4345022,8.55165923 38.0689782,6.43673943 L38.0689782,6.43673943 L39.4,2 L46,2 Z" id="å½¢çŠ¶ç»“åˆ" fill="#333333"/><path d="M38,35 C38.5522847,35 39,35.4477153 39,36 L39,39 C39,39.5522847 38.5522847,40 38,40 L20.0749803,39.999 L20.0756836,43.4940193 C20.0756836,44.0463041 19.6279683,44.4940193 19.0756836,44.4940193 C18.7939883,44.4940193 18.5253579,44.3752082 18.3358394,44.1667976 L11.5211431,36.6727783 C11.1495779,36.2641736 11.1796044,35.631721 11.588209,35.2601558 C11.7722935,35.0927584 12.0121721,35 12.2609873,35 L38,35 Z M32,19.5059807 C32.2816953,19.5059807 32.5503257,19.6247918 32.7398442,19.8332024 L39.5545405,27.3272217 C39.9261057,27.7358264 39.8960792,28.368279 39.4874746,28.7398442 C39.3033901,28.9072416 39.0635115,29 38.8146963,29 L13,29 C12.4477153,29 12,28.5522847 12,28 L12,25 C12,24.4477153 12.4477153,24 13,24 L31,23.9999807 L31,20.5059807 C31,19.9536959 31.4477153,19.5059807 32,19.5059807 Z" id="å½¢çŠ¶ç»“åˆ" fill="#FFFFFF"/><path d="M16.3104669,0 L34.6895331,0 C35.3172389,-1.15307689e-16 35.826095,0.508856112 35.826095,1.13656194 C35.826095,1.19034276 35.8222777,1.24405577 35.814672,1.29729607 L35.5,3.5 C35.2131021,5.50828497 33.4931403,7 31.4644661,7 L19.5355339,7 C17.5068597,7 15.7868979,5.50828497 15.5,3.5 L15.185328,1.29729607 C15.096557,0.675899003 15.5283357,0.100194032 16.1497328,0.0114230229 C16.2029731,0.00381726569 16.2566861,9.87937733e-18 16.3104669,0 Z" id="çŸ©å½¢å¤‡ä»½-5" fill="#333333"/></g></g></g></g></g></svg>