<?xml version="1.0" encoding="UTF-8"?><svg width="82px" height="82px" viewBox="0 0 82 82" version="1.1" xmlns="http://www.w3.org/2000/svg" xmlns:xlink="http://www.w3.org/1999/xlink"><title>å®¶åº­åº”æ€¥é‡‘@4x</title><g id="--ðŸŸ ICON" stroke="none" stroke-width="1" fill="none" fill-rule="evenodd"><g id="ä¿é™©" transform="translate(-332.000000, -118.000000)"><g id="å®¶åº­åº”æ€¥é‡‘" transform="translate(302.000000, 118.000000)"><g id="ICON" transform="translate(30.000000, 0.000000)"><g id="ç¼–ç»„-11" transform="translate(13.000000, 12.000000)"><path d="M2.16020074,16.4431112 L25.4958878,1.59348745 C27.0237395,0.621241674 28.9762605,0.621241674 30.5041122,1.59348745 L53.8397993,16.4431112 C55.1852365,17.2992778 56,18.7834913 56,20.3782398 L56,52 C56,54.7614237 53.7614237,57 51,57 L5,57 C2.23857625,57 1.2263553e-15,54.7614237 0,52 L0,20.3782398 C-1.9716572e-15,18.7834913 0.814763513,17.2992778 2.16020074,16.4431112 Z" id="çŸ©å½¢" fill="#333333"/><path d="M17.6118157,26.6357684 C19.7609034,24.4547439 23.2452629,24.4547439 25.3943506,26.6357684 L28.0052892,29.2861911 L30.4762925,26.779789 C32.6549724,24.5687325 36.1873103,24.5687325 38.3659901,26.779789 C40.54467,28.9908454 40.54467,32.5756762 38.3659901,34.7867326 L28.3022761,45 L28.1095574,44.8058701 C28.0077983,44.9097656 27.8410824,44.9114975 27.737187,44.8097384 C27.7360731,44.8086474 27.7349689,44.8075466 27.7338746,44.806436 L17.6118157,34.5339568 L17.6118157,34.5339568 C15.4627281,32.3529323 15.4627281,28.8167929 17.6118157,26.6357684 Z" id="è·¯å¾„" fill="#FFFFFF"/></g></g></g></g></g></svg>