<?xml version="1.0" encoding="UTF-8"?>
<svg width="82px" height="82px" viewBox="0 0 82 82" version="1.1" xmlns="http://www.w3.org/2000/svg" xmlns:xlink="http://www.w3.org/1999/xlink">
    <title>积存金</title>
    <g id="--✅ICON" stroke="none" stroke-width="1" fill="none" fill-rule="evenodd">
        <g id="财富" transform="translate(-44.000000, -5512.000000)">
            <g id="积存金" transform="translate(14.000000, 5512.000000)">
                <g id="ICON" transform="translate(30.000000, 0.000000)">
                    <g id="数字小金卡" transform="translate(9.000000, 16.000000)">
                        <path d="M5,0 L59,0 C61.7614237,-5.07265313e-16 64,2.23857625 64,5 L64,45 C64,47.7614237 61.7614237,50 59,50 L5,50 C2.23857625,50 3.38176876e-16,47.7614237 0,45 L0,5 C-3.38176876e-16,2.23857625 2.23857625,-3.80913106e-16 5,0 Z" id="矩形备份-4" fill="#333333"></path>
                        <path d="M26.7260932,23.7135735 C27.1110357,23.3225239 27.7412834,23.3177228 28.1270935,23.7096538 L28.1270935,23.7096538 L32.278,27.927 L36.4304515,23.7096538 C36.8162615,23.3177228 37.4465093,23.3225239 37.8314517,23.7135735 L38.8551156,24.7534778 C39.2430566,25.1475736 39.2444932,25.7850696 38.8589741,26.1767051 L34.707,30.394 L34.7140904,30.4011539 L34.58,30.537 L38.9722577,30.5374648 C39.5243214,30.5374648 39.9718574,30.9935825 39.9718574,31.5279218 L39.9718574,33.0359452 C39.9718574,33.5829595 39.5264503,34.0264022 38.9722577,34.0264022 L34.247,34.026 L34.247,36.376 L38.9722577,36.3760948 C39.5243214,36.3760948 39.9718574,36.8322124 39.9718574,37.3665518 L39.9718574,38.8745752 C39.9718574,39.4215895 39.5264503,39.8650322 38.9722577,39.8650322 L34.247,39.865 L34.2477748,43.1813873 C34.2477748,43.7354845 33.7987804,44.184669 33.2543896,44.184669 L31.8067103,44.184669 C31.2580788,44.184669 30.8133252,43.7318165 30.8133252,43.1813873 L30.813,39.865 L26.0888422,39.8650322 C25.5367785,39.8650322 25.0892425,39.4089146 25.0892425,38.8745752 L25.0892425,37.3665518 C25.0892425,36.8195375 25.5346496,36.3760948 26.0888422,36.3760948 L30.813,36.376 L30.813,34.026 L26.0888422,34.0264022 C25.5367785,34.0264022 25.0892425,33.5702846 25.0892425,33.0359452 L25.0892425,31.5279218 C25.0892425,30.9809075 25.5346496,30.5374648 26.0888422,30.5374648 L29.977,30.537 L29.8434546,30.4011539 L29.85,30.394 L25.6985709,26.1767051 C25.3427071,25.8151954 25.316557,25.2441951 25.6197657,24.848521 L25.7024294,24.7534778 Z" id="Combined-Shape-Copy-15" fill="#FFFFFF"></path>
                        <polygon id="矩形" fill="#FFFFFF" points="-7.87075323e-14 13 64 13 64 19 0 19"></polygon>
                    </g>
                </g>
            </g>
        </g>
    </g>
</svg>