<?xml version="1.0" encoding="UTF-8"?><svg width="82px" height="82px" viewBox="0 0 82 82" version="1.1" xmlns="http://www.w3.org/2000/svg" xmlns:xlink="http://www.w3.org/1999/xlink"><title>积分还白条备份 14@4x</title><g id="--🟠ICON" stroke="none" stroke-width="1" fill="none" fill-rule="evenodd"><g id="白条" transform="translate(-46.000000, -118.000000)"><g id="金条借款" transform="translate(16.000000, 118.000000)"><g id="ICON" transform="translate(30.000000, 0.000000)"><g id="编组-74" transform="translate(9.000000, 9.000000)"><path d="M32.5,0 C50.4492544,0 65,14.5507456 65,32.5 C65,50.4492544 50.4492544,65 32.5,65 C14.5507456,65 0,50.4492544 0,32.5 C0,14.5507456 14.5507456,0 32.5,0 Z" id="路径" fill="#333333"/><path d="M48.2,30.844 L48.2,28.144 L43.664,28.144 L43.664,24.58 L47.48,24.58 L47.48,21.88 L43.664,21.88 L43.664,19.612 L39.56,19.612 L39.56,21.88 L33.512,21.88 L33.512,19.612 L29.408,19.612 L29.408,21.88 L25.664,21.88 L25.664,24.58 L29.408,24.58 L29.408,28.144 L24.836,28.144 L24.836,30.844 L48.2,30.844 Z M23.18,47.152 L23.18,27.172 L20.948,27.172 C22.58,25.204 24.272,22.684 26.024,19.612 L26.024,19.612 L21.344,19.612 C19.976,23.164 18.044,26.512 15.548,29.656 L15.548,29.656 L18.788,29.656 C18.884,29.56 18.956,29.476 19.004,29.404 L19.004,29.404 L19.004,47.152 L23.18,47.152 Z M39.56,28.144 L33.512,28.144 L33.512,24.58 L39.56,24.58 L39.56,28.144 Z M46.544,46.612 L46.544,32.968 L26.456,32.968 L26.456,46.612 L46.544,46.612 Z M42.368,38.44 L30.632,38.44 L30.632,35.668 L42.368,35.668 L42.368,38.44 Z M42.368,43.948 L30.632,43.948 L30.632,40.852 L42.368,40.852 L42.368,43.948 Z" id="借" fill="#FFFFFF"/></g></g></g></g></g></svg>