<?xml version="1.0" encoding="UTF-8"?><svg width="82px" height="82px" viewBox="0 0 82 82" version="1.1" xmlns="http://www.w3.org/2000/svg" xmlns:xlink="http://www.w3.org/1999/xlink"><title>基金诊断@4x</title><g id="--🟠ICON" stroke="none" stroke-width="1" fill="none" fill-rule="evenodd"><g id="财富" transform="translate(-188.000000, -2300.000000)"><g id="基金诊断" transform="translate(158.000000, 2300.000000)"><g id="ICON" transform="translate(30.000000, 0.000000)"><g id="编组-10" transform="translate(11.000000, 12.000000)"><path d="M5.10288437,8 L54.8971156,8 C57.7153608,8 60,10.2846392 60,13.1028844 L60,50.8971156 C60,53.7153608 57.7153608,56 54.8971156,56 L5.10288437,56 C2.28463915,56 -5.43042922e-16,53.7153608 0,50.8971156 L0,13.1028844 C-1.23331392e-15,10.2846392 2.28463915,8 5.10288437,8 Z" id="形状结合" fill="#333333"/><path d="M39,0 C41.7614237,-5.07265313e-16 44,2.23857625 44,5 L44,8 L38,8 L38,7 C38,5.8954305 37.1045695,5 36,5 L36,5 L24,5 C22.8954305,5 22,5.8954305 22,7 L22,7 L22,8 L16,8 L16,5 C16,2.23857625 18.2385763,5.07265313e-16 21,0 L39,0 Z" id="形状结合备份-9" fill="#333333"/><path d="M18.8950298,28.9930915 L23.5020108,23.8102379 C24.6027648,22.5718896 26.4989819,22.4603474 27.7373303,23.5611014 C27.9048536,23.710011 28.0551612,23.8772257 28.1854391,24.0596148 L36,35 L36,35 L38.1,32.2 C38.6665631,31.4445825 39.5557281,31 40.5,31 L47,31 C47.5522847,31 48,31.4477153 48,32 L48,35 C48,35.5522847 47.5522847,36 47,36 L42.5438537,36 C41.5750004,36 40.6657878,36.4678971 40.1026533,37.2562854 L38.4412004,39.5823194 C37.4781734,40.9305572 35.6045232,41.2428322 34.2562854,40.2798053 C33.9868989,40.0873863 33.7512186,39.851706 33.5587996,39.5823194 L26,29 L26,29 L20.8786797,34.1213203 C20.3160705,34.6839295 19.5530088,35 18.7573593,35 L12,35 C11.4477153,35 11,34.5522847 11,34 L11,31 C11,30.4477153 11.4477153,30 12,30 L16.6528018,30 C17.5097152,30 18.3257275,29.6335566 18.8950298,28.9930915 Z" id="路径-2" fill="#FFFFFF"/></g></g></g></g></g></svg>