<?xml version="1.0" encoding="UTF-8"?><svg width="82px" height="82px" viewBox="0 0 82 82" version="1.1" xmlns="http://www.w3.org/2000/svg" xmlns:xlink="http://www.w3.org/1999/xlink"><title>基金自选@4x</title><g id="--🟠ICON" stroke="none" stroke-width="1" fill="none" fill-rule="evenodd"><g id="财富" transform="translate(-44.000000, -526.000000)"><g id="基金自选" transform="translate(14.000000, 526.000000)"><g id="ICON" transform="translate(30.000000, 0.000000)"><g transform="translate(9.947368, 12.000000)"><path d="M30.084702,50.6183278 L14.9077932,57.7055412 C13.351839,58.4321305 11.4977146,57.7677925 10.7664905,56.2217007 C10.515698,55.691428 10.4216319,55.1012824 10.4952411,54.5199551 L12.588655,37.9872781 C12.6272154,37.6827492 12.5272317,37.3769817 12.3158964,37.1531341 L0.842636999,25.0005959 C-0.333614793,23.7547037 -0.270717372,21.797212 0.983122318,20.6284159 C1.41315953,20.2275466 1.94893358,19.9562864 2.52808192,19.8462093 L18.9987916,16.7156664 C19.3021792,16.6580024 19.5639396,16.4690277 19.7128831,16.2001371 L27.7989276,1.60224198 C28.6279183,0.105648926 30.5209154,-0.439809433 32.0270551,0.383926633 C32.5436252,0.666448524 32.9688179,1.08894614 33.253142,1.60224198 L41.3391865,16.2001371 C41.48813,16.4690277 41.7498905,16.6580024 42.053278,16.7156664 L58.5239877,19.8462093 C60.2125839,20.1671561 61.319623,21.787536 60.9966289,23.465429 C60.8858496,24.0409065 60.612859,24.5732845 60.2094326,25.0005959 L48.7361733,37.1531341 C48.5248379,37.3769817 48.4248543,37.6827492 48.4634146,37.9872781 L50.5568285,54.5199551 C50.7714477,56.2149042 49.5626384,57.7618124 47.8568773,57.9750713 C47.2718418,58.048214 46.6779317,57.9547441 46.1442764,57.7055412 L30.9673676,50.6183278 C30.6878117,50.4877826 30.3642579,50.4877826 30.084702,50.6183278 Z" id="星形" fill="#333333"/><path d="M42.5116437,24.7555597 C43.423719,25.7107753 43.4229502,27.2144902 42.5098988,28.1687728 L30.7168433,40.4943735 C29.9532266,41.2924733 28.6872052,41.3204273 27.8891054,40.5568106 C27.8542098,40.5234227 27.8205351,40.4887818 27.7881473,40.452956 L20.677661,32.5876718 C19.8160791,31.6346306 19.849089,30.1745243 20.7528612,29.261394 C21.6621325,28.3427076 23.1251191,28.2781095 24.1118231,29.1130792 L29.2301371,33.4443046 L29.2301371,33.4443046 L39.1198159,24.6198815 C40.1021386,23.7433686 41.6024713,23.8033842 42.5116437,24.7555597 Z" id="路径-3" fill="#FFFFFF"/></g></g></g></g></g></svg>