<?xml version="1.0" encoding="UTF-8"?><svg width="82px" height="82px" viewBox="0 0 82 82" version="1.1" xmlns="http://www.w3.org/2000/svg" xmlns:xlink="http://www.w3.org/1999/xlink"><title>基金组合@4x</title><g id="--🟠ICON" stroke="none" stroke-width="1" fill="none" fill-rule="evenodd"><g id="财富" transform="translate(-620.000000, -2028.000000)"><g id="基金组合" transform="translate(590.000000, 2028.000000)"><g id="ICON" transform="translate(30.000000, 0.000000)"><g id="基金组合" transform="translate(14.000000, 14.000000)"><path d="M51,9 C53.7614237,9 56,11.2385763 56,14 L56,51 C56,53.7614237 53.7614237,56 51,56 L14,56 C11.2385763,56 9,53.7614237 9,51 L9,50 L45,50 C47.6887547,50 49.8818181,47.8776933 49.9953805,45.2168896 L50,45 L50,9 L51,9 Z" id="形状结合" fill="#666666"/><path d="M5,0 L45,0 C47.7614237,-5.07265313e-16 50,2.23857625 50,5 L50,45 C50,47.7614237 47.7614237,50 45,50 L5,50 C2.23857625,50 -1.43817996e-15,47.7614237 0,45 L0,5 C-3.38176876e-16,2.23857625 2.23857625,-1.26909153e-15 5,0 Z" id="矩形备份-2" fill="#333333"/><path d="M38.9040227,15.2795896 L41.7389175,18.1436452 C42.0957938,18.5041925 42.1038697,19.0823404 41.7572033,19.4527152 L29.4136987,32.6403874 C28.3449676,33.7822086 26.5529609,33.8414598 25.4111397,32.7727287 C25.4076173,32.7694318 25.4041033,32.7661259 25.4005978,32.762811 L18.999117,26.7094215 L18.999117,26.7094215 L12.4559315,33.7013515 C12.099722,34.0819905 11.5023882,34.1017946 11.1217491,33.7455851 C11.1129594,33.7373595 11.1043279,33.7289666 11.0958593,33.7204108 L8.26108251,30.8564745 C7.90420616,30.4959272 7.89613026,29.9177793 8.24279668,29.5474045 L17.0639519,20.1229739 C18.132683,18.9811527 19.9246897,18.9219014 21.0665109,19.9906325 C21.0699875,19.9938865 21.0734558,19.9971493 21.0769158,20.0004208 L27.4773182,26.0519837 L27.4773182,26.0519837 L37.5440608,15.2985311 C37.9003354,14.9179529 38.4976726,14.898251 38.8782507,15.2545256 C38.8869997,15.2627159 38.8955919,15.2710721 38.9040227,15.2795896 Z" id="路径-6" fill="#FFFFFF"/></g></g></g></g></g></svg>