<?xml version="1.0" encoding="UTF-8"?><svg width="82px" height="82px" viewBox="0 0 82 82" version="1.1" xmlns="http://www.w3.org/2000/svg" xmlns:xlink="http://www.w3.org/1999/xlink"><title>基金PK@4x</title><g id="--🟠ICON" stroke="none" stroke-width="1" fill="none" fill-rule="evenodd"><g id="财富" transform="translate(-188.000000, -2028.000000)"><g id="基金PK" transform="translate(158.000000, 2028.000000)"><g id="ICON" transform="translate(30.000000, 0.000000)"><g transform="translate(9.000000, 16.000000)"><path d="M5,0 L37,0 L37,0 L27,52 L5,52 C2.23857625,52 -1.43817996e-15,49.7614237 0,47 L0,5 C-3.38176876e-16,2.23857625 2.23857625,5.07265313e-16 5,0 Z" id="矩形" fill="#666666"/><path d="M37,0 L59,0 C61.7614237,-5.07265313e-16 64,2.23857625 64,5 L64,47 C64,49.7614237 61.7614237,52 59,52 L27,52 L27,52 L37,0 Z" id="矩形备份-16" fill="#333333"/><path d="M17.084,34.558 L18.5501342,28.812 L23.1261342,28.812 C25.2928008,28.812 27.1501493,28.292 28.6981796,27.252 C30.2244539,26.2293333 31.2131501,24.834 31.6642683,23.066 C32.1109638,21.3153333 31.836538,19.9113333 30.8409911,18.854 C29.8325335,17.7793333 28.2449714,17.242 26.0783047,17.242 L17.4463047,17.242 L13.028,34.558 L17.084,34.558 Z M19.339591,25.718 L20.7062138,20.362 L25.2302138,20.362 C26.2008805,20.362 26.882263,20.5786667 27.2743615,21.012 C27.6967039,21.4626667 27.7928842,22.1386667 27.5629024,23.04 C27.3373433,23.924 26.8875236,24.6 26.2134433,25.068 C25.5828751,25.5013333 24.799591,25.718 23.863591,25.718 L19.339591,25.718 Z" id="PK" fill="#FFFFFF"/><polygon id="路径" fill="#FFFFFF" points="36.388 34.558 37.4828786 29.93 41.2629991 26.81 44.994 34.558 49.622 34.558 44.3939484 24.236 52.8865684 17.242 48.0765684 17.242 38.5593043 25.38 40.4845684 17.242 36.4285684 17.242 32.332 34.558"/></g></g></g></g></g></svg>