<?xml version="1.0" encoding="UTF-8"?><svg width="82px" height="82px" viewBox="0 0 82 82" version="1.1" xmlns="http://www.w3.org/2000/svg" xmlns:xlink="http://www.w3.org/1999/xlink"><title>基金@4x</title><g id="--🟠ICON" stroke="none" stroke-width="1" fill="none" fill-rule="evenodd"><g id="财富" transform="translate(-44.000000, -4220.000000)"><g id="基金" transform="translate(14.000000, 4220.000000)"><g id="ICON" transform="translate(30.000000, 0.000000)"><g id="基金" transform="translate(13.000000, 13.000000)"><rect id="形状结合备份-5" fill="#333333" x="0" y="0" width="56" height="56" rx="5"/><path d="M42.5886552,18.9548051 L45.5402546,21.8981378 C45.9243915,22.2811989 45.9330484,22.90068 45.5597654,23.2943256 L32.637825,36.9211558 C31.5041257,38.1166982 29.6184114,38.1742227 28.4139469,37.0500071 L21.7046711,30.7877445 L21.7046711,30.7877445 L14.8430221,38.0249981 C14.4630365,38.425784 13.8300961,38.442646 13.4293101,38.0626604 C13.4232065,38.0568735 13.4171762,38.0510099 13.4112205,38.0450709 L10.4597454,35.1018622 C10.0756085,34.7188011 10.0669516,34.09932 10.4402346,33.7056744 L19.6669946,23.9755962 C20.8006403,22.7801103 22.6862444,22.7225263 23.8907268,23.8466088 L30.598873,30.1069824 L30.598873,30.1069824 L41.1569713,18.9747537 C41.5370256,18.5740328 42.1699689,18.5572792 42.5706897,18.9373334 C42.576751,18.943082 42.5827399,18.9489064 42.5886552,18.9548051 Z" id="路径-6" fill="#FFFFFF"/></g></g></g></g></g></svg>