<?xml version="1.0" encoding="UTF-8"?><svg width="82px" height="82px" viewBox="0 0 82 82" version="1.1" xmlns="http://www.w3.org/2000/svg" xmlns:xlink="http://www.w3.org/1999/xlink"><title>京东公益@4x</title><g id="--🟠ICON" stroke="none" stroke-width="1" fill="none" fill-rule="evenodd"><g id="财富" transform="translate(-44.000000, -4572.000000)"><g id="京东公益" transform="translate(14.000000, 4572.000000)"><g id="ICON" transform="translate(30.000000, 0.000000)"><g id="编组-8" transform="translate(6.000000, 14.000000)"><path d="M51.6366347,1.50442194 L68.5915751,18.8361388 C69.3743836,19.6363431 69.3743836,20.915381 68.5915751,21.7155853 L36.5241909,54.4955781 C35.7290537,55.308385 34.4255574,55.3227091 33.6127505,54.5275719 C33.601969,54.5170248 33.5913038,54.5063595 33.5807567,54.4955781 L16.6258162,37.1638612 C15.8430077,36.3636569 15.8430077,35.084619 16.6258162,34.2844147 L48.6932004,1.50442194 C49.4883376,0.691615019 50.7918339,0.677290885 51.6046408,1.47242809 C51.6154223,1.48297519 51.6260875,1.49364045 51.6366347,1.50442194 Z" id="矩形备份" fill="#666666"/><path d="M1.40842493,18.8361388 L18.3633653,1.50442194 C19.1585025,0.691615019 20.4619988,0.677290885 21.2748057,1.47242809 C21.2855872,1.48297519 21.2962525,1.49364045 21.3067996,1.50442194 L53.3741838,34.2844147 C54.1569923,35.084619 54.1569923,36.3636569 53.3741838,37.1638612 L36.4192433,54.4955781 C35.6241061,55.308385 34.3206099,55.3227091 33.507803,54.5275719 C33.4970215,54.5170248 33.4863562,54.5063595 33.4758091,54.4955781 L1.40842493,21.7155853 C0.625616372,20.915381 0.625616372,19.6363431 1.40842493,18.8361388 Z" id="矩形" fill="#333333"/></g></g></g></g></g></svg>