<?xml version="1.0" encoding="UTF-8"?><svg width="82px" height="82px" viewBox="0 0 82 82" version="1.1" xmlns="http://www.w3.org/2000/svg" xmlns:xlink="http://www.w3.org/1999/xlink"><title>京选好基@4x</title><g id="--🟠ICON" stroke="none" stroke-width="1" fill="none" fill-rule="evenodd"><g id="财富" transform="translate(-44.000000, -662.000000)"><g id="京选好基" transform="translate(14.000000, 662.000000)"><g id="ICON" transform="translate(30.000000, 0.000000)"><g id="编组-3" transform="translate(6.000000, 12.000000)"><path d="M16.7202023,0 L54.2848103,0 C56.1436393,1.43489549e-15 57.8525635,1.0199828 58.7348893,2.65605934 L69.214195,22.0875953 C70.2741086,24.0529686 69.919226,26.4809023 68.3411291,28.0606869 L38.8956623,57.5376438 C36.922243,59.5131736 33.7209872,59.5148845 31.7454574,57.5414651 C31.7374074,57.5334237 31.7293845,57.5253551 31.7213889,57.5172595 L2.62852089,28.0603814 C1.0666671,26.4789857 0.720755201,24.0630386 1.77611187,22.1069144 L12.2705331,2.65529963 C13.1529912,1.01964622 14.8616829,2.88027975e-15 16.7202023,0 Z" id="Path-36" fill="#333333"/><path d="M45.2371541,30.9864131 L47.4486166,33.0135869 C47.8557356,33.3867794 47.8832385,34.0193467 47.5100461,34.4264657 L37.5543478,45.2872275 C36.4347705,46.5085845 34.5370684,46.5910933 33.3157115,45.471516 C33.2516414,45.4127851 33.1901539,45.3512976 33.1314229,45.2872275 L23.1757246,34.4264657 C22.8025322,34.0193467 22.8300352,33.3867794 23.2371541,33.0135869 L25.4486166,30.9864131 C25.8557461,30.6132479 26.488299,30.6407416 26.8615154,31.0478242 L35.3422234,40.299 L35.3422234,40.299 L43.8242022,31.0477755 C44.197482,30.6407892 44.8299967,30.61332 45.2371541,30.9864131 Z" id="路径" fill="#FFFFFF"/></g></g></g></g></g></svg>