<?xml version="1.0" encoding="UTF-8"?><svg width="82px" height="82px" viewBox="0 0 82 82" version="1.1" xmlns="http://www.w3.org/2000/svg" xmlns:xlink="http://www.w3.org/1999/xlink"><title>京东金店@4x</title><g id="--🟠ICON" stroke="none" stroke-width="1" fill="none" fill-rule="evenodd"><g id="财富" transform="translate(-620.000000, -662.000000)"><g id="京东金店" transform="translate(590.000000, 662.000000)"><g id="ICON" transform="translate(30.000000, 0.000000)"><g id="金店" transform="translate(10.000000, 12.000000)"><path d="M5,54.5281661 L5,39.098201 L5,39.098201 C5.87786297,39.4259595 6.77940677,39.6916929 7.69745729,39.8932865 L7.69745729,39.910136 C7.98866009,39.9596314 8.28862083,40.0091268 8.58748682,40.0428258 L8.77359385,40.067047 C8.79767829,40.067047 8.82285749,40.0765248 8.84694193,40.0765248 C8.89511081,40.0838965 8.93561644,40.0838965 8.98378538,40.0923212 C9.55878191,40.1494751 10.1365256,40.1772456 10.7145808,40.1755156 C14.6140706,40.1586661 18.3274534,38.6506362 21.1431434,36.0084247 C23.9500754,38.6506362 27.6306158,40.1418165 31.5136844,40.1670908 L31.5301056,40.1670908 C35.3890897,40.1418165 39.0619668,38.6337867 41.8448144,36 C44.6758309,38.6674857 48.3892136,40.1586661 52.3051247,40.1586661 L52.3127879,40.1586661 C53.3110959,40.1530038 54.3070203,40.0642125 55.2894057,39.8932865 L55.2894057,39.8774901 C56.2051862,39.7177655 57.1021841,39.4708285 57.9671576,39.1403247 C57.9622489,40.5096701 57.9692047,45.6423493 57.9880251,54.5383622 C57.9943947,57.5469914 55.5605787,59.9911272 52.5519495,59.9974922 C52.547278,59.9975021 52.5426065,59.997506 52.537935,59.9975038 L10.4476122,59.9782684 C7.43995237,59.9744038 5.00249014,57.5358273 5,54.5281661 Z" id="路径" fill="#333333"/><path d="M62.8952015,25.1985537 L62.8952015,25.2057801 C62.8711151,25.3240191 62.8553946,25.4437039 62.8481491,25.5640045 C62.7604605,26.0822426 62.6503151,26.5963513 62.5177128,27.1063306 C62.3915268,27.575016 62.2503696,28.0354427 62.0899636,28.4896753 C62.0503969,28.6011688 62.0033445,28.7198886 61.9637777,28.8313821 C61.9488065,28.8716437 61.9327659,28.902614 61.9167253,28.9428756 C61.8461467,29.125601 61.8536323,29.0935982 61.9637777,28.8396409 C61.9723327,28.9108728 61.8461467,29.101857 61.8151348,29.1741213 C61.7520419,29.3165852 61.6814632,29.4673078 61.6108846,29.610804 C61.4066344,30.0237427 61.1831355,30.429455 60.9425266,30.8186498 C60.8248956,31.0096339 60.6987096,31.2006181 60.5735929,31.3916022 C60.4484763,31.5825864 60.2121449,31.804541 60.1255257,32.0192691 L59.9116512,32.2814853 C59.7694246,32.4569842 59.6207817,32.6242244 59.4710695,32.7904322 C59.1445544,33.1455595 58.8016421,33.4848575 58.4423329,33.8083262 C58.27658,33.9600812 58.104411,34.102545 57.9311726,34.2460413 C57.8124437,34.3407381 57.7071021,34.4500681 57.6178464,34.5712305 L57.5387127,34.4679958 C57.3890005,34.5712305 55.9603184,35.5333777 53.5082465,35.8523729 L53.5082465,35.8678581 C52.908936,35.9398816 52.3059587,35.9798601 51.7020757,35.9876103 C48.2482653,35.97544 44.9875148,34.4480471 42.8401827,31.8365437 L41.5441028,30.2777 L40.2480229,31.8262203 C38.0793347,34.4339284 34.9011586,35.9442518 31.5112466,35.9762545 C28.0840391,35.9440346 24.8544672,34.4221353 22.7199323,31.8334467 L21.4249217,30.2849265 L20.1363275,31.8334467 C17.9366275,34.4731575 14.714607,35.9917397 11.2979607,36 C10.6459679,36 9.99480536,35.9551022 9.34956336,35.864761 C7.85244138,35.6108037 6.04199307,34.870611 5.3351376,34.5454218 C5.27620769,34.4780332 5.21299262,34.4142487 5.14585859,34.3544376 C4.81649175,34.0684775 4.47108433,33.7897439 4.15668868,33.4872663 C3.86368052,33.2078444 3.58350483,32.9163785 3.31616161,32.6128685 C3.18249002,32.4621459 3.04881837,32.3103909 2.92370179,32.1524419 C2.86809437,32.0801776 2.81676449,32.0161721 2.75794898,31.9459725 C2.7419084,31.9304873 2.73442278,31.9067434 2.7183822,31.8902258 C2.24041595,31.2358064 1.81772147,30.5453511 1.45438348,29.8255321 C1.36027867,29.6438391 1.27365948,29.4611137 1.18704024,29.277356 C1.14747346,29.1906388 1.10790662,29.1028894 1.06940922,29.0079134 C0.911854945,28.6121805 0.769271902,28.2119741 0.641660091,27.8072941 C0.382871858,26.9607697 0.24171464,26.1266335 0.0855862281,25.2677209 C0.20214786,25.9026142 0.0770312184,25.1799714 0.0695455923,25.02099 C0.0535050154,24.8145206 0.0374643796,24.5997925 0.0224931862,24.3922908 C-0.00103301679,23.8998614 -0.00958802644,23.4074319 0.0139382354,22.9057114 C0.0224932451,22.6517541 0.0374644384,22.3967644 0.0609906415,22.1510658 C0.0695456511,22.0230549 0.0845168445,21.8960762 0.100557421,21.7690975 C0.108043048,21.728836 0.108043048,21.681348 0.116597998,21.6421188 C0.140124201,21.4356494 0.140124201,21.4748786 0.100557421,21.75258 C0.0770312184,21.6648305 0.147609828,21.4666199 0.155095454,21.3788704 C0.178621657,21.2518917 0.20214786,21.1331719 0.226743446,21.0061932 C0.281281478,20.7150714 0.343305078,20.4260143 0.414953071,20.1390219 C0.556068506,19.5538865 0.734640098,18.9777634 0.949639498,18.4139703 C1.55383515,16.8953881 2.15161462,15.376806 2.75581027,13.8582238 C4.00590713,10.7178247 5.30947269,7.58465211 6.50396212,4.42050908 L6.57454073,4.20578095 C6.62907876,4.04679954 6.91246258,3.45836187 6.62907876,4.03131435 C6.72318358,3.84033021 6.80124781,3.64108727 6.90497696,3.45113543 C7.06998151,3.13227188 7.25608084,2.82399491 7.4621202,2.52821739 C7.50917261,2.45698549 7.5690575,2.38575352 7.61824867,2.31348926 C7.59781311,2.34137581 7.57958221,2.37070858 7.56371064,2.40123871 C7.67064794,2.26806594 7.7850708,2.13799025 7.90163249,2.01204398 C8.1280517,1.77702513 8.36683699,1.55339896 8.61704292,1.34205089 L8.78921197,1.21507221 C8.95448406,1.09813981 9.12619134,0.989929216 9.30358028,0.890915305 C9.45355922,0.800649748 9.60848836,0.718285697 9.7676881,0.644184445 C9.83185047,0.611149357 9.89708222,0.579146569 9.96338335,0.549208496 C10.3085007,0.414641701 10.6616721,0.300189618 11.0209931,0.206469386 C11.2006477,0.158981411 11.3824412,0.12697868 11.5620958,0.087749506 C11.6251888,0.0794907055 11.6882818,0.0640055186 11.7513748,0.0557467182 C12.0967822,0.0247762877 12.4347041,0 12.7801115,0 L50.315099,0 C50.4412851,0 50.5589161,0 50.6840327,0.00825880041 C50.8807973,0.0165176008 51.069007,0.0247763445 51.2582859,0.048520275 C51.2818121,0.048520275 51.3042689,0.0557467182 51.3288645,0.0557467182 C51.3534601,0.0557467182 51.4069288,0.0640055186 51.430455,0.0640055186 C51.465668,0.0706147488 51.5015386,0.0733850275 51.5373923,0.0722642623 C51.5107167,0.0740163661 51.48393,0.0712207779 51.4582586,0.0640055186 C51.8488708,0.130031699 52.2346503,0.220378567 52.6131814,0.334480366 C52.7864198,0.390227084 52.9585888,0.444941502 53.1318272,0.517205765 C53.2184464,0.549208496 53.2965106,0.58843767 53.3831298,0.620440457 C53.3503246,0.610398212 53.3187658,0.596896191 53.289025,0.580178926 C53.639133,0.747243008 53.9777531,0.93586323 54.3027904,1.14487261 C54.436462,1.23365441 54.5679949,1.32656565 54.6952503,1.42360626 C54.7497884,1.47109423 54.8021876,1.51858215 54.8599338,1.55884368 C55.1526657,1.81463291 55.4257209,2.09065484 55.6769346,2.38472117 C55.7314726,2.44769433 55.7838719,2.51169985 55.8341324,2.56641421 C55.9196822,2.69442519 56.0148564,2.82140387 56.09399,2.94941491 C56.2923606,3.25931325 56.4709224,3.58062821 56.6286765,3.91156212 C56.6358602,3.93405624 56.646688,3.95531044 56.6607577,3.97453528 C56.6757289,4.00653801 56.6907001,4.04576718 56.7067407,4.07776997 C56.7227813,4.10977276 56.7313363,4.14177549 56.7463075,4.16551942 C56.7388218,4.14177543 56.7227813,4.12629024 56.7152956,4.10151396 C56.7698337,4.23675138 56.8094005,4.38024761 56.8650079,4.51445267 L56.8874647,4.58568458 C57.3355319,5.81830669 57.8146109,7.03441126 58.2701638,8.25877458 C59.5534113,11.6613897 60.8366587,15.0681342 62.1199061,18.4790081 L62.2375371,18.7887122 C62.3872493,19.2181685 62.4899091,19.686854 62.5989852,20.1307631 C62.6620781,20.3692352 62.7059225,20.6159662 62.7636686,20.862697 C62.7882642,20.9824492 62.810721,21.1094279 62.8353166,21.2281478 C62.8599122,21.3468676 62.9529476,21.6183748 62.9133808,21.7216095 C62.9058951,21.6421188 62.8898546,21.5626281 62.882369,21.4821051 C62.8898546,21.5626282 62.9058952,21.6493453 62.9133808,21.728836 C62.9294213,21.856847 62.936907,21.9755669 62.9529476,22.1035779 C62.9764738,22.3492764 62.991445,22.5960073 63,22.8499647 C63,23.4074319 62.9925144,23.9401229 62.9604332,24.464555 C62.9422539,24.7133507 62.9187277,24.9518228 62.8952015,25.1985537 Z" id="路径" fill="#333333"/><path d="M30.2786897,24.7059844 L30.2786897,22.6159844 L26.6926897,22.6159844 L28.7386897,19.5799844 L25.5706897,19.5799844 L24.2506897,22.6159844 L22.2046897,22.6159844 L22.2046897,18.6779844 L29.5086897,18.6779844 L29.5086897,16.5659844 L22.2046897,16.5659844 L22.2046897,15.0699844 L27.2866897,15.0699844 L27.2866897,14.2339844 C28.372023,14.6593177 29.450023,15.0259844 30.5206897,15.3339844 L30.5206897,15.3339844 L30.5206897,13.1779844 C26.854023,11.7699844 24.1773563,10.112651 22.4906897,8.20598436 L22.4906897,8.20598436 L18.7286897,8.20598436 C17.6286897,9.33531769 16.4113563,10.3033177 15.0766897,11.1099844 C13.874023,11.828651 12.422023,12.5179844 10.7206897,13.1779844 L10.7206897,13.1779844 L10.7206897,15.3339844 C11.6446897,15.0699844 12.7373563,14.6959844 13.9986897,14.2119844 L13.9986897,14.2119844 L13.9986897,15.0699844 L19.0586897,15.0699844 L19.0586897,16.5659844 L11.7546897,16.5659844 L11.7546897,18.6779844 L19.0586897,18.6779844 L19.0586897,22.6159844 L16.9466897,22.6159844 L15.6046897,19.5799844 L12.4586897,19.5799844 L14.5266897,22.6159844 L10.9626897,22.6159844 L10.9626897,24.7059844 L30.2786897,24.7059844 Z M24.4046897,12.9579844 L16.8146897,12.9579844 C18.4426897,12.136651 19.7113563,11.300651 20.6206897,10.4499844 C21.6033563,11.3299844 22.8646897,12.1659844 24.4046897,12.9579844 L24.4046897,12.9579844 Z M34.9646897,25.0139844 C36.4313563,22.608651 37.1793563,19.902651 37.2086897,16.8959844 L37.2086897,16.8959844 L37.2086897,11.3739844 L52.5206897,11.3739844 L52.5206897,9.32798436 L45.3706897,9.32798436 L45.3706897,8.20598436 L42.1366897,8.20598436 L42.1366897,9.32798436 L34.0626897,9.32798436 L34.0626897,17.1819844 C34.0626897,20.2033177 33.6153563,22.8139844 32.7206897,25.0139844 L32.7206897,25.0139844 L34.9646897,25.0139844 Z M51.7066897,24.7059844 L51.7066897,17.4679844 L45.5026897,17.4679844 L45.5026897,15.4879844 L52.3006897,15.4879844 L52.3006897,13.4859844 L45.5026897,13.4859844 L45.5026897,11.8579844 L42.4006897,11.8579844 L42.4006897,17.4679844 L38.0666897,17.4679844 L38.0666897,24.7059844 L51.7066897,24.7059844 Z M48.6486897,22.7479844 L41.1246897,22.7479844 L41.1246897,19.4919844 L48.6486897,19.4919844 L48.6486897,22.7479844 Z" fill="#FFFFFF"/></g></g></g></g></g></svg>