<?xml version="1.0" encoding="UTF-8"?><svg width="82px" height="82px" viewBox="0 0 82 82" version="1.1" xmlns="http://www.w3.org/2000/svg" xmlns:xlink="http://www.w3.org/1999/xlink"><title>金价提醒@4x</title><g id="--🟠ICON" stroke="none" stroke-width="1" fill="none" fill-rule="evenodd"><g id="财富" transform="translate(-332.000000, -5648.000000)"><g id="金价提醒" transform="translate(302.000000, 5648.000000)"><g id="ICON" transform="translate(30.000000, 0.000000)"><g id="编组-15" transform="translate(9.000000, 16.000000)"><path d="M10.4358713,0 L53.5641287,0 C56.0951341,1.31141868e-15 58.2269557,1.89129722 58.5285129,4.4042739 L63.3285129,44.4042739 C63.6575233,47.1460276 61.7016085,49.6353738 58.9598548,49.9643842 C58.7621657,49.9881069 58.5632361,50 58.3641287,50 L5.63587132,50 C2.87444758,50 0.635871325,47.7614237 0.635871325,45 C0.635871325,44.8008926 0.64776444,44.601963 0.671487132,44.4042739 L5.47148713,4.4042739 C5.77304433,1.89129722 7.90486589,-4.23240264e-16 10.4358713,0 Z" id="矩形" fill="#333333"/><path d="M36.9703386,35.0001899 C36.6991628,37.0522916 34.6131301,39 32.5555556,39 C29.4615919,39 27.3058943,37.0523237 27.0300057,35.0002405 L36.9703386,35.0001899 Z M32,10 C37.5228475,10 42,14.4771525 42,20 L42,26.9806641 L44.4515254,30.6698028 C44.9100307,31.3597771 44.7223879,32.2908037 44.0324137,32.7493089 C43.7864004,32.9127909 43.4975958,33 43.2022165,33 L20.7977835,33 C19.9693563,33 19.2977835,32.3284271 19.2977835,31.5 C19.2977835,31.2046208 19.3849926,30.9158161 19.5484746,30.6698028 L22,26.9806641 L22,20 C22,14.4771525 26.4771525,10 32,10 Z" id="形状结合" fill="#FFFFFF"/></g></g></g></g></g></svg>