<?xml version="1.0" encoding="UTF-8"?><svg width="82px" height="82px" viewBox="0 0 82 82" version="1.1" xmlns="http://www.w3.org/2000/svg" xmlns:xlink="http://www.w3.org/1999/xlink"><title>é‡‘åº“+@4x</title><g id="--ðŸŸ ICON" stroke="none" stroke-width="1" fill="none" fill-rule="evenodd"><g id="è´¢å¯Œ" transform="translate(-188.000000, -3454.000000)"><g id="é‡‘åº“+" transform="translate(158.000000, 3454.000000)"><g id="ICON" transform="translate(30.000000, 0.000000)"><g id="ç¼–ç»„-19" transform="translate(9.000000, 9.000000)"><path d="M33,0 C51.2253967,0 66,14.7746033 66,33 C66,36.8879599 65.3276345,40.6188804 64.0928363,44.0828289 L59.3882446,38.9463182 L59.2787017,38.8328767 C58.5320946,38.0993017 57.5502686,37.6225368 56.4882014,37.4719872 C55.3071649,37.3045735 54.1113469,37.5529814 53.1341001,38.1789715 L53.066,38.224 L43.5147211,44.0790683 L43.3572243,44.182545 L43.2118671,44.284723 L43.1025317,44.3653392 C42.2183089,45.0487372 41.6140677,46.0358868 41.4558066,47.1716736 L41.4312877,47.3848777 C41.2069741,49.8600803 43.1278645,51.8970831 45.5455495,52.2397935 L46.751,52.41 L46.7362041,52.4690475 C46.7024732,52.5902047 46.6662261,52.7109769 46.627459,52.8313177 C46.5744558,52.9958499 46.5307289,53.1579435 46.4902399,53.3207201 L46.4428209,53.5165795 L46.4428209,53.5165795 L46.3961916,53.7142932 C46.0828091,55.0412297 45.6674904,56.5717009 42.0585937,59.9039714 C40.7969155,61.0689405 38.1635062,62.4342834 34.1583659,64 L36.894794,65.7725745 C35.6174219,65.9227648 34.3177306,66 33,66 C14.7746033,66 0,51.2253967 0,33 C0,14.7746033 14.7746033,0 33,0 Z" id="å½¢çŠ¶ç»“åˆ" fill="#333333"/><path d="M24.5789474,23.5789474 L41.1052632,23.5789474 C41.6575479,23.5789474 42.1052632,24.0266626 42.1052632,24.5789474 L42.1052632,41.1052632 C42.1052632,41.6575479 41.6575479,42.1052632 41.1052632,42.1052632 L24.5789474,42.1052632 C24.0266626,42.1052632 23.5789474,41.6575479 23.5789474,41.1052632 L23.5789474,24.5789474 C23.5789474,24.0266626 24.0266626,23.5789474 24.5789474,23.5789474 Z" id="çŸ©å½¢" fill="#FFFFFF" transform="translate(32.842105, 32.842105) rotate(-45.000000) translate(-32.842105, -32.842105) "/><path d="M56.0671561,40.4422937 C56.512814,40.5054664 56.900046,40.7015165 57.17614,40.9727912 L64.9440321,49.452248 C65.2156544,49.7636795 65.3592518,50.1494085 65.3041237,50.545044 C65.1935246,51.3387762 64.3249529,51.8718112 63.3641144,51.7356109 L59.8604925,51.2386739 L59.7827185,51.4725033 C56.9463768,59.5324237 47.2372829,64 38.3684211,64 C42.8022775,63.1485777 48.0388768,58.2338779 49.4829483,53.7511985 C49.8989744,52.4597725 50.0894337,51.1467639 50.075846,49.852479 L45.9665949,49.269487 C45.0057564,49.1332868 44.3165012,48.3794275 44.4271002,47.5856953 C44.4746468,47.2444696 44.6622776,46.9514244 44.9371011,46.7390189 L45.0824583,46.6368408 L54.6801119,40.7541448 C55.0416906,40.4940162 55.5405667,40.3676489 56.0671561,40.4422937 Z" id="è·¯å¾„å¤‡ä»½" fill="#333333"/></g></g></g></g></g></svg>