<?xml version="1.0" encoding="UTF-8"?><svg width="82px" height="82px" viewBox="0 0 82 82" version="1.1" xmlns="http://www.w3.org/2000/svg" xmlns:xlink="http://www.w3.org/1999/xlink"><title>金融百科备份 2@4x</title><g id="--🟠ICON" stroke="none" stroke-width="1" fill="none" fill-rule="evenodd"><g id="社区" transform="translate(-188.000000, -254.000000)"><g id="金融百科" transform="translate(158.000000, 254.000000)"><g id="ICON" transform="translate(30.000000, 0.000000)"><g id="编组-56" transform="translate(14.000000, 13.000000)"><path d="M12,0 L48,0 C50.7614237,-5.07265313e-16 53,2.23857625 53,5 L53,52 C53,54.7614237 50.7614237,57 48,57 L12,57 L12,57 L12,0 Z" id="矩形" fill="#333333"/><path d="M30.5188976,24.1656989 L35.1959362,28.8458976 L35.1959362,28.8458976 L42.637213,21.4056465 C43.0277642,21.0151491 43.6609292,21.0151927 44.0514265,21.405744 C44.0595816,21.4139002 44.067595,21.4221968 44.075463,21.4306303 L46.1783351,23.684613 C46.5490629,24.0819809 46.5345764,24.7026854 46.1457141,25.0823254 L36.2337887,34.7591799 C35.456277,35.5182521 34.2149426,35.5176643 33.4381501,34.7578562 L28.7440222,30.1663643 L28.7440222,30.1663643 L21.9614479,36.9495133 C21.5709401,37.3400541 20.9377752,37.340081 20.5472343,36.9495732 C20.541622,36.9439613 20.5360766,36.9382828 20.5305994,36.9325389 L18.4378171,34.7378342 C18.0621972,34.3439209 18.0706055,33.7219339 18.4567364,33.3383183 L27.6946215,24.1606077 C28.4765952,23.3837278 29.7397299,23.3860047 30.5188976,24.1656989 Z" id="路径" fill="#FFFFFF"/><path d="M5,0 L8,0 L8,0 L8,57 L5,57 C2.23857625,57 3.38176876e-16,54.7614237 0,52 L0,5 C-3.38176876e-16,2.23857625 2.23857625,5.07265313e-16 5,0 Z" id="矩形" fill="#333333"/></g></g></g></g></g></svg>