<?xml version="1.0" encoding="UTF-8"?><svg width="82px" height="82px" viewBox="0 0 82 82" version="1.1" xmlns="http://www.w3.org/2000/svg" xmlns:xlink="http://www.w3.org/1999/xlink"><title>理财牛人备份@4x</title><g id="--🟠ICON" stroke="none" stroke-width="1" fill="none" fill-rule="evenodd"><g id="社区" transform="translate(-44.000000, -118.000000)"><g id="理财牛人" transform="translate(14.000000, 118.000000)"><g id="ICON" transform="translate(30.000000, 0.000000)"><g id="编组-69" transform="translate(9.000052, 10.000000)"><path d="M29.5771343,0.000880531729 C46.6956666,-0.130212732 45.3140919,14.4181344 45.1505259,15.7954543 C45.7197883,16.2258928 46.2890506,16.8128543 46.6956666,17.6737312 C47.3462522,19.1215696 46.858313,21.1172388 46.1264043,23.7781311 C45.9637579,24.3259618 45.8417731,24.8346618 45.7604499,25.147708 C45.3538339,27.1433772 44.0526628,28.0825156 43.0361229,28.7477387 L42.9102288,29.0562149 C35.9659805,31.5523871 30.9999483,38.1962541 30.9999483,46 C30.9999483,51.1108729 33.1300162,55.7242418 36.5508279,59.0007826 L4.07466332,59 C1.89248207,59 0.110954227,57.2845989 0.00498668221,55.1287035 L0,54.9253367 C0,51.6554532 1.66807798,47.2853432 5.24241792,44.0946416 C7.74445588,41.8535535 10.8025023,41.3597544 14.0194082,40.8279708 C15.4491442,40.6000636 16.9185951,40.3341718 18.4674757,39.9163418 C19.5397777,39.65045 24.0126211,37.1032035 24.3303402,38.1287862 C24.3313999,38.1326953 24.4512027,38.107948 24.6897487,38.0545442 C20.9888583,36.5564471 17.9229886,33.3371747 15.9961609,28.8260002 C14.8982978,28.2781694 13.5564651,27.2999002 13.1091875,26.2433695 C12.2959556,24.4042234 11.4827236,19.1998312 12.4179403,17.5172081 C12.8652179,16.695462 13.6784499,16.2650235 14.4916818,16.0302389 C14.0873646,14.7267693 12.4586019,0.131973796 29.5771343,0.000880531729 Z" id="形状结合" fill="#333333"/><path d="M48.9999483,33 C56.1796501,33 61.9999483,38.8202983 61.9999483,46 C61.9999483,53.1797017 56.1796501,59 48.9999483,59 C41.8202466,59 35.9999483,53.1797017 35.9999483,46 C35.9999483,38.8202983 41.8202466,33 48.9999483,33 Z" id="路径备份-5" fill="#333333"/><path d="M46.0596007,40 C45.8471303,40 45.6505761,40.1037701 45.5302218,40.2736712 L45.4766737,40.3639585 L44.6739818,42.0066873 C44.5680829,42.2234119 44.5478066,42.4721007 44.6171997,42.7031175 C44.7694629,43.2100171 45.30382,43.4975066 45.8107152,43.3452287 C47.6093175,42.8049619 48.798723,42.5348285 49.3789315,42.5348285 C49.9620416,42.5348285 51.1604568,42.8076705 52.9741773,43.3533544 C53.202145,43.4218955 53.4472586,43.4052749 53.6638685,43.3065464 C54.1217742,43.0978377 54.3420663,42.5811321 54.1912424,42.113555 L54.1497882,42.0066873 L53.4082307,40.3797137 C53.3159895,40.1773372 53.1277779,40.0384013 52.9118861,40.0068294 L52.8178655,40 L53.6947672,40 C55.5201412,40 56.9998992,41.479758 56.9998992,43.305132 C56.9998992,44.8344897 55.9611634,46.1212376 54.550712,46.4983555 L54.6800534,46.4974724 L53.1189931,50.7584024 C53.4783966,52.8718484 52.2489218,53.9285714 49.4305686,53.9285714 C46.6122153,53.9285714 45.3683112,52.8718484 45.6988564,50.7584024 L44.2863599,46.4974724 L44.4490864,46.4983555 C43.0386351,46.1212376 41.9998992,44.8344897 41.9998992,43.305132 C41.9998992,41.479758 43.4796572,40 45.3050312,40 L46.0596007,40 Z" id="形状结合" fill="#FFFFFF"/></g></g></g></g></g></svg>