<?xml version="1.0" encoding="UTF-8"?><svg width="82px" height="82px" viewBox="0 0 82 82" version="1.1" xmlns="http://www.w3.org/2000/svg" xmlns:xlink="http://www.w3.org/1999/xlink"><title>理财TV@4x</title><g id="--🟠ICON" stroke="none" stroke-width="1" fill="none" fill-rule="evenodd"><g id="财富" transform="translate(-332.000000, -2516.000000)"><g id="理财TV" transform="translate(302.000000, 2516.000000)"><g id="ICON" transform="translate(30.000000, 0.000000)"><g id="编组-2" transform="translate(10.000000, 14.000000)"><path d="M5,0 L57,0 C59.7614237,-5.07265313e-16 62,2.23857625 62,5 L62,41 C62,43.7614237 59.7614237,46 57,46 L5,46 C2.23857625,46 -5.50001544e-16,43.7614237 0,41 L0,5 C-3.38176876e-16,2.23857625 2.23857625,-3.80913106e-16 5,0 Z" id="矩形" fill="#333333"/><path d="M18.5,50 L43.5,50 C44.8807119,50 46,51.1192881 46,52.5 C46,53.8807119 44.8807119,55 43.5,55 L18.5,55 C17.1192881,55 16,53.8807119 16,52.5 C16,51.1192881 17.1192881,50 18.5,50 Z" id="矩形" fill="#333333"/><path d="M29.8,32.384 L29.8,30.656 L23.776,30.656 L23.776,28.568 L29.08,28.568 L29.08,26.816 L23.776,26.816 L23.776,24.8 L28.888,24.8 L28.888,14.912 L16.12,14.912 L16.12,24.8 L21.232,24.8 L21.232,26.816 L15.928,26.816 L15.928,28.568 L21.232,28.568 L21.232,30.656 L15.208,30.656 L15.208,32.384 L29.8,32.384 Z M8.2,31.832 L15.304,29.72 L15.304,27.8 L13.216,28.424 L13.216,23.096 L14.896,23.096 L14.896,21.272 L13.216,21.272 L13.216,16.784 L15.088,16.784 L15.088,14.96 L8.32,14.96 L8.32,16.784 L10.552,16.784 L10.552,21.272 L8.56,21.272 L8.56,23.096 L10.552,23.096 L10.552,29.24 L8.2,29.936 L8.2,31.832 Z M26.464,18.968 L23.776,18.968 L23.776,16.568 L26.464,16.568 L26.464,18.968 Z M21.232,18.968 L18.544,18.968 L18.544,16.568 L21.232,16.568 L21.232,18.968 Z M26.464,23.144 L23.776,23.144 L23.776,20.528 L26.464,20.528 L26.464,23.144 Z M21.232,23.144 L18.544,23.144 L18.544,20.528 L21.232,20.528 L21.232,23.144 Z M47.128,32.744 C48.728,32.664 49.88,32.304 50.584,31.664 C51.384,30.928 51.784,29.688 51.784,27.944 L51.784,27.944 L51.784,19.112 L53.8,19.112 L53.8,17.144 L51.784,17.144 L51.784,14.408 L48.952,14.408 L48.952,17.144 L43.168,17.144 L43.168,19.112 L45.064,19.112 C44.712,22.552 43.752,26.032 42.184,29.552 L42.184,29.552 L44.056,29.552 C46.04,26.016 47.272,22.536 47.752,19.112 L47.752,19.112 L48.952,19.112 L48.952,28.16 C48.952,29.136 48.8,29.816 48.496,30.2 C48.256,30.504 47.8,30.72 47.128,30.848 L47.128,30.848 L47.128,32.744 Z M34.96,27.056 L34.96,16.784 L40,16.784 L40,27.056 L42.28,27.056 L42.28,14.912 L32.68,14.912 L32.68,27.056 L34.96,27.056 Z M42.736,32.768 L42.736,30.872 C41.28,29.976 40.224,28.968 39.568,27.848 C38.96,26.76 38.656,25.416 38.656,23.816 L38.656,23.816 L38.656,17.768 L36.328,17.768 L36.328,23.816 C36.328,25.352 36.008,26.68 35.368,27.8 C34.696,28.952 33.64,29.976 32.2,30.872 L32.2,30.872 L32.2,32.768 C34.52,31.616 36.184,30.288 37.192,28.784 C37.288,28.624 37.384,28.456 37.48,28.28 C37.592,28.472 37.704,28.656 37.816,28.832 C38.76,30.272 40.4,31.584 42.736,32.768 L42.736,32.768 Z" id="理财" fill="#FFFFFF"/></g></g></g></g></g></svg>