<?xml version="1.0" encoding="UTF-8"?><svg width="82px" height="82px" viewBox="0 0 82 82" version="1.1" xmlns="http://www.w3.org/2000/svg" xmlns:xlink="http://www.w3.org/1999/xlink"><title>理财月报@4x</title><g id="--🟠ICON" stroke="none" stroke-width="1" fill="none" fill-rule="evenodd"><g id="财富" transform="translate(-620.000000, -5870.000000)"><g id="理财月报" transform="translate(590.000000, 5870.000000)"><g id="ICON" transform="translate(30.000000, 0.000000)"><g id="编组-20" transform="translate(10.000000, 15.000000)"><path d="M55,18 L59,18 C61.7614237,18 64,20.2385763 64,23 L64,46 C64,48.7614237 61.7614237,51 59,51 L55,51 L55,51 L55,18 Z" id="矩形备份-22" fill="#666666"/><path d="M50,0 C52.7614237,-5.07265313e-16 55,2.23857625 55,5 L55,26 L55,26 L55,46 C55,48.7614237 57.2385763,51 60,51 L60,51 L5,51 C2.23857625,51 -5.50001544e-16,48.7614237 0,46 L0,5 C-3.38176876e-16,2.23857625 2.23857625,-3.80913106e-16 5,0 L50,0 Z" id="形状结合" fill="#333333"/><path d="M9,34 L45,34 C45.5522847,34 46,34.4477153 46,35 L46,36 C46,36.5522847 45.5522847,37 45,37 L9,37 C8.44771525,37 8,36.5522847 8,36 L8,35 C8,34.4477153 8.44771525,34 9,34 Z" id="矩形备份-168" fill="#FFFFFF"/><path d="M9.64,28.64 C10.3466667,27.92 10.92,27.08 11.36,26.12 C11.8266667,25.1333333 12.0666667,24.1866667 12.08,23.28 L12.08,23.28 L20.42,23.28 L20.42,24.96 C20.42,25.5866667 20.3066667,26.0266667 20.08,26.28 C19.8533333,26.5333333 19.44,26.6933333 18.84,26.76 L18.84,26.76 L18.84,28.62 C20.44,28.5933333 21.5466667,28.3333333 22.16,27.84 C22.8666667,27.28 23.22,26.2466667 23.22,24.74 L23.22,24.74 L23.22,13.74 L9.28,13.74 L9.28,23.32 C9.28,25.1066667 8.66666667,26.88 7.44,28.64 L7.44,28.64 L9.64,28.64 Z M20.42,17.58 L12.08,17.58 L12.08,15.58 L20.42,15.58 L20.42,17.58 Z M20.42,21.48 L12.08,21.48 L12.08,19.42 L20.42,19.42 L20.42,21.48 Z M28.64,28.64 C30.0533333,28.5333333 31.0733333,28.18 31.7,27.58 C32.3666667,26.94 32.7,25.9466667 32.7,24.6 L32.7,24.6 L32.7,21.78 L34.4,21.36 L34.4,19.38 L32.7,19.8 L32.7,17.26 L34.4,17.26 L34.4,15.42 L32.7,15.42 L32.7,13.34 L30.02,13.34 L30.02,15.42 L28,15.42 L28,17.26 L30.02,17.26 L30.02,20.44 L28,20.94 L28,22.94 L30.02,22.44 L30.02,24.76 C30.02,25.96 29.56,26.6733333 28.64,26.9 L28.64,26.9 L28.64,28.64 Z M37.98,28.66 C39.22,28.3533333 40.52,27.66 41.88,26.58 C43.2533333,27.62 44.6266667,28.3066667 46,28.64 L46,28.64 L46,26.82 C45.1066667,26.5266667 44.2,26.0133333 43.28,25.28 C44.5866667,23.8933333 45.3666667,22.5466667 45.62,21.24 L45.62,21.24 L45.62,19.5 L37.62,19.5 L37.62,15.46 L42.72,15.46 L42.72,15.88 C42.72,16.3866667 42.62,16.7333333 42.42,16.92 C42.26,17.08 41.9266667,17.2066667 41.42,17.3 L41.42,17.3 L41.42,19.02 C42.7266667,18.98 43.68,18.7466667 44.28,18.32 C45.0266667,17.7866667 45.4,16.8866667 45.4,15.62 L45.4,15.62 L45.4,13.74 L34.94,13.74 L34.94,28.64 L37.62,28.64 L37.62,21.24 L43.14,21.24 C43.0066667,22.0133333 42.5666667,22.88 41.82,23.84 C41.2466667,23.1733333 40.82,22.4533333 40.54,21.68 L40.54,21.68 L38.12,21.68 C38.4533333,22.9066667 39.22,24.12 40.42,25.32 C39.5533333,26.0533333 38.74,26.56 37.98,26.84 L37.98,26.84 L37.98,28.66 Z" id="月报" fill="#FFFFFF"/></g></g></g></g></g></svg>