<?xml version="1.0" encoding="UTF-8"?><svg width="82px" height="82px" viewBox="0 0 82 82" version="1.1" xmlns="http://www.w3.org/2000/svg" xmlns:xlink="http://www.w3.org/1999/xlink"><title>理财黑卡@4x</title><g id="--🟠ICON" stroke="none" stroke-width="1" fill="none" fill-rule="evenodd"><g id="财富" transform="translate(-620.000000, -3096.000000)"><g id="理财黑卡" transform="translate(590.000000, 3096.000000)"><g id="ICON" transform="translate(30.000000, 0.000000)"><g id="编组-4" transform="translate(10.000000, 15.000000)"><path d="M56,0 C58.7614237,-5.07265313e-16 61,2.23857625 61,5 L61.0012194,24.408785 C58.3533836,22.8768178 55.2790877,22 52,22 C42.0588745,22 34,30.0588745 34,40 C34,45.1108729 36.1300679,49.7242418 39.5508795,53.0007826 L5,53 C2.23857625,53 -5.50001544e-16,50.7614237 0,48 L0,5 C-3.38176876e-16,2.23857625 2.23857625,-3.80913106e-16 5,0 L56,0 Z" id="形状结合" fill="#333333"/><path d="M24.186,29.2892824 C26.2486667,29.3066158 27.6786667,28.8819491 28.476,28.0152824 C29.2386667,27.2006158 29.62,25.7532824 29.62,23.6732824 L29.62,23.6732824 L29.62,14.7552824 L31.7,14.7552824 L31.7,12.2592824 L29.62,12.2592824 L29.62,9.42528242 L26.032,9.42528242 L26.032,12.2592824 L20.286,12.2592824 L20.286,14.7552824 L21.898,14.7552824 C21.6553333,18.3779491 20.6933333,22.0786158 19.012,25.8572824 L19.012,25.8572824 L21.326,25.8572824 C23.4753333,22.4252824 24.7753333,18.7246158 25.226,14.7552824 L25.226,14.7552824 L26.032,14.7552824 L26.032,23.9332824 C26.032,25.0252824 25.8673333,25.7879491 25.538,26.2212824 C25.2953333,26.5332824 24.8446667,26.7586158 24.186,26.8972824 L24.186,26.8972824 L24.186,29.2892824 Z M11.55,23.0752824 L11.55,12.3372824 L16.542,12.3372824 L16.542,23.0752824 L19.376,23.0752824 L19.376,9.94528242 L8.742,9.94528242 L8.742,23.0752824 L11.55,23.0752824 Z M19.792,29.3152824 L19.792,26.9492824 C18.232,26.0479491 17.088,24.9559491 16.36,23.6732824 C15.788,22.5466158 15.502,21.1599491 15.502,19.5132824 L15.502,19.5132824 L15.502,13.1432824 L12.616,13.1432824 L12.616,19.5132824 C12.616,21.1252824 12.3213333,22.4859491 11.732,23.5952824 C10.9866667,24.8952824 9.84266667,26.0132824 8.3,26.9492824 L8.3,26.9492824 L8.3,29.3152824 C11.0213333,27.9806158 12.9106667,26.4986158 13.968,24.8692824 L13.968,24.8692824 L14.072,24.7132824 C14.124,24.7826158 14.1673333,24.8519491 14.202,24.9212824 C15.2766667,26.5679491 17.14,28.0326158 19.792,29.3152824 L19.792,29.3152824 Z" id="财" fill="#FFFFFF"/><path d="M52,53 C59.1797017,53 65,47.1797017 65,40 C65,32.8202983 59.1797017,27 52,27 C44.8202983,27 39,32.8202983 39,40 C39,47.1797017 44.8202983,53 52,53 Z" id="形状结合" fill="#333333"/><path d="M56.5283151,35 L60.069198,35 L53.4166714,46.9784979 C52.8803802,47.9441405 51.6628224,48.2921985 50.6971798,47.7559074 C50.2545374,47.510076 49.9216095,47.1055069 49.7655678,46.6238261 L46,35 L46,35 L49.5035604,35 L51.8596087,43.1776704 L56.5283151,35 Z" id="路径" fill="#FFFFFF"/></g></g></g></g></g></svg>