<?xml version="1.0" encoding="UTF-8"?><svg width="82px" height="82px" viewBox="0 0 82 82" version="1.1" xmlns="http://www.w3.org/2000/svg" xmlns:xlink="http://www.w3.org/1999/xlink"><title>理财产品@4x</title><g id="--🟠ICON" stroke="none" stroke-width="1" fill="none" fill-rule="evenodd"><g id="财富" transform="translate(-44.000000, -4084.000000)"><g id="理财产品" transform="translate(14.000000, 4084.000000)"><g id="ICON" transform="translate(30.000000, 0.000000)"><g id="理财产品" transform="translate(15.000000, 13.000000)"><path d="M5,0 L47,0 C49.7614237,-5.07265313e-16 52,2.23857625 52,5 L52,53.7700469 C52,56.5314707 49.7614237,58.7700469 47,58.7700469 C46.3971848,58.7700469 45.7993376,58.6610383 45.2353153,58.4482825 L27.6647969,51.8204792 C26.5918311,51.4157441 25.4081689,51.4157441 24.3352031,51.8204792 L6.76468469,58.4482825 C4.18096654,59.4228909 1.29637289,58.1184498 0.321764442,55.5347316 C0.109008685,54.9707093 -8.14354847e-16,54.3728622 0,53.7700469 L0,5 C-3.38176876e-16,2.23857625 2.23857625,-3.80913106e-16 5,0 Z" id="Rectangle-53-Copy-2" fill="#333333"/><path d="M18.8405285,12.6959706 C19.2240759,12.3173858 19.8647916,12.3142561 20.2585072,12.7019106 L20.2585072,12.7019106 L25.598,17.959 L30.9372751,12.7019106 C31.3309907,12.3142561 31.9717064,12.3173858 32.3552538,12.6959706 L34.4293344,14.7432154 C34.8187468,15.1275894 34.8153912,15.7533114 34.4215429,16.1410966 L29.434,21.051 L34.0052288,21.0517746 C34.5546258,21.0517746 35,21.4954912 35,22.0515821 L35,25.0519671 C35,25.6041455 34.5490746,26.0517746 34.0052288,26.0517746 L28,26.051 L28,29.051 L34.0052288,29.0517746 C34.5546258,29.0517746 35,29.4954912 35,30.0515821 L35,33.0519671 C35,33.6041455 34.5490746,34.0517746 34.0052288,34.0517746 L27.999,34.051 L28,40.0599715 C28,40.6077292 27.5562834,41.0517746 27.0001925,41.0517746 L23.9998075,41.0517746 C23.4476291,41.0517746 23,40.596469 23,40.0599715 L22.999,34.051 L16.9947712,34.0517746 C16.4453742,34.0517746 16,33.6080579 16,33.0519671 L16,30.0515821 C16,29.4994036 16.4509254,29.0517746 16.9947712,29.0517746 L22.999,29.051 L22.999,26.051 L16.9947712,26.0517746 C16.4453742,26.0517746 16,25.6080579 16,25.0519671 L16,22.0515821 C16,21.4994036 16.4509254,21.0517746 16.9947712,21.0517746 L21.761,21.051 L16.7742394,16.1410966 C16.4106871,15.783141 16.3798623,15.2224464 16.6835547,14.8359832 L16.7664479,14.7432154 Z" id="Combined-Shape-Copy-15" fill="#FFFFFF"/></g></g></g></g></g></svg>