<?xml version="1.0" encoding="UTF-8"?><svg width="82px" height="82px" viewBox="0 0 82 82" version="1.1" xmlns="http://www.w3.org/2000/svg" xmlns:xlink="http://www.w3.org/1999/xlink"><title>理财金@4x</title><g id="--🟠ICON" stroke="none" stroke-width="1" fill="none" fill-rule="evenodd"><g id="财富" transform="translate(-332.000000, -3454.000000)"><g id="理财金" transform="translate(302.000000, 3454.000000)"><g id="ICON" transform="translate(30.000000, 0.000000)"><g id="编组-74" transform="translate(9.000000, 9.000000)"><path d="M32.5,0 C50.4492544,0 65,14.5507456 65,32.5 C65,50.4492544 50.4492544,65 32.5,65 C14.5507456,65 0,50.4492544 0,32.5 C0,14.5507456 14.5507456,0 32.5,0 Z" id="路径" fill="#333333"/><path d="M25.7429187,18.7732348 C26.140502,18.3787233 26.7801991,18.3790464 27.1754448,18.7702624 L27.1754448,18.7702624 L32.49,24.031 L37.8057846,18.7702624 C38.2010303,18.3790464 38.8407274,18.3787233 39.2383107,18.7732348 L41.2643588,20.7836284 C41.6602755,21.176486 41.664434,21.8085256 41.2655739,22.2033192 L36.418,27 L40.8654912,27 C41.4183422,27 41.8665164,27.4429259 41.8665164,27.9980257 L41.8665164,30.9930636 C41.8665164,31.5442579 41.418759,31.9910893 40.8654912,31.9910893 L34.999,31.991 L34.999,35 L40.8654912,35 C41.4183422,35 41.8665164,35.4429259 41.8665164,35.9980257 L41.8665164,38.9930636 C41.8665164,39.5442579 41.418759,39.9910893 40.8654912,39.9910893 L34.999,39.991 L35,46.0081969 C35,46.5559546 34.5562834,47 34.0001925,47 L30.9998075,47 C30.4476291,47 30,46.5446944 30,46.0081969 L29.999,39.991 L24.0010253,39.9910893 C23.4481743,39.9910893 23,39.5481634 23,38.9930636 L23,35.9980257 C23,35.4468313 23.4477574,35 24.0010253,35 L29.999,35 L29.999,31.991 L24.0010253,31.9910893 C23.4481743,31.9910893 23,31.5481634 23,30.9930636 L23,27.9980257 C23,27.4468313 23.4477574,27 24.0010253,27 L28.562,27 L23.7156555,22.2033192 C23.3474769,21.8388943 23.3226988,21.272319 23.6324646,20.8783168 L23.7168706,20.7836284 Z" id="Combined-Shape-Copy-15" fill="#FFFFFF"/></g></g></g></g></g></svg>