<?xml version="1.0" encoding="UTF-8"?>
<svg width="82px" height="82px" viewBox="0 0 82 82" version="1.1" xmlns="http://www.w3.org/2000/svg" xmlns:xlink="http://www.w3.org/1999/xlink">
    <title>理财福利社</title>
    <g id="--✅ICON" stroke="none" stroke-width="1" fill="none" fill-rule="evenodd">
        <g id="财富" transform="translate(-44.000000, -1248.000000)">
            <g id="理财福利社" transform="translate(14.000000, 1248.000000)">
                <g id="ICON" transform="translate(30.000000, 0.000000)">
                    <g id="理财福利社" transform="translate(13.000000, 13.000000)">
                        <path d="M5,0 L51,0 C53.7614237,-1.39544373e-15 56,2.23857625 56,5 L56,30.3103448 L56,30.3103448 C47.106717,34.1034483 37.7600755,36 27.9600755,36 C18.1600755,36 8.84005034,34.1034483 0,30.3103448 L0,5 C-3.38176876e-16,2.23857625 2.23857625,-3.80913106e-16 5,0 Z" id="矩形备份-6" fill="#333333"></path>
                        <path d="M23,7 C23,9.76142375 25.2385763,12 28,12 C30.7614237,12 33,9.76142375 33,7 L43,7 C44.6568542,7 46,8.34314575 46,10 L46,31 C43.162062,32.2154008 39.8292552,33.0615019 36.0015798,33.5383031 L36,20 L31,20 L31.0013407,33.9402697 C30.0175926,33.9800899 29.0071646,34 27.9700566,34 C26.953676,34 25.9633011,33.9808778 24.9989322,33.9426334 L25,20 L20,20 L19.9996176,33.5447537 C16.1596149,33.0691523 12.8264091,32.2209011 10,31 L10,10 C10,8.34314575 11.3431458,7 13,7 L23,7 Z" id="路径" fill="#FFFFFF"></path>
                        <path d="M0,27 C9.71437498,31.016276 19.2382291,33.0244141 28.5715625,33.0244141 C37.9048958,33.0244141 47.0477083,31.016276 56,27 L56,51 C56,53.7614237 53.7614237,56 51,56 L5,56 C2.23857625,56 1.2263553e-15,53.7614237 0,51 L0,27 L0,27 Z" id="矩形" fill="#333333"></path>
                        <path d="M56.0024824,24.4902057 L56.0024824,29.6661626 C53.3214813,31.8734144 49.5890776,33.737396 45.1444032,35.091683 L44.2802365,35.3460032 L43.3990167,35.5874723 C43.1024944,35.6657909 42.8032194,35.7419236 42.5012813,35.8158265 L41.5875675,36.0308022 L41.1248866,36.1331907 L40.1882127,36.3276041 C36.4118888,37.0773581 32.2843234,37.4902057 27.9602661,37.4902057 C23.6362088,37.4902057 19.5086434,37.0773581 15.7323195,36.3276041 L14.7956456,36.1331907 L14.3329647,36.0308022 L13.4192509,35.8158265 C13.1173128,35.7419236 12.8180378,35.6657909 12.5215154,35.5874723 L11.6402957,35.3460032 L10.776129,35.091683 C6.37799565,33.751577 2.6772945,31.9123948 0.00248236799,29.7353872 L0.00248236799,24.5590137 C3.58479002,27.4748168 9.00766735,29.7846094 15.4816293,31.1009605 L16.4502691,31.2890199 C20.0295549,31.9514713 23.9086549,32.3139333 27.9602661,32.3139333 C39.8824849,32.3139333 50.3109604,29.1754409 56.0024824,24.4902057 Z" id="路径" fill="#FFFFFF"></path>
                    </g>
                </g>
            </g>
        </g>
    </g>
</svg>