<?xml version="1.0" encoding="UTF-8"?><svg width="82px" height="82px" viewBox="0 0 82 82" version="1.1" xmlns="http://www.w3.org/2000/svg" xmlns:xlink="http://www.w3.org/1999/xlink"><title>é¾™è™Žæ¦œ@4x</title><g id="--ðŸŸ ICON" stroke="none" stroke-width="1" fill="none" fill-rule="evenodd"><g id="è´¢å¯Œ" transform="translate(-476.000000, -5158.000000)"><g id="é¾™è™Žæ¦œ" transform="translate(446.000000, 5158.000000)"><g id="ICON" transform="translate(30.000000, 0.000000)"><g id="é¾™è™Žæ¦œ" transform="translate(13.000000, 13.000000)"><path d="M2,9 L56,9 L56,46.7513934 C56,48.707668 54.7926868,50.4609955 52.9651099,51.1588301 L29.7134321,60.0371563 C29.2539877,60.2125887 28.7460123,60.2125887 28.2865679,60.0371563 L5.03489007,51.1588301 C3.20731315,50.4609955 2,48.707668 2,46.7513934 L2,9 L2,9 Z" id="Rectangle-53-Copy-2" fill="#333333"/><path d="M42.536,23.288 L42.536,21.016 L35.912,21.016 L35.912,19.544 L31.944,19.544 L31.944,21.016 L25.288,21.016 L25.288,23.288 L42.536,23.288 Z M21.416,43.96 L21.416,28.728 L22.856,36.76 L24.424,36.76 L23.464,27.64 L21.416,27.64 L21.416,25.464 L24.328,25.464 L24.328,23 L21.416,23 L21.416,19.544 L17.992,19.544 L17.992,23 L14.728,23 L14.728,25.464 L15.944,25.464 C15.5386667,30.712 15.0053333,35.3626667 14.344,39.416 L14.344,39.416 L15.848,39.416 C16.5733333,36.3226667 17.288,31.928 17.992,26.232 L17.992,26.232 L17.992,43.96 L21.416,43.96 Z M28.584,30.296 L28.584,28.344 L39.24,28.344 L39.24,30.296 L42.888,30.296 L42.888,26.104 L39.656,26.104 L40.872,24.056 L36.744,24.056 L36.264,26.104 L31.56,26.104 L31.08,24.056 L26.92,24.056 L28.136,26.104 L24.936,26.104 L24.936,30.296 L28.584,30.296 Z M27.016,44.024 C28.8506667,42.1253333 30.12,39.992 30.824,37.624 L30.824,37.624 L37.8,37.624 L37.8,39.768 C37.8,40.3866667 37.6506667,40.8453333 37.352,41.144 C36.968,41.528 36.2853333,41.752 35.304,41.816 L35.304,41.816 L35.304,44.024 C37.16,44.0026667 38.5893333,43.7253333 39.592,43.192 C40.9146667,42.488 41.576,41.2933333 41.576,39.608 L41.576,39.608 L41.576,35.352 L31.24,35.352 L31.24,33.464 L43.336,33.464 L43.336,31.192 L35.88,31.192 L35.88,29.464 L32.136,29.464 L32.136,31.192 L24.488,31.192 L24.488,33.464 L27.496,33.464 L27.496,35.032 C27.496,36.312 27.208,37.6986667 26.632,39.192 C25.992,40.8346667 25.064,42.4453333 23.848,44.024 L23.848,44.024 L27.016,44.024 Z" id="æ¦œ" fill="#FFFFFF"/><path d="M3.80487805,0 L54.195122,0 C56.2964981,-3.67472117e-15 58,1.70350193 58,3.80487805 L58,9 L58,9 L1.20792265e-13,9 L1.20792265e-13,3.80487805 C1.20534921e-13,1.70350193 1.70350193,8.30105741e-16 3.80487805,0 Z" id="å½¢çŠ¶ç»“åˆ" fill="#333333" transform="translate(29.000000, 4.500000) rotate(-360.000000) translate(-29.000000, -4.500000) "/></g></g></g></g></g></svg>