<?xml version="1.0" encoding="UTF-8"?><svg width="82px" height="82px" viewBox="0 0 82 82" version="1.1" xmlns="http://www.w3.org/2000/svg" xmlns:xlink="http://www.w3.org/1999/xlink"><title>æ¢¦æƒ³è®¡åˆ’@4x</title><g id="--ðŸŸ ICON" stroke="none" stroke-width="1" fill="none" fill-rule="evenodd"><g id="è´¢å¯Œ" transform="translate(-332.000000, -798.000000)"><g id="æ¢¦æƒ³è®¡åˆ’" transform="translate(302.000000, 798.000000)"><g id="ICON" transform="translate(30.000000, 0.000000)"><g id="æ¢¦æƒ³è®¡åˆ’" transform="translate(13.000000, 11.000000)"><path d="M2,9 L54,9 L54,43 C54,51.836556 46.836556,59 38,59 L7,59 C4.23857625,59 2,56.7614237 2,54 L2,9 L2,9 Z" id="å½¢çŠ¶ç»“åˆ" fill="#333333"/><path d="M23.4816627,19 C26.5091013,19 28.9633253,21.454224 28.9633253,24.4816627 L28.963,28.057 L32.5060061,28.0570035 C35.5402552,28.0570035 38,30.5167483 38,33.5509973 C38,36.5852464 35.5402552,39.0449912 32.5060061,39.0449912 L19.2660149,39.0449912 C18.9207261,39.0449912 18.616311,38.8699901 18.4366261,38.6038445 C18.1732085,38.4249545 18,38.1218937 18,37.7783779 L18,24.4816627 C18,21.454224 20.454224,19 23.4816627,19 Z" id="Combined-Shape" fill="#FFFFFF" transform="translate(28.000000, 29.022496) rotate(-45.000000) translate(-28.000000, -29.022496) "/><path d="M3.80487805,0 L52.195122,0 C54.2964981,5.80726787e-17 56,1.70350193 56,3.80487805 L56,9 L56,9 L-5.32907052e-14,9 L-5.32907052e-14,3.80487805 C-5.31039603e-14,1.70350193 1.70350193,8.30105741e-16 3.80487805,0 Z" id="å½¢çŠ¶ç»“åˆ" fill="#333333" transform="translate(28.000000, 4.500000) rotate(-360.000000) translate(-28.000000, -4.500000) "/></g></g></g></g></g></svg>