<?xml version="1.0" encoding="UTF-8"?><svg width="82px" height="82px" viewBox="0 0 82 82" version="1.1" xmlns="http://www.w3.org/2000/svg" xmlns:xlink="http://www.w3.org/1999/xlink"><title>é¢†é‡‘è´´å¤‡ä»½ 3@4x</title><g id="--ðŸŸ ICON" stroke="none" stroke-width="1" fill="none" fill-rule="evenodd"><g id="ç™½æ¡" transform="translate(-622.000000, -248.000000)"><g id="å…æ¯ç”Ÿæ´»" transform="translate(592.000000, 248.000000)"><g id="ICON" transform="translate(30.000000, 0.000000)"><g id="Group-15" transform="translate(9.000000, 16.000000)"><path d="M59,0 C61.7614237,-5.07265313e-16 64,2.23857625 64,5 L64.000267,19.6735043 C61.6351757,20.7969137 60,23.207499 60,26 C60,28.792501 61.6351757,31.2030863 64.000267,32.3264957 L64,47 C64,49.7614237 61.7614237,52 59,52 L5,52 C2.23857625,52 3.38176876e-16,49.7614237 0,47 L6.40699279e-05,32.3263384 C2.36497687,31.2028614 4,28.7923707 4,26 C4,23.2076293 2.36497687,20.7971386 6.40699279e-05,19.6736616 L0,5 C-3.38176876e-16,2.23857625 2.23857625,5.07265313e-16 5,0 L59,0 Z" id="å½¢çŠ¶ç»“åˆ" fill="#333333"/><path d="M9.7,34.816 C11.86,34.576 13.812,34.056 15.556,33.256 C17.508,32.36 19.028,31.2 20.116,29.776 L20.116,29.776 L20.116,31.48 C20.116,32.456 20.372,33.208 20.884,33.736 C21.396,34.264 22.156,34.528 23.164,34.528 L23.164,34.528 L31.3,34.528 L31.3,32.272 L24.58,32.272 C24.164,32.272 23.876,32.184 23.716,32.008 C23.572,31.848 23.5,31.56 23.5,31.144 L23.5,31.144 L23.5,28.744 L20.788,28.744 C20.98,28.408 21.14,28.096 21.268,27.808 L21.268,27.808 L29.932,27.808 L29.932,21.112 L25.228,21.112 L26.86,19.744 L26.86,17.416 L16.108,17.416 C16.508,16.952 16.788,16.616 16.948,16.408 L16.948,16.408 L13.036,16.408 C12.22,17.8 11.204,19.24 9.988,20.728 L9.988,20.728 L12.772,20.728 C13.156,20.408 13.548,20.056 13.948,19.672 L13.948,19.672 L22.804,19.672 L21.82,21.112 L11.044,21.112 L11.044,27.808 L17.86,27.808 C16.5,30.208 13.78,31.88 9.7,32.824 L9.7,32.824 L9.7,34.816 Z M26.596,25.552 L21.916,25.552 C22.028,24.976 22.084,24.328 22.084,23.608 L22.084,23.608 L22.084,23.368 L26.596,23.368 L26.596,25.552 Z M18.676,25.552 L14.38,25.552 L14.38,23.368 L18.844,23.368 L18.844,23.752 C18.844,24.44 18.788,25.04 18.676,25.552 L18.676,25.552 Z M53.188,27.664 L53.188,17.56 L44.812,17.56 L45.58,16.408 L41.692,16.408 L41.356,17.56 L35.764,17.56 L35.764,27.664 L53.188,27.664 Z M49.9,20.488 L39.052,20.488 L39.052,19.432 L49.9,19.432 L49.9,20.488 Z M49.9,23.104 L39.052,23.104 L39.052,22.072 L49.9,22.072 L49.9,23.104 Z M49.9,25.792 L39.052,25.792 L39.052,24.712 L49.9,24.712 L49.9,25.792 Z M48.196,31.408 L47.332,28.288 L43.924,28.288 L45.988,31.408 L48.196,31.408 Z M36.268,33.952 L38.308,28.504 L34.9,28.504 L33.7,33.952 L36.268,33.952 Z M55.252,33.952 L53.956,28.504 L50.524,28.504 L52.708,33.952 L55.252,33.952 Z M50.668,34.408 L50.668,32.512 L43.252,32.512 C42.852,32.512 42.596,32.464 42.484,32.368 C42.34,32.256 42.268,32.008 42.268,31.624 L42.268,31.624 L42.268,28.504 L38.86,28.504 L38.86,31.576 C38.86,32.696 39.18,33.472 39.82,33.904 C40.316,34.24 41.156,34.408 42.34,34.408 L42.34,34.408 L50.668,34.408 Z" id="å…æ¯" fill="#FFFFFF"/></g></g></g></g></g></svg>