<?xml version="1.0" encoding="UTF-8"?><svg width="82px" height="82px" viewBox="0 0 82 82" version="1.1" xmlns="http://www.w3.org/2000/svg" xmlns:xlink="http://www.w3.org/1999/xlink"><title>秒问京医备份 3@4x</title><g id="--🟠ICON" stroke="none" stroke-width="1" fill="none" fill-rule="evenodd"><g id="保险" transform="translate(-44.000000, -698.000000)"><g id="秒问京医" transform="translate(14.000000, 698.000000)"><g id="ICON" transform="translate(30.000000, 0.000000)"><g id="秒问京医" transform="translate(11.000000, 14.003443)"><path d="M0,44.9965567 L0,5 C-3.38176876e-16,2.23857625 2.23857625,-1.26909153e-15 5,0 L56,0 C58.7614237,-0.000659219815 61,2.23791703 61,4.99934078 C61,4.99956053 61,4.99978029 60.9993407,4.99999996 L60.9940671,44.9965568 C60.9930437,47.757723 58.7545741,49.9958974 55.9934078,49.9965567 L45,49.9965567 L45,49.9965567 L45,57.6911721 C45,58.7957416 44.1045695,59.6911721 43,59.6911721 C42.6767551,59.6911721 42.3583266,59.612823 42.071986,59.4628351 L24,49.9965567 L24,49.9965567 L5,49.9965567 C2.23857625,49.9965567 -4.73841006e-15,47.7579805 0,44.9965567 Z" id="路径" fill="#333333"/><path d="M33.1583853,10.1943972 C33.4534287,10.4143455 33.6166386,10.7690326 33.5917557,11.1361957 L32.7745455,23.1885459 L41.9071212,23.1890363 C42.5054297,23.1890363 42.9904545,23.6740612 42.9904545,24.2723697 C42.9904545,24.5056959 42.9151232,24.732787 42.7756694,24.9198533 L30.3576466,41.5776517 C30.0000512,42.0573376 29.3213006,42.1563116 28.8416147,41.7987163 C28.5465713,41.5787679 28.3833614,41.2240808 28.4082443,40.8569178 L29.2245455,28.8035459 L20.0928788,28.8040772 C19.4945703,28.8040772 19.0095455,28.3190523 19.0095455,27.7207438 C19.0095455,27.4874176 19.0848768,27.2603265 19.2243306,27.0732602 L31.6423534,10.4154618 C31.9999488,9.93577584 32.6786994,9.83680185 33.1583853,10.1943972 Z" id="Combined-Shape-Copy-5" fill="#FFFFFF"/></g></g></g></g></g></svg>