<?xml version="1.0" encoding="UTF-8"?><svg width="82px" height="82px" viewBox="0 0 82 82" version="1.1" xmlns="http://www.w3.org/2000/svg" xmlns:xlink="http://www.w3.org/1999/xlink"><title>æ¨¡æ‹Ÿå¤§èµ›@4x</title><g id="--ðŸŸ ICON" stroke="none" stroke-width="1" fill="none" fill-rule="evenodd"><g id="è´¢å¯Œ" transform="translate(-476.000000, -5022.000000)"><g id="æ¨¡æ‹Ÿå¤§èµ›" transform="translate(446.000000, 5022.000000)"><g id="ICON" transform="translate(30.000000, 0.000000)"><g id="ç¼–ç»„-49" transform="translate(9.000000, 12.000000)"><path d="M29.0044684,44.8631716 C29.8238618,44.9535856 30.6565106,45 31.5,45 L31.5,45 L32.5465116,45 C33.3741378,45 34.1913272,44.955315 34.9957989,44.868226 C34.9990327,44.9112987 35,44.9555364 35,45 L35,54 L43.8676922,54 C45.0453333,54 46,54.9546667 46,56.1323078 L46,57.8676922 C46,59.0453333 45.0453333,60 43.8676922,60 L20.1323078,60 C18.9546667,60 18,59.0453333 18,57.8676922 L18,56.1323078 C18,54.9546667 18.9546667,54 20.1323078,54 L29,53.999 L29,45 Z M9,11 L9,22.5 C9,25.0808977 9.4345451,27.560302 10.2344623,29.8690398 L3.07435849,25.2787782 C1.23838145,24.6711388 0,22.965197 0,21.0436723 L0,13.2320968 C0,11.9993438 1.00650269,11 2.24808667,11 L9,11 Z M61.7519133,11 C62.9395154,11 63.9120336,11.9143334 63.9943554,13.0726896 L64,13.2320968 L64,21.0436723 C64,22.8940294 62.8516518,24.544477 61.1271472,25.2067878 L60.9256415,25.2787782 L53.8248178,29.8320828 C54.6165896,27.5338503 55.0465116,25.067132 55.0465116,22.5 L55.0465116,22.5 L55.046,11 L61.7519133,11 Z" id="å½¢çŠ¶ç»“åˆ" fill="#333333"/><path d="M14,0 L50.0465116,0 C52.8079354,-5.07265313e-16 55.0465116,2.23857625 55.0465116,5 L55.0465116,22.5 C55.0465116,34.9264069 44.9729185,45 32.5465116,45 L31.5,45 C19.0735931,45 9,34.9264069 9,22.5 L9,5 C9,2.23857625 11.2385763,5.07265313e-16 14,0 Z" id="çŸ©å½¢å¤‡ä»½-14" fill="#333333"/><path d="M45.135902,13 L33.4029616,13 C32.8506768,13 32.4029616,13.4477153 32.4029616,14 L32.4029616,16.495838 C32.4027983,17.0481228 32.8505136,17.495838 33.4027983,17.495838 C33.4028527,17.495838 33.4029072,17.495838 33.4029615,17.4956748 L36.7175293,17.4951337 L36.7175293,17.4951337 L30.7404483,24.0375076 L25.7173562,20.0846144 C24.7736896,19.37679 23.6487142,19.3319683 22.8101492,19.9836518 L16.6705506,26.5743458 C16.2984526,26.973783 16.3154505,27.597823 16.7087407,27.9764121 L18.5776682,29.7754798 C18.9755582,30.1584968 19.6086083,30.1464399 19.9916253,29.7485499 C20.0017336,29.7380491 20.0116112,29.7273285 20.0212508,29.7163958 L24.2501662,24.9202477 L24.2501662,24.9202477 L29.4497861,28.9608481 L29.608331,29.1035173 C30.3306534,29.6768791 31.492542,29.6662145 32.3428053,29.0441095 L40.0772853,20.7687637 L45.8532471,14.6667652 C46.2282576,14.2705865 46.2110973,13.6454141 45.8149185,13.2704036 C45.631479,13.0967654 45.3884891,13 45.135902,13 Z" id="è·¯å¾„" fill="#FFFFFF"/></g></g></g></g></g></svg>