<?xml version="1.0" encoding="UTF-8"?><svg width="82px" height="82px" viewBox="0 0 82 82" version="1.1" xmlns="http://www.w3.org/2000/svg" xmlns:xlink="http://www.w3.org/1999/xlink"><title>目标定投@4x</title><g id="--🟠ICON" stroke="none" stroke-width="1" fill="none" fill-rule="evenodd"><g id="财富" transform="translate(-334.000000, -6450.000000)"><g id="目标定投" transform="translate(304.000000, 6450.000000)"><g id="ICON" transform="translate(30.000000, 0.000000)"><g id="编组-7" transform="translate(11.000000, 14.000000)"><path d="M16.6707599,0 C17.4048789,5.17173198e-16 18,0.595121054 18,1.32924008 L18,4 L42,4 L42,1.32924008 C42,0.595121054 42.5951211,3.56900082e-16 43.3292401,0 L48.6707599,0 C49.4048789,5.17173198e-16 50,0.595121054 50,1.32924008 L50,4 L55,4 C57.7614237,4 60,6.23857625 60,9 L60,16 C60,16.2677744 59.973688,16.5294033 59.9235084,16.7824424 L59.8876389,16.941029 C59.4018489,14.6882338 57.3980785,13 55,13 L55,13 L5,13 C2.60192148,13 0.598151082,14.6882338 0.112361062,16.941029 L0.0764915968,16.7824424 C0.0263120074,16.5294033 -7.48650811e-17,16.2677744 0,16 L0,9 C-3.38176876e-16,6.23857625 2.23857625,4 5,4 L10,4 L10,1.32924008 C10,0.595121054 10.5951211,3.56900082e-16 11.3292401,0 L16.6707599,0 Z" id="形状结合" fill="#333333"/><path d="M5,16 L55,16 C57.7614237,16 60,18.2385763 60,21 L60,51 C60,53.7614237 57.7614237,56 55,56 L5,56 C2.23857625,56 -5.50001544e-16,53.7614237 0,51 L0,21 C-3.38176876e-16,18.2385763 2.23857625,16 5,16 Z" id="矩形备份-3" fill="#333333"/><path d="M27.492,44.374 L27.492,28.424 L10.53,28.424 L10.53,44.374 L27.492,44.374 Z M24.412,33.022 L13.61,33.022 L13.61,30.426 L24.412,30.426 L24.412,33.022 Z M24.412,37.598 L13.61,37.598 L13.61,34.936 L24.412,34.936 L24.412,37.598 Z M24.412,42.394 L13.61,42.394 L13.61,39.49 L24.412,39.49 L24.412,42.394 Z M36.138,44.704 L36.138,34.782 L36.996,39.424 L38.294,39.424 L37.7,33.484 L36.138,33.484 L36.138,32.208 L37.964,32.208 L37.964,30.228 L36.138,30.228 L36.138,27.874 L33.432,27.874 L33.432,30.228 L31.144,30.228 L31.144,32.208 L31.804,32.208 C31.628,35.464 31.3126667,38.5806667 30.858,41.558 L30.858,41.558 L32.156,41.558 C32.6693333,39.2553333 33.0946667,36.674 33.432,33.814 L33.432,33.814 L33.432,44.704 L36.138,44.704 Z M50.152,30.36 L50.152,28.446 L38.822,28.446 L38.822,30.36 L50.152,30.36 Z M41.374,44.704 C43.0606667,44.6013333 44.212,44.2346667 44.828,43.604 C45.4586667,42.9733333 45.774,41.8733333 45.774,40.304 L45.774,40.304 L45.774,34.782 L50.834,34.782 L50.834,32.868 L38.118,32.868 L38.118,34.782 L42.87,34.782 L42.87,40.502 C42.87,41.2793333 42.7893333,41.8146667 42.628,42.108 C42.4373333,42.46 42.0193333,42.702 41.374,42.834 L41.374,42.834 L41.374,44.704 Z M39.328,43.296 L41.924,36.19 L39.108,36.19 L37.59,43.296 L39.328,43.296 Z M51.076,43.296 L49.514,36.19 L46.72,36.19 L49.316,43.296 L51.076,43.296 Z" id="目标" fill="#FFFFFF"/></g></g></g></g></g></svg>