<?xml version="1.0" encoding="UTF-8"?><svg width="82px" height="82px" viewBox="0 0 82 82" version="1.1" xmlns="http://www.w3.org/2000/svg" xmlns:xlink="http://www.w3.org/1999/xlink"><title>ç›®æ ‡ç›ˆ@4x</title><g id="--ðŸŸ ICON" stroke="none" stroke-width="1" fill="none" fill-rule="evenodd"><g id="è´¢å¯Œ" transform="translate(-44.000000, -6006.000000)"><g id="ç›®æ ‡ç›ˆ" transform="translate(14.000000, 6006.000000)"><g id="ICON" transform="translate(30.000000, 0.000000)"><g id="ç›®æ ‡ç›ˆ" transform="translate(8.000000, 9.000000)"><circle id="æ¤­åœ†å½¢" fill="#333333" cx="32.5" cy="32.5" r="32.5"/><path d="M32.5,10 C35.7850122,10 38.9055984,10.7039912 41.7191207,11.9693356 L38.8219421,15.1083531 C36.849426,14.3911688 34.7203942,14 32.5,14 C22.2827321,14 14,22.2827321 14,32.5 C14,42.7172679 22.2827321,51 32.5,51 C42.7172679,51 51,42.7172679 51,32.5 C51,30.2788548 50.6085665,28.1491338 49.890919,26.1760564 L53.029764,23.2788776 C54.2956748,26.0929214 55,29.2142087 55,32.5 C55,44.9264069 44.9264069,55 32.5,55 C20.0735931,55 10,44.9264069 10,32.5 C10,20.0735931 20.0735931,10 32.5,10 Z M32.5,19 C34.3890766,19 36.187529,19.3880084 37.8200093,20.0886774 L34.4479275,23.1998925 C33.8191816,23.0688697 33.1676335,23 32.5,23 C27.2532949,23 23,27.2532949 23,32.5 C23,37.7467051 27.2532949,42 32.5,42 C37.7467051,42 42,37.7467051 42,32.5 C42,32.1538608 41.981488,31.8120454 41.9454,31.4754897 L45.2101973,27.9392768 C45.7214557,29.363907 46,30.8994248 46,32.5 C46,39.9558441 39.9558441,46 32.5,46 C25.0441559,46 19,39.9558441 19,32.5 C19,25.0441559 25.0441559,19 32.5,19 Z" id="å½¢çŠ¶ç»“åˆ" fill="#FFFFFF"/><path d="M48.8543344,10 L50.5614638,14.3811211 L55,16.0661676 L48.571488,22.4115229 L46.2710877,21.5376088 L36.8483414,30.9052463 C36.9471261,31.2531727 37,31.6204117 37,32 C37,34.209139 35.209139,36 33,36 C30.790861,36 29,34.209139 29,32 C29,29.790861 30.790861,28 33,28 C33.4020315,28 33.7902101,28.0593111 34.1562632,28.1696605 L43.4377292,18.9429813 L42.4258224,16.3453553 L48.8543344,10 Z" id="å½¢çŠ¶ç»“åˆ" fill="#FFFFFF"/></g></g></g></g></g></svg>