<?xml version="1.0" encoding="UTF-8"?><svg width="82px" height="82px" viewBox="0 0 82 82" version="1.1" xmlns="http://www.w3.org/2000/svg" xmlns:xlink="http://www.w3.org/1999/xlink"><title>ç›®æ ‡è®¡åˆ’@4x</title><g id="--ðŸŸ ICON" stroke="none" stroke-width="1" fill="none" fill-rule="evenodd"><g id="è´¢å¯Œ" transform="translate(-332.000000, -6228.000000)"><g id="ç›®æ ‡è®¡åˆ’" transform="translate(302.000000, 6228.000000)"><g id="ICON" transform="translate(30.000000, 0.000000)"><g id="ç›®æ ‡è®¡åˆ’" transform="translate(13.000000, 11.000000)"><path d="M2,9 L54,9 L54,43 C54,51.836556 46.836556,59 38,59 L7,59 C4.23857625,59 2,56.7614237 2,54 L2,9 L2,9 Z" id="å½¢çŠ¶ç»“åˆ" fill="#333333"/><path d="M31,30 C31.5522847,30 32,30.4477153 32,31 L32,34 C32,34.5522847 31.5522847,35 31,35 L15,35 C14.4477153,35 14,34.5522847 14,34 L14,31 C14,30.4477153 14.4477153,30 15,30 L31,30 Z M40,20 C40.5522847,20 41,20.4477153 41,21 L41,24 C41,24.5522847 40.5522847,25 40,25 L15,25 C14.4477153,25 14,24.5522847 14,24 L14,21 C14,20.4477153 14.4477153,20 15,20 L40,20 Z" id="å½¢çŠ¶ç»“åˆ" fill="#FFFFFF"/><path d="M3.80487805,0 L52.195122,0 C54.2964981,5.80726787e-17 56,1.70350193 56,3.80487805 L56,9 L56,9 L-5.32907052e-14,9 L-5.32907052e-14,3.80487805 C-5.31039603e-14,1.70350193 1.70350193,8.30105741e-16 3.80487805,0 Z" id="å½¢çŠ¶ç»“åˆ" fill="#333333" transform="translate(28.000000, 4.500000) rotate(-360.000000) translate(-28.000000, -4.500000) "/></g></g></g></g></g></svg>