<?xml version="1.0" encoding="UTF-8"?><svg width="82px" height="82px" viewBox="0 0 82 82" version="1.1" xmlns="http://www.w3.org/2000/svg" xmlns:xlink="http://www.w3.org/1999/xlink"><title>å¹´é‡‘å¤‡ä»½ 3@4x</title><g id="--ðŸŸ ICON" stroke="none" stroke-width="1" fill="none" fill-rule="evenodd"><g id="ä¿é™©" transform="translate(-476.000000, -118.000000)"><g id="å¹´é‡‘" transform="translate(446.000000, 118.000000)"><g id="ICON" transform="translate(30.000000, 0.000000)"><g transform="translate(13.000000, 11.000000)"><path d="M2.66711929,6.25421914 C11.271403,2.08473971 19.7239912,0 28.0248839,0 C36.3257767,0 44.7783651,2.08473979 53.382649,6.25421938 C55.00517,7.04046108 56.0106938,8.71028134 55.9466565,10.5121275 L54.9443913,38.713315 C54.7594209,43.9179128 51.9987825,48.6899043 47.5791629,51.4447209 L31.6365672,61.381985 C29.4259191,62.7599159 26.6238487,62.7599159 24.4132005,61.381985 L8.47060488,51.4447209 C4.05098525,48.6899043 1.2903469,43.9179128 1.10537642,38.713315 L0.103111037,10.5121212 C0.0390805675,8.7102783 1.04460243,7.04046131 2.66711929,6.25421914 Z" id="Rectangle-12-Copyå¤‡ä»½" fill="#333333"/><path d="M28,16 C35.1797017,16 41,21.8202983 41,29 C41,36.1797017 35.1797017,42 28,42 C20.8202983,42 15,36.1797017 15,29 C15,21.8202983 20.8202983,16 28,16 Z M28.7070978,23.9242683 C28.3165685,23.5337489 27.6834035,23.533757 27.2929022,23.9243043 L27.2929022,23.9243043 L22.9244334,28.2928842 C22.5339391,28.6834244 22.5339391,29.3165756 22.9244334,29.7071158 L22.9244334,29.7071158 L27.2929022,34.0756957 L27.2929022,34.0756957 L27.3871106,34.1589191 C27.7794056,34.4639389 28.346635,34.4362009 28.7070978,34.0756957 L28.7070978,34.0756957 L33.0755666,29.7071158 C33.4660609,29.3165756 33.4660609,28.6834244 33.0755666,28.2928842 L33.0755666,28.2928842 Z" id="å½¢çŠ¶ç»“åˆ" fill="#FFFFFF"/></g></g></g></g></g></svg>