<?xml version="1.0" encoding="UTF-8"?><svg width="82px" height="82px" viewBox="0 0 82 82" version="1.1" xmlns="http://www.w3.org/2000/svg" xmlns:xlink="http://www.w3.org/1999/xlink"><title>牛股选基@4x</title><g id="--🟠ICON" stroke="none" stroke-width="1" fill="none" fill-rule="evenodd"><g id="财富" transform="translate(-188.000000, -2164.000000)"><g id="牛股选基" transform="translate(158.000000, 2164.000000)"><g id="ICON" transform="translate(30.000000, 0.000000)"><g id="编组-5" transform="translate(8.000000, 12.000000)"><path d="M32.928326,9.09662586 C57.035298,9.09662586 55.5700309,17.9926564 55.7926782,27.3136715 C55.9411098,33.5276815 53.6515547,39.9661679 48.9240129,46.6291305 C50.3398958,55.2070914 46.1513947,59.9449186 36.3585095,60.8426122 L35.5840845,60.9047901 C34.6673553,60.9682634 33.7043088,61 32.694945,61 C31.6855813,61 30.7221142,60.9682634 29.8045437,60.9047901 L29.0292946,60.8426122 C19.2245118,59.9449186 14.9732174,55.2070914 16.2754114,46.6291305 C12.0354388,38.7151092 9.96377734,32.2766229 10.0604271,27.3136715 C10.2054017,19.8692444 8.82135395,9.09662586 32.928326,9.09662586 Z" id="路径" fill="#333333"/><path d="M51.0173221,0 C59.2920266,2.03267512e-15 66,6.70797338 66,14.9826779 C66,21.5985183 61.7119842,27.2128389 55.7635912,29.1980011 C55.7978503,28.5674286 55.807625,27.9394119 55.7926782,27.3136715 C55.7770929,26.6612004 55.7697784,26.0108118 55.7613844,25.3654112 L55.7537071,24.8134999 C55.6910038,20.6929017 55.4739288,16.811752 52.6338137,13.9371854 C53.7717894,12.7268822 54.1716219,10.9316541 53.5442496,9.30160606 L53.4595116,9.09662586 L50.2408379,1.82116464 C49.7782579,0.77555299 48.7743322,0.0805516759 47.644359,0.00655650415 L47.4437281,0 L51.0173221,0 Z M18.0148554,0 C16.8990387,1.04380738e-15 15.8774554,0.606933835 15.3408861,1.57363651 L15.2513117,1.74791542 L11.7659632,9.09662586 C11.3005232,10.0779866 11.2200046,11.1982067 11.5403097,12.2360448 C11.8411708,13.2108811 12.4541728,14.0033305 13.2356981,14.5375159 C9.76948231,18.2807535 10.1388893,23.2846464 10.0604271,27.3136715 C10.0488669,27.907283 10.0683271,28.5220039 10.1188076,29.1578341 C4.23182463,27.1389816 8.04880696e-16,21.5550275 0,14.9826779 C-1.01335904e-15,6.70797338 6.70797338,1.52003856e-15 14.9826779,0 L18.0148554,0 Z" id="形状结合" fill="#333333"/><path d="M34.6995255,22.5851692 L40.9777224,30.9058723 C41.4187588,31.4903926 41.3024422,32.3217705 40.7179219,32.7628069 C40.4878758,32.936383 40.2075386,33.0302792 39.9193548,33.0302792 L39.0425968,33.0302792 C38.0102499,33.0302792 37.1266573,33.7708972 36.9463057,34.7873683 L34.2504877,49.9811374 C34.1429037,50.5874867 33.6158196,51.029283 33,51.029283 C32.3841804,51.029283 31.8570963,50.5874867 31.7495123,49.9811374 L29.0536943,34.7873683 C28.8733427,33.7708972 27.9897501,33.0302792 26.9574032,33.0302792 L26.0806452,33.0302792 C25.348404,33.0302792 24.7548053,32.4366805 24.7548053,31.7044394 C24.7548053,31.4162556 24.8487016,31.1359185 25.0222776,30.9058723 L31.3004745,22.5851692 C32.0086903,21.6465471 33.3437162,21.459766 34.2823382,22.1679819 C34.4400884,22.2870087 34.5804987,22.427419 34.6995255,22.5851692 Z" id="矩形" fill="#FFFFFF"/></g></g></g></g></g></svg>