<?xml version="1.0" encoding="UTF-8"?><svg width="82px" height="82px" viewBox="0 0 82 82" version="1.1" xmlns="http://www.w3.org/2000/svg" xmlns:xlink="http://www.w3.org/1999/xlink"><title>暖心宝@4x</title><g id="--🟠ICON" stroke="none" stroke-width="1" fill="none" fill-rule="evenodd"><g id="财富" transform="translate(-620.000000, -1606.000000)"><g id="暖心宝" transform="translate(590.000000, 1606.000000)"><g id="ICON" transform="translate(30.000000, 0.000000)"><g id="暖心宝" transform="translate(9.000000, 14.000000)"><path d="M58.509668,5.49304081 C65.8301107,12.8170952 65.8301107,24.6917336 58.509668,32.0157881 L36.7717402,53.7644408 C35.4870025,55.0498123 33.8131259,55.7085653 32.1295209,55.7406995 L32,55.7419355 C30.2729697,55.7419355 28.5459394,55.0827706 27.2282598,53.7644408 L5.49033201,32.0157881 C-1.83011067,24.6917336 -1.83011067,12.8170952 5.49033201,5.49304081 C12.7375703,-1.75777306 24.4426365,-1.8302812 31.7790313,5.27551639 L32,5.49304081 C39.3204427,-1.8310136 51.1892253,-1.8310136 58.509668,5.49304081 Z" id="路径" fill="#333333"/><path d="M47.135902,17 L35.4029616,17 C34.8506768,17 34.4029616,17.4477153 34.4029616,18 L34.4029616,21.495838 L34.4029616,21.495838 L38.7175293,21.4951337 L32.7404483,28.0375076 L27.7173562,24.0846144 C26.7736896,23.37679 25.6487142,23.3319683 24.8101492,23.9836518 L18.6705506,30.5743458 C18.2984526,30.973783 18.3154505,31.597823 18.7087407,31.9764121 L20.5776682,33.7754798 C20.9755582,34.1584968 21.6086083,34.1464399 21.9916253,33.7485499 C22.0017336,33.7380491 22.0116112,33.7273285 22.0212508,33.7163958 L26.2501662,28.9202477 L26.2501662,28.9202477 L31.4497861,32.9608481 L31.608331,33.1035173 C32.3306534,33.6768791 33.492542,33.6662145 34.3428053,33.0441095 L42.0772853,24.7687637 L47.8532471,18.6667652 C48.2282576,18.2705865 48.2110973,17.6454141 47.8149185,17.2704036 C47.631479,17.0967654 47.3884891,17 47.135902,17 Z" id="路径" fill="#FFFFFF"/></g></g></g></g></g></svg>