<?xml version="1.0" encoding="UTF-8"?><svg width="82px" height="82px" viewBox="0 0 82 82" version="1.1" xmlns="http://www.w3.org/2000/svg" xmlns:xlink="http://www.w3.org/1999/xlink"><title>盘中直播@4x</title><g id="--🟠ICON" stroke="none" stroke-width="1" fill="none" fill-rule="evenodd"><g id="财富" transform="translate(-44.000000, -5648.000000)"><g id="盘中直播" transform="translate(14.000000, 5648.000000)"><g id="ICON" transform="translate(30.000000, 0.000000)"><g id="盘中直播" transform="translate(11.002961, 11.000000)"><path d="M5.44812864,60 C2.43921028,60 0,57.5579168 0,54.5454545 C0,53.4739605 0.315213613,52.4261976 0.906296241,51.5329466 L4.62735732,45.9108391 C1.7399542,41.298832 0.0705849508,35.8445967 0.0705849508,30 C0.0705849508,13.4314575 13.4862415,0 30.0352925,0 C46.5843435,0 60,13.4314575 60,30 C60,46.1115269 47.3142334,59.2566444 31.3973586,59.9695585 L31.3973246,60 L5.44812864,60 Z" id="路径" fill="#333333"/><path d="M39.7114683,33.2267018 L26.8541504,40.6547849 C25.6245339,41.3651737 24.0519778,40.9440331 23.3417481,39.7141412 C23.1159281,39.3230928 22.9970392,38.8794617 22.9970392,38.4278686 L22.9970392,23.5717025 C22.9970392,22.1513904 24.1481718,21 25.5681658,21 C26.0196578,21 26.4631896,21.1189156 26.8541504,21.3447861 L39.7114683,28.7728692 C40.9410848,29.4832579 41.362131,31.0561662 40.6519014,32.2860581 C40.4263289,32.6766778 40.1020005,33.0010789 39.7114683,33.2267018 Z" id="三角形" fill="#FFFFFF"/></g></g></g></g></g></svg>