<?xml version="1.0" encoding="UTF-8"?><svg width="82px" height="82px" viewBox="0 0 82 82" version="1.1" xmlns="http://www.w3.org/2000/svg" xmlns:xlink="http://www.w3.org/1999/xlink"><title>潜力基@4x</title><g id="--🟠ICON" stroke="none" stroke-width="1" fill="none" fill-rule="evenodd"><g id="财富" transform="translate(-44.000000, -2652.000000)"><g id="潜力基" transform="translate(14.000000, 2652.000000)"><g id="ICON" transform="translate(30.000000, 0.000000)"><g id="潜力基" transform="translate(15.000000, 13.000000)"><path d="M5,0 L47,0 C49.7614237,-5.07265313e-16 52,2.23857625 52,5 L52,53.7700469 C52,56.5314707 49.7614237,58.7700469 47,58.7700469 C46.3971848,58.7700469 45.7993376,58.6610383 45.2353153,58.4482825 L27.6647969,51.8204792 C26.5918311,51.4157441 25.4081689,51.4157441 24.3352031,51.8204792 L6.76468469,58.4482825 C4.18096654,59.4228909 1.29637289,58.1184498 0.321764442,55.5347316 C0.109008685,54.9707093 -8.14354847e-16,54.3728622 0,53.7700469 L0,5 C-3.38176876e-16,2.23857625 2.23857625,-3.80913106e-16 5,0 Z" id="Rectangle-53-Copy-2" fill="#333333"/><path d="M27.8413937,12 C28.4145962,12 28.9290297,12.2250516 29.2802653,12.5817524 L29.2820815,12.582877 L38.7878625,21.0671671 L38.7841708,21.0772596 C39.1285763,21.3871852 39.3413937,21.8142209 39.3413937,22.2857143 C39.3413937,23.2324881 38.4832728,24 37.424727,24 L33.325,23.999 L33.2857025,24.2147577 C31.3816883,34.0184685 22.595921,40.7617034 13,40.1017054 C17.7092812,38.3540886 21.4121489,34.1638743 22.3611587,28.781772 C22.6480221,27.1548891 22.6611898,25.5442825 22.4342083,23.9988986 L18.2580603,24 C17.1995146,24 16.3413937,23.2324881 16.3413937,22.2857143 C16.3413937,21.8101358 16.5579149,21.3797886 16.9075982,21.0692302 L16.9065729,21.0671671 L26.3777583,12.6074056 C26.7293395,12.2358755 27.2545688,12 27.8413937,12 Z" id="形状结合" fill="#FFFFFF"/></g></g></g></g></g></svg>