<?xml version="1.0" encoding="UTF-8"?><svg width="82px" height="82px" viewBox="0 0 82 82" version="1.1" xmlns="http://www.w3.org/2000/svg" xmlns:xlink="http://www.w3.org/1999/xlink"><title>期货@4x</title><g id="--🟠ICON" stroke="none" stroke-width="1" fill="none" fill-rule="evenodd"><g id="财富" transform="translate(-332.000000, -5512.000000)"><g id="期货" transform="translate(302.000000, 5512.000000)"><g id="ICON" transform="translate(30.000000, 0.000000)"><g id="编组-7" transform="translate(11.000000, 14.000000)"><path d="M16.6707599,0 C17.4048789,5.17173198e-16 18,0.595121054 18,1.32924008 L18,4 L42,4 L42,1.32924008 C42,0.595121054 42.5951211,3.56900082e-16 43.3292401,0 L48.6707599,0 C49.4048789,5.17173198e-16 50,0.595121054 50,1.32924008 L50,4 L55,4 C57.7614237,4 60,6.23857625 60,9 L60,16 C60,16.2677744 59.973688,16.5294033 59.9235084,16.7824424 L59.8876389,16.941029 C59.4018489,14.6882338 57.3980785,13 55,13 L55,13 L5,13 C2.60192148,13 0.598151082,14.6882338 0.112361062,16.941029 L0.0764915968,16.7824424 C0.0263120074,16.5294033 -7.48650811e-17,16.2677744 0,16 L0,9 C-3.38176876e-16,6.23857625 2.23857625,4 5,4 L10,4 L10,1.32924008 C10,0.595121054 10.5951211,3.56900082e-16 11.3292401,0 L16.6707599,0 Z" id="形状结合" fill="#333333"/><path d="M5,16 L55,16 C57.7614237,16 60,18.2385763 60,21 L60,51 C60,53.7614237 57.7614237,56 55,56 L5,56 C2.23857625,56 -5.50001544e-16,53.7614237 0,51 L0,21 C-3.38176876e-16,18.2385763 2.23857625,16 5,16 Z" id="矩形备份-3" fill="#333333"/><path d="M18.84,41.184 L18.84,39.384 L17.52,39.384 L17.52,30.552 L18.576,30.552 L18.576,28.752 L17.52,28.752 L17.52,27.408 L14.904,27.408 L14.904,28.752 L11.16,28.752 L11.16,27.408 L8.544,27.408 L8.544,28.752 L7.56,28.752 L7.56,30.552 L8.544,30.552 L8.544,39.384 L7.2,39.384 L7.2,41.184 L18.84,41.184 Z M20.544,45.744 C21.056,44.544 21.416,43.568 21.624,42.816 C21.912,41.776 22.056,40.752 22.056,39.744 L22.056,39.744 L22.056,39.12 L25.728,39.12 L25.728,41.592 C25.728,42.392 25.632,42.952 25.44,43.272 C25.232,43.64 24.848,43.832 24.288,43.848 L24.288,43.848 L24.288,45.744 C25.808,45.696 26.872,45.32 27.48,44.616 C28.056,43.96 28.344,42.856 28.344,41.304 L28.344,41.304 L28.344,27.912 L19.44,27.912 L19.44,40.008 C19.44,41.816 19.136,43.728 18.528,45.744 L18.528,45.744 L20.544,45.744 Z M25.728,32.592 L22.056,32.592 L22.056,29.784 L25.728,29.784 L25.728,32.592 Z M14.904,32.424 L11.16,32.424 L11.16,30.552 L14.904,30.552 L14.904,32.424 Z M14.904,35.88 L11.16,35.88 L11.16,34.032 L14.904,34.032 L14.904,35.88 Z M25.728,37.272 L22.056,37.272 L22.056,34.464 L25.728,34.464 L25.728,37.272 Z M14.904,39.384 L11.16,39.384 L11.16,37.488 L14.904,37.488 L14.904,39.384 Z M9.432,45.744 L11.568,41.856 L8.616,41.856 L7.464,45.744 L9.432,45.744 Z M18.36,45.744 L17.208,41.856 L14.256,41.856 L16.392,45.744 L18.36,45.744 Z M44.8493571,34.8511475 L45.048,34.848 L52.8,34.848 L52.8,32.952 L46.2,32.952 C45.784,32.952 45.496,32.864 45.336,32.688 C45.192,32.528 45.12,32.24 45.12,31.824 L45.12,31.824 L45.12,31.368 C47.328,30.984 49.544,30.512 51.768,29.952 L51.768,29.952 L51.768,28.056 C49.576,28.616 47.36,29.088 45.12,29.472 L45.12,29.472 L45.12,27.408 L42.24,27.408 L42.24,29.928 C41.536,30.04 40.328,30.2 38.616,30.408 L38.616,30.408 L38.616,32.304 C39.288,32.224 40.496,32.064 42.24,31.824 L42.24,31.824 L42.24,32.112 C42.224,34 43.16,34.912 45.048,34.848 L44.8493571,34.8511475 Z M36.696,35.016 L36.696,30.432 L35.664,30.432 C36.832,29.504 37.832,28.496 38.664,27.408 L38.664,27.408 L35.112,27.408 C34.216,29.04 32.856,30.448 31.032,31.632 L31.032,31.632 L33.84,31.632 L33.84,35.016 L36.696,35.016 Z M35.976,42.168 L35.976,37.8 L48,37.8 L48,42.168 L50.88,42.168 L50.88,35.904 L33.096,35.904 L33.096,42.168 L35.976,42.168 Z M52.8,45.768 L52.8,43.872 C49.808,43.712 47.544,43.352 46.008,42.792 C44.312,42.184 43.464,41.368 43.464,40.344 L43.464,40.344 L43.464,38.472 L40.512,38.472 L40.512,40.344 C40.512,41.368 39.672,42.184 37.992,42.792 C36.424,43.352 34.16,43.712 31.2,43.872 L31.2,43.872 L31.2,45.768 C35.408,45.512 38.448,44.976 40.32,44.16 C40.976,43.888 41.536,43.552 42,43.152 C42.464,43.552 43.024,43.888 43.68,44.16 C45.584,44.976 48.624,45.512 52.8,45.768 L52.8,45.768 Z" id="期货" fill="#FFFFFF"/></g></g></g></g></g></svg>