<?xml version="1.0" encoding="UTF-8"?><svg width="82px" height="82px" viewBox="0 0 82 82" version="1.1" xmlns="http://www.w3.org/2000/svg" xmlns:xlink="http://www.w3.org/1999/xlink"><title>æ¸…ä»“è®°å½•@4x</title><g id="--ðŸŸ ICON" stroke="none" stroke-width="1" fill="none" fill-rule="evenodd"><g id="è´¢å¯Œ" transform="translate(-332.000000, -3096.000000)"><g id="æ¸…ä»“è®°å½•" transform="translate(302.000000, 3096.000000)"><g transform="translate(30.000000, 0.000000)" id="ç¼–ç»„-9"><g transform="translate(16.000000, 12.000000)"><path d="M46,3 C48.7614237,3 51,5.23857625 51,8 L51,44 C51,52.836556 43.836556,60 35,60 L5,60 C2.23857625,60 -5.50001544e-16,57.7614237 0,55 L0,8 C-3.38176876e-16,5.23857625 2.23857625,3 5,3 L11.599,3 L12.9310218,7.43673943 C13.5436193,9.47873097 15.3794231,10.8993218 17.4927108,10.9948656 L17.7201533,11 L33.2798467,11 C35.4878878,11 37.4345022,9.55165923 38.0689782,7.43673943 L38.0689782,7.43673943 L39.4,3 L46,3 Z" id="å½¢çŠ¶ç»“åˆ" fill="#333333"/><path d="M12.2609803,30 C12.0121721,30 11.7722935,29.9072416 11.588209,29.7398442 C11.2110355,29.3968609 11.1564375,28.8315831 11.4425157,28.4252681 L11.5211431,28.3272217 L18.3358394,20.8332024 C18.5253579,20.6247918 18.7939883,20.5059807 19.0756836,20.5059807 C19.5885194,20.5059807 20.0111908,20.8920209 20.0689559,21.3893596 L20.0756836,21.5059807 L20.0749803,24.9999807 L28.5,25 C34.2989899,25 39,29.7010101 39,35.5 C39,41.2989899 34.2989899,46 28.5,46 L16,46 C15.4477153,46 15,45.5522847 15,45 L15,42 C15,41.4477153 15.4477153,41 16,41 L28.5,41 L28.5,41 C31.4634791,41 33.8795391,38.65622 33.9956328,35.7212071 L34,35.5 C34,32.5365209 31.65622,30.1204609 28.7212071,30.0043672 L28.5,30 L12.2609803,30 Z" id="è·¯å¾„" fill="#FFFFFF"/><path d="M16.3104669,0 L34.6895331,0 C35.3172389,-1.15307689e-16 35.826095,0.508856112 35.826095,1.13656194 C35.826095,1.19034276 35.8222777,1.24405577 35.814672,1.29729607 L35.5,3.5 C35.2131021,5.50828497 33.4931403,7 31.4644661,7 L19.5355339,7 C17.5068597,7 15.7868979,5.50828497 15.5,3.5 L15.185328,1.29729607 C15.096557,0.675899003 15.5283357,0.100194032 16.1497328,0.0114230229 C16.2029731,0.00381726569 16.2566861,9.87937733e-18 16.3104669,0 Z" id="çŸ©å½¢å¤‡ä»½-5" fill="#333333"/></g></g></g></g></g></svg>