<?xml version="1.0" encoding="UTF-8"?><svg width="82px" height="82px" viewBox="0 0 82 82" version="1.1" xmlns="http://www.w3.org/2000/svg" xmlns:xlink="http://www.w3.org/1999/xlink"><title>权益盈@4x</title><g id="--🟠ICON" stroke="none" stroke-width="1" fill="none" fill-rule="evenodd"><g id="财富" transform="translate(-332.000000, -2300.000000)"><g id="权益盈" transform="translate(302.000000, 2300.000000)"><g id="ICON" transform="translate(30.000000, 0.000000)"><g id="icon" transform="translate(10.000000, 8.000000)"><path d="M7.0286346,49.7458809 L0.152162656,60.3693434 C-0.0413278406,60.6751171 -0.0509398402,61.0604585 0.127071328,61.375245 C0.305082497,61.6900315 0.642561587,61.8844747 1.00803252,61.882823 L10.1274739,62.3776144 C10.3813464,62.3840502 10.6192103,62.5013405 10.7767545,62.6977735 L16.3546653,70.0323284 C16.5675601,70.2703964 16.873912,70.4067797 17.1957788,70.4067797 C17.5176455,70.4067797 17.8239975,70.2703964 18.0368923,70.0323284 L24.4411603,59.5543929 C24.6002033,59.340619 24.6558521,59.0686764 24.593324,58.8108046 C24.5307959,58.5529327 24.3564207,58.3352366 24.1165199,58.2155455 L8.26817035,49.4839325 C7.83719434,49.3469027 7.36483413,49.4467256 7.0286346,49.7458809 L7.0286346,49.7458809 Z M55.1134183,49.5712487 L61.8423265,60.2238165 C62.0382011,60.5205992 62.0526009,60.8995967 61.8797963,61.2100032 C61.7069918,61.5204098 61.3750179,61.7118662 61.0159693,61.7081907 L51.896528,62.2029821 C51.629372,62.2159496 51.3813501,62.3435661 51.2177345,62.5522466 L45.6693366,69.8576962 C45.4564417,70.0957641 45.1500898,70.2321474 44.8282231,70.2321474 C44.5063563,70.2321474 44.2000044,70.0957641 43.9871096,69.8576962 L37.5828417,59.2924444 C37.4237986,59.0786706 37.3681498,58.806728 37.4306779,58.5488562 C37.493206,58.2909843 37.6675811,58.0732882 37.9074819,57.9535971 L53.7558315,49.2219841 C53.9792702,49.0769632 54.2545863,49.0321866 54.5134104,49.098774 C54.7722345,49.1653613 54.9902868,49.3370661 55.1134183,49.5712487 L55.1134183,49.5712487 Z M55.0855087,12.663744 L33.4741057,0.612752077 C31.8664744,-0.204250692 29.954618,-0.204250692 28.3469867,0.612752077 L6.88462795,12.4882441 C5.35503578,13.3540743 4.39507603,14.9387878 4.35087719,16.6709912 L4.35087719,40.5682252 C4.39507603,42.3004286 5.35503578,43.8851421 6.88462795,44.7509724 L28.645075,56.7727143 C30.2343281,57.6205685 32.1531322,57.6205685 33.7423853,56.7727143 L55.204744,45.0727222 C56.6991127,44.2126387 57.6262471,42.6483079 57.6491228,40.9484749 L57.6491228,16.9927411 C57.657551,15.2004116 56.6766463,13.5439906 55.0855087,12.663744 Z" id="形状" fill="#333333"/><path d="M23.8405285,16.6959706 C24.2240759,16.3173858 24.8647916,16.3142561 25.2585072,16.7019106 L25.2585072,16.7019106 L30.598,21.959 L35.9372751,16.7019106 C36.3309907,16.3142561 36.9717064,16.3173858 37.3552538,16.6959706 L39.4293344,18.7432154 C39.8187468,19.1275894 39.8153912,19.7533114 39.4215429,20.1410966 L34.434,25.051 L39.0052288,25.0517746 C39.5546258,25.0517746 40,25.4954912 40,26.0515821 L40,29.0519671 C40,29.6041455 39.5490746,30.0517746 39.0052288,30.0517746 L33,30.051 L33,33.051 L39.0052288,33.0517746 C39.5546258,33.0517746 40,33.4954912 40,34.0515821 L40,37.0519671 C40,37.6041455 39.5490746,38.0517746 39.0052288,38.0517746 L32.999,38.051 L33,44.0599715 C33,44.6077292 32.5562834,45.0517746 32.0001925,45.0517746 L28.9998075,45.0517746 C28.4476291,45.0517746 28,44.596469 28,44.0599715 L27.999,38.051 L21.9947712,38.0517746 C21.4453742,38.0517746 21,37.6080579 21,37.0519671 L21,34.0515821 C21,33.4994036 21.4509254,33.0517746 21.9947712,33.0517746 L27.999,33.051 L27.999,30.051 L21.9947712,30.0517746 C21.4453742,30.0517746 21,29.6080579 21,29.0519671 L21,26.0515821 C21,25.4994036 21.4509254,25.0517746 21.9947712,25.0517746 L26.761,25.051 L21.7742394,20.1410966 C21.4106871,19.783141 21.3798623,19.2224464 21.6835547,18.8359832 L21.7664479,18.7432154 Z" id="Combined-Shape-Copy-15" fill="#FFFFFF"/></g></g></g></g></g></svg>