<?xml version="1.0" encoding="UTF-8"?><svg width="82px" height="82px" viewBox="0 0 82 82" version="1.1" xmlns="http://www.w3.org/2000/svg" xmlns:xlink="http://www.w3.org/1999/xlink"><title>圈子广场@4x</title><g id="--🟠ICON" stroke="none" stroke-width="1" fill="none" fill-rule="evenodd"><g id="财富" transform="translate(-204.000000, -2874.000000)" fill="#333333"><g id="圈子广场" transform="translate(174.000000, 2874.000000)"><g id="ICON" transform="translate(30.000000, 0.000000)"><g id="编组" transform="translate(9.609825, 9.354167)"><path d="M27.3909656,40.1642138 C28.6363363,40.7558848 30.0295052,41.0869565 31.5,41.0869565 L31.5,41.0869565 L61.5146325,41.0866085 C57.4586948,53.7958054 45.5540865,63 31.5,63 C30.1075711,63 28.7362411,62.9096496 27.3915529,62.7344917 Z M22.8358381,27.3908564 C22.2808664,28.5589427 21.9551549,29.857056 21.9168544,31.2270455 L21.9168544,31.2270455 L21.9130435,31.5 L21.9134159,61.5146325 C9.20423696,57.4586948 0,45.5540865 0,31.5 C0,30.1075659 0.0903503533,28.7362315 0.265508257,27.3915397 Z M63,31.5 C63,32.8924341 62.9096496,34.2637685 62.7344917,35.6084603 L40.1642138,35.6090344 C40.7558848,34.3636637 41.0869565,32.9704948 41.0869565,31.5 L41.0869565,31.5 L41.0866085,1.48536754 C53.7958054,5.54130524 63,17.4459135 63,31.5 Z M31.5,0 C32.8924341,0 34.2637685,0.0903503533 35.6084603,0.265508257 L35.6081351,22.835359 C34.5768367,22.3455248 33.4442077,22.0343901 32.2502608,21.941968 L32.2502608,21.941968 L32.2503184,21.9130435 L1.48536754,21.9133915 C5.54130524,9.2041946 17.4459135,0 31.5,0 Z" id="形状结合"/></g></g></g></g></g></svg>