<?xml version="1.0" encoding="UTF-8"?><svg width="82px" height="82px" viewBox="0 0 82 82" version="1.1" xmlns="http://www.w3.org/2000/svg" xmlns:xlink="http://www.w3.org/1999/xlink"><title>券商理财@4x</title><g id="--🟠ICON" stroke="none" stroke-width="1" fill="none" fill-rule="evenodd"><g id="财富" transform="translate(-188.000000, -4800.000000)"><g id="券商理财" transform="translate(158.000000, 4800.000000)"><g id="ICON" transform="translate(30.000000, 0.000000)"><g id="Group-15" transform="translate(9.000000, 17.000000)"><path d="M59,0 C61.7614237,-5.07265313e-16 64,2.23857625 64,5 L64.000267,19.6735043 C61.6351757,20.7969137 60,23.207499 60,26 C60,28.792501 61.6351757,31.2030863 64.000267,32.3264957 L64,47 C64,49.7614237 61.7614237,52 59,52 L5,52 C2.23857625,52 3.38176876e-16,49.7614237 0,47 L6.40699279e-05,32.3263384 C2.36497687,31.2028614 4,28.7923707 4,26 C4,23.2076293 2.36497687,20.7971386 6.40699279e-05,19.6736616 L0,5 C-3.38176876e-16,2.23857625 2.23857625,5.07265313e-16 5,0 L59,0 Z" id="形状结合" fill="#333333"/><path d="M47.7014802,17 L33.7874219,17 C33.2351372,17 32.7874219,17.4477153 32.7874219,18 L32.7874219,22.1381006 L32.7874219,22.1381006 L37.7291884,22.1372957 L30.8832329,29.6142944 L25.1299457,25.0967022 C24.0491005,24.28776 22.76059,24.2365352 21.8001247,24.9813164 L14.6728106,32.6155263 C14.2996936,33.0151793 14.3167244,33.6404043 14.7110445,34.0191529 L17.0626415,36.2778863 C17.4609511,36.6604669 18.0939877,36.647716 18.4765683,36.2494063 C18.4861605,36.2394198 18.4955442,36.229235 18.5047135,36.2188587 L23.4494736,30.6231402 L23.4494736,30.6231402 L29.4049502,35.2409693 L29.5865424,35.4040197 C30.4138672,36.0592904 31.7446568,36.0471023 32.7185208,35.3361252 L41.5773442,25.8785871 L48.418081,18.6675507 C48.7935253,18.2717831 48.7770499,17.6465922 48.3812822,17.2711479 C48.1977617,17.0970515 47.9544413,17 47.7014802,17 Z" id="路径" fill="#FFFFFF"/></g></g></g></g></g></svg>