<?xml version="1.0" encoding="UTF-8"?><svg width="82px" height="82px" viewBox="0 0 82 82" version="1.1" xmlns="http://www.w3.org/2000/svg" xmlns:xlink="http://www.w3.org/1999/xlink"><title>热门板块@4x</title><g id="--🟠ICON" stroke="none" stroke-width="1" fill="none" fill-rule="evenodd"><g id="财富" transform="translate(-476.000000, -526.000000)"><g id="热门板块" transform="translate(446.000000, 526.000000)"><g id="ICON" transform="translate(30.000000, 0.000000)"><g id="编组-29" transform="translate(9.000000, 16.000000)"><path d="M5,0 L59,0 C61.7614237,-5.07265313e-16 64,2.23857625 64,5 L64,47 C64,49.7614237 61.7614237,52 59,52 L5,52 C2.23857625,52 3.38176876e-16,49.7614237 0,47 L0,5 C-3.38176876e-16,2.23857625 2.23857625,5.07265313e-16 5,0 Z" id="矩形备份-21" fill="#333333"/><path d="M27.6925492,7.82611712 C30.4513411,8.64346124 32.5139697,10.2008634 33.8804349,12.4983237 C35.9301329,15.9445142 37.3102015,22.3653108 36.0086512,25.9515047 L35.9301329,26.1712057 L36.197737,25.7160519 L36.5000722,25.1655224 L36.7787071,24.6282327 L37.0899174,23.9930313 L37.3102015,23.5190397 L37.5370329,23.0073387 L37.7672394,22.4602514 L37.9976489,21.8801004 L38.225089,21.2692085 C38.262572,21.1649605 38.2997991,21.0595284 38.3367042,20.9529607 L38.5537423,20.3003128 C38.6598007,19.9675619 38.7617716,19.6254608 38.8578707,19.2753161 L39.0417108,18.5646891 C39.2749823,17.603919 39.4580388,16.5921442 39.5570431,15.5541414 C43.763961,19.9091161 45.5464495,24.7669322 45.6950557,28.8500264 C45.9923519,37.0185188 39.8815904,42.460314 32.2478396,42.5466013 C31.1043805,41.6634184 30.1083158,40.0660223 29.2993876,38.3739496 L29.0048892,37.7361944 L28.7284005,37.0968235 C28.639291,36.8842373 28.5532608,36.6725918 28.4703874,36.4630971 L28.2313154,35.8422753 L28.0116504,35.2416184 L27.8118581,34.6683866 L27.5504496,33.8758425 L27.2758061,32.9828666 L26.9817953,31.9291591 C26.0648927,34.5313592 25.85385,37.7472024 26.348667,41.5766887 C14.0663085,37.7361944 17.444097,25.7100024 19.0844379,23.0073387 C20.7247788,20.3046751 21.1725036,20.7526177 24.2241549,17.3551425 C27.2758061,13.9576673 28.4703874,11.0294719 27.6925492,7.82611712 Z" id="路径" fill="#FFFFFF"/></g></g></g></g></g></svg>