<?xml version="1.0" encoding="UTF-8"?><svg width="82px" height="82px" viewBox="0 0 82 82" version="1.1" xmlns="http://www.w3.org/2000/svg" xmlns:xlink="http://www.w3.org/1999/xlink"><title>热门活动@4x</title><g id="--🟠ICON" stroke="none" stroke-width="1" fill="none" fill-rule="evenodd"><g id="财富" transform="translate(-188.000000, -5648.000000)"><g id="热门活动" transform="translate(158.000000, 5648.000000)"><g id="ICON" transform="translate(30.000000, 0.000000)"><g id="编组-29" transform="translate(14.000000, 13.000000)"><path d="M5,0 L51,0 C53.7614237,-5.07265313e-16 56,2.23857625 56,5 L56,51 C56,53.7614237 53.7614237,56 51,56 L5,56 C2.23857625,56 1.2263553e-15,53.7614237 0,51 L0,5 C-3.38176876e-16,2.23857625 2.23857625,1.39544373e-15 5,0 Z" id="矩形备份-21" fill="#333333"/><path d="M23.6925492,10.8261171 C26.4513411,11.6434612 28.5139697,13.2008634 29.8804349,15.4983237 C31.9301329,18.9445142 33.3102015,25.3653108 32.0086512,28.9515047 L31.9301329,29.1712057 L32.197737,28.7160519 L32.5000722,28.1655224 L32.7787071,27.6282327 L33.0899174,26.9930313 L33.3102015,26.5190397 L33.5370329,26.0073387 L33.7672394,25.4602514 L33.9976489,24.8801004 L34.225089,24.2692085 C34.262572,24.1649605 34.2997991,24.0595284 34.3367042,23.9529607 L34.5537423,23.3003128 C34.6598007,22.9675619 34.7617716,22.6254608 34.8578707,22.2753161 L35.0417108,21.5646891 C35.2749823,20.603919 35.4580388,19.5921442 35.5570431,18.5541414 C39.763961,22.9091161 41.5464495,27.7669322 41.6950557,31.8500264 C41.9923519,40.0185188 35.8815904,45.460314 28.2478396,45.5466013 C27.1043805,44.6634184 26.1083158,43.0660223 25.2993876,41.3739496 L25.0048892,40.7361944 L24.7284005,40.0968235 C24.639291,39.8842373 24.5532608,39.6725918 24.4703874,39.4630971 L24.2313154,38.8422753 L24.0116504,38.2416184 L23.8118581,37.6683866 L23.5504496,36.8758425 L23.2758061,35.9828666 L22.9817953,34.9291591 C22.0648927,37.5313592 21.85385,40.7472024 22.348667,44.5766887 C10.0663085,40.7361944 13.444097,28.7100024 15.0844379,26.0073387 C16.7247788,23.3046751 17.1725036,23.7526177 20.2241549,20.3551425 C23.2758061,16.9576673 24.4703874,14.0294719 23.6925492,10.8261171 Z" id="路径" fill="#FFFFFF"/></g></g></g></g></g></svg>