<?xml version="1.0" encoding="UTF-8"?><svg width="82px" height="82px" viewBox="0 0 82 82" version="1.1" xmlns="http://www.w3.org/2000/svg" xmlns:xlink="http://www.w3.org/1999/xlink"><title>闪电退款@4x</title><g id="--🟠ICON" stroke="none" stroke-width="1" fill="none" fill-rule="evenodd"><g id="财富" transform="translate(-620.000000, -3862.000000)"><g id="闪电退款" transform="translate(590.000000, 3862.000000)"><g id="ICON" transform="translate(30.000000, 0.000000)"><g id="闪电退款" transform="translate(13.000000, 11.000000)"><path d="M2.66711929,6.25421914 C11.271403,2.08473971 19.7239912,0 28.0248839,0 C36.3257767,0 44.7783651,2.08473979 53.382649,6.25421938 C55.00517,7.04046108 56.0106938,8.71028134 55.9466565,10.5121275 L54.9443913,38.713315 C54.7594209,43.9179128 51.9987825,48.6899043 47.5791629,51.4447209 L31.6365672,61.381985 C29.4259191,62.7599159 26.6238487,62.7599159 24.4132005,61.381985 L8.47060488,51.4447209 C4.05098525,48.6899043 1.2903469,43.9179128 1.10537642,38.713315 L0.103111037,10.5121212 C0.0390805675,8.7102783 1.04460243,7.04046131 2.66711929,6.25421914 Z" id="Rectangle-12-Copy备份" fill="#333333"/><path d="M30.1488398,13.2148513 C30.4438832,13.4347996 30.6070932,13.7894867 30.5822102,14.1566498 L29.765,26.209 L38.8975757,26.2094904 C39.4958842,26.2094904 39.980909,26.6945153 39.980909,27.2928238 C39.980909,27.52615 39.9055777,27.7532411 39.7661239,27.9403074 L27.3481011,44.5981058 C26.9905057,45.0777917 26.3117551,45.1767657 25.8320692,44.8191704 C25.5370258,44.599222 25.3738159,44.2445349 25.3986988,43.8773719 L26.215,31.824 L17.0833333,31.8245313 C16.4850249,31.8245313 16,31.3395064 16,30.7411979 C16,30.5078717 16.0753313,30.2807805 16.2147851,30.0937143 L28.6328079,13.4359159 C28.9904033,12.9562299 29.6691539,12.8572559 30.1488398,13.2148513 Z" id="Combined-Shape-Copy-5" fill="#FFFFFF"/></g></g></g></g></g></svg>