<?xml version="1.0" encoding="UTF-8"?><svg width="82px" height="82px" viewBox="0 0 82 82" version="1.1" xmlns="http://www.w3.org/2000/svg" xmlns:xlink="http://www.w3.org/1999/xlink"><title>å®žç›˜æ±Ÿæ¹–@4x</title><g id="--ðŸŸ ICON" stroke="none" stroke-width="1" fill="none" fill-rule="evenodd"><g id="è´¢å¯Œ" transform="translate(-476.000000, -2164.000000)"><g id="å®žç›˜æ±Ÿæ¹–" transform="translate(446.000000, 2164.000000)"><g id="ICON" transform="translate(30.000000, 0.000000)"><g id="å®žç›˜æ±Ÿæ¹–" transform="translate(11.000000, 14.003443)"><path d="M0,44.9965567 L0,5 C-3.38176876e-16,2.23857625 2.23857625,-1.26909153e-15 5,0 L56,0 C58.7614237,-0.000659219815 61,2.23791703 61,4.99934078 C61,4.99956053 61,4.99978029 60.9993407,4.99999996 L60.9940671,44.9965568 C60.9930437,47.757723 58.7545741,49.9958974 55.9934078,49.9965567 L45,49.9965567 L45,49.9965567 L45,57.6911721 C45,58.7957416 44.1045695,59.6911721 43,59.6911721 C42.6767551,59.6911721 42.3583266,59.612823 42.071986,59.4628351 L24,49.9965567 L24,49.9965567 L5,49.9965567 C2.23857625,49.9965567 -4.73841006e-15,47.7579805 0,44.9965567 Z" id="è·¯å¾„" fill="#333333"/><path d="M43,19.9965567 L43,24.9965567 L42.962067,24.9971266 C42.4511681,31.7093037 36.8430361,36.9965567 30,36.9965567 C23.1569639,36.9965567 17.5488319,31.7093037 17.037933,24.9971266 L17,24.9965567 L17,19.9965567 L43,19.9965567 Z" id="åˆå¹¶å½¢çŠ¶" fill="#FFFFFF"/></g></g></g></g></g></svg>