<?xml version="1.0" encoding="UTF-8"?><svg width="82px" height="82px" viewBox="0 0 82 82" version="1.1" xmlns="http://www.w3.org/2000/svg" xmlns:xlink="http://www.w3.org/1999/xlink"><title>å®žç›˜å¤§èµ›å¤‡ä»½ 2@4x</title><g id="--ðŸŸ ICON" stroke="none" stroke-width="1" fill="none" fill-rule="evenodd"><g id="ç¤¾åŒº" transform="translate(-476.000000, -118.000000)"><g id="å®žç›˜å¤§èµ›" transform="translate(446.000000, 118.000000)"><g id="ICON" transform="translate(30.000000, 0.000000)"><g id="ç¼–ç»„-49" transform="translate(9.000000, 12.000000)"><path d="M29.0044684,44.8631716 C29.8238618,44.9535856 30.6565106,45 31.5,45 L31.5,45 L32.5465116,45 C33.3741378,45 34.1913272,44.955315 34.9957989,44.868226 C34.9990327,44.9112987 35,44.9555364 35,45 L35,54 L43.8676922,54 C45.0453333,54 46,54.9546667 46,56.1323078 L46,57.8676922 C46,59.0453333 45.0453333,60 43.8676922,60 L20.1323078,60 C18.9546667,60 18,59.0453333 18,57.8676922 L18,56.1323078 C18,54.9546667 18.9546667,54 20.1323078,54 L29,53.999 L29,45 Z M9,11 L9,22.5 C9,25.0808977 9.4345451,27.560302 10.2344623,29.8690398 L3.07435849,25.2787782 C1.23838145,24.6711388 0,22.965197 0,21.0436723 L0,13.2320968 C0,11.9993438 1.00650269,11 2.24808667,11 L9,11 Z M61.7519133,11 C62.9395154,11 63.9120336,11.9143334 63.9943554,13.0726896 L64,13.2320968 L64,21.0436723 C64,22.8940294 62.8516518,24.544477 61.1271472,25.2067878 L60.9256415,25.2787782 L53.8248178,29.8320828 C54.6165896,27.5338503 55.0465116,25.067132 55.0465116,22.5 L55.0465116,22.5 L55.046,11 L61.7519133,11 Z" id="å½¢çŠ¶ç»“åˆ" fill="#333333"/><path d="M14,0 L50.0465116,0 C52.8079354,-5.07265313e-16 55.0465116,2.23857625 55.0465116,5 L55.0465116,22.5 C55.0465116,34.9264069 44.9729185,45 32.5465116,45 L31.5,45 C19.0735931,45 9,34.9264069 9,22.5 L9,5 C9,2.23857625 11.2385763,5.07265313e-16 14,0 Z" id="çŸ©å½¢å¤‡ä»½-14" fill="#333333"/><path d="M32,28 L26.7400491,30.7653198 C26.2512045,31.0223206 25.6465774,30.8343741 25.3895766,30.3455295 C25.2872375,30.150869 25.2519228,29.927901 25.2890997,29.7111433 L26.2936609,23.854102 L26.2936609,23.854102 L22.0382713,19.7061222 C21.6427877,19.320621 21.6346954,18.6875078 22.0201966,18.2920242 C22.1737052,18.1345405 22.3748476,18.0320534 22.5924846,18.0004289 L28.4732885,17.145898 L28.4732885,17.145898 L31.1032639,11.8169858 C31.3476862,11.3217321 31.9473121,11.1183931 32.4425657,11.3628154 C32.6397783,11.4601456 32.7994058,11.6197731 32.8967361,11.8169858 L35.5267115,17.145898 L35.5267115,17.145898 L41.4075154,18.0004289 C41.9540602,18.0798465 42.3327417,18.5872893 42.2533241,19.1338342 C42.2216996,19.3514712 42.1192124,19.5526136 41.9617287,19.7061222 L37.7063391,23.854102 L37.7063391,23.854102 L38.7109003,29.7111433 C38.8042613,30.2554798 38.4386735,30.7724357 37.8943371,30.8657967 C37.6775794,30.9029736 37.4546114,30.8676589 37.2599509,30.7653198 L32,28 L32,28 Z" id="æ˜Ÿå½¢" fill="#FFFFFF"/></g></g></g></g></g></svg>