<?xml version="1.0" encoding="UTF-8"?><svg width="82px" height="82px" viewBox="0 0 82 82" version="1.1" xmlns="http://www.w3.org/2000/svg" xmlns:xlink="http://www.w3.org/1999/xlink"><title>实时金价@4x</title><g id="--🟠ICON" stroke="none" stroke-width="1" fill="none" fill-rule="evenodd"><g id="财富" transform="translate(-620.000000, -2516.000000)"><g id="实时金价" transform="translate(590.000000, 2516.000000)"><g id="ICON" transform="translate(30.000000, 0.000000)"><g id="编组-15" transform="translate(7.000000, 16.000000)"><path d="M10.4358713,0 L55.5641287,0 C58.0951341,4.23240264e-16 60.2269557,1.89129722 60.5285129,4.4042739 L65.3285129,44.4042739 C65.6575233,47.1460276 63.7016085,49.6353738 60.9598548,49.9643842 C60.7621657,49.9881069 60.5632361,50 60.3641287,50 L5.63587132,50 C2.87444758,50 0.635871325,47.7614237 0.635871325,45 C0.635871325,44.8008926 0.64776444,44.601963 0.671487132,44.4042739 L5.47148713,4.4042739 C5.77304433,1.89129722 7.90486589,-4.23240264e-16 10.4358713,0 Z" id="矩形" fill="#333333"/><path d="M22.8950298,21.9930915 L27.5020108,16.8102379 C28.6027648,15.5718896 30.4989819,15.4603474 31.7373303,16.5611014 C31.9048536,16.710011 32.0551612,16.8772257 32.1854391,17.0596148 L40,28 L40,28 L42.1,25.2 C42.6665631,24.4445825 43.5557281,24 44.5,24 L51,24 C51.5522847,24 52,24.4477153 52,25 L52,28 C52,28.5522847 51.5522847,29 51,29 L46.5438537,29 C45.5750004,29 44.6657878,29.4678971 44.1026533,30.2562854 L42.4412004,32.5823194 C41.4781734,33.9305572 39.6045232,34.2428322 38.2562854,33.2798053 C37.9868989,33.0873863 37.7512186,32.851706 37.5587996,32.5823194 L30,22 L30,22 L24.8786797,27.1213203 C24.3160705,27.6839295 23.5530088,28 22.7573593,28 L16,28 C15.4477153,28 15,27.5522847 15,27 L15,24 C15,23.4477153 15.4477153,23 16,23 L20.6528018,23 C21.5097152,23 22.3257275,22.6335566 22.8950298,21.9930915 Z" id="路径-2" fill="#FFFFFF"/></g></g></g></g></g></svg>