<?xml version="1.0" encoding="UTF-8"?><svg width="82px" height="82px" viewBox="0 0 82 82" version="1.1" xmlns="http://www.w3.org/2000/svg" xmlns:xlink="http://www.w3.org/1999/xlink"><title>手机充值@4x</title><g id="--🟠ICON" stroke="none" stroke-width="1" fill="none" fill-rule="evenodd"><g id="财富" transform="translate(-620.000000, -3726.000000)"><g id="手机充值" transform="translate(590.000000, 3726.000000)"><g id="ICON" transform="translate(30.000000, 0.000000)"><g id="手机充值" transform="translate(17.000000, 12.000000)"><path d="M5,0 L43,0 C45.7614237,-5.07265313e-16 48,2.23857625 48,5 L48,53 C48,55.7614237 45.7614237,58 43,58 L5,58 C2.23857625,58 1.2263553e-15,55.7614237 0,53 L0,5 C-3.38176876e-16,2.23857625 2.23857625,5.07265313e-16 5,0 Z" id="矩形" fill="#333333"/><path d="M7,4 L41,4 C42.6568542,4 44,5.34314575 44,7 L44,45 C44,46.6568542 42.6568542,48 41,48 L7,48 C5.34314575,48 4,46.6568542 4,45 L4,7 C4,5.34314575 5.34314575,4 7,4 Z" id="矩形" fill="#666666"/><path d="M20,51 L28,51 C29.1045695,51 30,51.8954305 30,53 C30,54.1045695 29.1045695,55 28,55 L20,55 C18.8954305,55 18,54.1045695 18,53 C18,51.8954305 18.8954305,51 20,51 Z" id="矩形" fill="#FFFFFF"/><path d="M15.544,36.896 C17.168,34.992 18.4186667,33.172 19.296,31.436 C20.08,29.9053333 20.6493333,28.3 21.004,26.62 L21.004,26.62 L26.8,26.62 L26.8,33.06 C26.8,34.1986667 27.0986667,35.076 27.696,35.692 C28.2933333,36.308 29.18,36.616 30.356,36.616 L30.356,36.616 L36.6,36.616 L36.6,33.9 L32.204,33.9 C31.7,33.9 31.364,33.8066667 31.196,33.62 C31.028,33.4333333 30.944,33.088 30.944,32.584 L30.944,32.584 L30.944,26.62 L35.592,26.62 L33.408,20.908 L29.264,20.908 L30.692,23.904 L17.7,23.904 L20.108,19.872 L36.348,19.872 L36.348,17.128 L26.016,17.128 L26.016,15.476 L21.872,15.476 L21.872,17.128 L11.736,17.128 L11.736,19.872 L15.74,19.872 L12.436,26.62 L16.748,26.62 C16.5426667,28.132 16.104,29.6626667 15.432,31.212 C14.6853333,32.948 13.5746667,34.8426667 12.1,36.896 L12.1,36.896 L15.544,36.896 Z" id="充" fill="#FFFFFF"/></g></g></g></g></g></svg>