<?xml version="1.0" encoding="UTF-8"?><svg width="82px" height="82px" viewBox="0 0 82 82" version="1.1" xmlns="http://www.w3.org/2000/svg" xmlns:xlink="http://www.w3.org/1999/xlink"><title>æ”¶ç›Šè®°å½•@4x</title><g id="--ðŸŸ ICON" stroke="none" stroke-width="1" fill="none" fill-rule="evenodd"><g id="è´¢å¯Œ" transform="translate(-188.000000, -5870.000000)"><g id="æ”¶ç›Šè®°å½•" transform="translate(158.000000, 5870.000000)"><g id="ICON" transform="translate(30.000000, 0.000000)"><g id="ç¼–ç»„-9" transform="translate(16.000000, 13.000000)"><path d="M46,2 C48.7614237,2 51,4.23857625 51,7 L51,43 C51,51.836556 43.836556,59 35,59 L5,59 C2.23857625,59 -5.50001544e-16,56.7614237 0,54 L0,7 C-3.38176876e-16,4.23857625 2.23857625,2 5,2 L11.599,2 L12.9310218,6.43673943 C13.5436193,8.47873097 15.3794231,9.89932183 17.4927108,9.99486556 L17.7201533,10 L33.2798467,10 C35.4878878,10 37.4345022,8.55165923 38.0689782,6.43673943 L38.0689782,6.43673943 L39.4,2 L46,2 Z" id="å½¢çŠ¶ç»“åˆ" fill="#333333"/><path d="M16.3104669,0 L34.6895331,0 C35.3172389,-1.15307689e-16 35.826095,0.508856112 35.826095,1.13656194 C35.826095,1.19034276 35.8222777,1.24405577 35.814672,1.29729607 L35.5,3.5 C35.2131021,5.50828497 33.4931403,7 31.4644661,7 L19.5355339,7 C17.5068597,7 15.7868979,5.50828497 15.5,3.5 L15.185328,1.29729607 C15.096557,0.675899003 15.5283357,0.100194032 16.1497328,0.0114230229 C16.2029731,0.00381726569 16.2566861,9.87937733e-18 16.3104669,0 Z" id="çŸ©å½¢å¤‡ä»½-5" fill="#333333"/><path d="M31.9254528,18.7110811 L33.7968522,20.6035945 C34.18519,20.9963138 34.1789623,21.6385276 33.7921913,22.0286893 L29.137,26.724 L33.3742838,26.7240691 C33.9261588,26.7240691 34.3735419,27.1687897 34.3735419,27.7225654 L34.3735419,30.5445555 C34.3735419,31.0960098 33.9317216,31.5430518 33.3742838,31.5430518 L27.788,31.543 L27.788,34.434 L33.3742838,34.4344414 C33.9261588,34.4344414 34.3735419,34.879162 34.3735419,35.4329378 L34.3735419,38.2549278 C34.3735419,38.8063821 33.9317216,39.2534242 33.3742838,39.2534242 L27.788,39.253 L27.7885528,44.9907821 C27.7885528,45.5481578 27.3375553,46 26.7910479,46 L24.082494,46 C23.5315873,46 23.0849891,45.5611781 23.0849891,44.9907821 L23.084,39.253 L17.4992581,39.2534242 C16.9473831,39.2534242 16.5,38.8087036 16.5,38.2549278 L16.5,35.4329378 C16.5,34.8814835 16.9418203,34.4344414 17.4992581,34.4344414 L23.084,34.434 L23.084,31.543 L17.4992581,31.5430518 C16.9473831,31.5430518 16.5,31.0983312 16.5,30.5445555 L16.5,27.7225654 C16.5,27.1711111 16.9418203,26.7240691 17.4992581,26.7240691 L21.92,26.724 L17.2655255,22.0286893 C16.9085061,21.6685401 16.8757367,21.0936245 17.178246,20.6984226 L17.2608646,20.6035945 L19.1322641,18.7110811 C19.5211327,18.317825 20.1523086,18.3196748 20.5432206,18.7140137 L20.5432206,18.7140137 L25.528,23.743 L30.5144962,18.7140137 C30.9054082,18.3196748 31.5365841,18.317825 31.9254528,18.7110811 Z" id="Combined-Shape-Copy-15" fill="#FFFFFF"/></g></g></g></g></g></svg>