<?xml version="1.0" encoding="UTF-8"?>
<svg width="82px" height="82px" viewBox="0 0 82 82" version="1.1" xmlns="http://www.w3.org/2000/svg" xmlns:xlink="http://www.w3.org/1999/xlink">
    <title>数字小金卡</title>
    <g id="--✅ICON" stroke="none" stroke-width="1" fill="none" fill-rule="evenodd">
        <g id="财富" transform="translate(-188.000000, -3318.000000)">
            <g id="数字小金卡" transform="translate(158.000000, 3318.000000)">
                <g id="ICON" transform="translate(30.000000, 0.000000)">
                    <g id="数字小金卡" transform="translate(9.000000, 16.000000)">
                        <path d="M5,0 L59,0 C61.7614237,-5.07265313e-16 64,2.23857625 64,5 L64,45 C64,47.7614237 61.7614237,50 59,50 L5,50 C2.23857625,50 3.38176876e-16,47.7614237 0,45 L0,5 C-3.38176876e-16,2.23857625 2.23857625,-3.80913106e-16 5,0 Z" id="矩形备份-4" fill="#333333"></path>
                        <polygon id="矩形" fill="#FFFFFF" points="-7.87075323e-14 13 64 13 64 19 0 19"></polygon>
                        <path d="M31.4,42.704 L31.4,40.592 C30.1386667,40.108 29.0973333,39.3673333 28.276,38.37 C28.4666667,38.0473333 28.6353333,37.7466667 28.782,37.468 C29.9553333,35.2386667 30.5566667,32.7013333 30.586,29.856 L30.586,29.856 L31.4,29.856 L31.4,27.744 L26.406,27.744 C26.582,27.348 26.8313333,26.7246667 27.154,25.874 L27.154,25.874 L23.854,25.874 C23.3846667,28.1326667 22.7833333,30.1053333 22.05,31.792 L22.05,31.792 L23.216,31.792 C23.4213333,33.9626667 24.0006667,35.9133333 24.954,37.644 C25.1006667,37.908 25.2693333,38.1866667 25.46,38.48 C24.624,39.536 23.6193333,40.284 22.446,40.724 L22.446,40.724 L22.446,42.704 C24.1326667,42.2933333 25.5993333,41.4573333 26.846,40.196 C28.1366667,41.4866667 29.6546667,42.3226667 31.4,42.704 L31.4,42.704 Z M13.558,33.992 C14.2326667,33.068 14.7826667,32.1073333 15.208,31.11 L15.208,31.11 L15.67,31.11 L15.67,33.992 L18.552,33.992 L18.552,31.11 L18.948,31.11 C19.2706667,31.814 19.828,32.7746667 20.62,33.992 L20.62,33.992 L22.6,33.992 C22.2186667,33.0386667 21.83,32.078 21.434,31.11 L21.434,31.11 L22.204,31.11 L22.204,29.042 L18.552,29.042 L18.552,25.874 L15.67,25.874 L15.67,29.042 L11.754,29.042 L11.754,31.11 L12.81,31.11 C12.59,31.6966667 12.1866667,32.6573333 11.6,33.992 L11.6,33.992 L13.558,33.992 Z M14.944,28.602 L14.086,26.072 L11.556,26.072 L13.052,28.602 L14.944,28.602 Z M20.84,28.602 L22.38,26.072 L19.784,26.072 L18.948,28.602 L20.84,28.602 Z M26.868,35.928 C26.34,34.564 26.0026667,32.8406667 25.856,30.758 L25.856,30.758 L24.998,30.758 C25.1006667,30.5673333 25.2546667,30.2666667 25.46,29.856 L25.46,29.856 L27.858,29.856 C27.858,32.1733333 27.528,34.1973333 26.868,35.928 Z M22.072,42.704 L22.072,40.658 C21.4413333,40.5846667 20.642,40.4013333 19.674,40.108 C20.554,39.2866667 21.0966667,38.3113333 21.302,37.182 L21.302,37.182 L22.292,37.182 L22.292,35.048 L21.412,35.048 L21.412,34.388 L18.75,34.388 L18.75,35.048 L16.088,35.048 L16.242,34.388 L13.514,34.388 L13.382,35.048 L11.6,35.048 L11.6,37.182 L12.92,37.182 L12.568,38.788 C13.2573333,39.3013333 13.954,39.7486667 14.658,40.13 C13.8366667,40.35 12.8173333,40.5113333 11.6,40.614 L11.6,40.614 L11.6,42.704 C13.888,42.616 15.8606667,42.198 17.518,41.45 C18.9993333,42.022 20.5173333,42.44 22.072,42.704 L22.072,42.704 Z M17.056,39.118 C16.2933333,38.7513333 15.7433333,38.4066667 15.406,38.084 L15.406,38.084 L15.604,37.182 L18.574,37.182 C18.3246667,37.9446667 17.8186667,38.59 17.056,39.118 Z M37.12,30.34 L37.12,29.13 L49.88,29.13 L49.88,30.34 L52.982,30.34 L52.982,27.04 L45.15,27.04 L45.15,25.874 L41.828,25.874 L41.828,27.04 L33.996,27.04 L33.996,30.34 L37.12,30.34 Z M40.134,42.704 C42.0113333,42.704 43.324,42.4326667 44.072,41.89 C44.9226667,41.274 45.348,40.1593333 45.348,38.546 L45.348,38.546 L45.348,37.446 L53.4,37.446 L53.4,35.356 L45.502,35.356 L51.53,32.87 L51.53,30.78 L35.646,30.78 L35.646,32.87 L46.338,32.87 L42.114,34.652 L42.114,35.356 L33.6,35.356 L33.6,37.446 L42.114,37.446 L42.114,38.436 C42.114,39.184 41.982,39.712 41.718,40.02 C41.4393333,40.3426667 40.9113333,40.5553333 40.134,40.658 L40.134,40.658 L40.134,42.704 Z" id="数字" fill="#FFFFFF"></path>
                    </g>
                </g>
            </g>
        </g>
    </g>
</svg>