<?xml version="1.0" encoding="UTF-8"?><svg width="82px" height="82px" viewBox="0 0 82 82" version="1.1" xmlns="http://www.w3.org/2000/svg" xmlns:xlink="http://www.w3.org/1999/xlink"><title>基金体验金@4x</title><g id="--🟠ICON" stroke="none" stroke-width="1" fill="none" fill-rule="evenodd"><g id="财富" transform="translate(-476.000000, -1248.000000)"><g id="基金体验金" transform="translate(446.000000, 1248.000000)"><g id="ICON" transform="translate(30.000000, 0.000000)"><g id="编组-9" transform="translate(10.000000, 10.058824)"><path d="M31.0348953,0 C42.9342843,0 52.5806449,9.5258997 52.5806449,21.2766925 C52.5806449,25.6454297 51.390236,29.7263142 49.2830719,33.129527 C46.7988364,33.0715789 44.1546467,33.6095568 41.3885541,34.7064541 L41.1097444,34.8210448 C40.604532,35.010649 40.1195191,35.2061243 39.6514012,35.4082436 C38.4170928,35.9411811 37.3340644,36.5033038 36.2444804,37.1540298 L35.7615596,37.4476364 L35.2341724,37.7783103 L35.231869,37.7281615 C35.163778,36.7939746 34.9180488,35.8599671 34.4812407,34.9774216 C33.5967869,33.1904336 32.0272479,31.8388639 30.1258554,31.2523255 L27.9816312,30.5908789 L26.8644445,30.2574358 C21.5398357,28.7229167 16.0861956,27.8836965 10.599512,27.7494028 C9.88148187,25.7045401 9.48914576,23.5288664 9.48914576,21.2766925 C9.48914576,9.5258997 19.1355064,0 31.0348953,0 Z" id="形状结合" fill="#333333"/><path d="M31.7395707,14.1270369 L38.2240624,20.5671626 C38.6159249,20.9563441 38.6180983,21.5895053 38.2289169,21.9813678 L38.2240624,21.9862223 L31.7395707,28.4263481 C31.3496091,28.8136416 30.7201815,28.8136416 30.33022,28.4263481 L23.8457283,21.9862223 C23.4538658,21.5970409 23.4516924,20.9638796 23.8408738,20.5720171 L23.8457283,20.5671626 L30.33022,14.1270369 C30.7201815,13.7397434 31.3496091,13.7397434 31.7395707,14.1270369 Z" id="形状结合" fill="#FFFFFF"/><path d="M9.03183393,32.0060852 C14.647183,32.0060852 20.2348347,32.7966987 25.6422027,34.3548888 L26.7212273,34.6767544 L28.8654514,35.338201 C29.6369632,35.5761957 30.2812902,36.131042 30.6490703,36.8741204 C31.3581076,38.3066893 30.8736829,40.0491137 29.5740429,40.8793223 L29.3730301,40.9968592 L28.1394569,41.654601 C27.5359648,41.9763833 27.1964944,42.6609459 27.2949,43.3577009 C27.4219518,44.2572831 28.2275526,44.8796361 29.0942544,44.7477266 C29.5776759,44.6741732 30.0833649,44.5857336 30.6113212,44.4824078 C36.1081896,43.4066219 36.6453775,41.0635715 42.6121389,38.8242694 C47.4531445,36.815875 51.4409398,36.9275264 54.5755247,39.1592237 L54.8967486,39.3976515 L62,46.9716024 L33.7976454,61.2690621 C33.0389487,61.6536908 32.2150315,61.8767009 31.3744433,61.9264435 L31.0133121,61.9371197 L6.34418618,61.9371197 C2.94344177,61.9371197 0.167655583,59.1598609 0.00731586321,55.6713328 L0,55.3522919 L0,38.5909129 C0,35.0611747 2.67576429,32.1801001 6.03680464,32.0136786 L6.34418618,32.0060852 L9.03183393,32.0060852 Z" id="路径备份-4" fill="#333333"/></g></g></g></g></g></svg>