<?xml version="1.0" encoding="UTF-8"?><svg width="82px" height="82px" viewBox="0 0 82 82" version="1.1" xmlns="http://www.w3.org/2000/svg" xmlns:xlink="http://www.w3.org/1999/xlink"><title>投资日报@4x</title><g id="--🟠ICON" stroke="none" stroke-width="1" fill="none" fill-rule="evenodd"><g id="财富" transform="translate(-44.000000, -2516.000000)"><g id="投资日报" transform="translate(14.000000, 2516.000000)"><g id="ICON" transform="translate(30.000000, 0.000000)"><g id="编组-20" transform="translate(10.000000, 15.000000)"><path d="M55,18 L59,18 C61.7614237,18 64,20.2385763 64,23 L64,46 C64,48.7614237 61.7614237,51 59,51 L55,51 L55,51 L55,18 Z" id="矩形备份-22" fill="#666666"/><path d="M50,0 C52.7614237,-5.07265313e-16 55,2.23857625 55,5 L55,26 L55,26 L55,46 C55,48.7614237 57.2385763,51 60,51 L60,51 L5,51 C2.23857625,51 -5.50001544e-16,48.7614237 0,46 L0,5 C-3.38176876e-16,2.23857625 2.23857625,-3.80913106e-16 5,0 L50,0 Z" id="形状结合" fill="#333333"/><path d="M10,34 L46,34 C46.5522847,34 47,34.4477153 47,35 L47,36 C47,36.5522847 46.5522847,37 46,37 L10,37 C9.44771525,37 9,36.5522847 9,36 L9,35 C9,34.4477153 9.44771525,34 10,34 Z" id="矩形备份-168" fill="#FFFFFF"/><path d="M8.6,28.64 C10.0533333,28.5333333 11.08,28.2 11.68,27.64 C12.32,27.04 12.64,26.04 12.64,24.64 L12.64,24.64 L12.64,21.94 L14.06,21.64 L14.06,19.62 L12.64,19.92 L12.64,17.26 L14.1,17.26 L14.1,15.42 L12.64,15.42 L12.64,13.34 L9.98,13.34 L9.98,15.42 L8,15.42 L8,17.26 L9.98,17.26 L9.98,20.5 L8,20.94 L8,22.94 L9.98,22.52 L9.98,24.78 C9.98,25.42 9.89333333,25.8866667 9.72,26.18 C9.52,26.5266667 9.14666667,26.7666667 8.6,26.9 L8.6,26.9 L8.6,28.64 Z M16.34,19.38 C16.9,18.8466667 17.3666667,18.2666667 17.74,17.64 C18.2066667,16.8666667 18.44,16.1666667 18.44,15.54 L18.44,15.54 L21.76,15.54 L21.76,17.28 C21.76,17.8933333 21.8666667,18.3466667 22.08,18.64 C22.3466667,18.96 22.8133333,19.1266667 23.48,19.14 L23.48,19.14 L26,19.14 L26,17.36 L25.14,17.36 C24.8733333,17.36 24.6866667,17.3133333 24.58,17.22 C24.46,17.1133333 24.4,16.92 24.4,16.64 L24.4,16.64 L24.4,13.74 L15.8,13.74 L15.8,14.76 C15.8,15.6533333 15.66,16.4666667 15.38,17.2 C15.1266667,17.8533333 14.7133333,18.58 14.14,19.38 L14.14,19.38 L16.34,19.38 Z M13.84,28.66 C15.6,28.46 17.6533333,27.8066667 20,26.7 C21.88,27.6333333 23.88,28.28 26,28.64 L26,28.64 L26,26.9 C24.5333333,26.5266667 23.22,26.08 22.06,25.56 C24.0066667,24.3066667 25.16,22.9466667 25.52,21.48 L25.52,21.48 L25.52,19.68 L14.72,19.68 L14.72,21.44 L22.82,21.44 C22.46,22.4933333 21.5333333,23.5066667 20.04,24.48 C18.88,23.7333333 18.0733333,22.94 17.62,22.1 L17.62,22.1 L14.84,22.1 C15.4666667,23.38 16.5266667,24.5333333 18.02,25.56 C16.7133333,26.1333333 15.32,26.58 13.84,26.9 L13.84,26.9 L13.84,28.66 Z M33.46,15.52 L32.58,13.34 L29.4,13.34 L31.26,15.52 L33.46,15.52 Z M45.4,17.3 L46.4,15.74 L46.4,13.98 L38.36,13.98 C38.48,13.7666667 38.5866667,13.5533333 38.68,13.34 L38.68,13.34 L35.76,13.34 C35.4666667,14.3533333 34.9066667,15.64 34.08,17.2 L34.08,17.2 L36.26,17.2 C36.7666667,16.5466667 37.1266667,16.06 37.34,15.74 L37.34,15.74 L43.76,15.74 L43.44,17.3 L45.4,17.3 Z M47,20.36 L47,18.66 C45.4,18.5666667 44.0733333,18.34 43.02,17.98 C42.0866667,17.6333333 41.62,17.2466667 41.62,16.82 L41.62,16.82 L41.62,16.14 L38.84,16.14 L38.84,16.82 C38.84,17.06 38.6733333,17.2933333 38.34,17.52 C38.0466667,17.72 37.6333333,17.8933333 37.1,18.04 C36.5133333,18.2133333 35.34,18.3466667 33.58,18.44 L33.58,18.44 L33.58,20.16 C35.78,20.0133333 37.3733333,19.8066667 38.36,19.54 C39.16,19.3133333 39.8,19.06 40.28,18.78 C40.8266667,19.1133333 41.5066667,19.4 42.32,19.64 C43.76,20.0666667 45.32,20.3066667 47,20.36 L47,20.36 Z M32.34,19.96 C32.8866667,18.7733333 33.2733333,17.58 33.5,16.38 L33.5,16.38 L31.3,16.38 C30.9933333,17.3666667 30.3533333,18.56 29.38,19.96 L29.38,19.96 L32.34,19.96 Z M33.26,25.7 L33.26,22.24 L42.68,22.24 L42.68,25.7 L45.5,25.7 L45.5,20.46 L30.44,20.46 L30.44,25.7 L33.26,25.7 Z M47,28.64 L47,26.88 C45.8666667,26.84 44.2133333,26.58 42.04,26.1 C41.2133333,25.8733333 40.5933333,25.6133333 40.18,25.32 C39.6733333,24.96 39.42,24.52 39.42,24 L39.42,24 L39.42,22.62 L36.52,22.62 L36.52,24 C36.52,24.84 35.9,25.4666667 34.66,25.88 C32.9666667,26.44 31.08,26.7733333 29,26.88 L29,26.88 L29,28.64 C31.5066667,28.5333333 33.66,28.2333333 35.46,27.74 C36.5266667,27.4066667 37.3733333,27.0066667 38,26.54 C38.7066667,27.0733333 39.7333333,27.5266667 41.08,27.9 C42.9066667,28.3933333 44.88,28.64 47,28.64 L47,28.64 Z" id="投资" fill="#FFFFFF"/></g></g></g></g></g></svg>