<?xml version="1.0" encoding="UTF-8"?><svg width="82px" height="82px" viewBox="0 0 82 82" version="1.1" xmlns="http://www.w3.org/2000/svg" xmlns:xlink="http://www.w3.org/1999/xlink"><title>投资新机会@4x</title><g id="--🟠ICON" stroke="none" stroke-width="1" fill="none" fill-rule="evenodd"><g id="财富" transform="translate(-44.000000, -2300.000000)"><g id="投资新机会" transform="translate(14.000000, 2300.000000)"><g id="ICON" transform="translate(30.000000, 0.000000)"><g id="编组-9" transform="translate(16.000000, 12.000000)"><path d="M46,2 C48.7614237,2 51,4.23857625 51,7 L51,54 C51,56.7614237 48.7614237,59 46,59 L5,59 C2.23857625,59 -5.50001544e-16,56.7614237 0,54 L0,7 C-3.38176876e-16,4.23857625 2.23857625,2 5,2 L11.599,2 L12.9310218,6.43673943 C13.5436193,8.47873097 15.3794231,9.89932183 17.4927108,9.99486556 L17.7201533,10 L33.2798467,10 C35.4878878,10 37.4345022,8.55165923 38.0689782,6.43673943 L38.0689782,6.43673943 L39.4,2 L46,2 Z" id="形状结合" fill="#333333"/><path d="M24,21 C30.0618908,21 35,25.9381092 35,32 C35,34.2570824 34.3153962,36.3583673 33.1430842,38.1069591 L37.8033009,42.767767 C38.1938252,43.1582912 38.1938252,43.7914562 37.8033009,44.1819805 L35.6819805,46.3033009 C35.2914562,46.6938252 34.6582912,46.6938252 34.267767,46.3033009 L29.4914405,41.5270494 C27.8741242,42.463483 25.9981106,43 24,43 C17.9381092,43 13,38.0618908 13,32 C13,25.9381092 17.9381092,21 24,21 Z M24,26 C20.6935141,26 18,28.6935141 18,32 C18,35.3064859 20.6935141,38 24,38 C27.3064859,38 30,35.3064859 30,32 C30,28.6935141 27.3064859,26 24,26 Z" id="形状结合" fill="#FFFFFF"/><path d="M16.3104669,0 L34.6895331,0 C35.3172389,-1.15307689e-16 35.826095,0.508856112 35.826095,1.13656194 C35.826095,1.19034276 35.8222777,1.24405577 35.814672,1.29729607 L35.5,3.5 C35.2131021,5.50828497 33.4931403,7 31.4644661,7 L19.5355339,7 C17.5068597,7 15.7868979,5.50828497 15.5,3.5 L15.185328,1.29729607 C15.096557,0.675899003 15.5283357,0.100194032 16.1497328,0.0114230229 C16.2029731,0.00381726569 16.2566861,9.87937733e-18 16.3104669,0 Z" id="矩形备份-5" fill="#333333"/></g></g></g></g></g></svg>