<?xml version="1.0" encoding="UTF-8"?><svg width="82px" height="82px" viewBox="0 0 82 82" version="1.1" xmlns="http://www.w3.org/2000/svg" xmlns:xlink="http://www.w3.org/1999/xlink"><title>投资晴雨表@4x</title><g id="--🟠ICON" stroke="none" stroke-width="1" fill="none" fill-rule="evenodd"><g id="财富" transform="translate(-188.000000, -2516.000000)"><g id="投资晴雨表" transform="translate(158.000000, 2516.000000)"><g id="ICON" transform="translate(30.000000, 0.000000)"><g id="编组-21" transform="translate(7.000000, 15.000000)"><path d="M48.3005819,11.0585171 C45.2264996,4.51319823 38.8309087,0 31.4081244,0 C21.4660922,0 13.3385184,8.09697693 12.6337287,18.3520975 C5.32341092,20.5417469 0,27.252471 0,35.1919192 C0,44.5570024 7.40778872,52.2522811 16.75,52.7878788 L48.1581244,52.7878788 C58.5575201,52.7878788 67,43.430672 67,31.8916922 C67,20.7701636 58.7299687,11.7122614 48.3005819,11.0585171 Z" id="路径" fill="#333333"/><path d="M36.3137288,16.7576241 C36.6114777,16.977018 36.7767267,17.3331516 36.7520075,17.7021734 L36.1285746,26.9993636 L42.856092,27 C43.4544005,27 43.9394254,27.4850249 43.9394254,28.0833333 C43.9394254,28.3145947 43.8654199,28.5397873 43.7282359,28.7259656 L33.2010473,43.0128644 C32.8461313,43.4945361 32.1679429,43.5972919 31.6862712,43.2423759 C31.3885223,43.022982 31.2232733,42.6668484 31.2479925,42.2978266 L31.8705746,32.9993636 L25.143908,33 C24.5455995,33 24.0605746,32.5149751 24.0605746,31.9166667 C24.0605746,31.6854053 24.1345801,31.4602127 24.2717641,31.2740344 L34.7989527,16.9871356 C35.1538687,16.5054639 35.8320571,16.4027081 36.3137288,16.7576241 Z" id="Combined-Shape-Copy-5" fill="#FFFFFF"/></g></g></g></g></g></svg>