<?xml version="1.0" encoding="UTF-8"?><svg width="82px" height="82px" viewBox="0 0 82 82" version="1.1" xmlns="http://www.w3.org/2000/svg" xmlns:xlink="http://www.w3.org/1999/xlink"><title>投资锦囊@4x</title><g id="--🟠ICON" stroke="none" stroke-width="1" fill="none" fill-rule="evenodd"><g id="财富" transform="translate(-476.000000, -1020.000000)"><g id="投资锦囊" transform="translate(446.000000, 1020.000000)"><g id="ICON" transform="translate(30.000000, 0.000000)"><g id="编组-4" transform="translate(12.000000, 11.000000)"><path d="M28.1077599,0 C31.8011436,0 35.4945273,0.532904551 39.187911,1.59871365 C41.5576522,2.28256681 42.9243451,4.75798834 42.240502,7.12773248 C42.2331982,7.15304261 42.2256706,7.17828762 42.2179201,7.20346454 L39.6959052,15.397612 C32.3492781,12.2303994 23.9262503,12.4743237 16.7454223,16.129385 L13.9976012,7.20346917 C13.2719255,4.84619008 14.5946062,2.34696395 16.9518866,1.62129275 C16.977064,1.61354207 17.0023095,1.60601432 17.0276201,1.59871039 C20.7210001,0.532903462 24.41438,0 28.1077599,0 Z" id="形状结合" fill="#333333"/><path d="M14.5,16.4469825 C23.348364,10.8219459 34.651636,10.8219459 43.5,16.4469825 C52.5304351,22.1877645 58,32.1460712 58,42.8467878 L58,47.6708582 C58,55.03234 52.03234,61 44.6708582,61 L13.3291418,61 C5.96766004,61 -2.65119218e-15,55.03234 0,47.6708582 L0,42.8467878 C-4.86317352e-15,32.1460712 5.46956485,22.1877645 14.5,16.4469825 Z" id="矩形备份-4" fill="#333333"/><path d="M42.0693005,29.2339868 L44.7074979,31.7678084 C45.0611523,32.1074711 45.0724948,32.6695157 44.7328321,33.0231701 C44.7302895,33.0258175 44.7277305,33.0284491 44.7251553,33.0310647 L33.109247,44.8290294 C32.1101429,45.8437924 30.4895776,45.893179 29.4305353,44.9411379 L23.3521101,39.4768508 L23.3521101,39.4768508 L17.178332,45.7485195 C16.8373319,46.0949266 16.2811704,46.1027254 15.9305911,45.7660162 L13.2925021,43.2322987 C12.9388477,42.892636 12.9275052,42.3305914 13.2671679,41.9769369 C13.2697105,41.9742896 13.2722695,41.971658 13.2748447,41.9690424 L21.5755973,33.538192 C22.5746534,32.5234776 24.1951231,32.4740402 25.2541777,33.4259655 L31.3315936,38.888617 L31.3315936,38.888617 L40.8216663,29.251375 C41.1626843,28.9050687 41.7187639,28.8973186 42.0693005,29.2339868 Z" id="路径-6" fill="#FFFFFF"/></g></g></g></g></g></svg>