<?xml version="1.0" encoding="UTF-8"?><svg width="82px" height="82px" viewBox="0 0 82 82" version="1.1" xmlns="http://www.w3.org/2000/svg" xmlns:xlink="http://www.w3.org/1999/xlink"><title>é—®ç­”å¤‡ä»½ 4@4x</title><g id="--ðŸŸ ICON" stroke="none" stroke-width="1" fill="none" fill-rule="evenodd"><g id="ç¤¾åŒº" transform="translate(-44.000000, -254.000000)"><g id="é—®ç­”" transform="translate(14.000000, 254.000000)"><g id="ICON" transform="translate(30.000000, 0.000000)"><g id="é—®ç­”" transform="translate(11.000000, 14.003443)"><path d="M0,44.9965567 L0,5 C-3.38176876e-16,2.23857625 2.23857625,-1.26909153e-15 5,0 L56,0 C58.7614237,-0.000659219815 61,2.23791703 61,4.99934078 C61,4.99956053 61,4.99978029 60.9993407,4.99999996 L60.9940671,44.9965568 C60.9930437,47.757723 58.7545741,49.9958974 55.9934078,49.9965567 L45,49.9965567 L45,49.9965567 L45,57.6911721 C45,58.7957416 44.1045695,59.6911721 43,59.6911721 C42.6767551,59.6911721 42.3583266,59.612823 42.071986,59.4628351 L24,49.9965567 L24,49.9965567 L5,49.9965567 C2.23857625,49.9965567 -4.73841006e-15,47.7579805 0,44.9965567 Z" id="è·¯å¾„" fill="#333333"/><path d="M18.9215803,15.9965567 C24.4011179,15.9965567 28.8431607,20.4737092 28.8431607,25.9965567 C28.8431607,28.2481131 28.1048787,30.3258715 26.8589994,31.997324 L28.8431607,31.9965567 L28.8431607,35.9965567 L18.9215803,35.9965567 L18.9215803,35.9965567 C13.4420428,35.9965567 9,31.5194042 9,25.9965567 C9,20.4737092 13.4420428,15.9965567 18.9215803,15.9965567 Z M44.4331938,15.9965567 L53,34.025291 L49.325685,35.7066784 L42.6112222,21.5765567 L35.8965373,35.7066784 L32.2222222,34.025291 L40.7890285,15.9965567 L40.7912222,15.9975567 L40.7913091,15.9965567 L44.4331938,15.9965567 Z M18.9215803,19.9965567 C15.6338578,19.9965567 12.9686321,22.6828482 12.9686321,25.9965567 C12.9686321,29.3102652 15.6338578,31.9965567 18.9215803,31.9965567 C22.2093029,31.9965567 24.8745286,29.3102652 24.8745286,25.9965567 C24.8745286,22.6828482 22.2093029,19.9965567 18.9215803,19.9965567 Z" id="å½¢çŠ¶ç»“åˆ" fill="#FFFFFF"/></g></g></g></g></g></svg>