<?xml version="1.0" encoding="UTF-8"?><svg width="82px" height="82px" viewBox="0 0 82 82" version="1.1" xmlns="http://www.w3.org/2000/svg" xmlns:xlink="http://www.w3.org/1999/xlink"><title>限额定投@4x</title><g id="--🟠ICON" stroke="none" stroke-width="1" fill="none" fill-rule="evenodd"><g id="财富" transform="translate(-478.000000, -6450.000000)"><g id="限额定投" transform="translate(448.000000, 6450.000000)"><g id="ICON" transform="translate(30.000000, 0.000000)"><g id="编组-7" transform="translate(11.000000, 14.000000)"><path d="M16.6707599,0 C17.4048789,5.17173198e-16 18,0.595121054 18,1.32924008 L18,4 L42,4 L42,1.32924008 C42,0.595121054 42.5951211,3.56900082e-16 43.3292401,0 L48.6707599,0 C49.4048789,5.17173198e-16 50,0.595121054 50,1.32924008 L50,4 L55,4 C57.7614237,4 60,6.23857625 60,9 L60,16 C60,16.2677744 59.973688,16.5294033 59.9235084,16.7824424 L59.8876389,16.941029 C59.4018489,14.6882338 57.3980785,13 55,13 L55,13 L5,13 C2.60192148,13 0.598151082,14.6882338 0.112361062,16.941029 L0.0764915968,16.7824424 C0.0263120074,16.5294033 -7.48650811e-17,16.2677744 0,16 L0,9 C-3.38176876e-16,6.23857625 2.23857625,4 5,4 L10,4 L10,1.32924008 C10,0.595121054 10.5951211,3.56900082e-16 11.3292401,0 L16.6707599,0 Z" id="形状结合" fill="#333333"/><path d="M5,16 L55,16 C57.7614237,16 60,18.2385763 60,21 L60,51 C60,53.7614237 57.7614237,56 55,56 L5,56 C2.23857625,56 -5.50001544e-16,53.7614237 0,51 L0,21 C-3.38176876e-16,18.2385763 2.23857625,16 5,16 Z" id="矩形备份-3" fill="#333333"/><path d="M12.18,44.682 L12.18,30.316 L13.676,30.316 C13.5293333,31.3866667 13.1113333,32.8533333 12.422,34.716 C12.9793333,35.3613333 13.3826667,35.926 13.632,36.41 C13.9986667,37.0993333 14.182,37.7886667 14.182,38.478 C14.182,39.0646667 14.0573333,39.4753333 13.808,39.71 C13.588,39.9153333 13.1846667,40.0766667 12.598,40.194 L12.598,40.194 L12.598,42.262 C13.9033333,42.1593333 14.8786667,41.8586667 15.524,41.36 C16.272,40.7733333 16.646,39.8493333 16.646,38.588 C16.5873333,36.9013333 15.9786667,35.5813333 14.82,34.628 C15.2453333,33.968 15.634,32.956 15.986,31.592 C16.3233333,30.316 16.5066667,29.2306667 16.536,28.336 L16.536,28.336 L9.474,28.336 L9.474,44.682 L12.18,44.682 Z M17.218,44.704 C19.0806667,44.4253333 20.87,43.978 22.586,43.362 L22.586,43.362 L22.586,41.228 C21.75,41.536 20.9213333,41.7853333 20.1,41.976 L20.1,41.976 L20.1,36.74 L27.734,36.74 L27.734,28.336 L17.218,28.336 L17.218,44.704 Z M24.874,31.592 L20.1,31.592 L20.1,30.36 L24.874,30.36 L24.874,31.592 Z M24.874,34.738 L20.1,34.738 L20.1,33.374 L24.874,33.374 L24.874,34.738 Z M28.9,44.374 C28.1666667,43.318 27.3673333,42.1813333 26.502,40.964 C27.558,39.8933333 28.2913333,38.6833333 28.702,37.334 L28.702,37.334 L25.952,37.334 C25.8786667,37.9206667 25.6586667,38.5733333 25.292,39.292 C24.632,38.3386667 24.1993333,37.708 23.994,37.4 L23.994,37.4 L20.584,37.4 C20.9543333,37.8656667 21.2925833,38.2900833 21.59875,38.67325 L21.95075,39.11325 C22.68005,40.0236833 23.1924667,40.6552667 23.488,41.008 C24.72,42.5186667 25.7026667,43.6406667 26.436,44.374 L26.436,44.374 L28.9,44.374 Z M40.824,38.412 L40.824,36.608 C39.7826667,36.52 38.8953333,36.3806667 38.162,36.19 C39.0566667,35.486 39.7386667,34.628 40.208,33.616 L40.208,33.616 L40.208,31.812 L35.61,31.812 C35.7566667,31.5773333 35.896,31.3426667 36.028,31.108 L36.028,31.108 L33.542,31.108 L33.542,30.69 L38.338,30.69 L38.338,31.482 L40.648,31.482 L40.648,28.886 L37.216,28.886 L37.216,27.874 L34.642,27.874 L34.642,28.886 L31.232,28.886 L31.232,31.482 L33.322,31.482 C32.7793333,32.714 31.9726667,33.968 30.902,35.244 L30.902,35.244 L32.882,35.244 C32.926,35.2146667 32.9626667,35.178 32.992,35.134 C33.3,35.5153333 33.63,35.8453333 33.982,36.124 C32.9406667,36.432 31.98,36.5933333 31.1,36.608 L31.1,36.608 L31.1,38.412 C32.8746667,38.28 34.532,37.928 36.072,37.356 C36.204,37.4293333 36.2846667,37.466 36.314,37.466 C37.5166667,37.9206667 39.02,38.236 40.824,38.412 L40.824,38.412 Z M43.706,40.172 L43.706,33.55 L47.996,33.55 L47.996,40.172 L50.504,40.172 L50.504,31.526 L46.522,31.526 L47.16,30.36 L50.856,30.36 L50.856,28.314 L41.132,28.314 L41.132,30.36 L44.322,30.36 L44.124,31.526 L41.22,31.526 L41.22,40.172 L43.706,40.172 Z M35.94,35.222 C35.5146667,34.8993333 35.1846667,34.562 34.95,34.21 L34.95,34.21 L33.872,34.21 C34.0333333,34.0193333 34.1946667,33.8213333 34.356,33.616 L34.356,33.616 L37.414,33.616 C37.018,34.3053333 36.5266667,34.8406667 35.94,35.222 Z M50.9,44.748 L50.9,42.878 C49.492,42.3353333 48.4726667,41.4406667 47.842,40.194 C47.358,39.226 47.116,38.0306667 47.116,36.608 L47.116,36.608 L47.116,34.386 L44.586,34.386 L44.586,36.608 C44.586,38.1626667 44.3,39.4166667 43.728,40.37 C43.3906667,40.9566667 42.9066667,41.4846667 42.276,41.954 C41.704,42.3793333 41.11,42.6873333 40.494,42.878 L40.494,42.878 L40.494,44.748 C41.3886667,44.572 42.2833333,44.2053333 43.178,43.648 C44.1166667,43.0613333 44.9013333,42.3646667 45.532,41.558 C45.6493333,41.4113333 45.7593333,41.2573333 45.862,41.096 C45.9793333,41.2573333 46.0893333,41.4113333 46.192,41.558 C47.3506667,43.1273333 48.92,44.1906667 50.9,44.748 L50.9,44.748 Z M40.12,44.352 L40.12,38.434 L31.782,38.434 L31.782,44.352 L40.12,44.352 Z M37.502,42.592 L34.378,42.592 L34.378,40.282 L37.502,40.282 L37.502,42.592 Z" id="限额" fill="#FFFFFF"/></g></g></g></g></g></svg>