<?xml version="1.0" encoding="UTF-8"?><svg width="82px" height="82px" viewBox="0 0 82 82" version="1.1" xmlns="http://www.w3.org/2000/svg" xmlns:xlink="http://www.w3.org/1999/xlink"><title>小金库@4x</title><g id="--🟠ICON" stroke="none" stroke-width="1" fill="none" fill-rule="evenodd"><g id="财富" transform="translate(-45.000000, -118.000000)"><g id="小金库" transform="translate(14.000000, 118.000000)"><g id="ICON" transform="translate(31.000000, 0.000000)"><g id="小金库" transform="translate(14.000000, 11.000000)"><path d="M38.1815094,0 C40.6345834,0 42.9106108,0.731869501 44.7877839,1.98187329 C44.9144741,2.07793839 44.9972024,2.22570119 45,2.39275416 C44.8593219,4.77933547 43.9481116,6.9668421 42.5029641,8.72649249 C40.7653942,10.8423732 38.2558544,12.3404495 35.3851071,12.824194 C34.7808686,12.2989657 34.1950691,11.7554731 33.6269969,11.1940843 C33.5369632,11.0970616 33.4818324,10.966774 33.4818324,10.823814 C33.4818324,10.6892237 30.29651,8.99764403 26.9998017,9.00000246 C23.8168745,9.00228922 20.5185642,10.6938689 20.5185642,10.823814 C20.5185642,10.966774 20.4630368,11.0970616 20.3733997,11.1940843 C19.804901,11.7557819 19.2186554,12.2995636 18.6155781,12.8245156 C15.743439,12.3404495 13.2342062,10.8423732 11.4966362,8.72649249 C10.0510891,6.9668421 9.14027843,4.77933547 9,2.39275416 C9.00279758,2.22570119 9.08512622,2.07793839 9.21181643,1.98187329 C11.0893892,0.731869501 13.3646173,0 15.8176913,0 C16.5454606,0 17.258043,0.0648150112 17.9486445,0.187886372 C21.6642243,0.850697022 24.7611403,3.21567332 26.3401719,6.41359968 C26.3961234,6.52664015 26.4492773,6.64045222 26.5020316,6.7554217 C26.590355,6.9352062 26.7797908,7.05904917 26.9996003,7.05904917 C27.2206088,7.05904917 27.4112436,6.93366298 27.4991674,6.75310688 C27.5507227,6.638909 27.6042763,6.52548273 27.6598281,6.41359968 C29.23846,3.21567332 32.3357757,0.850697022 36.0513555,0.187886372 C36.7423566,0.0648150112 37.4545394,0 38.1815094,0 Z" id="形状结合" fill="#333333"/><path d="M20.5185642,10.823814 C20.5185642,10.966774 20.4630368,11.0970616 20.3733997,11.1940843 C18.3966243,13.1472109 16.2052751,14.8837194 13.8378247,16.3651968 C13.4776899,16.5711226 13.1231078,16.7849685 12.7736818,17.0067347 C11.9613952,17.5235292 11.1788555,18.0826968 10.4300289,18.6818615 C5.50831809,22.6178155 2.02397373,28.2716655 0.888041778,34.73219 C0.786902585,35.3064061 0.704801357,35.8869583 0.641341471,36.4734507 C0.218539982,39.7258896 0,43.0424822 0,46.4097643 C0,48.2650762 0.0666328802,50.1049436 0.196725646,51.9273865 C0.1943459,51.9792639 0.192362779,52.0319334 0.192362779,52.0842069 C0.192362779,52.2913207 0.21378049,52.4976424 0.255822665,52.7011921 C0.740100919,55.0542899 3.96901924,57.1567126 8.88676377,58.6568025 C13.6573607,60.1117472 20.0164379,61.0000025 26.9998017,61.0000025 C33.9835621,61.0000025 40.3430359,60.1117472 45.1136329,58.6568025 C50.0313774,57.1567126 53.2606923,55.0542899 53.7441773,52.7011921 C53.7858229,52.4976424 53.8072406,52.2913207 53.8072406,52.0842069 C53.8072406,52.0319334 53.8064473,51.9792639 53.8032744,51.9273865 C53.9337637,50.1049436 54,48.2650762 54,46.4097643 C54,43.0424822 53.78146,39.7258896 53.3582619,36.4734507 C53.2951986,35.8869583 53.2127008,35.3064061 53.1119582,34.73219 C51.9760263,28.2716655 48.4912853,22.6178155 43.5699711,18.6818615 C42.8211445,18.0826968 42.0386048,17.5235292 41.2263182,17.0067347 C40.8772889,16.7849685 40.5223101,16.5711226 40.1621753,16.3651968 C37.7943283,14.8837194 35.6033757,13.1472109 33.6269969,11.1940843 C33.5369632,11.0970616 33.4818324,10.966774 33.4818324,10.823814 C33.4818324,10.6892237 30.29651,8.99764403 26.9998017,9.00000246 C23.8168745,9.00228922 20.5185642,10.6938689 20.5185642,10.823814 Z" id="Clip-2" fill="#333333"/><path d="M38,37 L38,40.6315789 L38,40.6315789 L37.9850103,40.6318825 C37.6837985,46.437751 32.8808308,51.0526316 27,51.0526316 C21.1191692,51.0526316 16.3162015,46.437751 16.0149897,40.6318825 L16,40.6315789 L16,37 C16,36.4477153 16.4477153,36 17,36 L37,36 C37.5522847,36 38,36.4477153 38,37 Z" id="路径" fill="#FFFFFF"/></g></g></g></g></g></svg>