<?xml version="1.0" encoding="UTF-8"?><svg width="82px" height="82px" viewBox="0 0 82 82" version="1.1" xmlns="http://www.w3.org/2000/svg" xmlns:xlink="http://www.w3.org/1999/xlink"><title>小金卡@4x</title><g id="--🟠ICON" stroke="none" stroke-width="1" fill="none" fill-rule="evenodd"><g id="财富" transform="translate(-332.000000, -4084.000000)"><g id="小金卡" transform="translate(302.000000, 4084.000000)"><g id="ICON" transform="translate(30.000000, 0.000000)"><g id="编组-4" transform="translate(9.000000, 15.000000)"><path d="M57,0 C59.7614237,-5.07265313e-16 62,2.23857625 62,5 L62.0012194,23.408785 C59.3533836,21.8768178 56.2790877,21 53,21 C43.0588745,21 35,29.0588745 35,39 C35,44.1108729 37.1300679,48.7242418 40.5508795,52.0007826 L5,52 C2.23857625,52 -5.50001544e-16,49.7614237 0,47 L0,5 C-3.38176876e-16,2.23857625 2.23857625,5.07265313e-16 5,0 L57,0 Z" id="形状结合" fill="#333333"/><circle id="椭圆形" fill="#333333" cx="53" cy="39" r="13"/><path d="M58.7978107,38.5134167 C59.0673964,38.7835797 59.0673964,39.2164203 58.7978107,39.4865833 L53.5036711,44.7920574 C53.2553818,45.0408783 52.8634651,45.0668285 52.5852663,44.8675876 L52.4963289,44.7920574 L47.2021893,39.4865833 C46.9326036,39.2164203 46.9326036,38.7835797 47.2021893,38.5134167 L52.4963289,33.2079426 C52.7446182,32.9591217 53.1365349,32.9331715 53.4147337,33.1324124 L53.5036711,33.2079426 L58.7978107,38.5134167 Z" id="Rectangle-7" fill="#FFFFFF"/></g></g></g></g></g></svg>