<?xml version="1.0" encoding="UTF-8"?><svg width="82px" height="82px" viewBox="0 0 82 82" version="1.1" xmlns="http://www.w3.org/2000/svg" xmlns:xlink="http://www.w3.org/1999/xlink"><title>小金库VIP@4x</title><g id="--🟠ICON" stroke="none" stroke-width="1" fill="none" fill-rule="evenodd"><g id="财富" transform="translate(-188.000000, -1248.000000)"><g id="小金库VIP" transform="translate(158.000000, 1248.000000)"><g id="ICON" transform="translate(30.000000, 0.000000)"><g id="编组-24" transform="translate(9.000000, 18.000000)"><rect id="矩形" fill="#333333" x="0" y="0" width="64" height="50" rx="4.63574662"/><path d="M15.4824223,16 L18.4967284,26.4624348 L24.4698276,16 L29,16 L17.9304937,35.9316841 C17.8586727,36.0610044 17.6956154,36.1076169 17.5662951,36.0357959 C17.5070157,36.0028738 17.4624295,35.9486933 17.4415321,35.8841859 L11,16 L15.4824223,16 Z M36,16 L32.3570261,36 L28,36 L31.6429739,16 L36,16 Z M49.649407,16.0004787 C52.9226817,15.9593319 54.7844707,18.5757904 54.9877456,21.9062148 L55,22.3075838 C55,25.833897 53.0699772,29.0616537 49.649407,29.0616537 L41.845,29.061 L40.5529053,36 L36,36 L37.2924638,29.0616537 L37.9888015,25.3009933 L37.993,25.3 L38.6531572,21.7552166 L43.2060625,21.7552166 L42.545,25.3 L47.3118995,25.3018379 L47.6476593,25.28864 C48.5323442,25.2187367 49.2897223,24.8977004 49.8820939,24.3734853 C50.5556032,23.7774678 50.7794394,23.0440128 50.7851583,22.1276561 C50.7672642,21.264511 50.5378084,20.5711824 49.8820939,20.0116738 C49.294936,19.5106633 48.5134703,19.4839222 47.6476593,19.4249144 L47.3192412,19.4155283 L39.177303,19.5022375 L39.7988741,16.1243052 L49.649407,16.0004787 Z" id="形状结合" fill="#FFFFFF"/></g></g></g></g></g></svg>