<?xml version="1.0" encoding="UTF-8"?><svg width="82px" height="82px" viewBox="0 0 82 82" version="1.1" xmlns="http://www.w3.org/2000/svg" xmlns:xlink="http://www.w3.org/1999/xlink"><title>小白守约备份 4@4x</title><g id="--🟠ICON" stroke="none" stroke-width="1" fill="none" fill-rule="evenodd"><g id="白条" transform="translate(-190.000000, -118.000000)"><g id="小白守约" transform="translate(160.000000, 118.000000)"><g id="ICON" transform="translate(30.000000, 0.000000)"><g id="编组-8" transform="translate(9.000000, 9.000000)"><circle id="椭圆形" fill="#333333" cx="32" cy="32" r="32"/><path d="M28.4384756,25.8763376 C25.1507254,29.1273158 24.6286871,33.8819935 27.2724704,36.4962073 C29.9162537,39.1104212 34.7247116,38.5942216 38.0124618,35.3432433 C38.0882707,35.2682823 38.1655189,35.1880146 38.2442064,35.1024401 L38.484587,34.8297963 L38.484587,34.8297963 L38.7336035,34.525312 C38.9024933,34.3117089 39.0771404,34.0768787 39.2575448,33.8208215 L39.5324694,33.4208154 L39.5324694,33.4208154 L39.81603,32.9889687 L39.81603,32.9889687 L40.1082267,32.5252814 L40.1082267,32.5252814 L40.4090594,32.0297535 L40.4090594,32.0297535 L40.718528,31.502385 C40.7708258,31.4118369 40.8234834,31.3199621 40.8765009,31.2267606 L41.1989236,30.6516312 L41.1989236,30.6516312 L41.5299823,30.0446613 L41.5299823,30.0446613 L41.869677,29.4058508 L41.869677,29.4058508 L42.2180077,28.7351997 L42.2180077,28.7351997 L42.7566964,27.669522 L42.7566964,27.669522 L43.314816,26.5322029 L43.314816,26.5322029 L43.8923667,25.3232425 L43.8923667,25.3232425 L44.4893484,24.0426409 L44.4893484,24.0426409 L44.8981313,23.1491057 L44.8981313,23.1491057 L45.527498,21.7491018 L45.527498,21.7491018 L46.1762958,20.2774566 L46.1762958,20.2774566 L46.8445246,18.73417 L46.8445246,18.73417 L47.5321668,17.1192349 C47.6806706,16.7677135 47.5128691,16.3637095 47.1573716,16.2168667 C46.9808819,16.1439654 46.7818616,16.1459184 46.6068699,16.222269 L45.528621,16.6950029 L45.528621,16.6950029 L43.9703392,17.3868853 L43.9703392,17.3868853 L42.4829673,18.0581057 L42.4829673,18.0581057 L41.5307803,18.494107 L41.5307803,18.494107 L40.1615913,19.1308904 L40.1615913,19.1308904 L38.4463102,19.947794 L38.4463102,19.947794 L37.6359428,20.3424711 L37.6359428,20.3424711 L36.8570909,20.727965 L36.8570909,20.727965 L35.7479046,21.2889874 L35.7479046,21.2889874 L35.0478414,21.6515234 L35.0478414,21.6515234 L34.0568381,22.1781089 L34.0568381,22.1781089 L33.4355635,22.517687 C33.3346441,22.5735181 33.2350377,22.6289665 33.1367446,22.6840324 L32.5627432,23.0098357 L32.5627432,23.0098357 L32.0202573,23.3264559 L32.0202573,23.3264559 L31.5092869,23.6338929 L31.5092869,23.6338929 L31.029832,23.9321468 L31.029832,23.9321468 L30.5818925,24.2212175 L30.5818925,24.2212175 L30.1654686,24.501105 C30.0986908,24.5469877 30.0332263,24.5924877 29.9690749,24.6376051 L29.5999241,24.9037179 L29.5999241,24.9037179 L29.2622888,25.1606476 C29.10135,25.2868166 28.9522295,25.409542 28.8149273,25.5288236 L28.5560806,25.7627954 C28.5155658,25.8010254 28.4763642,25.8388728 28.4384756,25.8763376 Z" id="Oval-6" fill="#FFFFFF"/></g></g></g></g></g></svg>