<?xml version="1.0" encoding="UTF-8"?><svg width="82px" height="82px" viewBox="0 0 82 82" version="1.1" xmlns="http://www.w3.org/2000/svg" xmlns:xlink="http://www.w3.org/1999/xlink"><title>小白基金@4x</title><g id="--🟠ICON" stroke="none" stroke-width="1" fill="none" fill-rule="evenodd"><g id="财富" transform="translate(-44.000000, -2028.000000)"><g id="小白基金" transform="translate(14.000000, 2028.000000)"><g id="ICON" transform="translate(30.000000, 0.000000)"><g id="编组-69" transform="translate(10.000052, 10.000000)"><path d="M29.5771343,0.000880531729 C46.6956666,-0.130212732 45.3140919,14.4181344 45.1505259,15.7954543 C45.7197883,16.2258928 46.2890506,16.8128543 46.6956666,17.6737312 C47.3462522,19.1215696 46.858313,21.1172388 46.1264043,23.7781311 C45.9637579,24.3259618 45.8417731,24.8346618 45.7604499,25.147708 C45.3538339,27.1433772 44.0526628,28.0825156 43.0361229,28.7477387 L42.9102288,29.0562149 C35.9659805,31.5523871 30.9999483,38.1962541 30.9999483,46 C30.9999483,51.1108729 33.1300162,55.7242418 36.5508279,59.0007826 L4.07466332,59 C1.89248207,59 0.110954227,57.2845989 0.00498668221,55.1287035 L0,54.9253367 C0,51.6554532 1.66807798,47.2853432 5.24241792,44.0946416 C7.74445588,41.8535535 10.8025023,41.3597544 14.0194082,40.8279708 C15.4491442,40.6000636 16.9185951,40.3341718 18.4674757,39.9163418 C19.5397777,39.65045 24.0126211,37.1032035 24.3303402,38.1287862 C24.3313999,38.1326953 24.4512027,38.107948 24.6897487,38.0545442 C20.9888583,36.5564471 17.9229886,33.3371747 15.9961609,28.8260002 C14.8982978,28.2781694 13.5564651,27.2999002 13.1091875,26.2433695 C12.2959556,24.4042234 11.4827236,19.1998312 12.4179403,17.5172081 C12.8652179,16.695462 13.6784499,16.2650235 14.4916818,16.0302389 C14.0873646,14.7267693 12.4586019,0.131973796 29.5771343,0.000880531729 Z" id="形状结合" fill="#333333"/><path d="M49,33 C56.1797017,33 62,38.8202983 62,46 C62,53.1797017 56.1797017,59 49,59 C41.8202983,59 36,53.1797017 36,46 C36,38.8202983 41.8202983,33 49,33 Z" id="路径备份-5" fill="#333333"/><path d="M55.9306253,41.2811344 L56.8045945,42.1262441 C57.1869491,42.495973 57.2129842,43.1003084 56.8638433,43.5015504 L51.7486607,49.3800543 C51.0235881,50.2133271 49.7602996,50.3010406 48.9270269,49.575968 C48.8688127,49.525313 48.8135791,49.4713312 48.7616029,49.4142935 L46.2774794,46.6882581 L46.2774794,46.6882581 L43.6867921,49.6029255 C43.3198843,50.0157172 42.6878128,50.0529135 42.275021,49.6860056 C42.2609033,49.6734572 42.247144,49.6605113 42.2337596,49.6471835 L41.2961557,48.7135447 C40.9203732,48.3393513 40.9020456,47.7368819 41.2543878,47.3405384 L44.8056463,43.3457914 C45.5395253,42.520264 46.8036739,42.4459684 47.6292012,43.1798474 C47.6815538,43.2263878 47.7314251,43.2756466 47.778609,43.32742 L50.2783039,46.0702536 L50.2783039,46.0702536 L54.4881746,41.335538 C54.8551528,40.9228086 55.4872305,40.88572 55.8999599,41.2526981 C55.9103788,41.2619621 55.9206028,41.2714429 55.9306253,41.2811344 Z" id="路径-6" fill="#FFFFFF"/></g></g></g></g></g></svg>