<?xml version="1.0" encoding="UTF-8"?><svg width="82px" height="82px" viewBox="0 0 82 82" version="1.1" xmlns="http://www.w3.org/2000/svg" xmlns:xlink="http://www.w3.org/1999/xlink"><title>新发基金@4x</title><g id="--🟠ICON" stroke="none" stroke-width="1" fill="none" fill-rule="evenodd"><g id="财富" transform="translate(-188.000000, -4084.000000)"><g id="新发基金" transform="translate(158.000000, 4084.000000)"><g id="ICON" transform="translate(30.000000, 0.000000)"><g id="编组-36" transform="translate(15.000000, 13.000000)"><path d="M5,0 L47,0 C49.7614237,-5.07265313e-16 52,2.23857625 52,5 L52,53.7700469 C52,56.5314707 49.7614237,58.7700469 47,58.7700469 C46.3971848,58.7700469 45.7993376,58.6610383 45.2353153,58.4482825 L27.6647969,51.8204792 C26.5918311,51.4157441 25.4081689,51.4157441 24.3352031,51.8204792 L6.76468469,58.4482825 C4.18096654,59.4228909 1.29637289,58.1184498 0.321764442,55.5347316 C0.109008685,54.9707093 -8.14354847e-16,54.3728622 0,53.7700469 L0,5 C-3.38176876e-16,2.23857625 2.23857625,-3.80913106e-16 5,0 Z" id="Rectangle-53-Copy-2" fill="#333333"/><path d="M15.308,19.91 L15.308,17.842 L12.052,17.842 L12.052,16.874 L8.796,16.874 L8.796,17.842 L5.342,17.842 L5.342,19.91 L15.308,19.91 Z M17.2,33.704 C18.4173333,31.8413333 19.026,29.8026667 19.026,27.588 L19.026,27.588 L19.026,23.848 L20.5,23.848 L20.5,33.704 L23.36,33.704 L23.36,23.848 L24.9,23.848 L24.9,21.67 L19.026,21.67 L19.026,19.514 L20.61,19.514 C22.282,19.514 23.602,19.382 24.57,19.118 L24.57,19.118 L24.57,17.094 C23.6313333,17.3433333 22.2966667,17.468 20.566,17.468 L20.566,17.468 L16.188,17.49 L16.188,27.632 C16.188,30.008 15.7993333,32.032 15.022,33.704 L15.022,33.704 L17.2,33.704 Z M7.63,33.704 C9.11133333,33.704 10.204,33.3813333 10.908,32.736 C11.6266667,32.076 11.986,31.0053333 11.986,29.524 L11.986,29.524 L11.986,27.28 L15.198,27.28 L15.198,25.19 L11.986,25.19 L11.986,24.156 L15.528,24.156 L15.528,22.088 L13.768,22.088 L14.978,20.262 L12.184,20.262 L11.458,22.088 L9.17,22.088 L8.444,20.262 L5.65,20.262 L6.838,22.088 L5.056,22.088 L5.056,24.156 L9.214,24.156 L9.214,25.19 L5.43,25.19 L5.43,27.28 L9.214,27.28 L9.214,29.788 C9.214,30.4626667 9.09666667,30.9393333 8.862,31.218 C8.642,31.482 8.23133333,31.6506667 7.63,31.724 L7.63,31.724 L7.63,33.704 Z M6.75,33.066 L8.312,28.072 L5.892,28.072 L5.012,33.066 L6.75,33.066 Z M15.264,32.604 L14.89,28.072 L12.448,28.072 L13.548,32.604 L15.264,32.604 Z M46.9,33.748 L46.9,31.68 C44.6266667,31.0346667 42.8153333,30.3746667 41.466,29.7 C42.9766667,28.4826667 44.3333333,26.972 45.536,25.168 L45.536,25.168 L45.536,23.078 L34.184,23.078 C34.4626667,22.3886667 34.6313333,21.956 34.69,21.78 L34.69,21.78 L46.9,21.78 L46.9,19.734 L35.438,19.734 C35.79,18.7073333 36.098,17.754 36.362,16.874 L36.362,16.874 L33.304,16.874 C33.0986667,17.7686667 32.8346667,18.722 32.512,19.734 L32.512,19.734 L30.686,19.734 L31.5,17.512 L28.684,17.512 L27.342,21.78 L31.852,21.78 C30.5466667,25.5346667 28.86,29.5093333 26.792,33.704 L26.792,33.704 L28.97,33.704 C30.598,30.9466667 32.0426667,28.1013333 33.304,25.168 L33.304,25.168 L42.302,25.168 C41.4806667,26.4293333 40.4906667,27.5 39.332,28.38 C38.496,27.72 37.6966667,27.0013333 36.934,26.224 L36.934,26.224 L33.15,26.224 C34.4406667,27.6466667 35.7606667,28.8346667 37.11,29.788 C35.5993333,30.58 33.6853333,31.2326667 31.368,31.746 L31.368,31.746 L31.368,33.748 C34.5066667,33.22 37.1686667,32.3473333 39.354,31.13 C39.442,31.174 39.5226667,31.2106667 39.596,31.24 C42.104,32.472 44.5386667,33.308 46.9,33.748 L46.9,33.748 Z M44.282,19.492 L43.908,17.358 L40.63,17.358 L41.95,19.492 L44.282,19.492 Z" id="新发" fill="#FFFFFF"/></g></g></g></g></g></svg>