<?xml version="1.0" encoding="UTF-8"?><svg width="82px" height="82px" viewBox="0 0 82 82" version="1.1" xmlns="http://www.w3.org/2000/svg" xmlns:xlink="http://www.w3.org/1999/xlink"><title>新股申购@4x</title><g id="--🟠ICON" stroke="none" stroke-width="1" fill="none" fill-rule="evenodd"><g id="财富" transform="translate(-332.000000, -5022.000000)"><g id="新股申购" transform="translate(302.000000, 5022.000000)"><g id="ICON" transform="translate(30.000000, 0.000000)"><g id="编组-8" transform="translate(9.000000, 9.000000)"><rect id="Rectangle" fill="#333333" x="0" y="0" width="64" height="64" rx="32"/><path d="M32.448,24.736 L32.448,22.176 L27.36,22.176 L27.36,20.544 L23.36,20.544 L23.36,22.176 L17.984,22.176 L17.984,24.736 L32.448,24.736 Z M34.848,45.024 C36.5546667,42.144 37.408,39.04 37.408,35.712 L37.408,35.712 L37.408,30.56 L40.416,30.56 L40.416,45.024 L44,45.024 L44,30.56 L46.4,30.56 L46.4,27.904 L37.408,27.904 L37.408,24.192 L40.128,24.192 C42.6666667,24.192 44.576,24 45.856,23.616 L45.856,23.616 L45.856,20.992 C44.4693333,21.3973333 42.5493333,21.6 40.096,21.6 L40.096,21.6 L33.856,21.6 L33.856,35.808 C33.856,39.264 33.2693333,42.336 32.096,45.024 L32.096,45.024 L34.848,45.024 Z M21.376,45.024 C23.3173333,44.9173333 24.768,44.448 25.728,43.616 C26.7733333,42.72 27.296,41.3226667 27.296,39.424 L27.296,39.424 L27.296,35.552 L32.32,35.552 L32.32,32.992 L27.296,32.992 L27.296,30.976 L32.832,30.976 L32.832,28.416 L29.952,28.416 L31.872,25.504 L28.288,25.504 L27.04,28.416 L23.424,28.416 L22.208,25.504 L18.624,25.504 L20.544,28.416 L17.6,28.416 L17.6,30.976 L23.808,30.976 L23.808,32.992 L18.144,32.992 L18.144,35.552 L23.808,35.552 L23.808,39.744 C23.808,40.6826667 23.6373333,41.3546667 23.296,41.76 C22.9546667,42.1653333 22.3146667,42.4213333 21.376,42.528 L21.376,42.528 L21.376,45.024 Z M19.776,44.096 L22.24,36.864 L19.072,36.864 L17.536,44.096 L19.776,44.096 Z M32.32,43.424 L31.584,36.864 L28.384,36.864 L30.112,43.424 L32.32,43.424 Z" id="新" fill="#FFFFFF"/></g></g></g></g></g></svg>