<?xml version="1.0" encoding="UTF-8"?><svg width="82px" height="82px" viewBox="0 0 82 82" version="1.1" xmlns="http://www.w3.org/2000/svg" xmlns:xlink="http://www.w3.org/1999/xlink"><title>Тќ░т«буљєУ┤б@4x</title><g id="--­ЪЪаICON" stroke="none" stroke-width="1" fill="none" fill-rule="evenodd"><g id="У┤бт»ї" transform="translate(-620.000000, -5022.000000)"><g id="Тќ░т«буљєУ┤б" transform="translate(590.000000, 5022.000000)"><g id="ICON" transform="translate(30.000000, 0.000000)"><g id="у╝ќу╗ё-36" transform="translate(15.000000, 13.000000)"><path d="M5,0 L47,0 C49.7614237,-5.07265313e-16 52,2.23857625 52,5 L52,53.7700469 C52,56.5314707 49.7614237,58.7700469 47,58.7700469 C46.3971848,58.7700469 45.7993376,58.6610383 45.2353153,58.4482825 L27.6647969,51.8204792 C26.5918311,51.4157441 25.4081689,51.4157441 24.3352031,51.8204792 L6.76468469,58.4482825 C4.18096654,59.4228909 1.29637289,58.1184498 0.321764442,55.5347316 C0.109008685,54.9707093 -8.14354847e-16,54.3728622 0,53.7700469 L0,5 C-3.38176876e-16,2.23857625 2.23857625,-3.80913106e-16 5,0 Z" id="Rectangle-53-Copy-2" fill="#333333"/><path d="M26,27.9166667 C32.0750272,27.9166667 37,31.7421394 37,36.4609169 C37,41.1796944 15,41.1796944 15,36.4609169 C15,31.7421394 19.9247339,27.9166667 26,27.9166667 Z M25.3888889,11 C29.7764085,11 33.3333333,14.5165052 33.3333333,18.8541667 C33.3333333,23.1918281 29.7764085,26.7083333 25.3888889,26.7083333 C21.0011967,26.7083333 17.4444444,23.1918281 17.4444444,18.8541667 C17.4444444,14.5165052 21.0011967,11 25.3888889,11 Z" id="тйбуіХу╗Њтљѕ" fill="#FFFFFF"/></g></g></g></g></g></svg>