<?xml version="1.0" encoding="UTF-8"?><svg width="82px" height="82px" viewBox="0 0 82 82" version="1.1" xmlns="http://www.w3.org/2000/svg" xmlns:xlink="http://www.w3.org/1999/xlink"><title>å¿ƒæ„¿è®¡åˆ’@4x</title><g id="--ðŸŸ ICON" stroke="none" stroke-width="1" fill="none" fill-rule="evenodd"><g id="è´¢å¯Œ" transform="translate(-620.000000, -4442.000000)"><g id="å¿ƒæ„¿è®¡åˆ’" transform="translate(613.000000, 4442.000000)"><g id="ICON" transform="translate(7.000000, 0.000000)"><g id="ç¼–ç»„-5" transform="translate(17.000000, 13.000000)"><path d="M44.623794,0 C47.0407058,-4.43979502e-16 49,1.95929417 49,4.37620601 L49,32.5 C49,32.7232779 48.9970132,32.9458582 48.9910775,33.1677031 C46.7331169,32.5218988 44.205576,33.0765909 42.4132411,34.835405 L42.4132411,34.835405 L31.8011477,45.2490278 C30.782728,46.2484007 30.1703125,47.5894008 30.0819577,49.013521 L30.0819577,49.013521 L29.6197498,56.4642496 C27.968554,56.8152931 26.2558473,57 24.5,57 L4.37620601,57 C1.95929417,57 -5.92192085e-16,55.0407058 0,52.623794 L0,4.37620601 C-2.95986335e-16,1.95929417 1.95929417,-4.44198917e-16 4.37620601,0 L44.623794,0 Z" id="å½¢çŠ¶ç»“åˆ" fill="#333333"/><path d="M47.578964,40.9901095 L47.5792127,54.1103319 C47.5792127,54.6765571 47.37779,55.224318 47.0109663,55.6556548 L43.5281374,59.7510071 C43.1014082,60.2527849 42.3487047,60.3136238 41.8469269,59.8868947 C41.7980496,59.8453278 41.7526062,59.7998844 41.7110393,59.7510071 L38.2282103,55.6556548 C37.8613867,55.224318 37.659964,54.6765571 37.659964,54.1103319 L37.659964,40.9909806 L47.578964,40.9901095 Z M37.659964,37.544454 C37.659964,36.2270646 38.727919,35.1591095 40.0453084,35.1591095 L45.1938682,35.1591095 C46.5112576,35.1591095 47.5792127,36.2270646 47.5792127,37.544454 L47.578964,38.6581095 L37.659964,38.6582322 L37.659964,37.544454 Z" id="å½¢çŠ¶ç»“åˆ" fill="#333333" transform="translate(42.619588, 47.663511) rotate(-315.000000) translate(-42.619588, -47.663511) "/><path d="M14.6506342,19.4721915 C16.5848131,17.5092695 19.7207366,17.5092695 21.6549155,19.4721915 L24.0047603,21.857572 L26.2286633,19.6018101 C28.1894751,17.6118593 31.3685793,17.6118593 33.3293911,19.6018101 C35.290203,21.5917609 35.290203,24.8181086 33.3293911,26.8080594 L24.2720485,36 L24.0986017,35.8252831 L23.9298036,35.997625 L14.6506342,26.5805611 C12.7164553,24.617639 12.7164553,21.4351136 14.6506342,19.4721915 Z" id="è·¯å¾„" fill="#FFFFFF"/></g></g></g></g></g></svg>