<?xml version="1.0" encoding="UTF-8"?><svg width="82px" height="82px" viewBox="0 0 82 82" version="1.1" xmlns="http://www.w3.org/2000/svg" xmlns:xlink="http://www.w3.org/1999/xlink"><title>ไฟก็จๅก่ฟๆฌพ@4x</title><g id="--๐ICON" stroke="none" stroke-width="1" fill="none" fill-rule="evenodd"><g id="่ดขๅฏ" transform="translate(-44.000000, -3726.000000)"><g id="ไฟก็จๅก่ฟๆฌพ" transform="translate(14.000000, 3726.000000)"><g id="ICON" transform="translate(30.000000, 0.000000)"><g id="็ผ็ป-11ๅคไปฝ" transform="translate(11.000000, 7.306498)"><path d="M16.9987793,11.6935022 L35.2566669,0.815061691 C37.9976942,-0.818101029 41.5436757,0.0800005898 43.1768384,2.8210278 L43.2478953,2.94368391 L43.2478953,2.94368391 L47.8974609,11.6935022 L16.9987793,11.6935022 Z" id="Rectangle-56" fill="#333333"/><path d="M5,14.6935022 L55,14.6935022 C57.7614237,14.6935022 60,16.9320784 60,19.6935022 L60,57.6935022 C60,60.4549259 57.7614237,62.6935022 55,62.6935022 L5,62.6935022 C2.23857625,62.6935022 -5.50001544e-16,60.4549259 0,57.6935022 L0,19.6935022 C-3.38176876e-16,16.9320784 2.23857625,14.6935022 5,14.6935022 Z" id="Rectangle-56" fill="#333333"/><path d="M18.0975834,36.6371491 C18.0975834,36.1922672 18.2528457,35.78793 18.5060922,35.4881774 L18.6065228,35.3792118 L26.0145846,27.0792347 L26.0233968,27.0824582 C26.2940085,26.7817404 26.6668749,26.5959188 27.0785596,26.5959188 C27.9052356,26.5959188 28.5753889,27.3451874 28.5753889,28.2694572 L28.5745158,31.8491357 L28.7629048,31.8834483 C37.3230193,33.5459392 43.210878,41.2172359 42.6346004,49.5959188 C41.108668,45.4840077 37.4499805,42.2508471 32.7505953,41.4222187 C31.3300818,41.1717439 29.9237799,41.1602464 28.5744273,41.3584354 L28.5753889,45.004841 C28.5753889,45.9291107 27.9052356,46.6783793 27.0785596,46.6783793 C26.663308,46.6783793 26.2875502,46.4893238 26.0163859,46.1839976 L26.0145846,46.1848929 L18.6279399,37.915123 C18.3035382,37.6081397 18.0975834,37.1495355 18.0975834,36.6371491 Z" id="่ทฏๅพ" fill="#FFFFFF"/></g></g></g></g></g></svg>