<?xml version="1.0" encoding="UTF-8"?><svg width="82px" height="82px" viewBox="0 0 82 82" version="1.1" xmlns="http://www.w3.org/2000/svg" xmlns:xlink="http://www.w3.org/1999/xlink"><title>养老保障@4x</title><g id="--🟠ICON" stroke="none" stroke-width="1" fill="none" fill-rule="evenodd"><g id="财富" transform="translate(-44.000000, -4800.000000)"><g id="养老保障" transform="translate(14.000000, 4800.000000)"><g id="ICON" transform="translate(30.000000, 0.000000)"><g id="养老保障" transform="translate(13.000000, 11.000000)"><path d="M2.66711929,6.25421914 C11.271403,2.08473971 19.7239912,0 28.0248839,0 C36.3257767,0 44.7783651,2.08473979 53.382649,6.25421938 C55.00517,7.04046108 56.0106938,8.71028134 55.9466565,10.5121275 L54.9443913,38.713315 C54.7594209,43.9179128 51.9987825,48.6899043 47.5791629,51.4447209 L31.6365672,61.381985 C29.4259191,62.7599159 26.6238487,62.7599159 24.4132005,61.381985 L8.47060488,51.4447209 C4.05098525,48.6899043 1.2903469,43.9179128 1.10537642,38.713315 L0.103111037,10.5121212 C0.0390805675,8.7102783 1.04460243,7.04046131 2.66711929,6.25421914 Z" id="Rectangle-12-Copy备份" fill="#333333"/><path d="M10.7676667,37.7626667 C11.7368889,36.9841111 12.5392778,35.999 13.1748333,34.8073333 C13.8103889,33.6156667 14.1281667,32.4796111 14.1281667,31.3991667 L14.1281667,31.3991667 L14.1281667,31.0893333 L12.007,31.0893333 C13.6753333,30.4855556 14.9782222,29.7864444 15.9156667,28.992 L15.9156667,28.992 L18.3705,28.992 C19.3556111,29.8023333 20.5393333,30.5014444 21.9216667,31.0893333 L21.9216667,31.0893333 L19.7051667,31.0893333 L19.7051667,37.7626667 L23.1133333,37.7626667 L23.1133333,31.5421667 C24.5274444,32.0347222 26.0368889,32.3763333 27.6416667,32.567 L27.6416667,32.567 L27.6416667,30.4696667 C25.6555556,30.4061111 23.8839444,29.9135556 22.3268333,28.992 L22.3268333,28.992 L27.451,28.992 L27.451,26.7755 L17.6078333,26.7755 C17.7667222,26.4736111 17.8938333,26.132 17.9891667,25.7506667 L17.9891667,25.7506667 L26.021,25.7506667 L26.021,23.844 L18.3228333,23.844 C18.3387222,23.6851111 18.3625556,23.4308889 18.3943333,23.0813333 L18.3943333,23.0813333 L26.9505,23.0813333 L26.9505,20.9363333 L23.0895,20.9363333 L24.2811667,19.5301667 L20.3963333,19.5301667 L19.9673333,20.9363333 L13.9613333,20.9363333 L13.5323333,19.5301667 L9.6475,19.5301667 L10.8391667,20.9363333 L6.88283333,20.9363333 L6.88283333,23.0813333 L15.153,23.0813333 C15.1212222,23.4308889 15.0973889,23.6851111 15.0815,23.844 L15.0815,23.844 L7.76466667,23.844 L7.76466667,25.7506667 L14.724,25.7506667 C14.5651111,26.1478889 14.3982778,26.4895 14.2235,26.7755 L14.2235,26.7755 L6.3585,26.7755 L6.3585,28.992 L11.292,28.992 C10.1638889,29.4845556 8.46377778,29.9771111 6.19166667,30.4696667 L6.19166667,30.4696667 L6.19166667,32.567 C7.73288889,32.2968889 9.2185,31.9552778 10.6485,31.5421667 C10.6326111,32.6067222 10.4181111,33.6156667 10.005,34.569 C9.62366667,35.4428889 8.94838889,36.5074444 7.97916667,37.7626667 L7.97916667,37.7626667 L10.7676667,37.7626667 Z M50.188,37.4051667 L50.188,35.3555 L38.0568333,35.3555 C37.6437222,35.3555 37.3577222,35.2522222 37.1988333,35.0456667 C37.0558333,34.855 36.9843333,34.5451667 36.9843333,34.1161667 L36.9843333,34.1161667 L36.9843333,33.7825 C41.6874444,33.0675 45.8185556,32.0506111 49.3776667,30.7318333 L49.3776667,30.7318333 L49.3776667,28.3246667 C45.7073333,29.6593333 41.5762222,30.7318333 36.9843333,31.5421667 L36.9843333,31.5421667 L36.9843333,30.4458333 C39.3041111,29.6037222 41.4570556,28.6345 43.4431667,27.5381667 L43.4431667,27.5381667 L51.475,27.5381667 L51.475,25.4408333 L46.7321667,25.4408333 C48.6547222,24.0267222 50.1641667,22.5172778 51.2605,20.9125 L51.2605,20.9125 L47.5663333,20.9125 C47.0578889,21.6910556 46.3826111,22.4457778 45.5405,23.1766667 L45.5405,23.1766667 L45.5405,21.1508333 L41.4411667,21.1508333 L41.4411667,19.5301667 L38.1998333,19.5301667 L38.1998333,21.1508333 L31.9078333,21.1508333 L31.9078333,23.2481667 L38.1998333,23.2481667 L38.1998333,25.4408333 L30.1918333,25.4408333 L30.1918333,27.5381667 L38.4858333,27.5381667 C35.6258333,28.8251667 32.8055556,29.7308333 30.025,30.2551667 L30.025,30.2551667 L30.025,32.3286667 C31.4232222,32.0585556 32.6307778,31.7805 33.6476667,31.4945 L33.6476667,31.4945 L33.6476667,34.5451667 C33.6317778,36.4836111 34.6089444,37.4369444 36.5791667,37.4051667 L36.5791667,37.4051667 L50.188,37.4051667 Z M42.466,25.4408333 L41.4411667,25.4408333 L41.4411667,23.2481667 L45.469,23.2481667 C44.5474444,24.0426111 43.5464444,24.7735 42.466,25.4408333 L42.466,25.4408333 Z" id="养老" fill="#FFFFFF"/></g></g></g></g></g></svg>