<?xml version="1.0" encoding="UTF-8"?><svg width="82px" height="82px" viewBox="0 0 82 82" version="1.1" xmlns="http://www.w3.org/2000/svg" xmlns:xlink="http://www.w3.org/1999/xlink"><title>医疗报销备份 3@4x</title><g id="--🟠ICON" stroke="none" stroke-width="1" fill="none" fill-rule="evenodd"><g id="保险" transform="translate(-476.000000, -476.000000)"><g id="医疗报销" transform="translate(446.000000, 476.000000)"><g id="ICON" transform="translate(30.000000, 0.000000)"><g id="编组-9" transform="translate(15.000000, 11.000000)"><path d="M5,0 L47,0 C49.7614237,-5.07265313e-16 52,2.23857625 52,5 L52,56 C52,58.7614237 49.7614237,61 47,61 L5,61 C2.23857625,61 3.38176876e-16,58.7614237 0,56 L0,5 C-3.38176876e-16,2.23857625 2.23857625,-3.80913106e-16 5,0 Z" id="矩形" fill="#333333"/><path d="M7.74,50.64 C9.03333333,50.4666667 9.97333333,50.1133333 10.56,49.58 C11.2133333,48.98 11.54,48.06 11.54,46.82 L11.54,46.82 L11.54,43.68 L13.4,43.22 L13.4,41.52 L11.54,41.98 L11.54,39.14 L13.4,39.14 L13.4,37.56 L11.54,37.56 L11.54,35.34 L9.24,35.34 L9.24,37.56 L7,37.56 L7,39.14 L9.24,39.14 L9.24,42.54 L7,43.1 L7,44.8 L9.24,44.24 L9.24,47 C9.24,47.6 9.13333333,48.0666667 8.92,48.4 C8.68,48.76 8.28666667,49 7.74,49.12 L7.74,49.12 L7.74,50.64 Z M16.34,50.64 L16.34,43.1 L22.42,43.1 C22.2333333,44.0733333 21.68,45.1 20.76,46.18 C20.08,45.4066667 19.56,44.58 19.2,43.7 L19.2,43.7 L17.1,43.7 C17.5133333,45.0066667 18.3266667,46.2466667 19.54,47.42 C18.62,48.1933333 17.7333333,48.74 16.88,49.06 L16.88,49.06 L16.88,50.64 C18.2133333,50.2666667 19.5266667,49.56 20.82,48.52 C22.1533333,49.52 23.5466667,50.2266667 25,50.64 L25,50.64 L25,49.06 C23.9733333,48.7 22.9933333,48.1466667 22.06,47.4 C23.42,46 24.2533333,44.5666667 24.56,43.1 L24.56,43.1 L24.56,41.6 L16.34,41.6 L16.34,37.26 L22.04,37.26 L22.04,37.86 C22.04,38.3933333 21.92,38.7733333 21.68,39 C21.4666667,39.1866667 21.0866667,39.32 20.54,39.4 L20.54,39.4 L20.54,40.9 C21.78,40.86 22.6933333,40.62 23.28,40.18 C23.9866667,39.66 24.34,38.8 24.34,37.6 L24.34,37.6 L24.34,35.76 L14.04,35.76 L14.04,50.64 L16.34,50.64 Z M36.26,50.64 L36.26,47.06 L42.42,47.06 C42.4066667,47.6866667 42.2733333,48.1466667 42.02,48.44 C41.7666667,48.7333333 41.3133333,48.94 40.66,49.06 L40.66,49.06 L40.66,50.64 C41.9933333,50.5466667 42.96,50.24 43.56,49.72 C44.2533333,49.12 44.6,48.1466667 44.6,46.8 L44.6,46.8 L44.6,39.46 L40.52,39.46 L40.52,35.34 L38.18,35.34 L38.18,39.46 L34.06,39.46 L34.06,50.64 L36.26,50.64 Z M28.48,39.62 C28.84,39.22 29.1466667,38.8266667 29.4,38.44 L29.4,38.44 L33.14,38.44 L33.14,36.88 L30.3,36.88 C30.5666667,36.3333333 30.78,35.82 30.94,35.34 L30.94,35.34 L28.46,35.34 C28.26,36.62 27.7333333,38.0466667 26.88,39.62 L26.88,39.62 L28.48,39.62 Z M37.02,38.84 L36.08,35.7 L34,35.7 L35.42,38.84 L37.02,38.84 Z M43.28,38.84 L44.7,35.7 L42.62,35.7 L41.68,38.84 L43.28,38.84 Z M28.88,50.34 C30.32,50.02 31.74,49.58 33.14,49.02 L33.14,49.02 L33.14,47.4 C32.5,47.6533333 31.8533333,47.88 31.2,48.08 L31.2,48.08 L31.2,45.06 L33.28,45.06 L33.28,43.5 L31.2,43.5 L31.2,41.66 L33.04,41.66 L33.04,40.12 L27.38,40.12 L27.38,41.66 L28.88,41.66 L28.88,43.5 L27,43.5 L27,45.06 L28.88,45.06 L28.88,50.34 Z M42.42,42.5 L36.26,42.5 L36.26,41.04 L42.42,41.04 L42.42,42.5 Z M42.42,45.52 L36.26,45.52 L36.26,44.04 L42.42,44.04 L42.42,45.52 Z" id="报销" fill="#FFFFFF"/><path d="M27,9 C27.5522847,9 28,9.44771525 28,10 L28,16 L34,16 C34.5522847,16 35,16.4477153 35,17 L35,20 C35,20.5522847 34.5522847,21 34,21 L28,21 L28,27 C28,27.5522847 27.5522847,28 27,28 L24,28 C23.4477153,28 23,27.5522847 23,27 L23,21 L17,21 C16.4477153,21 16,20.5522847 16,20 L16,17 C16,16.4477153 16.4477153,16 17,16 L23,16 L23,10 C23,9.44771525 23.4477153,9 24,9 L27,9 Z" id="形状结合" fill="#FFFFFF"/></g></g></g></g></g></svg>