<?xml version="1.0" encoding="UTF-8"?><svg width="82px" height="82px" viewBox="0 0 82 82" version="1.1" xmlns="http://www.w3.org/2000/svg" xmlns:xlink="http://www.w3.org/1999/xlink"><title>é“¶è¡Œç²¾é€‰@4x</title><g id="--ðŸŸ ICON" stroke="none" stroke-width="1" fill="none" fill-rule="evenodd"><g id="è´¢å¯Œ" transform="translate(-188.000000, -254.000000)" fill="#333333"><g id="é“¶è¡Œç²¾é€‰" transform="translate(158.000000, 254.000000)"><g id="ICON" transform="translate(30.000000, 0.000000)"><g id="ç¼–ç»„-11" transform="translate(10.000000, 12.000000)"><path d="M34.7272786,1.0149117 L60.6551951,16.6468074 C61.5796908,17.1878745 62,17.9848787 62,19.1786438 C62,19.9744872 62,21.0230668 62,22.3243826 C62,23.8020853 60.8207489,25 59.366069,25 L2.63393104,25 C1.17925109,25 0,23.8020853 0,22.3243826 L0,20.0744317 C0,19.7871782 0,19.0591285 0,18.9194614 C0,18.0136639 0.570534487,17.0995357 1.34304366,16.6471426 L27.2545933,1.01591746 C29.5670289,-0.338279817 32.4144898,-0.338663061 34.7272786,1.0149117 Z" id="è·¯å¾„"/><path d="M54,25 L54,49 L43,49 L43,25 L54,25 Z M36,25 L36,49 L26,49 L26,25 L36,25 Z M19,49 L8,49 L8,25 L19,25 L19,49 Z" id="å½¢çŠ¶ç»“åˆ"/><path d="M3.31060393,49 L58.6893961,49 C59.9655074,49 61,50.0344926 61,51.3106039 L61,56.6893961 C61,57.9655074 59.9655074,59 58.6893961,59 L3.31060393,59 C2.03449262,59 1,57.9655074 1,56.6893961 L1,51.3106039 C1,50.0344926 2.03449262,49 3.31060393,49 Z" id="çŸ©å½¢-copy"/></g></g></g></g></g></svg>