<?xml version="1.0" encoding="UTF-8"?><svg width="82px" height="82px" viewBox="0 0 82 82" version="1.1" xmlns="http://www.w3.org/2000/svg" xmlns:xlink="http://www.w3.org/1999/xlink"><title>意外险备份 3@4x</title><g id="--🟠ICON" stroke="none" stroke-width="1" fill="none" fill-rule="evenodd"><g id="保险" transform="translate(-44.000000, -118.000000)"><g id="意外险" transform="translate(14.000000, 118.000000)"><g id="ICON" transform="translate(30.000000, 0.000000)"><g transform="translate(13.000000, 11.000000)"><path d="M2.66711929,6.25421914 C11.271403,2.08473971 19.7239912,0 28.0248839,0 C36.3257767,0 44.7783651,2.08473979 53.382649,6.25421938 C55.00517,7.04046108 56.0106938,8.71028134 55.9466565,10.5121275 L54.9443913,38.713315 C54.7594209,43.9179128 51.9987825,48.6899043 47.5791629,51.4447209 L31.6365672,61.381985 C29.4259191,62.7599159 26.6238487,62.7599159 24.4132005,61.381985 L8.47060488,51.4447209 C4.05098525,48.6899043 1.2903469,43.9179128 1.10537642,38.713315 L0.103111037,10.5121212 C0.0390805675,8.7102783 1.04460243,7.04046131 2.66711929,6.25421914 Z" id="Rectangle-12-Copy备份" fill="#333333"/><path d="M28,36 C30.209139,36 32,37.790861 32,40 C32,42.209139 30.209139,44 28,44 C25.790861,44 24,42.209139 24,40 C24,37.790861 25.790861,36 28,36 Z M28,14 C30.4860042,14 32.5013087,16.0153046 32.5013087,18.5013087 C32.5013087,18.658706 32.4930532,18.8159949 32.4765761,18.9725273 L31.3140544,30.0164836 C31.1355285,31.7124795 29.705366,33 28,33 C26.294634,33 24.8644715,31.7124795 24.6859456,30.0164836 L23.5234239,18.9725273 C23.2631771,16.5001826 25.0564368,14.2849795 27.5287815,14.0247327 C27.6853139,14.0082556 27.8426028,14 28,14 Z" id="形状结合" fill="#FFFFFF"/></g></g></g></g></g></svg>