<?xml version="1.0" encoding="UTF-8"?><svg width="82px" height="82px" viewBox="0 0 82 82" version="1.1" xmlns="http://www.w3.org/2000/svg" xmlns:xlink="http://www.w3.org/1999/xlink"><title>ä¼˜æƒ åˆ¸@4x</title><g id="--ðŸŸ ICON" stroke="none" stroke-width="1" fill="none" fill-rule="evenodd"><g id="è´¢å¯Œ" transform="translate(-44.000000, -3862.000000)"><g id="ä¼˜æƒ åˆ¸" transform="translate(14.000000, 3862.000000)"><g id="ICON" transform="translate(30.000000, 0.000000)"><g id="ç¼–ç»„-5" transform="translate(12.000000, 10.198345)"><path d="M42.6659995,2.62713296 C42.7311075,2.73636293 42.7923237,2.84786614 42.8495329,2.96143262 L47.3285173,11.853 L16.6765173,11.853 L35.2875398,0.759771663 C37.8407028,-0.762076124 41.1441517,0.0739700079 42.6659995,2.62713296 Z" id="å½¢çŠ¶ç»“åˆ" fill="#333333"/><path d="M6.91705515e-14,43.5238827 C3.86599325,43.5238827 7,40.389876 7,36.5238827 C7,32.6578895 3.86599325,29.5238827 6.65987932e-14,29.5238827 L2.48665782e-13,19.8016554 C2.47651251e-13,17.0402317 2.23857625,14.8016554 5,14.8016554 L53,14.8016554 C55.7614237,14.8016554 58,17.0402317 58,19.8016554 L57.999,29.5244061 L57.7593502,29.5279418 C54.0047834,29.6547841 51,32.738431 51,36.5238827 C51,40.3895418 54.1334649,43.5233409 57.9989974,43.5238827 L58,53.8016554 C58,56.5630792 55.7614237,58.8016554 53,58.8016554 L5,58.8016554 C2.23857625,58.8016554 2.55926011e-13,56.5630792 2.54911481e-13,53.8016554 L6.91705515e-14,43.5238827 L6.91705515e-14,43.5238827 Z" id="å½¢çŠ¶ç»“åˆ" fill="#333333"/><path d="M39,39.8016554 C39.5522847,39.8016554 40,40.2493707 40,40.8016554 L40,43.8016554 C40,44.3539402 39.5522847,44.8016554 39,44.8016554 L19,44.8016554 C18.4477153,44.8016554 18,44.3539402 18,43.8016554 L18,40.8016554 C18,40.2493707 18.4477153,39.8016554 19,39.8016554 L39,39.8016554 Z M39,28.8016554 C39.5522847,28.8016554 40,29.2493707 40,29.8016554 L40,32.8016554 C40,33.3539402 39.5522847,33.8016554 39,33.8016554 L19,33.8016554 C18.4477153,33.8016554 18,33.3539402 18,32.8016554 L18,29.8016554 C18,29.2493707 18.4477153,28.8016554 19,28.8016554 L39,28.8016554 Z" id="å½¢çŠ¶ç»“åˆ" fill="#FFFFFF"/></g></g></g></g></g></svg>