<?xml version="1.0" encoding="UTF-8"?><svg width="82px" height="82px" viewBox="0 0 82 82" version="1.1" xmlns="http://www.w3.org/2000/svg" xmlns:xlink="http://www.w3.org/1999/xlink"><title>在线客服@4x</title><g id="--🟠ICON" stroke="none" stroke-width="1" fill="none" fill-rule="evenodd"><g id="财富" transform="translate(-60.000000, -2874.000000)"><g id="在线客服" transform="translate(30.000000, 2874.000000)"><g id="ICON" transform="translate(30.000000, 0.000000)"><g id="编组-18" transform="translate(8.500000, 8.000000)"><rect id="Rectangle" fill="#333333" x="0" y="0" width="66" height="66" rx="32"/><path d="M48.5,35.0185759 C49.5943103,35.0185759 50.4814241,35.9056897 50.4814241,37 C50.4814241,44.567901 45.1841529,50.9027506 38.0745105,52.5590845 C37.5550825,53.4228841 36.6088694,54 35.5278638,54 L31.4721362,54 C29.8306707,54 28.5,52.6693293 28.5,51.0278638 L28.5,50.9721362 C28.5,49.3306707 29.8306707,48 31.4721362,48 L35.5278638,48 C36.2286433,48 36.8727763,48.2425325 37.3809038,48.6482384 C42.6352557,47.3269232 46.5185759,42.6102032 46.5185759,37 C46.5185759,35.9056897 47.4056897,35.0185759 48.5,35.0185759 Z" id="形状结合" fill="#FFFFFF"/><path d="M34.3823529,14 C43.0602645,14 50.1465571,20.8280847 50.4698994,29.3887245 C52.2503886,30.138294 53.5,31.899996 53.5,33.9535604 L53.5,39.0464396 C53.5,41.7822155 51.2822155,44 48.5464396,44 L47.4535604,44 C44.7177845,44 42.5,41.7822155 42.5,39.0464396 L42.5,33.9535604 C42.5,31.9092359 43.7383916,30.1541533 45.505917,29.3975701 C45.2502036,23.1988728 41.0230659,19.1306084 34.6333836,19.0025141 L34.3823529,19 L32.6176471,19 C26.1117741,19 21.7773136,23.0936443 21.4954488,29.399223 C23.2625411,30.1554754 24.5,31.9100059 24.5,33.9535604 L24.5,39.0464396 C24.5,41.7822155 22.2822155,44 19.5464396,44 L18.4535604,44 C15.7177845,44 13.5,41.7822155 13.5,39.0464396 L13.5,33.9535604 C13.5,31.899996 14.7496114,30.138294 16.5299158,29.3873726 C16.8501659,20.9182974 23.7910016,14.1443122 32.3434376,14.0022755 L32.6176471,14 L34.3823529,14 Z" id="形状结合" fill="#FFFFFF"/></g></g></g></g></g></svg>