<?xml version="1.0" encoding="UTF-8"?><svg width="82px" height="82px" viewBox="0 0 82 82" version="1.1" xmlns="http://www.w3.org/2000/svg" xmlns:xlink="http://www.w3.org/1999/xlink"><title>攒钱花@4x</title><g id="--🟠ICON" stroke="none" stroke-width="1" fill="none" fill-rule="evenodd"><g id="财富" transform="translate(-620.000000, -3318.000000)"><g id="攒钱花" transform="translate(590.000000, 3318.000000)"><g id="ICON" transform="translate(30.000000, 0.000000)"><g id="编组-13" transform="translate(14.000000, 11.000000)"><path d="M19.0273577,0 C18.9882222,3.52091067 21.9848659,6.36686368 25.6704386,6.29774771 C29.2741097,6.36686368 32.2191307,3.64599206 32.3135195,0 L32.3135195,0 L37.8494202,0 C37.8494202,6.37201941 32.401618,11.5458708 25.6704386,11.5458708 C19.0461034,11.5458708 13.6647264,6.5349651 13.491457,0 L13.491457,0 L19.0273577,0 Z" id="路径" fill="#333333" transform="translate(25.670439, 5.772935) scale(1, -1) translate(-25.670439, -5.772935) "/><path d="M44.5397485,11.5458708 C46.8380217,11.5458708 48.7398047,13.3336072 48.8817528,15.6274926 L49.9459894,32.8120302 C49.2862771,32.5688559 48.5926242,32.3689574 47.8662387,32.2165177 C41.5924555,30.9353993 38.5244833,32.7184206 36.1092416,37.23585 L35.6412355,38.1285489 C35.3440612,38.6760848 35.176945,38.906525 35.0304384,39.0260886 C34.6712643,39.3192096 34.2673875,39.571626 33.7589559,39.8242423 L33.4408716,39.9761632 C33.0710866,40.146341 31.6039545,40.7498362 31.2993372,40.8855682 C29.7123776,41.5926884 28.5795071,42.3524147 27.6405299,43.6148489 C24.2074047,48.2306109 23.8135904,54.7189874 29.0839536,59.828467 L4.35174531,59.8286032 C1.94913562,59.8286032 0.00143564801,57.8809032 0.00143564801,55.4782936 C0.00143564801,55.3886668 0.00420543746,55.2990614 0.00974105041,55.2096057 L2.45912446,15.6274926 C2.60107253,13.3336072 4.50285556,11.5458708 6.80112871,11.5458708 L44.5397485,11.5458708 Z" id="Combined-Shape-Copy" fill="#333333"/><g id="编组-76" transform="translate(42.379907, 48.026847) rotate(17.000000) translate(-42.379907, -48.026847) translate(30.045639, 35.061285)"><path d="M13.5661451,0.0447373135 C21.3492192,-0.64323849 26.631934,6.70534975 23.97272,15.0731426 C21.2292181,23.9624724 12.0115183,27.7776584 5.60746609,25.0796843 C-0.995750448,22.2505628 -0.297584613,16.569188 0.497306089,14.3838795 C1.25220139,12.3085261 4.04397646,11.4138966 5.91609932,8.66815612 C8.06286961,5.51960521 5.38109744,0.812266111 13.5661451,0.0447373135 Z" id="路径-17" fill="#333333"/><path d="M10.8160005,7.5541411 C11.4598075,8.05069941 10.540987,13.2436374 7.48793518,13.9062968 C4.48016262,14.1992401 6.29326171,12.2366144 7.08994779,11.6191863 C7.88663388,11.0017582 8.66899174,10.1280869 9.15950285,9.11920382 C9.47785829,8.46441048 10.1845552,7.06711716 10.8160005,7.5541411 Z" id="路径-18" fill="#FFFFFF"/></g></g></g></g></g></g></svg>