<?xml version="1.0" encoding="UTF-8"?><svg width="82px" height="82px" viewBox="0 0 82 82" version="1.1" xmlns="http://www.w3.org/2000/svg" xmlns:xlink="http://www.w3.org/1999/xlink"><title>账单分期备份 4@4x</title><g id="--🟠ICON" stroke="none" stroke-width="1" fill="none" fill-rule="evenodd"><g id="白条" transform="translate(-46.000000, -248.000000)"><g id="额度管理" transform="translate(16.000000, 248.000000)"><g id="ICON" transform="translate(30.000000, 0.000000)"><g id="编组-9" transform="translate(15.000000, 12.000000)"><path d="M46,2.27373675e-12 C48.7614237,2.27813476e-12 51,2.23857625 51,5 L51.0012194,30.408785 C48.3533836,28.8768178 45.2790877,28 42,28 C32.0588745,28 24,36.0588745 24,46 C24,51.1108729 26.1300679,55.7242418 29.5508795,59.0007826 L5,59 C2.23857625,59 -5.50001544e-16,56.7614237 0,54 L0,16 L16.1754057,2.27373675e-12 L46,2.27373675e-12 Z" id="形状结合" fill="#333333"/><path d="M16,0 L16,11 C16,13.7614237 13.7614237,16 11,16 L0,16 L0,16 L16,0 Z" id="矩形" fill="#666666"/><circle id="椭圆形备份" fill="#333333" cx="42" cy="46" r="13"/><path d="M42.7071068,40.7071068 L47.2928932,45.2928932 C47.6834175,45.6834175 47.6834175,46.3165825 47.2928932,46.7071068 L42.7071068,51.2928932 C42.3165825,51.6834175 41.6834175,51.6834175 41.2928932,51.2928932 L36.7071068,46.7071068 C36.3165825,46.3165825 36.3165825,45.6834175 36.7071068,45.2928932 L41.2928932,40.7071068 C41.6834175,40.3165825 42.3165825,40.3165825 42.7071068,40.7071068 Z" id="Rectangle" fill="#FFFFFF"/></g></g></g></g></g></svg>