<?xml version="1.0" encoding="UTF-8"?><svg width="82px" height="82px" viewBox="0 0 82 82" version="1.1" xmlns="http://www.w3.org/2000/svg" xmlns:xlink="http://www.w3.org/1999/xlink"><title>直播广场@4x</title><g id="--🟠ICON" stroke="none" stroke-width="1" fill="none" fill-rule="evenodd"><g id="社区" transform="translate(-188.000000, -118.000000)"><g id="直播广场" transform="translate(158.000000, 118.000000)"><g id="ICON" transform="translate(30.000000, 0.000000)"><g id="编组-2" transform="translate(10.000000, 14.000000)"><path d="M5,0 L57,0 C59.7614237,-5.07265313e-16 62,2.23857625 62,5 L62,41 C62,43.7614237 59.7614237,46 57,46 L5,46 C2.23857625,46 -5.50001544e-16,43.7614237 0,41 L0,5 C-3.38176876e-16,2.23857625 2.23857625,-3.80913106e-16 5,0 Z" id="矩形" fill="#333333"/><path d="M28.0899767,14.0084849 L40.4201735,22.0231128 C41.3462927,22.6250903 41.6090615,23.8638575 41.007084,24.7899767 C40.8546418,25.0245031 40.6546999,25.224445 40.4201735,25.3768872 L28.0899767,33.3915151 C27.1638575,33.9934927 25.9250903,33.7307239 25.3231128,32.8046046 C25.1122394,32.4801841 25,32.1015597 25,31.7146279 L25,15.6853721 C25,14.5808026 25.8954305,13.6853721 27,13.6853721 C27.3869318,13.6853721 27.7655562,13.7976115 28.0899767,14.0084849 Z" id="矩形" fill="#FFFFFF"/><path d="M18.5,50 L43.5,50 C44.8807119,50 46,51.1192881 46,52.5 C46,53.8807119 44.8807119,55 43.5,55 L18.5,55 C17.1192881,55 16,53.8807119 16,52.5 C16,51.1192881 17.1192881,50 18.5,50 Z" id="矩形" fill="#333333"/></g></g></g></g></g></svg>