<?xml version="1.0" encoding="UTF-8"?><svg width="82px" height="82px" viewBox="0 0 82 82" version="1.1" xmlns="http://www.w3.org/2000/svg" xmlns:xlink="http://www.w3.org/1999/xlink"><title>指标选股@4x</title><g id="--🟠ICON" stroke="none" stroke-width="1" fill="none" fill-rule="evenodd"><g id="财富" transform="translate(-188.000000, -5158.000000)"><g id="指标选股" transform="translate(158.000000, 5158.000000)"><g id="ICON" transform="translate(30.000000, 0.000000)"><g transform="translate(10.000000, 15.000000)"><path d="M56,0 C58.7614237,-5.07265313e-16 61,2.23857625 61,5 L61.0012194,24.408785 C58.3533836,22.8768178 55.2790877,22 52,22 C42.0588745,22 34,30.0588745 34,40 C34,45.1108729 36.1300679,49.7242418 39.5508795,53.0007826 L5,53 C2.23857625,53 -5.50001544e-16,50.7614237 0,48 L0,5 C-3.38176876e-16,2.23857625 2.23857625,-3.80913106e-16 5,0 L56,0 Z" id="形状结合" fill="#333333"/><path d="M26.7755178,11 C27.4517806,11 28,11.5482194 28,12.2244822 L28,16 L29,16 C30.1045695,16 31,16.8954305 31,18 L31,29 C31,30.1045695 30.1045695,31 29,31 L28,31 L28,34.7755178 C28,35.4517806 27.4517806,36 26.7755178,36 L25.2244822,36 C24.5482194,36 24,35.4517806 24,34.7755178 L24,31 L23,31 C21.8954305,31 21,30.1045695 21,29 L21,18 C21,16.8954305 21.8954305,16 23,16 L24,16 L24,12.2244822 C24,11.5482194 24.5482194,11 25.2244822,11 L26.7755178,11 Z M12.7755178,7 C13.4517806,7 14,7.54821938 14,8.22448225 L14,12 L15,12 C16.1045695,12 17,12.8954305 17,14 L17,25 C17,26.1045695 16.1045695,27 15,27 L14,27 L14,30.7755178 C14,31.4517806 13.4517806,32 12.7755178,32 L11.2244822,32 C10.5482194,32 10,31.4517806 10,30.7755178 L10,27 L9,27 C7.8954305,27 7,26.1045695 7,25 L7,14 C7,12.8954305 7.8954305,12 9,12 L10,12 L10,8.22448225 C10,7.54821938 10.5482194,7 11.2244822,7 L12.7755178,7 Z" id="形状结合" fill="#FFFFFF"/><circle id="形状结合" fill="#333333" cx="52" cy="40" r="13"/><path d="M58.4814695,35.4695316 C59.036299,36.0811869 59.0358238,37.0142117 58.4803714,37.6253014 L52.0351,44.7161687 C51.2921475,45.5335397 50.0272554,45.5938678 49.2098844,44.8509152 C49.1489605,44.7955382 49.0915141,44.7364521 49.0378732,44.6739942 L45.3789576,40.4136577 C44.8561522,39.804918 44.8765276,38.8999154 45.4262,38.3153217 C45.9641616,37.7431829 46.8599107,37.7035246 47.4463299,38.2258828 L50.5125655,40.95716 L50.5125655,40.95716 L56.4420325,35.3879168 C57.0180521,34.8468912 57.9235961,34.8752595 58.4646216,35.4512791 C58.4702903,35.4573144 58.4759065,35.4633988 58.4814695,35.4695316 Z" id="路径-3" fill="#FFFFFF"/></g></g></g></g></g></svg>