<?xml version="1.0" encoding="UTF-8"?><svg width="82px" height="82px" viewBox="0 0 82 82" version="1.1" xmlns="http://www.w3.org/2000/svg" xmlns:xlink="http://www.w3.org/1999/xlink"><title>指数进化论@4x</title><g id="--🟠ICON" stroke="none" stroke-width="1" fill="none" fill-rule="evenodd"><g id="财富" transform="translate(-332.000000, -1742.000000)"><g id="指数进化论" transform="translate(302.000000, 1742.000000)"><g id="ICON" transform="translate(30.000000, 0.000000)"><g id="编组-30" transform="translate(13.000000, 13.000000)"><path d="M5,0 L51,0 C53.7614237,-5.07265313e-16 56,2.23857625 56,5 L56,51 C56,53.7614237 53.7614237,56 51,56 L5,56 C2.23857625,56 1.2263553e-15,53.7614237 0,51 L0,5 C-3.38176876e-16,2.23857625 2.23857625,1.39544373e-15 5,0 Z" id="矩形" fill="#333333"/><path d="M42.5468408,35.3326199 L45.1272128,39.2610361 C45.5328168,39.8786524 45.3609469,40.7081364 44.7433306,41.1137404 C44.5251848,41.2570022 44.2699014,41.3333333 44.0089196,41.3333333 L11.990727,41.3333333 C11.2518329,41.3333333 10.6528408,40.7343413 10.6528408,39.9954472 C10.6528408,39.7320178 10.7306091,39.4744507 10.8763952,39.2550392 L13.4818408,35.3326199 L42.5468408,35.3326199 Z M36.4178408,25.9996199 L40.3578408,31.9996199 L15.6958408,31.9996199 L19.6828408,25.9996199 L36.4178408,25.9996199 Z M28.8337331,14.6463183 C28.9840266,14.7461795 29.1125661,14.8754114 29.2116184,15.0262391 L34.2288408,22.6666199 L21.8978408,22.6666199 L26.9789933,15.0202421 C27.3879093,14.4048137 28.2183046,14.2374023 28.8337331,14.6463183 Z" id="形状结合" fill="#FFFFFF"/></g></g></g></g></g></svg>