<?xml version="1.0" encoding="UTF-8"?><svg width="82px" height="82px" viewBox="0 0 82 82" version="1.1" xmlns="http://www.w3.org/2000/svg" xmlns:xlink="http://www.w3.org/1999/xlink"><title>指数选基@4x</title><g id="--🟠ICON" stroke="none" stroke-width="1" fill="none" fill-rule="evenodd"><g id="财富" transform="translate(-620.000000, -526.000000)"><g id="指数选基" transform="translate(590.000000, 526.000000)"><g id="ICON" transform="translate(30.000000, 0.000000)"><g id="编组-4" transform="translate(10.000000, 15.000000)"><path d="M56,0 C58.7614237,-5.07265313e-16 61,2.23857625 61,5 L61.0012194,24.408785 C58.3533836,22.8768178 55.2790877,22 52,22 C42.0588745,22 34,30.0588745 34,40 C34,45.1108729 36.1300679,49.7242418 39.5508795,53.0007826 L5,53 C2.23857625,53 -5.50001544e-16,50.7614237 0,48 L0,5 C-3.38176876e-16,2.23857625 2.23857625,-3.80913106e-16 5,0 L56,0 Z" id="形状结合" fill="#333333"/><path d="M19.8700927,17.1489209 L20.078,17.1472824 L31.7,17.1472824 L31.7,15.1192824 L21.326,15.1192824 C20.8753333,15.1192824 20.5633333,15.0239491 20.39,14.8332824 C20.234,14.6599491 20.156,14.3479491 20.156,13.8972824 L20.156,13.8972824 L20.156,13.6892824 C24.3333333,13.2906158 27.956,12.7186158 31.024,11.9732824 L31.024,11.9732824 L31.024,9.91928242 C27.644,10.6992824 24.0213333,11.3059491 20.156,11.7392824 L20.156,11.7392824 L20.156,9.42528242 L17.036,9.42528242 L17.036,14.1572824 C17.0186667,16.2026158 18.0326667,17.1992824 20.078,17.1472824 L19.8700927,17.1489209 Z M8.95,29.2632824 C10.614,29.0379491 11.8446667,28.5872824 12.642,27.9112824 C13.578,27.1139491 14.046,25.9266158 14.046,24.3492824 L14.046,24.3492824 L14.046,20.1892824 L16.542,19.5392824 L16.542,17.3292824 L14.046,17.9792824 L14.046,14.3652824 L16.074,14.3652824 L16.074,12.3112824 L14.046,12.3112824 L14.046,9.42528242 L11.004,9.42528242 L11.004,12.3112824 L8.3,12.3112824 L8.3,14.3652824 L11.004,14.3652824 L11.004,18.7852824 L8.3,19.5132824 L8.3,21.7232824 L11.004,20.9952824 L11.004,24.5832824 C11.004,26.1086158 10.3193333,27.0099491 8.95,27.2872824 L8.95,27.2872824 L8.95,29.2632824 Z M31.024,28.9252824 L31.024,18.4992824 L17.244,18.4992824 L17.244,28.9252824 L31.024,28.9252824 Z M27.982,22.6592824 L20.286,22.6592824 L20.286,20.5272824 L27.982,20.5272824 L27.982,22.6592824 Z M27.982,26.8972824 L20.286,26.8972824 L20.286,24.6092824 L27.982,24.6092824 L27.982,26.8972824 Z" id="指" fill="#FFFFFF"/><path d="M52,53 C59.1797017,53 65,47.1797017 65,40 C65,32.8202983 59.1797017,27 52,27 C44.8202983,27 39,32.8202983 39,40 C39,47.1797017 44.8202983,53 52,53 Z" id="形状结合" fill="#333333"/><path d="M59.0218036,35.0783835 C59.5766331,35.6900387 59.5761579,36.6230635 59.0207055,37.2341533 L52.5754341,44.3250205 C51.8324816,45.1423915 50.5675895,45.2027196 49.7502185,44.4597671 C49.6892946,44.40439 49.6318482,44.3453039 49.5782073,44.282846 L45.9192917,40.0225095 C45.3964863,39.4137698 45.4168617,38.5087672 45.9665341,37.9241736 C46.5044956,37.3520347 47.4002448,37.3123764 47.986664,37.8347346 L51.0528996,40.5660118 L51.0528996,40.5660118 L56.9823666,34.9967686 C57.5583862,34.4557431 58.4639302,34.4841113 59.0049557,35.0601309 C59.0106244,35.0661662 59.0162405,35.0722506 59.0218036,35.0783835 Z" id="路径-3" fill="#FFFFFF"/></g></g></g></g></g></svg>