<?xml version="1.0" encoding="UTF-8"?><svg width="82px" height="82px" viewBox="0 0 82 82" version="1.1" xmlns="http://www.w3.org/2000/svg" xmlns:xlink="http://www.w3.org/1999/xlink"><title>重疾险备份 3@4x</title><defs><path d="M58.509668,5.49304081 C65.8301107,12.8170952 65.8301107,24.6917336 58.509668,32.0157881 L36.7717402,53.7644408 C35.4870025,55.0498123 33.8131259,55.7085653 32.1295209,55.7406995 L32,55.7419355 C30.2729697,55.7419355 28.5459394,55.0827706 27.2282598,53.7644408 L5.49033201,32.0157881 C-1.83011067,24.6917336 -1.83011067,12.8170952 5.49033201,5.49304081 C12.7375703,-1.75777306 24.4426365,-1.8302812 31.7790313,5.27551639 L32,5.49304081 C39.3204427,-1.8310136 51.1892253,-1.8310136 58.509668,5.49304081 Z" id="path-1"/></defs><g id="--🟠ICON" stroke="none" stroke-width="1" fill="none" fill-rule="evenodd"><g id="保险" transform="translate(-332.000000, -254.000000)"><g id="重疾险" transform="translate(302.000000, 254.000000)"><g id="ICON" transform="translate(30.000000, 0.000000)"><g id="重疾险" transform="translate(9.000000, 15.000000)"><mask id="mask-2" fill="white"><use xlink:href="#path-1"/></mask><use id="路径" fill="#333333" xlink:href="#path-1"/><path d="M21.8950298,23.9930915 L26.5020108,18.8102379 C27.6027648,17.5718896 29.4989819,17.4603474 30.7373303,18.5611014 C30.9048536,18.710011 31.0551612,18.8772257 31.1854391,19.0596148 L39,30 L39,30 L41.1,27.2 C41.6665631,26.4445825 42.5557281,26 43.5,26 L63,26 L63,26 L63,31 L45.5438537,31 C44.5750004,31 43.6657878,31.4678971 43.1026533,32.2562854 L41.4412004,34.5823194 C40.4781734,35.9305572 38.6045232,36.2428322 37.2562854,35.2798053 C36.9868989,35.0873863 36.7512186,34.851706 36.5587996,34.5823194 L29,24 L29,24 L23.8786797,29.1213203 C23.3160705,29.6839295 22.5530088,30 21.7573593,30 L1,30 L1,30 L1,25 L19.6528018,25 C20.5097152,25 21.3257275,24.6335566 21.8950298,23.9930915 Z" id="路径" fill="#FFFFFF" mask="url(#mask-2)"/></g></g></g></g></g></svg>