<?xml version="1.0" encoding="UTF-8"?><svg width="82px" height="82px" viewBox="0 0 82 82" version="1.1" xmlns="http://www.w3.org/2000/svg" xmlns:xlink="http://www.w3.org/1999/xlink"><title>中医院备份 3@4x</title><g id="--🟠ICON" stroke="none" stroke-width="1" fill="none" fill-rule="evenodd"><g id="保险" transform="translate(-188.000000, -698.000000)"><g id="中医院" transform="translate(158.000000, 698.000000)"><g id="ICON" transform="translate(30.000000, 0.000000)"><g id="04-医生门诊" transform="translate(10.000000, 8.000000)"><path d="M41.5316239,3.94465416 L60.0553458,22.4683761 C65.3148847,27.7344643 65.3148847,36.2655357 60.0553458,41.5316239 L41.5316239,60.0553458 C36.2655357,65.3148847 27.7344643,65.3148847 22.4683761,60.0553458 L3.94465416,41.5765844 C-1.31488472,36.3104962 -1.31488472,27.7794248 3.94465416,22.5133366 L22.4683761,3.94465416 C27.7344643,-1.31488472 36.2655357,-1.31488472 41.5316239,3.94465416 Z" id="形状" fill="#333333"/><path d="M28.125,29.125 L19,29.125 C18.4477153,29.125 18,29.5727153 18,30.125 L18,34.875 C18,35.4272847 18.4477153,35.875 19,35.875 L28.125,35.875 L28.125,35.875 L28.125,45 C28.125,45.5522847 28.5727153,46 29.125,46 L33.875,46 C34.4272847,46 34.875,45.5522847 34.875,45 L34.875,35.875 L34.875,35.875 L44,35.875 C44.5522847,35.875 45,35.4272847 45,34.875 L45,30.125 C45,29.5727153 44.5522847,29.125 44,29.125 L34.875,29.125 L34.875,29.125 L34.875,20 C34.875,19.4477153 34.4272847,19 33.875,19 L29.125,19 C28.5727153,19 28.125,19.4477153 28.125,20 L28.125,29.125 L28.125,29.125 Z" id="路径" fill="#FFFFFF"/></g></g></g></g></g></svg>