<?xml version="1.0" encoding="UTF-8"?><svg width="82px" height="82px" viewBox="0 0 82 82" version="1.1" xmlns="http://www.w3.org/2000/svg" xmlns:xlink="http://www.w3.org/1999/xlink"><title>转让平台@4x</title><g id="--🟠ICON" stroke="none" stroke-width="1" fill="none" fill-rule="evenodd"><g id="财富" transform="translate(-332.000000, -5158.000000)"><g id="转让平台" transform="translate(302.000000, 5158.000000)"><g id="ICON" transform="translate(30.000000, 0.000000)"><g id="编组-2" transform="translate(10.000000, 14.000000)"><path d="M5,0 L57,0 C59.7614237,-5.07265313e-16 62,2.23857625 62,5 L62,41 C62,43.7614237 59.7614237,46 57,46 L5,46 C2.23857625,46 -5.50001544e-16,43.7614237 0,41 L0,5 C-3.38176876e-16,2.23857625 2.23857625,-3.80913106e-16 5,0 Z" id="矩形" fill="#333333"/><path d="M18.5,50 L43.5,50 C44.8807119,50 46,51.1192881 46,52.5 C46,53.8807119 44.8807119,55 43.5,55 L18.5,55 C17.1192881,55 16,53.8807119 16,52.5 C16,51.1192881 17.1192881,50 18.5,50 Z" id="矩形" fill="#333333"/><path d="M43,26 C43.5522847,26 44,26.4477153 44,27 L44,30 C44,30.5522847 43.5522847,31 43,31 L25.0749803,30.999 L25.0756836,34.4940193 C25.0756836,35.0463041 24.6279683,35.4940193 24.0756836,35.4940193 C23.7939883,35.4940193 23.5253579,35.3752082 23.3358394,35.1667976 L16.5211431,27.6727783 C16.1495779,27.2641736 16.1796044,26.631721 16.588209,26.2601558 C16.7722935,26.0927584 17.0121721,26 17.2609873,26 L43,26 Z M37,10.5059807 C37.2816953,10.5059807 37.5503257,10.6247918 37.7398442,10.8332024 L44.5545405,18.3272217 C44.9261057,18.7358264 44.8960792,19.368279 44.4874746,19.7398442 C44.3033901,19.9072416 44.0635115,20 43.8146963,20 L18,20 C17.4477153,20 17,19.5522847 17,19 L17,16 C17,15.4477153 17.4477153,15 18,15 L36,14.9999807 L36,11.5059807 C36,10.9536959 36.4477153,10.5059807 37,10.5059807 Z" id="形状结合" fill="#FFFFFF"/></g></g></g></g></g></svg>