<?xml version="1.0" encoding="UTF-8"?><svg width="82px" height="82px" viewBox="0 0 82 82" version="1.1" xmlns="http://www.w3.org/2000/svg" xmlns:xlink="http://www.w3.org/1999/xlink"><title>自动充@4x</title><g id="--🟠ICON" stroke="none" stroke-width="1" fill="none" fill-rule="evenodd"><g id="财富" transform="translate(-332.000000, -3318.000000)"><g id="自动充" transform="translate(302.000000, 3318.000000)"><g id="ICON" transform="translate(30.000000, 0.000000)"><g id="编组-4" transform="translate(12.000000, 11.000000)"><g id="编组-2" fill="#333333"><path d="M28.1077599,0 C31.8011436,0 35.4945273,0.532904551 39.187911,1.59871365 C41.5576522,2.28256681 42.9243451,4.75798834 42.240502,7.12773248 C42.2331982,7.15304261 42.2256706,7.17828762 42.2179201,7.20346454 L39.6959052,15.397612 C32.3492781,12.2303994 23.9262503,12.4743237 16.7454223,16.129385 L13.9976012,7.20346917 C13.2719255,4.84619008 14.5946062,2.34696395 16.9518866,1.62129275 C16.977064,1.61354207 17.0023095,1.60601432 17.0276201,1.59871039 C20.7210001,0.532903462 24.41438,0 28.1077599,0 Z" id="形状结合"/><path d="M14.5,16.4469825 C23.348364,10.8219459 34.651636,10.8219459 43.5,16.4469825 C52.5304351,22.1877645 58,32.1460712 58,42.8467878 L58,47.6708582 C58,55.03234 52.03234,61 44.6708582,61 L13.3291418,61 C5.96766004,61 -2.65119218e-15,55.03234 0,47.6708582 L0,42.8467878 C-4.86317352e-15,32.1460712 5.46956485,22.1877645 14.5,16.4469825 Z" id="矩形备份-4"/></g><path d="M18.824,51.024 C20.7013333,48.848 22.152,46.7573333 23.176,44.752 C24.0933333,42.96 24.7653333,41.0506667 25.192,39.024 L25.192,39.024 L32.648,39.024 L32.648,46.896 C32.648,49.4346667 33.928,50.704 36.488,50.704 L36.488,50.704 L43.4,50.704 L43.4,48.048 L38.12,48.048 C37.5653333,48.048 37.1813333,47.9306667 36.968,47.696 C36.776,47.4826667 36.68,47.0986667 36.68,46.544 L36.68,46.544 L36.68,39.024 L42.12,39.024 L39.592,32.688 L35.56,32.688 L37.352,36.368 L21.064,36.368 L24.136,31.216 L43.112,31.216 L43.112,28.56 L30.984,28.56 L30.984,26.544 L26.952,26.544 L26.952,28.56 L14.984,28.56 L14.984,31.216 L19.912,31.216 L15.944,39.024 L21.064,39.024 C20.808,40.88 20.264,42.7146667 19.432,44.528 C18.536,46.4906667 17.224,48.656 15.496,51.024 L15.496,51.024 L18.824,51.024 Z" id="充" fill="#FFFFFF"/></g></g></g></g></g></svg>