<?xml version="1.0" encoding="UTF-8"?><svg width="82px" height="82px" viewBox="0 0 82 82" version="1.1" xmlns="http://www.w3.org/2000/svg" xmlns:xlink="http://www.w3.org/1999/xlink"><title>子女无忧备份 3@4x</title><g id="--🟠ICON" stroke="none" stroke-width="1" fill="none" fill-rule="evenodd"><g id="保险" transform="translate(-476.000000, -254.000000)"><g id="子女无忧" transform="translate(446.000000, 254.000000)"><g id="ICON" transform="translate(30.000000, 0.000000)"><g id="子女无忧" transform="translate(13.000000, 11.000000)"><path d="M2.66711929,6.25421914 C11.271403,2.08473971 19.7239912,0 28.0248839,0 C36.3257767,0 44.7783651,2.08473979 53.382649,6.25421938 C55.00517,7.04046108 56.0106938,8.71028134 55.9466565,10.5121275 L54.9443913,38.713315 C54.7594209,43.9179128 51.9987825,48.6899043 47.5791629,51.4447209 L31.6365672,61.381985 C29.4259191,62.7599159 26.6238487,62.7599159 24.4132005,61.381985 L8.47060488,51.4447209 C4.05098525,48.6899043 1.2903469,43.9179128 1.10537642,38.713315 L0.103111037,10.5121212 C0.0390805675,8.7102783 1.04460243,7.04046131 2.66711929,6.25421914 Z" id="Rectangle-12-Copy备份" fill="#333333"/><path d="M38.5809042,19.4458215 C39.3744388,19.7278231 40.0375293,20.12371 40.5701758,20.6334821 C41.1028224,21.1432542 41.4887193,21.734373 41.7278667,22.4068383 C41.9670141,23.0793037 42.0485417,23.7463459 41.9724493,24.407965 C41.896357,25.0695842 41.6680799,25.6986647 41.2876181,26.2952065 C40.9071563,26.8917483 40.3582043,27.3635587 39.640762,27.7106376 C38.6841724,28.1878711 37.7493234,28.6162966 36.8362151,28.9959141 C35.9231067,29.3755316 35.0480446,29.6900719 34.2110287,29.9395348 C33.3740127,30.1889978 32.5967836,30.3571141 31.8793414,30.4438839 C31.1618991,30.5306536 30.5205492,30.5089611 29.9552917,30.3788066 C29.6726629,31.6803524 29.4335155,33.1066297 29.2378494,34.6576385 C29.0421834,36.2086473 28.9443503,37.7976178 28.9443503,39.4245501 C28.9443503,40.1837852 28.9606559,40.9430203 28.9932669,41.7022553 C29.0258779,42.4614904 29.1943681,43.1997598 29.2378494,43.8288402 C29.2813308,44.5446905 29.6220283,45.127113 29.3682935,46.2567889 C29.1145587,47.3864649 24.9456598,47.0986113 24.6070859,46.2567889 C24.2685119,45.4149666 24.4396033,44.6372703 24.4830846,43.964805 C24.5048253,43.4008018 24.6505672,42.9387239 24.6723079,42.0276418 C24.6940486,41.1165597 24.7049189,39.9993995 24.7049189,38.6761613 C24.7049189,36.9841517 24.8136223,35.3680656 25.031029,33.827903 C25.2484357,32.2877405 25.4984535,30.8994249 25.7810823,29.6629564 C24.933196,29.8581882 24.030958,29.847342 23.0743683,29.6304177 C22.1177787,29.4134934 21.161189,29.0501452 20.2045993,28.5403731 C19.2480097,28.030601 18.324031,27.4015205 17.4326634,26.6531316 C16.5412958,25.9047428 15.7477612,25.0966997 15.0520596,24.2290025 C14.5955054,23.6649993 14.291136,23.1009961 14.1389513,22.5369929 C13.9867665,21.9729897 13.9595907,21.4198327 14.0574237,20.877522 C14.1552568,20.3352112 14.3509228,19.8254391 14.6444219,19.3482056 C14.937921,18.8709721 15.2803367,18.4371235 15.6716688,18.0466598 C16.0195196,17.7212733 16.4325924,17.4718104 16.9108872,17.2982709 C17.389182,17.1247315 17.9055231,17.0271155 18.4599102,17.0054231 C19.0142974,16.9837307 19.579555,17.0271155 20.1556828,17.1355777 C20.7318107,17.2440398 21.2916331,17.4175793 21.8351499,17.656196 C22.3786668,17.9165052 22.9602298,18.2690072 23.579839,18.713702 C24.1994482,19.1583968 24.7973168,19.668169 25.3734446,20.2430184 C25.9495725,20.8178678 26.482219,21.4306789 26.9713842,22.0814519 C27.4605493,22.7322248 27.868187,23.3829977 28.1942971,24.0337706 C28.5421479,23.4263826 28.998702,22.84611 29.5639596,22.2929531 C30.1292171,21.7397961 30.7542615,21.2462933 31.4390927,20.8124447 C32.1239239,20.3785961 32.8413662,20.0152479 33.5914194,19.7224 C34.3414727,19.4295522 35.0752205,19.2505897 35.7926627,19.1855124 C36.8579557,19.0770502 37.7873695,19.16382 38.5809042,19.4458215 Z" id="路径" fill="#FFFFFF"/></g></g></g></g></g></svg>