<?xml version="1.0" encoding="UTF-8"?><svg width="82px" height="82px" viewBox="0 0 82 82" version="1.1" xmlns="http://www.w3.org/2000/svg" xmlns:xlink="http://www.w3.org/1999/xlink"><title>车@4x</title><g id="--🟠ICON" stroke="none" stroke-width="1" fill="none" fill-rule="evenodd"><g id="常用载体" transform="translate(-332.000000, -322.000000)" fill="#333333"><g id="车" transform="translate(302.000000, 322.000000)"><g transform="translate(30.000000, 0.000000)"><path d="M11.1212121,57.9090909 L11.1212121,41.5869565 L11.1212121,41.5869565 C11.4054809,41.1739674 10.9276898,40.7081335 10.3378918,40.7075184 L8.21149,40.7058089 C7.5421928,40.7051109 7,40.1764871 7,39.5246377 L7,39.4367922 C7,35.3408355 9.00782722,33.2704315 13.1671835,33.0856456 C13.9487,33.1296636 14.7788109,32.0311139 15.6015529,30.4108685 L15.8610559,29.8825945 L15.9905013,29.606809 L16.2485352,29.0346567 L16.5051,28.4386833 L16.8863362,27.5095633 L17.1375151,26.8730463 L17.5088366,25.9034778 L17.872447,24.9291923 L19.0118186,21.8357874 L19.2233409,21.2781635 L19.4284988,20.7510301 L19.6753995,20.14161 L19.9109788,19.5951064 L20.0634717,19.2672786 L20.1947721,19.0146282 L20.3373648,18.7684137 C20.3868443,18.6874129 20.4383056,18.6074819 20.4918485,18.5286178 L20.6588214,18.2952235 L20.8388821,18.0682135 C20.9322841,17.9563017 21.0308185,17.8467776 21.1348217,17.7396315 L21.3502199,17.5285071 C21.3873681,17.4938472 21.425149,17.4594508 21.4635749,17.4253175 L21.7019708,17.223673 L21.8271614,17.1252137 L22.0899015,16.9330103 L22.3696192,16.7470795 C22.5138222,16.6556795 22.6646162,16.5666252 22.8223378,16.479907 L23.1471175,16.3095827 C23.3142255,16.2259751 23.4884855,16.1446972 23.6702342,16.0657394 L24.043816,15.9109141 L24.4379661,15.7622584 L24.8532826,15.6197551 C24.9953158,15.5732774 25.1409764,15.5278223 25.2903642,15.4833869 L25.7498092,15.3531368 L25.988105,15.2903006 L26.4822172,15.1691953 L27.0001889,15.054165 L27.5426186,14.9451926 L27.8231921,14.8929728 L28.4034307,14.793055 L29.3226394,14.6544509 L29.9688851,14.5695382 L30.6425809,14.4905975 L31.3443253,14.4176115 L32.4508418,14.3192603 L33.2253256,14.2610861 L34.0299524,14.2088067 L35.2947199,14.1414024 L36.6306754,14.0871644 L37.5618587,14.0582917 L38.5261772,14.0352278 L39.5242294,14.0179555 L39.8286452,14.0138864 L39.8291285,14 L41.0858672,14.0028686 L42.1708715,14 L42.1702581,14.0138864 L42.4757706,14.0179555 L43.4738228,14.0352278 L44.4381413,14.0582917 L45.3693246,14.0871644 L46.7052801,14.1414024 L47.9700476,14.2088067 L48.7746744,14.2610861 L49.5491582,14.3192603 L50.6556747,14.4176115 L51.3574191,14.4905975 L52.0311149,14.5695382 L52.6773606,14.6544509 L52.9903767,14.6991521 L53.5965693,14.793055 L54.1768079,14.8929728 L54.4573814,14.9451926 L54.9998111,15.054165 L55.5177828,15.1691953 L56.011895,15.2903006 L56.2501908,15.3531368 L56.7096358,15.4833869 L56.9309346,15.5508052 L57.1467174,15.6197551 L57.5620339,15.7622584 L57.956184,15.9109141 L58.3297658,16.0657394 L58.5968144,16.1859174 L58.8528825,16.3095827 L59.1776622,16.4799071 L59.409091,16.6117376 L59.6303808,16.7470795 L59.9100985,16.9330103 L60.1728386,17.1252137 L60.2980292,17.223673 L60.5364251,17.4253175 L60.6497801,17.5285071 L60.8651783,17.7396315 L61.0171235,17.9021354 L61.1611179,18.0682135 L61.3411786,18.2952235 L61.5081515,18.5286178 L61.5869171,18.6477145 L61.6626352,18.7684137 L61.8052279,19.0146282 L61.9365283,19.2672786 L62.0890212,19.5951064 L62.3246005,20.14161 L62.5715012,20.7510301 L62.7766591,21.2781635 L62.9881814,21.8357874 L64.127553,24.9291923 L64.4911634,25.9034778 L64.8624849,26.8730463 L65.1136638,27.5095633 L65.4949,28.4386833 L65.7514648,29.0346567 L66.0094987,29.606809 L66.1389441,29.8825945 L66.3984471,30.4108685 C67.2211891,32.0311139 68.0513,33.1296636 68.8328165,33.0856456 C72.8954436,33.2661342 74.9054491,35.2455575 74.9967405,39.1543125 L75,39.5246377 C75,40.1330304 74.5276898,40.6340801 73.9205517,40.6987502 L73.78851,40.7058089 L71.6697817,40.7075184 C71.1221121,40.7080896 70.6710199,41.1097932 70.6093724,41.6270915 L70.8787879,41.5869565 L70.8787879,57.9090909 C70.8787879,59.6161529 69.4949407,61 67.7878788,61 L14.2121212,61 C12.5050593,61 11.1212121,59.6161529 11.1212121,57.9090909 Z" id="路径"/><path d="M53,61 L68,61 L68,64 C68,65.6568542 66.6568542,67 65,67 L56,67 C54.3431458,67 53,65.6568542 53,64 L53,61 L53,61 Z" id="矩形"/><path d="M14,61 L29,61 L29,64 C29,65.6568542 27.6568542,67 26,67 L17,67 C15.3431458,67 14,65.6568542 14,64 L14,61 L14,61 Z" id="矩形备份-2"/></g></g></g></g></svg>