<?xml version="1.0" encoding="UTF-8"?><svg width="82px" height="82px" viewBox="0 0 82 82" version="1.1" xmlns="http://www.w3.org/2000/svg" xmlns:xlink="http://www.w3.org/1999/xlink"><title>单券@4x</title><g id="--🟠ICON" stroke="none" stroke-width="1" fill="none" fill-rule="evenodd"><g id="常用载体" transform="translate(-332.000000, -186.000000)"><g id="单券" transform="translate(302.000000, 186.000000)"><g transform="translate(30.000000, 0.000000)"><path d="M66,16 C69.3137085,16 72,18.6862915 72,22 L72.000267,35.6735043 C69.6351757,36.7969137 68,39.207499 68,42 C68,44.792501 69.6351757,47.2030863 72.000267,48.3264957 L72,62 C72,65.3137085 69.3137085,68 66,68 L16,68 C12.6862915,68 10,65.3137085 10,62 L10.0000641,48.3263384 C12.3649769,47.2028614 14,44.7923707 14,42 C14,39.2076293 12.3649769,36.7971386 10.0000641,35.6736616 L10,22 C10,18.6862915 12.6862915,16 16,16 L66,16 Z" id="形状结合" fill="#333333"/><path d="M27,33 L56,33 C56.5522847,33 57,33.4477153 57,34 L57,37 C57,37.5522847 56.5522847,38 56,38 L27,38 C26.4477153,38 26,37.5522847 26,37 L26,34 C26,33.4477153 26.4477153,33 27,33 Z" id="矩形" fill="#FFFFFF"/><path d="M27,46 L56,46 C56.5522847,46 57,46.4477153 57,47 L57,50 C57,50.5522847 56.5522847,51 56,51 L27,51 C26.4477153,51 26,50.5522847 26,50 L26,47 C26,46.4477153 26.4477153,46 27,46 Z" id="矩形备份-18" fill="#FFFFFF"/></g></g></g></g></svg>