<?xml version="1.0" encoding="UTF-8"?><svg width="82px" height="82px" viewBox="0 0 82 82" version="1.1" xmlns="http://www.w3.org/2000/svg" xmlns:xlink="http://www.w3.org/1999/xlink"><title>盾牌@4x</title><g id="--🟠ICON" stroke="none" stroke-width="1" fill="none" fill-rule="evenodd"><g id="常用载体" transform="translate(-476.000000, -322.000000)" fill="#333333"><g id="盾牌" transform="translate(446.000000, 322.000000)"><g transform="translate(30.000000, 0.000000)" id="Rectangle-12-Copy备份"><path d="M15.6671193,17.2542191 C24.271403,13.0847397 32.7239912,11 41.0248839,11 C49.3257767,11 57.7783651,13.0847398 66.382649,17.2542194 C68.00517,18.0404611 69.0106938,19.7102813 68.9466565,21.5121275 L67.9443913,49.713315 C67.7594209,54.9179128 64.9987825,59.6899043 60.5791629,62.4447209 L44.6365672,72.381985 C42.4259191,73.7599159 39.6238487,73.7599159 37.4132005,72.381985 L21.4706049,62.4447209 C17.0509853,59.6899043 14.2903469,54.9179128 14.1053764,49.713315 L13.103111,21.5121212 C13.0390806,19.7102783 14.0446024,18.0404613 15.6671193,17.2542191 Z"/></g></g></g></g></svg>