<?xml version="1.0" encoding="UTF-8"?><svg width="82px" height="82px" viewBox="0 0 82 82" version="1.1" xmlns="http://www.w3.org/2000/svg" xmlns:xlink="http://www.w3.org/1999/xlink"><title>感叹号@4x</title><g id="--🟠ICON" stroke="none" stroke-width="1" fill="none" fill-rule="evenodd"><g id="常用载体" transform="translate(-44.000000, -458.000000)" fill="#333333"><g id="感叹号" transform="translate(14.000000, 458.000000)"><g transform="translate(30.000000, 0.000000)"><path d="M40.9986709,53.0666667 C45.1701066,53.0666667 48.5517234,56.4096072 48.5517234,60.5333333 C48.5517234,64.6570595 45.1701066,68 40.9986709,68 C36.8272351,68 33.4456183,64.6570595 33.4456183,60.5333333 C33.4456183,56.4096072 36.8272351,53.0666667 40.9986709,53.0666667 Z M40.9986709,12 C45.6872193,12 49.4880387,15.8008194 49.4880387,20.4893678 C49.4880387,20.7896259 49.4721091,21.0896726 49.4403171,21.3882428 L47.263262,41.833721 C46.9221955,45.0367943 44.2198516,47.4666667 40.9986709,47.4666667 C37.7774902,47.4666667 35.0751462,45.0367943 34.7340797,41.833721 L32.5570247,21.3882428 C32.0605898,16.7260504 35.4376035,12.5441566 40.0997959,12.0477217 C40.3983661,12.0159296 40.6984128,12 40.9986709,12 Z"/></g></g></g></g></svg>