<?xml version="1.0" encoding="UTF-8"?><svg width="82px" height="82px" viewBox="0 0 82 82" version="1.1" xmlns="http://www.w3.org/2000/svg" xmlns:xlink="http://www.w3.org/1999/xlink"><title>å·¥å…·ç®±@4x</title><g id="--ðŸŸ ICON" stroke="none" stroke-width="1" fill="none" fill-rule="evenodd"><g id="å¸¸ç”¨è½½ä½“" transform="translate(-188.000000, -866.000000)"><g id="å·¥å…·ç®±" transform="translate(158.000000, 866.000000)"><g transform="translate(30.000000, 0.000000)"><path d="M16,21 L66,21 C68.7614237,21 71,23.2385763 71,26 L71,42 L71,42 L11,42 L11,26 C11,23.2385763 13.2385763,21 16,21 Z" id="çŸ©å½¢å¤‡ä»½-4" fill="#333333"/><path d="M11,42 L34.5683594,42 L36,32 L46,32 L48.2783203,42 L71,42 L71,63 C71,65.7614237 68.7614237,68 66,68 L16,68 C13.2385763,68 11,65.7614237 11,63 L11,42 L11,42 Z" id="çŸ©å½¢å¤‡ä»½-31" fill="#333333"/><path d="M50,13 C52.7614237,13 55,15.2385763 55,18 L55,21 L49,21 L49,20 C49,18.8954305 48.1045695,18 47,18 L47,18 L35,18 C33.8954305,18 33,18.8954305 33,20 L33,20 L33,21 L27,21 L27,18 C27,15.2385763 29.2385763,13 32,13 L50,13 Z" id="å½¢çŠ¶ç»“åˆå¤‡ä»½-9" fill="#333333"/><path d="M41,30 C45.8379226,30 49.8734344,33.4355289 50.7999676,38.0000191 L71,38 L71,43 L50.5419205,43.0008825 C49.2673844,47.0575337 45.4773171,50 41,50 C36.5226829,50 32.7326156,47.0575337 31.4580795,43.0008825 L11,43 L11,38 L31.2000324,38.0000191 C32.1265656,33.4355289 36.1620774,30 41,30 Z M41,35 C38.2385763,35 36,37.2385763 36,40 C36,42.7614237 38.2385763,45 41,45 C43.7614237,45 46,42.7614237 46,40 C46,37.2385763 43.7614237,35 41,35 Z" id="å½¢çŠ¶ç»“åˆ" fill="#FFFFFF"/></g></g></g></g></svg>