<?xml version="1.0" encoding="UTF-8"?><svg width="82px" height="82px" viewBox="0 0 82 82" version="1.1" xmlns="http://www.w3.org/2000/svg" xmlns:xlink="http://www.w3.org/1999/xlink"><title>è´­ç‰©è½¦@4x</title><g id="--ðŸŸ ICON" stroke="none" stroke-width="1" fill="none" fill-rule="evenodd"><g id="å¸¸ç”¨è½½ä½“" transform="translate(-44.000000, -186.000000)" fill="#333333"><g id="è´­ç‰©è½¦" transform="translate(14.000000, 186.000000)"><g id="ICON" transform="translate(30.000000, 0.000000)"><path d="M54.1006886,17.396506 C54.1872067,17.5385162 54.2677856,17.6840606 54.3422167,17.8327626 L57.9286815,24.9994394 L30.0856815,24.9994394 L45.8524145,15.39363 C48.6831915,13.6690109 52.3760696,14.5657291 54.1006886,17.396506 Z" id="å½¢çŠ¶ç»“åˆ"/><path d="M18.0080745,13 C19.4571302,13 20.7202348,14.0062029 21.0716824,15.4405037 L23.8947368,26.9617337 L66.7894737,26.9617337 C69.1148832,26.9617337 71,28.8850818 71,31.2576518 L71,36.6275494 L68.5852632,36.6275494 L64.9543437,59.8221287 C64.1945769,65.0933206 59.7620175,68.9993483 54.540037,68.9993483 L25.1284586,69 L25.1236978,68.9919258 C27.1944538,67.1597681 28.5,64.4823473 28.5,61.5 C28.5,55.9771525 24.0228475,51.5 18.5,51.5 C17.3929245,51.5 16.3278668,51.6798996 15.3324658,52.01206 L15.2095509,51.7981858 L15.2101531,38.4541578 C15.210401,32.9604544 14.5496791,27.4866739 13.2422309,22.1508183 L11,13 L18.0080745,13 Z" id="å½¢çŠ¶ç»“åˆ"/><path d="M18.5,54 C22.6421356,54 26,57.3578644 26,61.5 C26,65.6421356 22.6421356,69 18.5,69 C14.3578644,69 11,65.6421356 11,61.5 C11,57.3578644 14.3578644,54 18.5,54 Z" id="è·¯å¾„å¤‡ä»½"/></g></g></g></g></svg>