<?xml version="1.0" encoding="UTF-8"?><svg width="82px" height="82px" viewBox="0 0 82 82" version="1.1" xmlns="http://www.w3.org/2000/svg" xmlns:xlink="http://www.w3.org/1999/xlink"><title>多花多攒@4x</title><g id="--🟠ICON" stroke="none" stroke-width="1" fill="none" fill-rule="evenodd"><g id="常用载体" transform="translate(-476.000000, -1138.000000)"><g id="购物袋" transform="translate(446.000000, 1138.000000)"><path d="M49.530653,13 L92.469347,13 C95.3595442,13 97.7215826,15.3064688 97.7903773,18.1958471 L98.8702564,63.5507705 C98.9402261,66.4894944 96.6146412,68.9285224 93.6759173,68.998492 C93.6336944,68.9994973 93.591461,69 93.5492261,69 L48.4507739,69 C45.5112171,69 43.1282355,66.6170184 43.1282355,63.6774617 C43.1282355,63.6352268 43.1287383,63.5929934 43.1297436,63.5507705 L44.2096227,18.1958471 C44.2784174,15.3064688 46.6404558,13 49.530653,13 Z" id="矩形" fill="#333333"/><path d="M63,21.9268293 L63,26.6492851 L63,26.6492851 C63,32.5499922 66.2805808,36.6341463 71,36.6341463 C75.6190061,36.6341463 78.8597495,32.7219372 78.9955624,27.0234371 L79,26.6492851 L79,21.9268293 C79,21.3745445 79.4477153,20.9268293 80,20.9268293 L83.3333333,20.9268293 C83.8856181,20.9268293 84.3333333,21.3745445 84.3333333,21.9268293 L84.3333333,26.6492851 L84.3333333,26.6492851 C84.3333333,35.3577939 78.9196419,42.097561 71,42.097561 C63.2080942,42.097561 57.8419538,35.5734525 57.6708795,27.0691081 L57.6666667,26.6492851 L57.6666667,21.9268293 C57.6666667,21.3745445 58.1143819,20.9268293 58.6666667,20.9268293 L62,20.9268293 C62.5522847,20.9268293 63,21.3745445 63,21.9268293 Z" id="路径" fill="#FFFFFF"/></g></g></g></svg>