<?xml version="1.0" encoding="UTF-8"?><svg width="82px" height="82px" viewBox="0 0 82 82" version="1.1" xmlns="http://www.w3.org/2000/svg" xmlns:xlink="http://www.w3.org/1999/xlink"><title>天天红包@4x</title><g id="--🟠ICON" stroke="none" stroke-width="1" fill="none" fill-rule="evenodd"><g id="常用载体" transform="translate(-188.000000, -730.000000)"><g id="天天红包备份-2" transform="translate(158.000000, 730.000000)"><g id="ICON" transform="translate(30.000000, 0.000000)"><g id="天天红包" transform="translate(16.000000, 11.000000)"><path d="M0,18 L25,25.80363 L50,18 L50,54 C50,56.7614237 47.7614237,59 45,59 L5,59 C2.23857625,59 -5.50001544e-16,56.7614237 0,54 L0,18 L0,18 Z" id="矩形" fill="#333333"/><path d="M5,0 L45,0 C47.7614237,-5.07265313e-16 50,2.23857625 50,5 L50,17 L50,17 C41.6440337,22.3333333 33.2993839,25 24.9660506,25 C16.6327173,25 8.31070041,22.3333333 0,17 L0,5 C-3.38176876e-16,2.23857625 2.23857625,1.39544373e-15 5,0 Z" id="矩形备份-6" fill="#333333"/><path d="M50.0003781,15.3310059 L50.0000215,19.0236108 C47.6117724,21.0008793 44.2668626,22.6700272 40.2759623,23.8794275 L39.5077551,24.1042761 L38.7243885,24.3177628 C38.4607928,24.3870055 38.1947501,24.4543156 37.9263401,24.5196544 L37.1140876,24.7097179 C36.9775551,24.7403965 36.8404506,24.7705726 36.7027841,24.8002412 L35.8701211,24.9721252 C32.5131308,25.6349948 28.8439019,26 25,26 C21.1560981,26 17.4868692,25.6349948 14.1298789,24.9721252 L13.2972159,24.8002412 C13.1595494,24.7705726 13.0224449,24.7403965 12.8859124,24.7097179 L12.0736599,24.5196544 C11.8052499,24.4543156 11.5392072,24.3870055 11.2756115,24.3177628 L10.4922449,24.1042761 L9.72403766,23.8794275 C5.73363041,22.6701766 2.38905401,21.0012917 0.000863583856,19.0243435 L-0.000304761319,15.331073 C3.1818912,17.9657744 8.06266555,20.0534188 13.907026,21.2352816 L14.7681053,21.4015479 C17.9499372,21.9872319 21.3982911,22.3076903 25,22.3076903 C35.6490932,22.3076903 44.9575648,19.5062605 50.0003781,15.3310059 Z" id="形状结合" fill="#FFFFFF"/><circle id="椭圆形" fill="#FFFFFF" cx="25" cy="24.5" r="7.5"/></g></g></g></g></g></svg>