<?xml version="1.0" encoding="UTF-8"?>
<svg width="82px" height="82px" viewBox="0 0 82 82" version="1.1" xmlns="http://www.w3.org/2000/svg" xmlns:xlink="http://www.w3.org/1999/xlink">
    <title>编组 23</title>
    <g id="组件" stroke="none" stroke-width="1" fill="none" fill-rule="evenodd">
        <g id="编组-23">
            <path d="M43.4719627,13.9694057 C43.5978426,14.0796314 43.7164873,14.1978557 43.8271592,14.3233435 L59.5196682,32.116947 L68.3805422,27.1503021 C69.825784,26.3400908 71.6541899,26.8548847 72.4644012,28.3001264 C72.8098249,28.9162877 72.9267474,29.6345761 72.7945752,30.3284801 L66.6193432,62.7484484 C66.2599886,64.63506 64.6105198,66 62.6899889,66 L19.0336054,66 C17.1026605,66 15.4473616,64.6205732 15.0991734,62.7212804 L9.15136945,30.277268 C8.85260533,28.647573 9.93153804,27.0842479 11.5612331,26.7854838 C12.2491026,26.65938 12.959415,26.7775516 13.5694043,27.1195746 L22.4306682,32.087947 L37.9770387,14.3337274 C39.3938154,12.7157413 41.8539767,12.552629 43.4719627,13.9694057 Z" id="路径" fill="#333333"></path>
            <polygon id="路径" fill="#FFFFFF" points="68.6656682 51.999947 67.5836682 57.683947 67.517 58 14.2336682 57.999947 13.1336682 51.999947"></polygon>
        </g>
    </g>
</svg>