<?xml version="1.0" encoding="UTF-8"?><svg width="82px" height="82px" viewBox="0 0 82 82" version="1.1" xmlns="http://www.w3.org/2000/svg" xmlns:xlink="http://www.w3.org/1999/xlink"><title>é»„é‡‘@4x</title><g id="--ðŸŸ ICON" stroke="none" stroke-width="1" fill="none" fill-rule="evenodd"><g id="å¸¸ç”¨è½½ä½“" transform="translate(-620.000000, -50.000000)" fill="#333333"><g id="é»„é‡‘" transform="translate(590.000000, 50.000000)"><g transform="translate(30.000000, 0.000000)" id="å½¢çŠ¶ç»“åˆ"><path d="M32.5300014,44 C34.4771935,44 36.1414838,45.402164 36.4719682,47.3211057 L39.2275238,63.3211057 C39.6024667,65.4981939 38.1415394,67.5670239 35.9644512,67.9419668 C35.7402156,67.9805852 35.5130937,68 35.2855569,68 L11.7144431,68 C9.50530408,68 7.71444308,66.209139 7.71444308,64 C7.71444308,63.7724632 7.73385788,63.5453413 7.77247624,63.3211057 L10.5280318,47.3211057 C10.8585162,45.402164 12.5228065,44 14.4699986,44 L32.5300014,44 Z M67.5300014,44 C69.4771935,44 71.1414838,45.402164 71.4719682,47.3211057 L74.2275238,63.3211057 C74.6024667,65.4981939 73.1415394,67.5670239 70.9644512,67.9419668 C70.7402156,67.9805852 70.5130937,68 70.2855569,68 L46.7144431,68 C44.5053041,68 42.7144431,66.209139 42.7144431,64 C42.7144431,63.7724632 42.7338579,63.5453413 42.7724762,63.3211057 L45.5280318,47.3211057 C45.8585162,45.402164 47.5228065,44 49.4699986,44 L67.5300014,44 Z M49.6114916,16 C51.5668483,16 53.2356087,17.4136522 53.5570673,19.3424041 L56.223734,35.3424041 C56.5869142,37.5214853 55.1148355,39.5823955 52.9357543,39.9455757 C52.7184286,39.9817966 52.4984818,40 52.2781583,40 L29.7218417,40 C27.5127027,40 25.7218417,38.209139 25.7218417,36 C25.7218417,35.7796766 25.740045,35.5597298 25.776266,35.3424041 L28.4429327,19.3424041 C28.7643913,17.4136522 30.4331517,16 32.3885084,16 L49.6114916,16 Z"/></g></g></g></g></svg>