<?xml version="1.0" encoding="UTF-8"?><svg width="82px" height="82px" viewBox="0 0 82 82" version="1.1" xmlns="http://www.w3.org/2000/svg" xmlns:xlink="http://www.w3.org/1999/xlink"><title>火@4x</title><g id="--🟠ICON" stroke="none" stroke-width="1" fill="none" fill-rule="evenodd"><g id="常用载体" transform="translate(-332.000000, -1138.000000)" fill="#333333"><g id="火" transform="translate(302.000000, 1138.000000)"><g id="ICON" transform="translate(30.000000, 0.000000)"><path d="M32.8338205,8.36024208 C38.0779946,9.91392755 41.9988352,12.8743858 44.5963424,17.241617 C48.4926033,23.7924637 51.115969,35.9977248 48.6418585,42.8147034 L48.4926033,43.2323321 L49.0012907,42.3671324 L49.5759983,41.3206336 L50.1056539,40.2993021 L50.6972322,39.0918508 L51.115969,38.1908424 L51.5471517,37.2181526 L51.9847502,36.1781969 L52.4227345,35.0753907 L52.8550742,33.9141493 C52.9263255,33.7159848 52.9970903,33.5155695 53.0672431,33.3129953 L53.4798097,32.0723802 C53.6814157,31.4398556 53.8752517,30.7895573 54.0579259,30.1239689 L54.4073868,28.7731415 C54.8508114,26.9468183 55.1987826,25.0235405 55.3869794,23.0504061 C63.3838892,31.3287563 66.772213,40.5629553 67.0546978,48.3244893 C67.6198267,63.8519369 56.0039097,74.1962189 41.4929498,74.3602421 C39.319354,72.681404 37.4259395,69.6449214 35.8882518,66.4284687 L35.3284412,65.216163 L34.8028652,64.000786 C34.6334774,63.5966818 34.4699429,63.194366 34.3124092,62.7961385 L33.8579585,61.6160214 L33.4403984,60.4742356 L33.0606141,59.384582 L32.563704,57.8780387 L32.0416355,56.1805851 L31.4827518,54.1775978 C29.7398162,59.1241072 29.338646,65.2370879 30.2792413,72.5165399 C6.93176556,65.216163 13.3525873,42.3556329 16.4707034,37.2181526 C19.5888194,32.0806724 20.4398974,32.9321643 26.2407665,26.4739202 C32.0416355,20.0156761 34.3124092,14.4494837 32.8338205,8.36024208 Z" id="路径"/></g></g></g></g></svg>