<?xml version="1.0" encoding="UTF-8"?><svg width="82px" height="82px" viewBox="0 0 82 82" version="1.1" xmlns="http://www.w3.org/2000/svg" xmlns:xlink="http://www.w3.org/1999/xlink"><title>攬쥖솀@4x</title><g id="--游ICON" stroke="none" stroke-width="1" fill="none" fill-rule="evenodd"><g id="辣젆댣蚌쫷쪱" transform="translate(-44.000000, -322.000000)"><g id="攬쥖솀" transform="translate(14.000000, 322.000000)"><g transform="translate(30.000000, 0.000000)"><path d="M59.2062198,34.7943616 L71,26.5703125 L71,26.5703125 L71,62 L58,62 L58,37.1060119 C58,36.1846076 58.4504259,35.3213925 59.2062198,34.7943616 Z" id="麵뽼쪽邏坍-3" fill="#333333" transform="translate(64.500000, 44.285156) scale(-1, 1) translate(-64.500000, -44.285156) "/><path d="M19,13 L50,13 C52.7614237,13 55,15.2385763 55,18 L55,62 L55,62 L14,62 L14,18 C14,15.2385763 16.2385763,13 19,13 Z" id="麵뽼쪽" fill="#333333"/><path d="M24,24 L45,24 C45.5522847,24 46,24.4477153 46,25 L46,28 C46,28.5522847 45.5522847,29 45,29 L24,29 C23.4477153,29 23,28.5522847 23,28 L23,25 C23,24.4477153 23.4477153,24 24,24 Z" id="麵뽼쪽" fill="#FFFFFF"/><path d="M24,35 L45,35 C45.5522847,35 46,35.4477153 46,36 L46,39 C46,39.5522847 45.5522847,40 45,40 L24,40 C23.4477153,40 23,39.5522847 23,39 L23,36 C23,35.4477153 23.4477153,35 24,35 Z" id="麵뽼쪽邏坍" fill="#FFFFFF"/><path d="M12,62 L72,62 C73.1045695,62 74,62.8954305 74,64 L74,67 C74,68.1045695 73.1045695,69 72,69 L12,69 C10.8954305,69 10,68.1045695 10,67 L10,64 C10,62.8954305 10.8954305,62 12,62 Z" id="麵뽼쪽" fill="#333333"/></g></g></g></g></svg>