<?xml version="1.0" encoding="UTF-8"?><svg width="82px" height="82px" viewBox="0 0 82 82" version="1.1" xmlns="http://www.w3.org/2000/svg" xmlns:xlink="http://www.w3.org/1999/xlink"><title>奖杯@4x</title><g id="--🟠ICON" stroke="none" stroke-width="1" fill="none" fill-rule="evenodd"><g id="常用载体" transform="translate(-44.000000, -866.000000)"><g id="奖杯" transform="translate(14.000000, 866.000000)"><g transform="translate(30.000000, 0.000000)"><path d="M38.0044684,56.8631716 C38.8238618,56.9535856 39.6565106,57 40.5,57 L40.5,57 L41.5465116,57 C42.3741378,57 43.1913272,56.955315 43.9957989,56.868226 C43.9990327,56.9112987 44,56.9555364 44,57 L44,66 L52.8676922,66 C54.0453333,66 55,66.9546667 55,68.1323078 L55,69.8676922 C55,71.0453333 54.0453333,72 52.8676922,72 L29.1323078,72 C27.9546667,72 27,71.0453333 27,69.8676922 L27,68.1323078 C27,66.9546667 27.9546667,66 29.1323078,66 L38,65.999 L38,57 Z M18,23 L18,34.5 C18,37.0808977 18.4345451,39.560302 19.2344623,41.8690398 L12.0743585,37.2787782 C10.2383815,36.6711388 9,34.965197 9,33.0436723 L9,25.2320968 C9,23.9993438 10.0065027,23 11.2480867,23 L18,23 Z M70.7519133,23 C71.9395154,23 72.9120336,23.9143334 72.9943554,25.0726896 L73,25.2320968 L73,33.0436723 C73,34.8940294 71.8516518,36.544477 70.1271472,37.2067878 L69.9256415,37.2787782 L62.8248178,41.8320828 C63.6165896,39.5338503 64.0465116,37.067132 64.0465116,34.5 L64.0465116,34.5 L64.046,23 L70.7519133,23 Z" id="形状结合" fill="#333333"/><path d="M23,12 L59.0465116,12 C61.8079354,12 64.0465116,14.2385763 64.0465116,17 L64.0465116,34.5 C64.0465116,46.9264069 53.9729185,57 41.5465116,57 L40.5,57 C28.0735931,57 18,46.9264069 18,34.5 L18,17 C18,14.2385763 20.2385763,12 23,12 Z" id="矩形备份-14" fill="#333333"/><path d="M41,40 L35.7400491,42.7653198 C35.2512045,43.0223206 34.6465774,42.8343741 34.3895766,42.3455295 C34.2872375,42.150869 34.2519228,41.927901 34.2890997,41.7111433 L35.2936609,35.854102 L35.2936609,35.854102 L31.0382713,31.7061222 C30.6427877,31.320621 30.6346954,30.6875078 31.0201966,30.2920242 C31.1737052,30.1345405 31.3748476,30.0320534 31.5924846,30.0004289 L37.4732885,29.145898 L37.4732885,29.145898 L40.1032639,23.8169858 C40.3476862,23.3217321 40.9473121,23.1183931 41.4425657,23.3628154 C41.6397783,23.4601456 41.7994058,23.6197731 41.8967361,23.8169858 L44.5267115,29.145898 L44.5267115,29.145898 L50.4075154,30.0004289 C50.9540602,30.0798465 51.3327417,30.5872893 51.2533241,31.1338342 C51.2216996,31.3514712 51.1192124,31.5526136 50.9617287,31.7061222 L46.7063391,35.854102 L46.7063391,35.854102 L47.7109003,41.7111433 C47.8042613,42.2554798 47.4386735,42.7724357 46.8943371,42.8657967 C46.6775794,42.9029736 46.4546114,42.8676589 46.2599509,42.7653198 L41,40 L41,40 Z" id="星形" fill="#FFFFFF"/></g></g></g></g></svg>