<?xml version="1.0" encoding="UTF-8"?><svg width="82px" height="82px" viewBox="0 0 82 82" version="1.1" xmlns="http://www.w3.org/2000/svg" xmlns:xlink="http://www.w3.org/1999/xlink"><title>å¥–ç‰Œ@4x</title><g id="--ðŸŸ ICON" stroke="none" stroke-width="1" fill="none" fill-rule="evenodd"><g id="å¸¸ç”¨è½½ä½“" transform="translate(-620.000000, -730.000000)"><g id="å¥–ç‰Œ" transform="translate(590.000000, 730.000000)"><g transform="translate(30.000000, 0.000000)"><circle id="æ¤­åœ†å½¢" fill="#333333" cx="41" cy="46" r="27"/><path d="M41,53.5 L33.9766934,57.1923708 C33.4878488,57.4493716 32.8832216,57.2614251 32.6262208,56.7725805 C32.5238817,56.57792 32.4885671,56.354952 32.5257439,56.1381943 L33.8670761,48.3176275 L33.8670761,48.3176275 L28.1851017,42.7790712 C27.7896181,42.39357 27.7815258,41.7604568 28.167027,41.3649732 C28.3205356,41.2074896 28.521678,41.1050024 28.7393151,41.0733779 L36.5916106,39.9323725 L36.5916106,39.9323725 L40.1032639,32.8169858 C40.3476862,32.3217321 40.9473121,32.1183931 41.4425657,32.3628154 C41.6397783,32.4601456 41.7994058,32.6197731 41.8967361,32.8169858 L45.4083894,39.9323725 L45.4083894,39.9323725 L53.2606849,41.0733779 C53.8072298,41.1527955 54.1859112,41.6602383 54.1064936,42.2067832 C54.0748691,42.4244202 53.9723819,42.6255626 53.8148983,42.7790712 L48.1329239,48.3176275 L48.1329239,48.3176275 L49.4742561,56.1381943 C49.5676171,56.6825308 49.2020293,57.1994867 48.6576928,57.2928477 C48.4409352,57.3300246 48.2179671,57.2947099 48.0233066,57.1923708 L41,53.5 L41,53.5 Z" id="æ˜Ÿå½¢" fill="#FFFFFF"/><path d="M35,12 L39.6867769,19.0313766 C32.8079064,19.3608111 26.6038041,22.2644771 22.0167428,26.8001017 L15.5993067,14.9525663 C15.0732189,13.9813272 15.4340853,12.7675039 16.4053244,12.2414161 C16.697828,12.0829766 17.0252325,12 17.3578907,12 L35,12 Z M64.6421093,12 C65.7466788,12 66.6421093,12.8954305 66.6421093,14 C66.6421093,14.3326582 66.5591327,14.6600627 66.4006933,14.9525663 L59.9836252,26.8004656 C55.3965277,22.2646324 49.1922776,19.36082 42.3132231,19.0313766 L47,12 L64.6421093,12 Z" id="å½¢çŠ¶ç»“åˆ" fill="#333333"/></g></g></g></g></svg>