<?xml version="1.0" encoding="UTF-8"?><svg width="82px" height="82px" viewBox="0 0 82 82" version="1.1" xmlns="http://www.w3.org/2000/svg" xmlns:xlink="http://www.w3.org/1999/xlink"><title>äº¬è±†@4x</title><g id="--ðŸŸ ICON" stroke="none" stroke-width="1" fill="none" fill-rule="evenodd"><g id="å¸¸ç”¨è½½ä½“" transform="translate(-188.000000, -1002.000000)"><g id="å•å•è¿”" transform="translate(158.000000, 1002.000000)"><g id="äº¬è±†" transform="translate(30.000000, 0.000000)"><path d="M40.9258698,10.1069646 C59.2045365,8.46204949 71.6110718,26.0321501 65.3658676,46.0391171 C58.9227122,67.2930525 37.2748053,76.4149681 22.2347923,69.9642494 C6.72703885,63.1999638 8.36669182,49.6160856 10.2335046,44.3911242 C12.0063876,39.4290597 18.5629134,37.2900462 22.9596221,30.7251203 C28.0013445,23.1970953 21.7031621,11.942087 40.9258698,10.1069646 Z" id="è·¯å¾„-17" fill="#333333"/><path d="M32.9340356,29.7861082 C34.2600794,30.8584592 32.3675927,42.0729565 26.0792478,43.5040138 C19.8841643,44.1366445 23.6185891,39.8982228 25.2595166,38.5648456 C26.9004441,37.2314683 28.5118599,35.3447165 29.5221615,33.165966 C30.1778755,31.7518959 31.633453,28.7343474 32.9340356,29.7861082 Z" id="è·¯å¾„-18" fill="#FFFFFF"/></g></g></g></g></svg>