<?xml version="1.0" encoding="UTF-8"?><svg width="82px" height="82px" viewBox="0 0 82 82" version="1.1" xmlns="http://www.w3.org/2000/svg" xmlns:xlink="http://www.w3.org/1999/xlink"><title>è®¡ç®—å™¨@4x</title><g id="--ðŸŸ ICON" stroke="none" stroke-width="1" fill="none" fill-rule="evenodd"><g id="å¸¸ç”¨è½½ä½“" transform="translate(-332.000000, -1410.000000)"><g id="è®¡ç®—å™¨" transform="translate(302.000000, 1410.000000)"><g transform="translate(30.000000, 0.000000)"><path d="M22,11 L61,11 C63.7614237,11 66,13.2385763 66,16 L66,65 C66,67.7614237 63.7614237,70 61,70 L22,70 C19.2385763,70 17,67.7614237 17,65 L17,16 C17,13.2385763 19.2385763,11 22,11 Z" id="çŸ©å½¢" fill="#333333"/><path d="M32,53 C32.5522847,53 33,53.4477153 33,54 L33,61 C33,61.5522847 32.5522847,62 32,62 L25,62 C24.4477153,62 24,61.5522847 24,61 L24,54 C24,53.4477153 24.4477153,53 25,53 L32,53 Z M45,53 C45.5522847,53 46,53.4477153 46,54 L46,61 C46,61.5522847 45.5522847,62 45,62 L38,62 C37.4477153,62 37,61.5522847 37,61 L37,54 C37,53.4477153 37.4477153,53 38,53 L45,53 Z M58,53 C58.5522847,53 59,53.4477153 59,54 L59,61 C59,61.5522847 58.5522847,62 58,62 L51,62 C50.4477153,62 50,61.5522847 50,61 L50,54 C50,53.4477153 50.4477153,53 51,53 L58,53 Z M32,40 C32.5522847,40 33,40.4477153 33,41 L33,48 C33,48.5522847 32.5522847,49 32,49 L25,49 C24.4477153,49 24,48.5522847 24,48 L24,41 C24,40.4477153 24.4477153,40 25,40 L32,40 Z M45,40 C45.5522847,40 46,40.4477153 46,41 L46,48 C46,48.5522847 45.5522847,49 45,49 L38,49 C37.4477153,49 37,48.5522847 37,48 L37,41 C37,40.4477153 37.4477153,40 38,40 L45,40 Z M58,40 C58.5522847,40 59,40.4477153 59,41 L59,48 C59,48.5522847 58.5522847,49 58,49 L51,49 C50.4477153,49 50,48.5522847 50,48 L50,41 C50,40.4477153 50.4477153,40 51,40 L58,40 Z M58,18 C58.5522847,18 59,18.4477153 59,19 L59,32 C59,32.5522847 58.5522847,33 58,33 L25,33 C24.4477153,33 24,32.5522847 24,32 L24,19 C24,18.4477153 24.4477153,18 25,18 L58,18 Z" id="å½¢çŠ¶ç»“åˆ" fill="#FFFFFF"/></g></g></g></g></svg>