<?xml version="1.0" encoding="UTF-8"?><svg width="82px" height="82px" viewBox="0 0 82 82" version="1.1" xmlns="http://www.w3.org/2000/svg" xmlns:xlink="http://www.w3.org/1999/xlink"><title>客服@4x</title><g id="--🟠ICON" stroke="none" stroke-width="1" fill="none" fill-rule="evenodd"><g id="常用载体" transform="translate(-44.000000, -1410.000000)"><g id="客服" transform="translate(14.000000, 1410.000000)"><g id="ICON" transform="translate(30.000000, 0.000000)"><rect id="Rectangle" fill="#333333" x="8.5" y="8" width="66" height="66" rx="32"/><path d="M57,43.0185759 C58.0943103,43.0185759 58.9814241,43.9056897 58.9814241,45 C58.9814241,52.567901 53.6841529,58.9027506 46.5745105,60.5590845 C46.0550825,61.4228841 45.1088694,62 44.0278638,62 L39.9721362,62 C38.3306707,62 37,60.6693293 37,59.0278638 L37,58.9721362 C37,57.3306707 38.3306707,56 39.9721362,56 L44.0278638,56 C44.7286433,56 45.3727763,56.2425325 45.8809038,56.6482384 C51.1352557,55.3269232 55.0185759,50.6102032 55.0185759,45 C55.0185759,43.9056897 55.9056897,43.0185759 57,43.0185759 Z" id="形状结合" fill="#FFFFFF"/><path d="M42.8823529,22 C51.5602645,22 58.6465571,28.8280847 58.9698994,37.3887245 C60.7503886,38.138294 62,39.899996 62,41.9535604 L62,47.0464396 C62,49.7822155 59.7822155,52 57.0464396,52 L55.9535604,52 C53.2177845,52 51,49.7822155 51,47.0464396 L51,41.9535604 C51,39.9092359 52.2383916,38.1541533 54.005917,37.3975701 C53.7502036,31.1988728 49.5230659,27.1306084 43.1333836,27.0025141 L42.8823529,27 L41.1176471,27 C34.6117741,27 30.2773136,31.0936443 29.9954488,37.399223 C31.7625411,38.1554754 33,39.9100059 33,41.9535604 L33,47.0464396 C33,49.7822155 30.7822155,52 28.0464396,52 L26.9535604,52 C24.2177845,52 22,49.7822155 22,47.0464396 L22,41.9535604 C22,39.899996 23.2496114,38.138294 25.0299158,37.3873726 C25.3501659,28.9182974 32.2910016,22.1443122 40.8434376,22.0022755 L41.1176471,22 L42.8823529,22 Z" id="形状结合" fill="#FFFFFF"/></g></g></g></g></svg>