<?xml version="1.0" encoding="UTF-8"?><svg width="82px" height="82px" viewBox="0 0 82 82" version="1.1" xmlns="http://www.w3.org/2000/svg" xmlns:xlink="http://www.w3.org/1999/xlink"><title>礼包@4x</title><g id="--🟠ICON" stroke="none" stroke-width="1" fill="none" fill-rule="evenodd"><g id="常用载体" transform="translate(-332.000000, -1002.000000)" fill="#333333"><g id="礼包" transform="translate(302.000000, 1002.000000)"><g id="ICON" transform="translate(30.000000, 0.000000)"><path d="M40.1077599,11 C43.8011436,11 47.4945273,11.5329046 51.187911,12.5987137 C53.5576522,13.2825668 54.9243451,15.7579883 54.240502,18.1277325 C54.2331982,18.1530426 54.2256706,18.1782876 54.2179201,18.2034645 L51.6959052,26.397612 C44.3492781,23.2303994 35.9262503,23.4743237 28.7454223,27.129385 L25.9976012,18.2034692 C25.2719255,15.8461901 26.5946062,13.3469639 28.9518866,12.6212927 C28.977064,12.6135421 29.0023095,12.6060143 29.0276201,12.5987104 C32.7210001,11.5329035 36.41438,11 40.1077599,11 Z" id="形状结合"/><path d="M26.5,27.4469825 C35.348364,21.8219459 46.651636,21.8219459 55.5,27.4469825 C64.5304351,33.1877645 70,43.1460712 70,53.8467878 L70,58.6708582 C70,66.03234 64.03234,72 56.6708582,72 L25.3291418,72 C17.96766,72 12,66.03234 12,58.6708582 L12,53.8467878 C12,43.1460712 17.4695649,33.1877645 26.5,27.4469825 Z" id="矩形备份-4"/></g></g></g></g></svg>