<?xml version="1.0" encoding="UTF-8"?><svg width="82px" height="82px" viewBox="0 0 82 82" version="1.1" xmlns="http://www.w3.org/2000/svg" xmlns:xlink="http://www.w3.org/1999/xlink"><title>é¢†åˆ¸ä¸­å¿ƒ@4x</title><g id="--ðŸŸ ICON" stroke="none" stroke-width="1" fill="none" fill-rule="evenodd"><g id="å¸¸ç”¨è½½ä½“" transform="translate(-476.000000, -186.000000)"><g id="å¤šåˆ¸" transform="translate(446.000000, 186.000000)"><g transform="translate(30.000000, 0.000000)" id="å½¢çŠ¶ç»“åˆ"><path d="M55.2239906,11.8269654 C55.2899504,11.9375097 55.3519228,12.050385 55.4097883,12.1653733 L59.855,21 L29.346,21 L47.8446803,9.96296815 C50.3971492,8.43995651 53.7009789,9.27449649 55.2239906,11.8269654 Z" fill="#333333"/><path d="M66.4685392,24 C68.971069,24 70.9997703,26.0287013 70.9997703,28.5312311 L70.9992639,40.6739809 C68.6347134,41.7975953 67,44.2078938 67,47 C67,49.7921062 68.6347134,52.2024047 70.9992639,53.3260191 L70.9997703,64.4687689 C70.9997703,66.9712987 68.971069,69 66.4685392,69 L16.5312311,69 C14.0287013,69 12,66.9712987 12,64.4687689 L12.0006762,53.70992 C14.8918177,52.8491545 17,50.1707734 17,47 C17,43.8292266 14.8918177,41.1508455 12.0006762,40.29008 L12,28.5312311 C12,26.0287013 14.0287013,24 16.5312311,24 L66.4685392,24 Z" fill="#333333"/><path d="M52,50 C52.5522847,50 53,50.4477153 53,51 L53,54 C53,54.5522847 52.5522847,55 52,55 L31,55 C30.4477153,55 30,54.5522847 30,54 L30,51 C30,50.4477153 30.4477153,50 31,50 L52,50 Z M52,39 C52.5522847,39 53,39.4477153 53,40 L53,43 C53,43.5522847 52.5522847,44 52,44 L31,44 C30.4477153,44 30,43.5522847 30,43 L30,40 C30,39.4477153 30.4477153,39 31,39 L52,39 Z" fill="#FFFFFF"/></g></g></g></g></svg>