<?xml version="1.0" encoding="UTF-8"?><svg width="82px" height="82px" viewBox="0 0 82 82" version="1.1" xmlns="http://www.w3.org/2000/svg" xmlns:xlink="http://www.w3.org/1999/xlink"><title>ç›®æ ‡@4x</title><g id="--ðŸŸ ICON" stroke="none" stroke-width="1" fill="none" fill-rule="evenodd"><g id="å¸¸ç”¨è½½ä½“" transform="translate(-620.000000, -186.000000)"><g id="ç›®æ ‡" transform="translate(590.000000, 186.000000)"><g transform="translate(30.000000, 0.000000)"><circle id="æ¤­åœ†å½¢" fill="#333333" cx="40.5" cy="41.5" r="32.5"/><path d="M40.5,19 C43.7850122,19 46.9055984,19.7039912 49.7191207,20.9693356 L46.8219421,24.1083531 C44.849426,23.3911688 42.7203942,23 40.5,23 C30.2827321,23 22,31.2827321 22,41.5 C22,51.7172679 30.2827321,60 40.5,60 C50.7172679,60 59,51.7172679 59,41.5 C59,39.2788548 58.6085665,37.1491338 57.890919,35.1760564 L61.029764,32.2788776 C62.2956748,35.0929214 63,38.2142087 63,41.5 C63,53.9264069 52.9264069,64 40.5,64 C28.0735931,64 18,53.9264069 18,41.5 C18,29.0735931 28.0735931,19 40.5,19 Z M40.5,28 C42.3890766,28 44.187529,28.3880084 45.8200093,29.0886774 L42.4479275,32.1998925 C41.8191816,32.0688697 41.1676335,32 40.5,32 C35.2532949,32 31,36.2532949 31,41.5 C31,46.7467051 35.2532949,51 40.5,51 C45.7467051,51 50,46.7467051 50,41.5 C50,41.1538608 49.981488,40.8120454 49.9454,40.4754897 L53.2101973,36.9392768 C53.7214557,38.363907 54,39.8994248 54,41.5 C54,48.9558441 47.9558441,55 40.5,55 C33.0441559,55 27,48.9558441 27,41.5 C27,34.0441559 33.0441559,28 40.5,28 Z" id="å½¢çŠ¶ç»“åˆ" fill="#FFFFFF"/><path d="M56.8543344,19 L58.5614638,23.3811211 L63,25.0661676 L56.571488,31.4115229 L54.2710877,30.5376088 L44.8483414,39.9052463 C44.9471261,40.2531727 45,40.6204117 45,41 C45,43.209139 43.209139,45 41,45 C38.790861,45 37,43.209139 37,41 C37,38.790861 38.790861,37 41,37 C41.4020315,37 41.7902101,37.0593111 42.1562632,37.1696605 L51.4377292,27.9429813 L50.4258224,25.3453553 L56.8543344,19 Z" id="å½¢çŠ¶ç»“åˆ" fill="#FFFFFF"/></g></g></g></g></svg>