<?xml version="1.0" encoding="UTF-8"?><svg width="82px" height="82px" viewBox="0 0 82 82" version="1.1" xmlns="http://www.w3.org/2000/svg" xmlns:xlink="http://www.w3.org/1999/xlink"><title>ç‰›@4x</title><g id="--ðŸŸ ICON" stroke="none" stroke-width="1" fill="none" fill-rule="evenodd"><g id="å¸¸ç”¨è½½ä½“" transform="translate(-332.000000, -1274.000000)" fill="#333333"><g id="ç‰›" transform="translate(302.000000, 1274.000000)"><g id="ICON" transform="translate(30.000000, 0.000000)"><path d="M40.928326,21.0966259 C65.035298,21.0966259 63.5700309,29.9926564 63.7926782,39.3136715 C63.9411098,45.5276815 61.6515547,51.9661679 56.9240129,58.6291305 C58.3398958,67.2070914 54.1513947,71.9449186 44.3585095,72.8426122 L43.5840845,72.9047901 C42.6673553,72.9682634 41.7043088,73 40.694945,73 C39.6855813,73 38.7221142,72.9682634 37.8045437,72.9047901 L37.0292946,72.8426122 C27.2245118,71.9449186 22.9732174,67.2070914 24.2754114,58.6291305 C20.0354388,50.7151092 17.9637773,44.2766229 18.0604271,39.3136715 C18.2054017,31.8692444 16.8213539,21.0966259 40.928326,21.0966259 Z" id="è·¯å¾„"/><path d="M59.0173221,12 C67.2920266,12 74,18.7079734 74,26.9826779 C74,33.5985183 69.7119842,39.2128389 63.7635912,41.1980011 C63.7978503,40.5674286 63.807625,39.9394119 63.7926782,39.3136715 C63.7770929,38.6612004 63.7697784,38.0108118 63.7613844,37.3654112 L63.7537071,36.8134999 C63.6910038,32.6929017 63.4739288,28.811752 60.6338137,25.9371854 C61.7717894,24.7268822 62.1716219,22.9316541 61.5442496,21.3016061 L61.4595116,21.0966259 L58.2408379,13.8211646 C57.7782579,12.775553 56.7743322,12.0805517 55.644359,12.0065565 L55.4437281,12 L59.0173221,12 Z M26.0148554,12 C24.8990387,12 23.8774554,12.6069338 23.3408861,13.5736365 L23.2513117,13.7479154 L19.7659632,21.0966259 C19.3005232,22.0779866 19.2200046,23.1982067 19.5403097,24.2360448 C19.8411708,25.2108811 20.4541728,26.0033305 21.2356981,26.5375159 C17.7694823,30.2807535 18.1388893,35.2846464 18.0604271,39.3136715 C18.0488669,39.907283 18.0683271,40.5220039 18.1188076,41.1578341 C12.2318246,39.1389816 8,33.5550275 8,26.9826779 C8,18.7079734 14.7079734,12 22.9826779,12 L26.0148554,12 Z" id="å½¢çŠ¶ç»“åˆ"/></g></g></g></g></svg>