<?xml version="1.0" encoding="UTF-8"?><svg width="82px" height="82px" viewBox="0 0 82 82" version="1.1" xmlns="http://www.w3.org/2000/svg" xmlns:xlink="http://www.w3.org/1999/xlink"><title>排行@4x</title><g id="--🟠ICON" stroke="none" stroke-width="1" fill="none" fill-rule="evenodd"><g id="常用载体" transform="translate(-188.000000, -1138.000000)" fill="#333333"><g id="排行" transform="translate(158.000000, 1138.000000)"><g id="ICON" transform="translate(30.000000, 0.000000)"><g id="排行" transform="translate(10.000000, 17.000000)"><path d="M5,14 L18,14 L18,14 L18,50 L5,50 C2.23857625,50 3.38176876e-16,47.7614237 0,45 L0,19 C-3.38176876e-16,16.2385763 2.23857625,14 5,14 Z" id="矩形"/><path d="M26,0 L35,0 C37.7614237,-5.07265313e-16 40,2.23857625 40,5 L40,50 L40,50 L21,50 L21,5 C21,2.23857625 23.2385763,-3.80913106e-16 26,0 Z" id="矩形备份-17"/><path d="M43,24 L56,24 C58.7614237,24 61,26.2385763 61,29 L61,45 C61,47.7614237 58.7614237,50 56,50 L43,50 L43,50 L43,24 Z" id="矩形备份-19"/></g></g></g></g></g></svg>