<?xml version="1.0" encoding="UTF-8"?><svg width="82px" height="82px" viewBox="0 0 82 82" version="1.1" xmlns="http://www.w3.org/2000/svg" xmlns:xlink="http://www.w3.org/1999/xlink"><title>钱包@4x</title><g id="--🟠ICON" stroke="none" stroke-width="1" fill="none" fill-rule="evenodd"><g id="常用载体" transform="translate(-188.000000, -1410.000000)" fill="#333333"><g id="钱包" transform="translate(158.000000, 1410.000000)"><g id="ICON" transform="translate(30.000000, 0.000000)"><path d="M62.7795475,14.4308935 C62.7832869,14.4455951 62.7869574,14.4603141 62.7905589,14.4750501 L64.4669813,21.3343954 C64.5212427,21.5564141 64.559287,21.7786269 64.5818672,21.9997807 L17.0715727,21.9992704 C17.7041115,21.239185 18.573745,20.6648925 19.6045929,20.4026905 L56.8771015,10.9222189 C59.4759107,10.2611972 62.1185258,11.8320843 62.7795475,14.4308935 Z" id="形状结合" transform="translate(40.826720, 16.385502) scale(-1, -1) rotate(-180.000000) translate(-40.826720, -16.385502) "/><path d="M66,25 C68.7614237,25 71,27.2385763 71,30 L70.999,43 L62.08,43 C58.7221087,43 56,45.6862915 56,49 C56,52.3137085 58.7221087,55 62.08,55 L70.999,55 L71,66 C71,68.7614237 68.7614237,71 66,71 L16,71 C13.2385763,71 11,68.7614237 11,66 L11,30 C11,27.2385763 13.2385763,25 16,25 L66,25 Z M63,46 C64.6568542,46 66,47.3431458 66,49 C66,50.6568542 64.6568542,52 63,52 C61.3431458,52 60,50.6568542 60,49 C60,47.3431458 61.3431458,46 63,46 Z" id="形状结合" transform="translate(41.000000, 48.000000) rotate(-180.000000) translate(-41.000000, -48.000000) "/></g></g></g></g></svg>