<?xml version="1.0" encoding="UTF-8"?><svg width="82px" height="82px" viewBox="0 0 82 82" version="1.1" xmlns="http://www.w3.org/2000/svg" xmlns:xlink="http://www.w3.org/1999/xlink"><title>期货@4x</title><g id="--🟠ICON" stroke="none" stroke-width="1" fill="none" fill-rule="evenodd"><g id="常用载体" transform="translate(-476.000000, -50.000000)"><g id="日历" transform="translate(446.000000, 50.000000)"><g transform="translate(30.000000, 0.000000)"><path d="M27.6707599,14 C28.4048789,14 29,14.5951211 29,15.3292401 L29,18 L53,18 L53,15.3292401 C53,14.5951211 53.5951211,14 54.3292401,14 L59.6707599,14 C60.4048789,14 61,14.5951211 61,15.3292401 L61,18 L66,18 C68.7614237,18 71,20.2385763 71,23 L71,30 C71,30.2677744 70.973688,30.5294033 70.9235084,30.7824424 L70.8876389,30.941029 C70.4018489,28.6882338 68.3980785,27 66,27 L66,27 L16,27 C13.6019215,27 11.5981511,28.6882338 11.1123611,30.941029 L11.0764916,30.7824424 C11.026312,30.5294033 11,30.2677744 11,30 L11,23 C11,20.2385763 13.2385763,18 16,18 L21,18 L21,15.3292401 C21,14.5951211 21.5951211,14 22.3292401,14 L27.6707599,14 Z" id="形状结合" fill="#333333"/><path d="M16,30 L66,30 C68.7614237,30 71,32.2385763 71,35 L71,65 C71,67.7614237 68.7614237,70 66,70 L16,70 C13.2385763,70 11,67.7614237 11,65 L11,35 C11,32.2385763 13.2385763,30 16,30 Z" id="矩形备份-3" fill="#333333"/><path d="M35,62 L35,39 L31.4363636,39 L28,42.1107914 L28,45.9165468 L32.2318182,42.1107914 L32.2318182,62 L35,62 Z M46,62 C49.8632075,62 53,58.8088643 53,54.9196676 C53,52.5595568 51.8443396,50.465374 50.0943396,49.1689751 C51.4481132,48.0055402 52.2735849,46.2770083 52.2735849,44.3490305 C52.2735849,40.8587258 49.5,38 46,38 C42.5,38 39.7264151,40.8587258 39.7264151,44.3490305 C39.7264151,46.2770083 40.5518868,48.0055402 41.9056604,49.1689751 C40.1226415,50.465374 39,52.5595568 39,54.9196676 C39,58.8088643 42.1367925,62 46,62 Z M46.5,48 C44.5817308,48 43,46.4444444 43,44.4830918 C43,42.5555556 44.5817308,41 46.5,41 C48.4182692,41 50,42.5555556 50,44.4830918 C50,46.4444444 48.4182692,48 46.5,48 Z M46,59 C43.792,59 42,57.2151394 42,55.0159363 C42,52.7848606 43.792,51 46,51 C48.208,51 50,52.7848606 50,55.0159363 C50,57.2151394 48.208,59 46,59 Z" id="18" fill="#FFFFFF" fill-rule="nonzero"/></g></g></g></g></svg>