<?xml version="1.0" encoding="UTF-8"?><svg width="82px" height="82px" viewBox="0 0 82 82" version="1.1" xmlns="http://www.w3.org/2000/svg" xmlns:xlink="http://www.w3.org/1999/xlink"><title>气泡@4x</title><g id="--🟠ICON" stroke="none" stroke-width="1" fill="none" fill-rule="evenodd"><g id="常用载体" transform="translate(-332.000000, -866.000000)" fill="#333333"><g id="气泡" transform="translate(302.000000, 866.000000)"><g transform="translate(30.000000, 0.000000)"><path d="M11,59 L11,19.0034433 C11,16.2420195 13.2385763,14.0034433 16,14.0034433 L67,14.0034433 C69.7614237,14.002784 72,16.2413603 72,19.002784 C72,19.0030038 72,19.0032235 71.9993407,19.0034432 L71.9940671,59 C71.9930437,61.7611662 69.7545741,63.9993407 66.9934078,64 L56,64 L56,64 L56,71.6946153 C56,72.7991848 55.1045695,73.6946153 54,73.6946153 C53.6767551,73.6946153 53.3583266,73.6162663 53.071986,73.4662784 L35,64 L35,64 L16,64 C13.2385763,64 11,61.7614237 11,59 Z"/></g></g></g></g></svg>