<?xml version="1.0" encoding="UTF-8"?><svg width="82px" height="82px" viewBox="0 0 82 82" version="1.1" xmlns="http://www.w3.org/2000/svg" xmlns:xlink="http://www.w3.org/1999/xlink"><title>äºº@4x</title><g id="--ðŸŸ ICON" stroke="none" stroke-width="1" fill="none" fill-rule="evenodd"><g id="å¸¸ç”¨è½½ä½“" transform="translate(-476.000000, -730.000000)" fill="#333333" fill-rule="nonzero"><g id="äºº" transform="translate(446.000000, 730.000000)"><g transform="translate(30.000000, 0.000000)"><path d="M44.4126057,46 L45.7520517,48.122 L45.8245396,48.0564439 C46.6823016,47.4169481 49.9488795,49.2546755 50.7944223,49.9163418 C51.4695754,50.4481254 51.628435,50.4861099 53.2170305,50.7520017 C54.7261963,51.0178936 56.9899449,51.397739 61.0805784,52.5752598 C69.023556,54.8543324 70.3341473,63.1883648 69.9369984,67.252711 C69.8575687,68.2403091 68.9838411,69 67.9115391,69 L53.7520517,68.999 L53.7523092,69 L15.074715,69 C12.8925337,69 11.1110059,67.2845989 11.0050383,65.1287035 L11.0000517,64.9253367 L11.0000517,64.9253367 C11.0000517,61.6554532 12.6681296,57.2853432 16.2424696,54.0946416 C18.7445075,51.8535535 21.8025539,51.3597544 25.0194599,50.8279708 C26.4491959,50.6000636 27.9186467,50.3341718 29.4675274,49.9163418 C30.5398293,49.65045 35.0126728,47.1032035 35.3303919,48.1287862 C35.3357376,48.1485068 38.3631421,47.4389114 44.4126057,46 Z" id="å½¢çŠ¶ç»“åˆ"/><path d="M26.9962125,38.8260002 C25.8983494,38.2781694 24.5565167,37.2999002 24.1092392,36.2433695 C23.2960072,34.4042234 22.4827753,29.1998312 23.417992,27.5172081 C23.8652696,26.695462 24.6785015,26.2650235 25.4917335,26.0302389 C25.0874163,24.7267693 23.4586536,10.1319738 40.5771859,10.0008805 C57.6957183,9.86978727 56.3141435,24.4181344 56.1505776,25.7954543 C56.71984,26.2258928 57.2891023,26.8128543 57.6957183,27.6737312 C58.3463038,29.1215696 57.8583647,31.1172388 57.1264559,33.7781311 C56.9638095,34.3259618 56.8418247,34.8346618 56.7605016,35.147708 C56.3538856,37.1433772 55.0527145,38.0825156 54.0361746,38.7477387 C50.4172924,47.8260769 44.9279768,49 40.5771859,49 C34.721916,49 29.7205395,45.2043155 26.9962125,38.8260002 Z" id="è·¯å¾„å¤‡ä»½"/></g></g></g></g></svg>