<?xml version="1.0" encoding="UTF-8"?><svg width="82px" height="82px" viewBox="0 0 82 82" version="1.1" xmlns="http://www.w3.org/2000/svg" xmlns:xlink="http://www.w3.org/1999/xlink"><title>闪电@4x</title><g id="--🟠ICON" stroke="none" stroke-width="1" fill="none" fill-rule="evenodd"><g id="常用载体" transform="translate(-478.000000, -594.000000)" fill="#333333"><g id="闪电" transform="translate(448.000000, 594.000000)"><g transform="translate(30.000000, 0.000000)" id="Combined-Shape-Copy-5"><path d="M45.1249843,10.3977386 C45.697203,10.8197282 46.014706,11.5044002 45.9671464,12.2137997 L44.401,35.56 L61.9181231,35.5604292 C63.0687164,35.5604292 64.0014565,36.4931693 64.0014565,37.6437625 C64.0014565,38.0887821 63.8589552,38.5221081 63.5948262,38.8802675 L39.7882238,71.1620634 C39.1053209,72.0880809 37.8010333,72.2851643 36.8750157,71.6022614 C36.302797,71.1802718 35.985294,70.4955998 36.0328536,69.7862003 L37.598,46.439 L20.0818769,46.4395708 C18.9312836,46.4395708 17.9985435,45.5068307 17.9985435,44.3562375 C17.9985435,43.9112179 18.1410448,43.4778919 18.4051738,43.1197325 L42.2117762,10.8379366 C42.8946791,9.91191909 44.1989667,9.71483572 45.1249843,10.3977386 Z"/></g></g></g></g></svg>