<?xml version="1.0" encoding="UTF-8"?><svg width="82px" height="82px" viewBox="0 0 82 82" version="1.1" xmlns="http://www.w3.org/2000/svg" xmlns:xlink="http://www.w3.org/1999/xlink"><title>商店@4x</title><g id="--🟠ICON" stroke="none" stroke-width="1" fill="none" fill-rule="evenodd"><g id="常用载体" transform="translate(-622.000000, -594.000000)" fill="#333333"><g id="商店" transform="translate(592.000000, 594.000000)"><g transform="translate(30.000000, 0.000000)" id="路径"><path d="M15,66.5281661 L15,51.098201 L15,51.098201 C15.877863,51.4259595 16.7794068,51.6916929 17.6974573,51.8932865 L17.6974573,51.910136 C17.9886601,51.9596314 18.2886208,52.0091268 18.5874868,52.0428258 L18.7735939,52.067047 C18.7976783,52.067047 18.8228575,52.0765248 18.8469419,52.0765248 C18.8951108,52.0838965 18.9356164,52.0838965 18.9837854,52.0923212 C19.5587819,52.1494751 20.1365256,52.1772456 20.7145808,52.1755156 C24.6140706,52.1586661 28.3274534,50.6506362 31.1431434,48.0084247 C33.9500754,50.6506362 37.6306158,52.1418165 41.5136844,52.1670908 L41.5301056,52.1670908 C45.3890897,52.1418165 49.0619668,50.6337867 51.8448144,48 C54.6758309,50.6674857 58.3892136,52.1586661 62.3051247,52.1586661 L62.3127879,52.1586661 C63.3110959,52.1530038 64.3070203,52.0642125 65.2894057,51.8932865 L65.2894057,51.8774901 C66.2051862,51.7177655 67.1021841,51.4708285 67.9671576,51.1403247 C67.9622489,52.5096701 67.9692047,57.6423493 67.9880251,66.5383622 C67.9943947,69.5469914 65.5605787,71.9911272 62.5519495,71.9974922 C62.547278,71.9975021 62.5426065,71.997506 62.537935,71.9975038 L20.4476122,71.9782684 C17.4399524,71.9744038 15.0024901,69.5358273 15,66.5281661 Z"/><path d="M72.8952015,37.1985537 L72.8952015,37.2057801 C72.8711151,37.3240191 72.8553946,37.4437039 72.8481491,37.5640045 C72.7604605,38.0822426 72.6503151,38.5963513 72.5177128,39.1063306 C72.3915268,39.575016 72.2503696,40.0354427 72.0899636,40.4896753 C72.0503969,40.6011688 72.0033445,40.7198886 71.9637777,40.8313821 C71.9488065,40.8716437 71.9327659,40.902614 71.9167253,40.9428756 C71.8461467,41.125601 71.8536323,41.0935982 71.9637777,40.8396409 C71.9723327,40.9108728 71.8461467,41.101857 71.8151348,41.1741213 C71.7520419,41.3165852 71.6814632,41.4673078 71.6108846,41.610804 C71.4066344,42.0237427 71.1831355,42.429455 70.9425266,42.8186498 C70.8248956,43.0096339 70.6987096,43.2006181 70.5735929,43.3916022 C70.4484763,43.5825864 70.2121449,43.804541 70.1255257,44.0192691 L69.9116512,44.2814853 C69.7694246,44.4569842 69.6207817,44.6242244 69.4710695,44.7904322 C69.1445544,45.1455595 68.8016421,45.4848575 68.4423329,45.8083262 C68.27658,45.9600812 68.104411,46.102545 67.9311726,46.2460413 C67.8124437,46.3407381 67.7071021,46.4500681 67.6178464,46.5712305 L67.5387127,46.4679958 C67.3890005,46.5712305 65.9603184,47.5333777 63.5082465,47.8523729 L63.5082465,47.8678581 C62.908936,47.9398816 62.3059587,47.9798601 61.7020757,47.9876103 C58.2482653,47.97544 54.9875148,46.4480471 52.8401827,43.8365437 L51.5441028,42.2777 L50.2480229,43.8262203 C48.0793347,46.4339284 44.9011586,47.9442518 41.5112466,47.9762545 C38.0840391,47.9440346 34.8544672,46.4221353 32.7199323,43.8334467 L31.4249217,42.2849265 L30.1363275,43.8334467 C27.9366275,46.4731575 24.714607,47.9917397 21.2979607,48 C20.6459679,48 19.9948054,47.9551022 19.3495634,47.864761 C17.8524414,47.6108037 16.0419931,46.870611 15.3351376,46.5454218 C15.2762077,46.4780332 15.2129926,46.4142487 15.1458586,46.3544376 C14.8164917,46.0684775 14.4710843,45.7897439 14.1566887,45.4872663 C13.8636805,45.2078444 13.5835048,44.9163785 13.3161616,44.6128685 C13.18249,44.4621459 13.0488184,44.3103909 12.9237018,44.1524419 C12.8680944,44.0801776 12.8167645,44.0161721 12.757949,43.9459725 C12.7419084,43.9304873 12.7344228,43.9067434 12.7183822,43.8902258 C12.240416,43.2358064 11.8177215,42.5453511 11.4543835,41.8255321 C11.3602787,41.6438391 11.2736595,41.4611137 11.1870402,41.277356 C11.1474735,41.1906388 11.1079066,41.1028894 11.0694092,41.0079134 C10.9118549,40.6121805 10.7692719,40.2119741 10.6416601,39.8072941 C10.3828719,38.9607697 10.2417146,38.1266335 10.0855862,37.2677209 C10.2021479,37.9026142 10.0770312,37.1799714 10.0695456,37.02099 C10.053505,36.8145206 10.0374644,36.5997925 10.0224932,36.3922908 C9.99896698,35.8998614 9.99041197,35.4074319 10.0139382,34.9057114 C10.0224932,34.6517541 10.0374644,34.3967644 10.0609906,34.1510658 C10.0695457,34.0230549 10.0845168,33.8960762 10.1005574,33.7690975 C10.108043,33.728836 10.108043,33.681348 10.116598,33.6421188 C10.1401242,33.4356494 10.1401242,33.4748786 10.1005574,33.75258 C10.0770312,33.6648305 10.1476098,33.4666199 10.1550955,33.3788704 C10.1786217,33.2518917 10.2021479,33.1331719 10.2267434,33.0061932 C10.2812815,32.7150714 10.3433051,32.4260143 10.4149531,32.1390219 C10.5560685,31.5538865 10.7346401,30.9777634 10.9496395,30.4139703 C11.5538352,28.8953881 12.1516146,27.376806 12.7558103,25.8582238 C14.0059071,22.7178247 15.3094727,19.5846521 16.5039621,16.4205091 L16.5745407,16.205781 C16.6290788,16.0467995 16.9124626,15.4583619 16.6290788,16.0313144 C16.7231836,15.8403302 16.8012478,15.6410873 16.904977,15.4511354 C17.0699815,15.1322719 17.2560808,14.8239949 17.4621202,14.5282174 C17.5091726,14.4569855 17.5690575,14.3857535 17.6182487,14.3134893 C17.5978131,14.3413758 17.5795822,14.3707086 17.5637106,14.4012387 C17.6706479,14.2680659 17.7850708,14.1379902 17.9016325,14.012044 C18.1280517,13.7770251 18.366837,13.553399 18.6170429,13.3420509 L18.789212,13.2150722 C18.9544841,13.0981398 19.1261913,12.9899292 19.3035803,12.8909153 C19.4535592,12.8006497 19.6084884,12.7182857 19.7676881,12.6441844 C19.8318505,12.6111494 19.8970822,12.5791466 19.9633834,12.5492085 C20.3085007,12.4146417 20.6616721,12.3001896 21.0209931,12.2064694 C21.2006477,12.1589814 21.3824412,12.1269787 21.5620958,12.0877495 C21.6251888,12.0794907 21.6882818,12.0640055 21.7513748,12.0557467 C22.0967822,12.0247763 22.4347041,12 22.7801115,12 L60.315099,12 C60.4412851,12 60.5589161,12 60.6840327,12.0082588 C60.8807973,12.0165176 61.069007,12.0247763 61.2582859,12.0485203 C61.2818121,12.0485203 61.3042689,12.0557467 61.3288645,12.0557467 C61.3534601,12.0557467 61.4069288,12.0640055 61.430455,12.0640055 C61.465668,12.0706147 61.5015386,12.073385 61.5373923,12.0722643 C61.5107167,12.0740164 61.48393,12.0712208 61.4582586,12.0640055 C61.8488708,12.1300317 62.2346503,12.2203786 62.6131814,12.3344804 C62.7864198,12.3902271 62.9585888,12.4449415 63.1318272,12.5172058 C63.2184464,12.5492085 63.2965106,12.5884377 63.3831298,12.6204405 C63.3503246,12.6103982 63.3187658,12.5968962 63.289025,12.5801789 C63.639133,12.747243 63.9777531,12.9358632 64.3027904,13.1448726 C64.436462,13.2336544 64.5679949,13.3265656 64.6952503,13.4236063 C64.7497884,13.4710942 64.8021876,13.5185821 64.8599338,13.5588437 C65.1526657,13.8146329 65.4257209,14.0906548 65.6769346,14.3847212 C65.7314726,14.4476943 65.7838719,14.5116998 65.8341324,14.5664142 C65.9196822,14.6944252 66.0148564,14.8214039 66.09399,14.9494149 C66.2923606,15.2593132 66.4709224,15.5806282 66.6286765,15.9115621 C66.6358602,15.9340562 66.646688,15.9553104 66.6607577,15.9745353 C66.6757289,16.006538 66.6907001,16.0457672 66.7067407,16.07777 C66.7227813,16.1097728 66.7313363,16.1417755 66.7463075,16.1655194 C66.7388218,16.1417754 66.7227813,16.1262902 66.7152956,16.101514 C66.7698337,16.2367514 66.8094005,16.3802476 66.8650079,16.5144527 L66.8874647,16.5856846 C67.3355319,17.8183067 67.8146109,19.0344113 68.2701638,20.2587746 C69.5534113,23.6613897 70.8366587,27.0681342 72.1199061,30.4790081 L72.2375371,30.7887122 C72.3872493,31.2181685 72.4899091,31.686854 72.5989852,32.1307631 C72.6620781,32.3692352 72.7059225,32.6159662 72.7636686,32.862697 C72.7882642,32.9824492 72.810721,33.1094279 72.8353166,33.2281478 C72.8599122,33.3468676 72.9529476,33.6183748 72.9133808,33.7216095 C72.9058951,33.6421188 72.8898546,33.5626281 72.882369,33.4821051 C72.8898546,33.5626282 72.9058952,33.6493453 72.9133808,33.728836 C72.9294213,33.856847 72.936907,33.9755669 72.9529476,34.1035779 C72.9764738,34.3492764 72.991445,34.5960073 73,34.8499647 C73,35.4074319 72.9925144,35.9401229 72.9604332,36.464555 C72.9422539,36.7133507 72.9187277,36.9518228 72.8952015,37.1985537 Z"/></g></g></g></g></svg>