<?xml version="1.0" encoding="UTF-8"?><svg width="82px" height="82px" viewBox="0 0 82 82" version="1.1" xmlns="http://www.w3.org/2000/svg" xmlns:xlink="http://www.w3.org/1999/xlink"><title>基金体验金@4x</title><g id="--🟠ICON" stroke="none" stroke-width="1" fill="none" fill-rule="evenodd"><g id="常用载体" transform="translate(-188.000000, -1274.000000)" fill="#333333"><g id="手" transform="translate(158.000000, 1274.000000)"><g id="ICON" transform="translate(30.000000, 0.000000)"><path d="M21.3543994,26.0649087 C27.1702967,26.0649087 32.9575074,26.8837584 38.5579956,28.4975982 L39.6755568,28.830959 L41.8963604,29.5160287 C42.6954262,29.7625231 43.3627649,30.3371854 43.74368,31.1068023 C44.47804,32.5905344 43.9763144,34.3951883 42.6302588,35.2550471 L42.4220669,35.3767818 L41.1444375,36.0580144 C40.5193921,36.3912889 40.1677977,37.1003002 40.2697178,37.8219392 C40.4013072,38.7536495 41.2356795,39.3982293 42.1333349,39.2616087 C42.6340215,39.1854284 43.1577708,39.0938303 43.7045826,38.9868143 C49.3977678,37.8726074 49.954141,35.4458767 56.134001,33.1265996 C61.1478997,31.0464768 65.2781162,31.1621157 68.5246506,33.4735165 L68.8573467,33.7204596 L76.2142857,41.5649087 L47.0047041,56.3729919 C46.2189112,56.7713574 45.3655683,57.0023321 44.4949591,57.0538513 L44.1209304,57.0649087 L18.5707643,57.0649087 C15.0485647,57.0649087 12.1736433,54.1884621 12.0075771,50.5753437 L12,50.2449086 L12,32.8849089 C12,29.2291086 14.7713273,26.2451385 18.2524048,26.0727733 L18.5707643,26.0649087 L21.3543994,26.0649087 Z" id="路径备份-4"/></g></g></g></g></svg>