<?xml version="1.0" encoding="UTF-8"?><svg width="82px" height="82px" viewBox="0 0 82 82" version="1.1" xmlns="http://www.w3.org/2000/svg" xmlns:xlink="http://www.w3.org/1999/xlink"><title>手机充值@4x</title><g id="--🟠ICON" stroke="none" stroke-width="1" fill="none" fill-rule="evenodd"><g id="常用载体" transform="translate(-190.000000, -594.000000)"><g id="手机充值备份" transform="translate(160.000000, 594.000000)"><g id="ICON" transform="translate(30.000000, 0.000000)"><g id="手机充值" transform="translate(17.000000, 11.000000)"><path d="M5,0 L44,0 C46.7614237,-5.07265313e-16 49,2.23857625 49,5 L49,55 C49,57.7614237 46.7614237,60 44,60 L5,60 C2.23857625,60 3.38176876e-16,57.7614237 0,55 L0,5 C-3.38176876e-16,2.23857625 2.23857625,-3.80913106e-16 5,0 Z" id="矩形" fill="#333333"/><path d="M9,6 L40,6 C41.6568542,6 43,7.34314575 43,9 L43,47 C43,48.6568542 41.6568542,50 40,50 L9,50 C7.34314575,50 6,48.6568542 6,47 L6,9 C6,7.34314575 7.34314575,6 9,6 Z" id="矩形" fill="#FFFFFF"/><path d="M20,53 L29,53 C30.1045695,53 31,53.8954305 31,55 C31,56.1045695 30.1045695,57 29,57 L20,57 C18.8954305,57 18,56.1045695 18,55 C18,53.8954305 18.8954305,53 20,53 Z" id="矩形" fill="#FFFFFF"/></g></g></g></g></g></svg>