<?xml version="1.0" encoding="UTF-8"?><svg width="82px" height="82px" viewBox="0 0 82 82" version="1.1" xmlns="http://www.w3.org/2000/svg" xmlns:xlink="http://www.w3.org/1999/xlink"><title>水滴@4x</title><g id="--🟠ICON" stroke="none" stroke-width="1" fill="none" fill-rule="evenodd"><g id="常用载体" transform="translate(-334.000000, -594.000000)" fill="#333333"><g id="水滴" transform="translate(304.000000, 594.000000)"><g transform="translate(30.000000, 0.000000)" id="Oval-5-Copy-2"><path d="M41,8 C39.9855072,8.79618065 38.9985822,9.58722532 38.039225,10.373134 L36.9012287,11.3137591 C36.5263075,11.6264791 36.1557971,11.9383773 35.7896975,12.2494537 L34.7046314,13.1802178 C34.3473535,13.4896507 33.9944865,13.7982619 33.6460302,14.1060513 L32.6138941,15.0269542 C32.4440769,15.1800272 32.2753623,15.3328947 32.1077505,15.4855567 L31.1153119,16.3990639 C30.7889099,16.7027445 30.4669187,17.0056034 30.1493384,17.3076405 L29.2098299,18.2112865 L29.2098299,18.2112865 L28.2967864,19.110002 C18.0989288,29.2675044 13,38.4750546 13,46.7326527 C13,63.4907194 25.536027,74 41,74 C56.463973,74 69,63.4907194 69,46.7326527 C69,38.2321841 63.5967234,28.725062 52.7901701,18.2112865 L51.8506616,17.3076405 C51.6918715,17.1566219 51.5319786,17.0053979 51.370983,16.8539685 L50.3917769,15.9429266 C50.0609641,15.6384243 49.7257404,15.3331001 49.3861059,15.0269542 L48.3539698,14.1060513 C48.1797417,13.9521566 48.0044108,13.7980564 47.8279773,13.6437508 L46.7561437,12.7154521 C46.2136106,12.2500701 45.6611531,11.7828391 45.0987713,11.3137591 L43.960775,10.373134 C43.0014178,9.58722532 42.0144928,8.79618065 41,8 Z"/></g></g></g></g></svg>