<?xml version="1.0" encoding="UTF-8"?><svg width="82px" height="82px" viewBox="0 0 82 82" version="1.1" xmlns="http://www.w3.org/2000/svg" xmlns:xlink="http://www.w3.org/1999/xlink"><title>书签@4x</title><g id="--🟠ICON" stroke="none" stroke-width="1" fill="none" fill-rule="evenodd"><g id="常用载体" transform="translate(-332.000000, -50.000000)" fill="#333333"><g id="书签" transform="translate(302.000000, 50.000000)"><g transform="translate(30.000000, 0.000000)"><path d="M21,13 L61,13 C63.7614237,13 66,15.2385763 66,18 L66,66.6675144 C66,69.4289381 63.7614237,71.6675144 61,71.6675144 C60.3750945,71.6675144 59.7557266,71.5503712 59.1739847,71.3221538 L42.722656,64.8682966 C41.6152999,64.4338808 40.3847001,64.4338808 39.277344,64.8682966 L22.8260153,71.3221538 C20.2553289,72.3306342 17.353841,71.0642161 16.3453606,68.4935297 C16.1171432,67.9117877 16,67.2924199 16,66.6675144 L16,18 C16,15.2385763 18.2385763,13 21,13 Z"/></g></g></g></g></svg>