<?xml version="1.0" encoding="UTF-8"?><svg width="82px" height="82px" viewBox="0 0 82 82" version="1.1" xmlns="http://www.w3.org/2000/svg" xmlns:xlink="http://www.w3.org/1999/xlink"><title>树叶@4x</title><g id="--🟠ICON" stroke="none" stroke-width="1" fill="none" fill-rule="evenodd"><g id="常用载体" transform="translate(-622.000000, -1002.000000)"><g id="树叶" transform="translate(592.000000, 1002.000000)"><g transform="translate(30.000000, 0.000000)"><path d="M60.4417367,16.8514164 C64.0753934,14.1578204 67.3411895,11.48825 68.4701748,14.0121188 C74.398904,27.0892721 63.0361741,65.4074395 38.4618775,65.4074395 C33.7872954,65.4074395 29.4538848,63.9610697 25.8931986,61.495641 L19.2432781,69.1778645 C18.3856658,70.1685769 16.8873026,70.2764758 15.8965902,69.4188635 C15.8565551,69.384207 15.8176914,69.34822 15.7800644,69.3109629 L12.7173314,66.2783363 C11.7862109,65.3563686 11.7787911,63.8541437 12.7007588,62.9230232 C12.7489491,62.8743545 12.7992241,62.8277954 12.8514427,62.7834765 L20.5529277,56.2486088 C18.0031709,52.6971239 16.5039255,48.3545905 16.5039255,43.6653318 C16.5039255,31.6574973 26.3348355,21.9232241 38.4618775,21.9232241 C42.1253833,21.9232241 48.4710567,23.1110162 55.2647492,20.1257104 C56.8029999,19.4497674 58.4261927,18.332561 59.9950809,17.1810131 Z" id="形状结合" fill="#333333"/><path d="M41.7924004,27.8042034 L44.7591123,31.2563397 C43.0551275,32.6874675 40.744177,33.5926333 37.8713024,34.0242226 C33.6123393,34.6888603 30.5412535,37.4435753 28.5339426,42.5881587 L28.3735163,43.0105301 L24.0698832,41.4555171 C26.5549108,34.7341492 30.8265296,30.686553 36.7710522,29.6149025 L37.1698308,29.5478712 C39.1361524,29.2524467 40.6001947,28.7106529 41.5880063,27.9667001 L41.7924004,27.8042034 Z" id="路径-9" fill="#FFFFFF"/></g></g></g></g></svg>