<?xml version="1.0" encoding="UTF-8"?><svg width="82px" height="82px" viewBox="0 0 82 82" version="1.1" xmlns="http://www.w3.org/2000/svg" xmlns:xlink="http://www.w3.org/1999/xlink"><title>铜钱@4x</title><g id="--🟠ICON" stroke="none" stroke-width="1" fill="none" fill-rule="evenodd"><g id="常用载体" transform="translate(-332.000000, -458.000000)"><g id="铜钱" transform="translate(302.000000, 458.000000)"><g transform="translate(30.000000, 0.000000)"><path d="M41,9 C58.673112,9 73,23.326888 73,41 C73,58.673112 58.673112,73 41,73 C23.326888,73 9,58.673112 9,41 C9,23.326888 23.326888,9 41,9 Z" id="路径备份-2" fill="#333333"/><path d="M42.7405484,29.7405927 L52.2591208,39.2594073 C53.2203375,40.2207371 53.2203375,41.7792629 52.2591208,42.7405927 L42.7405484,52.2594073 C41.7793144,53.2207544 40.2207544,53.2207742 39.2594516,52.2594959 C39.2594368,52.2594811 39.2594221,52.2594664 39.2594516,52.2594073 L29.7408792,42.7405927 C28.7796625,41.7792629 28.7796625,40.2207371 29.7408792,39.2594073 L39.2594516,29.7405927 C40.2206856,28.7792456 41.7792456,28.7792258 42.7405484,29.7405041 C42.7405632,29.7405189 42.7405779,29.7405336 42.7405484,29.7405927 Z" id="矩形备份-8" fill="#FFFFFF"/></g></g></g></g></svg>