<?xml version="1.0" encoding="UTF-8"?><svg width="82px" height="82px" viewBox="0 0 82 82" version="1.1" xmlns="http://www.w3.org/2000/svg" xmlns:xlink="http://www.w3.org/1999/xlink"><title>投资新机会@4x</title><g id="--🟠ICON" stroke="none" stroke-width="1" fill="none" fill-rule="evenodd"><g id="常用载体" transform="translate(-476.000000, -1274.000000)" fill="#333333"><g id="投资新机会" transform="translate(446.000000, 1274.000000)"><g id="ICON" transform="translate(30.000000, 0.000000)"><g id="编组-9" transform="translate(16.000000, 12.000000)"><path d="M46,2 C48.7614237,2 51,4.23857625 51,7 L51,54 C51,56.7614237 48.7614237,59 46,59 L5,59 C2.23857625,59 -5.50001544e-16,56.7614237 0,54 L0,7 C-3.38176876e-16,4.23857625 2.23857625,2 5,2 L11.599,2 L12.9310218,6.43673943 C13.5436193,8.47873097 15.3794231,9.89932183 17.4927108,9.99486556 L17.7201533,10 L33.2798467,10 C35.4878878,10 37.4345022,8.55165923 38.0689782,6.43673943 L38.0689782,6.43673943 L39.4,2 L46,2 Z" id="形状结合"/><path d="M16.3104669,0 L34.6895331,0 C35.3172389,-1.15307689e-16 35.826095,0.508856112 35.826095,1.13656194 C35.826095,1.19034276 35.8222777,1.24405577 35.814672,1.29729607 L35.5,3.5 C35.2131021,5.50828497 33.4931403,7 31.4644661,7 L19.5355339,7 C17.5068597,7 15.7868979,5.50828497 15.5,3.5 L15.185328,1.29729607 C15.096557,0.675899003 15.5283357,0.100194032 16.1497328,0.0114230229 C16.2029731,0.00381726569 16.2566861,9.87937733e-18 16.3104669,0 Z" id="矩形备份-5"/></g></g></g></g></g></svg>