<?xml version="1.0" encoding="UTF-8"?><svg width="82px" height="82px" viewBox="0 0 82 82" version="1.1" xmlns="http://www.w3.org/2000/svg" xmlns:xlink="http://www.w3.org/1999/xlink"><title>投资日报@4x</title><g id="--🟠ICON" stroke="none" stroke-width="1" fill="none" fill-rule="evenodd"><g id="常用载体" transform="translate(-622.000000, -1138.000000)"><g id="投资日报" transform="translate(592.000000, 1138.000000)"><g id="ICON" transform="translate(30.000000, 0.000000)"><g id="编组-20" transform="translate(10.000000, 15.000000)"><path d="M55,18 L59,18 C61.7614237,18 64,20.2385763 64,23 L64,46 C64,48.7614237 61.7614237,51 59,51 L55,51 L55,51 L55,18 Z" id="矩形备份-22" fill="#666666"/><path d="M50,0 C52.7614237,-5.07265313e-16 55,2.23857625 55,5 L55,26 L55,26 L55,46 C55,48.7614237 57.2385763,51 60,51 L60,51 L5,51 C2.23857625,51 -5.50001544e-16,48.7614237 0,46 L0,5 C-3.38176876e-16,2.23857625 2.23857625,-3.80913106e-16 5,0 L50,0 Z" id="形状结合" fill="#333333"/><path d="M10,30 L46,30 C46.5522847,30 47,30.4477153 47,31 L47,32 C47,32.5522847 46.5522847,33 46,33 L10,33 C9.44771525,33 9,32.5522847 9,32 L9,31 C9,30.4477153 9.44771525,30 10,30 Z" id="矩形备份-168" fill="#FFFFFF"/><path d="M10,39 L26,39 C26.5522847,39 27,39.4477153 27,40 L27,41 C27,41.5522847 26.5522847,42 26,42 L10,42 C9.44771525,42 9,41.5522847 9,41 L9,40 C9,39.4477153 9.44771525,39 10,39 Z" id="矩形备份-170" fill="#FFFFFF"/><path d="M10,10 L46,10 C46.5522847,10 47,10.4477153 47,11 L47,23 C47,23.5522847 46.5522847,24 46,24 L10,24 C9.44771525,24 9,23.5522847 9,23 L9,11 C9,10.4477153 9.44771525,10 10,10 Z" id="矩形备份-169" fill="#FFFFFF"/></g></g></g></g></g></svg>