<?xml version="1.0" encoding="UTF-8"?><svg width="82px" height="82px" viewBox="0 0 82 82" version="1.1" xmlns="http://www.w3.org/2000/svg" xmlns:xlink="http://www.w3.org/1999/xlink"><title>羊角符@4x</title><g id="--🟠ICON" stroke="none" stroke-width="1" fill="none" fill-rule="evenodd"><g id="常用载体" transform="translate(-44.000000, -50.000000)" fill="#333333"><g id="羊角符" transform="translate(14.000000, 50.000000)"><g transform="translate(30.000000, 0.000000)"><path d="M53.9889019,13.5404673 L57.9187388,17.4001621 C58.6565729,18.1248269 58.650215,19.304508 57.903976,20.0356042 L48.453,29.293 L57.1151704,29.2937634 C58.1561331,29.2937634 59,30.1303076 59,31.1787123 L59,36.8353736 C59,37.8764022 58.1631168,38.7203225 57.1151704,38.7203225 L45.736,38.72 L45.736,44.376 L57.1151704,44.376258 C58.1561331,44.376258 59,45.2128023 59,46.2612069 L59,51.9178683 C59,52.9588968 58.1631168,53.8028172 57.1151704,53.8028172 L45.736,53.802 L45.7368421,65.1172412 C45.7368421,66.1570602 44.8961158,67 43.865147,67 L38.134853,67 C37.1011444,67 36.2631579,66.1595847 36.2631579,65.1172412 L36.263,53.802 L24.8848296,53.8028172 C23.8438669,53.8028172 23,52.9662729 23,51.9178683 L23,46.2612069 C23,45.2201784 23.8368832,44.376258 24.8848296,44.376258 L36.263,44.376 L36.263,38.72 L24.8848296,38.7203225 C23.8438669,38.7203225 23,37.8837783 23,36.8353736 L23,31.1787123 C23,30.1376838 23.8368832,29.2937634 24.8848296,29.2937634 L33.917,29.293 L24.4669799,20.0356042 C23.7621987,19.3451244 23.7173731,18.254518 24.3361347,17.5249978 L24.4522171,17.4001621 L28.3820541,13.5404673 C29.1205141,12.8151878 30.3227631,12.8208164 31.0687505,13.5516661 L31.0687505,13.5516661 L41.185,23.462 L51.3022055,13.5516661 C52.0481928,12.8208164 53.2504418,12.8151878 53.9889019,13.5404673 Z"/></g></g></g></g></svg>