<?xml version="1.0" encoding="UTF-8"?><svg width="82px" height="82px" viewBox="0 0 82 82" version="1.1" xmlns="http://www.w3.org/2000/svg" xmlns:xlink="http://www.w3.org/1999/xlink"><title>ไฟก็จๅกๅคไปฝ 11@4x</title><g id="--๐ICON" stroke="none" stroke-width="1" fill="none" fill-rule="evenodd"><g id="็ฝๆก" transform="translate(-478.000000, -118.000000)"><g id="ไฟก็จๅก" transform="translate(448.000000, 118.000000)"><g id="ICON" transform="translate(30.000000, 0.000000)"><g id="ไฟก็จๅก" transform="translate(9.000000, 17.000000)"><path d="M5,0 L59,0 C61.7614237,-5.07265313e-16 64,2.23857625 64,5 L64,45 C64,47.7614237 61.7614237,50 59,50 L5,50 C2.23857625,50 3.38176876e-16,47.7614237 0,45 L0,5 C-3.38176876e-16,2.23857625 2.23857625,-3.80913106e-16 5,0 Z" id="็ฉๅฝขๅคไปฝ-4" fill="#333333"/><polygon id="็ฉๅฝข" fill="#FFFFFF" points="-7.7438056e-14 13 64 13 64 19 0 19"/><polygon id="็ฉๅฝขๅคไปฝ" fill="#FFFFFF" points="10 32 28 32 26 40 8 40"/></g></g></g></g></g></svg>