<?xml version="1.0" encoding="UTF-8"?><svg width="82px" height="82px" viewBox="0 0 82 82" version="1.1" xmlns="http://www.w3.org/2000/svg" xmlns:xlink="http://www.w3.org/1999/xlink"><title>医院@4x</title><g id="--🟠ICON" stroke="none" stroke-width="1" fill="none" fill-rule="evenodd"><g id="常用载体" transform="translate(-476.000000, -1002.000000)"><g id="医院" transform="translate(446.000000, 1002.000000)"><g id="ICON" transform="translate(30.000000, 0.000000)"><path d="M51.5316239,11.9446542 L70.0553458,30.4683761 C75.3148847,35.7344643 75.3148847,44.2655357 70.0553458,49.5316239 L51.5316239,68.0553458 C46.2655357,73.3148847 37.7344643,73.3148847 32.4683761,68.0553458 L13.9446542,49.5765844 C8.68511528,44.3104962 8.68511528,35.7794248 13.9446542,30.5133366 L32.4683761,11.9446542 C37.7344643,6.68511528 46.2655357,6.68511528 51.5316239,11.9446542 Z" id="形状" fill="#333333"/><path d="M38.125,37.125 L29,37.125 C28.4477153,37.125 28,37.5727153 28,38.125 L28,42.875 C28,43.4272847 28.4477153,43.875 29,43.875 L38.125,43.875 L38.125,43.875 L38.125,53 C38.125,53.5522847 38.5727153,54 39.125,54 L43.875,54 C44.4272847,54 44.875,53.5522847 44.875,53 L44.875,43.875 L44.875,43.875 L54,43.875 C54.5522847,43.875 55,43.4272847 55,42.875 L55,38.125 C55,37.5727153 54.5522847,37.125 54,37.125 L44.875,37.125 L44.875,37.125 L44.875,28 C44.875,27.4477153 44.4272847,27 43.875,27 L39.125,27 C38.5727153,27 38.125,27.4477153 38.125,28 L38.125,37.125 L38.125,37.125 Z" id="路径" fill="#FFFFFF"/></g></g></g></g></svg>