<?xml version="1.0" encoding="UTF-8"?><svg width="82px" height="82px" viewBox="0 0 82 82" version="1.1" xmlns="http://www.w3.org/2000/svg" xmlns:xlink="http://www.w3.org/1999/xlink"><title>边玩边赚@4x</title><g id="--🟠ICON" stroke="none" stroke-width="1" fill="none" fill-rule="evenodd"><g id="常用载体" transform="translate(-44.000000, -730.000000)"><g id="游戏" transform="translate(14.000000, 730.000000)"><g transform="translate(30.000000, 0.000000)"><path d="M31.9219342,59.1170986 L29.2655319,63.1017022 C27.2254083,66.1618875 23.7908637,68 20.1129787,68 L17.5,68 C12.9456799,68 9.25367399,64.3079941 9.25367399,59.753674 C9.25367399,59.6704017 9.25493533,59.5871341 9.25745758,59.5039 L10,35 L10,41 C10,49.2842712 16.7157288,56 25,56 L25,56 L37.7462863,56 C35.405814,56 33.2201947,57.1697079 31.9219342,59.1170986 Z M57,56 C65.2842712,56 72,49.2842712 72,41 L72,41 L72,35 L72.7425424,59.5039 C72.8804888,64.0561305 69.3020045,67.85827 64.749774,67.9962164 C64.6665399,67.9987387 64.5832723,68 64.5,68 L61.8870213,68 C58.2091363,68 54.7745917,66.1618875 52.7344681,63.1017022 L50.0780658,59.1170986 C48.7798053,57.1697079 46.594186,56 44.2537137,56 Z" id="形状结合" fill="#333333"/><rect id="矩形备份-7" fill="#333333" x="10" y="15" width="62" height="41" rx="15"/><path d="M30,28 C30.5522847,28 31,28.4477153 31,29 L31,33 L35,33 C35.5522847,33 36,33.4477153 36,34 L36,37 C36,37.5522847 35.5522847,38 35,38 L31,38 L31,42 C31,42.5522847 30.5522847,43 30,43 L27,43 C26.4477153,43 26,42.5522847 26,42 L26,38 L22,38 C21.4477153,38 21,37.5522847 21,37 L21,34 C21,33.4477153 21.4477153,33 22,33 L26,33 L26,29 C26,28.4477153 26.4477153,28 27,28 L30,28 Z" id="形状结合" fill="#FFFFFF"/><circle id="椭圆形" fill="#FFFFFF" cx="52" cy="31" r="3"/><circle id="椭圆形备份-3" fill="#FFFFFF" cx="59" cy="40" r="3"/></g></g></g></g></svg>