<?xml version="1.0" encoding="UTF-8"?><svg width="82px" height="82px" viewBox="0 0 82 82" version="1.1" xmlns="http://www.w3.org/2000/svg" xmlns:xlink="http://www.w3.org/1999/xlink"><title>元宝@4x</title><g id="--🟠ICON" stroke="none" stroke-width="1" fill="none" fill-rule="evenodd"><g id="常用载体" transform="translate(-476.000000, -1410.000000)"><g id="元宝" transform="translate(446.000000, 1410.000000)"><g transform="translate(30.000000, 0.000000)"><g id="编组-3" transform="translate(9.000000, 12.000000)" fill="#333333"><path d="M32,0 C38.5827179,0 44.2369624,3.97526684 46.6930505,9.65611738 C44.4152191,10.1388204 42.8711234,11.0169563 41.6063806,12.0036873 L41.6063806,12.0036873 L41.2747148,12.2697685 C41.2204388,12.3144787 41.1666369,12.3593536 41.1132691,12.4043679 L41.1132691,12.4043679 L40.7979506,12.6759238 L40.3403014,13.0868695 L39.5293948,13.8390849 L38.9981733,14.3243904 L38.6389521,14.6387747 C37.0673891,15.9813537 35.2696934,17.0469247 32,17.0469247 L32,17.0469247 L31.6291893,17.0422407 C28.5923568,16.964548 26.8721661,15.9297161 25.3610479,14.6387747 L25.3610479,14.6387747 L25.0018267,14.3243904 C24.9424365,14.2712931 24.883239,14.2178757 24.8241635,14.1641832 L24.8241635,14.1641832 L23.5088723,12.9496088 L23.0455722,12.5398037 L22.7252852,12.2697685 L22.3936194,12.0036873 C21.1289157,11.0169868 19.5848764,10.1388748 17.308366,9.65616076 C19.7630376,3.97526684 25.4172821,0 32,0 Z" id="形状结合"/><path d="M31.4708215,56.9962556 C14.0417829,56.7493568 0,44.3153877 0,26.5096214 C0,17.5168102 1.22547043,9.26415094 13.1518063,9.26415094 C25.0781421,9.26415094 23.163444,17.0469247 32,17.0469247 L32,17.0469247 C40.836556,17.0469247 38.9218579,9.26415094 50.8481937,9.26415094 C62.7745296,9.26415094 64,17.5168102 64,26.5096214 C64,44.4952439 49.673112,57 32,57 Z" id="形状结合"/></g><path d="M26.8918919,35 C30.4661009,38.4498449 35.5597473,40.626322 41.4864865,41 C46.4402527,40.626322 51.5338991,38.4498449 55.1081081,35 C56.1500103,33.7864966 59.2113408,37.8791539 58.027027,39 C53.7913629,43.3545948 47.6002766,46 41.4864865,46 C34.3997234,46 28.2086371,43.3545948 23.972973,39 C22.7886592,37.8791539 25.8499897,33.7864966 26.8918919,35 Z" id="路径备份" fill="#FFFFFF"/></g></g></g></g></svg>