<?xml version="1.0" encoding="UTF-8"?><svg width="82px" height="82px" viewBox="0 0 82 82" version="1.1" xmlns="http://www.w3.org/2000/svg" xmlns:xlink="http://www.w3.org/1999/xlink"><title>账单@4x</title><g id="--🟠ICON" stroke="none" stroke-width="1" fill="none" fill-rule="evenodd"><g id="常用载体" transform="translate(-188.000000, -50.000000)"><g id="账单" transform="translate(158.000000, 50.000000)"><g transform="translate(30.000000, 0.000000)"><path d="M21.8823529,13 L60.1176471,13 C63.3663809,13 66,15.6484391 66,18.9154544 L66,66.9759893 C66,69.4262507 64.0247857,71.4125801 61.5882353,71.4125801 C60.9033305,71.4125801 60.2278316,71.2522191 59.6152341,70.9441968 L53.3324386,67.7851216 C52.0538136,67.1422115 50.5446772,67.1621768 49.2833129,67.8386901 L42.4977054,71.4780457 C41.1147303,72.2197829 39.4442514,72.1679442 38.1093863,71.3418662 L32.7959991,68.0536896 C31.4963635,67.2494133 29.8757046,67.1776507 28.5108034,67.8639416 L22.3847659,70.9441968 C20.205449,72.039987 17.5554208,71.1516735 16.4657624,68.960093 C16.1594636,68.3440483 16,67.6647483 16,66.9759893 L16,18.9154544 C16,15.6484391 18.6336191,13 21.8823529,13 Z" id="路径" fill="#333333"/><path d="M40,37 C40.5522847,37 41,37.4477153 41,38 L41,41 C41,41.5522847 40.5522847,42 40,42 L29,42 C28.4477153,42 28,41.5522847 28,41 L28,38 C28,37.4477153 28.4477153,37 29,37 L40,37 Z M53,26 C53.5522847,26 54,26.4477153 54,27 L54,30 C54,30.5522847 53.5522847,31 53,31 L29,31 C28.4477153,31 28,30.5522847 28,30 L28,27 C28,26.4477153 28.4477153,26 29,26 L53,26 Z" id="形状结合" fill="#FFFFFF"/></g></g></g></g></svg>