<?xml version="1.0" encoding="UTF-8"?><svg width="82px" height="82px" viewBox="0 0 82 82" version="1.1" xmlns="http://www.w3.org/2000/svg" xmlns:xlink="http://www.w3.org/1999/xlink"><title>直播@4x</title><g id="--🟠ICON" stroke="none" stroke-width="1" fill="none" fill-rule="evenodd"><g id="常用载体" transform="translate(-46.000000, -594.000000)"><g id="直播" transform="translate(16.000000, 594.000000)"><g transform="translate(30.000000, 0.000000)" id="矩形"><path d="M15,14 L67,14 C69.7614237,14 72,16.2385763 72,19 L72,55 C72,57.7614237 69.7614237,60 67,60 L15,60 C12.2385763,60 10,57.7614237 10,55 L10,19 C10,16.2385763 12.2385763,14 15,14 Z" fill="#333333"/><path d="M38.0899767,28.0084849 L50.4201735,36.0231128 C51.3462927,36.6250903 51.6090615,37.8638575 51.007084,38.7899767 C50.8546418,39.0245031 50.6546999,39.224445 50.4201735,39.3768872 L38.0899767,47.3915151 C37.1638575,47.9934927 35.9250903,47.7307239 35.3231128,46.8046046 C35.1122394,46.4801841 35,46.1015597 35,45.7146279 L35,29.6853721 C35,28.5808026 35.8954305,27.6853721 37,27.6853721 C37.3869318,27.6853721 37.7655562,27.7976115 38.0899767,28.0084849 Z" fill="#FFFFFF"/><path d="M28.5,64 L53.5,64 C54.8807119,64 56,65.1192881 56,66.5 C56,67.8807119 54.8807119,69 53.5,69 L28.5,69 C27.1192881,69 26,67.8807119 26,66.5 C26,65.1192881 27.1192881,64 28.5,64 Z" fill="#333333"/></g></g></g></g></svg>