<?xml version="1.0" encoding="UTF-8"?><svg width="82px" height="82px" viewBox="0 0 82 82" version="1.1" xmlns="http://www.w3.org/2000/svg" xmlns:xlink="http://www.w3.org/1999/xlink"><title>钻石@4x</title><g id="--🟠ICON" stroke="none" stroke-width="1" fill="none" fill-rule="evenodd"><g id="常用载体" transform="translate(-44.000000, -1002.000000)"><g id="钻石" transform="translate(14.000000, 1002.000000)"><g transform="translate(30.000000, 0.000000)"><rect id="矩形" x="0" y="0" width="82" height="82"/><path d="M22.9185713,10.8694611 L61.0972551,10.8694611 C62.9560842,10.8694611 64.6650084,11.8894439 65.5473342,13.5255205 L76.2195625,33.3147884 C77.2794761,35.2801618 76.9245935,37.7080954 75.3464966,39.28788 L45.3981885,69.268216 C43.4247692,71.2437458 40.2235134,71.2454567 38.2479836,69.2720373 C38.2399335,69.2639959 38.2319107,69.2559273 38.2239151,69.2478317 L8.6338884,39.2875745 C7.07203461,37.7061788 6.72612271,35.2902317 7.78147938,33.3341075 L18.468902,13.5247608 C19.3513602,11.8891073 21.0600519,10.8694611 22.9185713,10.8694611 Z" id="Path-36" fill="#333333"/><path d="M49.8803939,49.7111378 L51.2979792,51.0547551 C51.6894179,51.4257689 51.716124,52.0403532 51.3583443,52.4439236 L44.2448485,60.4678435 C43.1457248,61.7076391 41.2496561,61.8216762 40.0098605,60.7225525 C39.9199323,60.6428279 39.8348761,60.5577717 39.7551515,60.4678435 L32.6416557,52.4439236 C32.283876,52.0403532 32.3105821,51.4257689 32.7020208,51.0547551 L34.1195522,49.7111889 C34.5203942,49.3312624 35.1533321,49.3482177 35.5332586,49.7490597 C35.5408861,49.7571071 35.5483792,49.7652807 35.5557348,49.7735773 L41.9994846,57.0416362 L41.9994846,57.0416362 L48.4442589,49.7734726 C48.8106743,49.3602436 49.442701,49.3222938 49.8559299,49.6887092 C49.8642081,49.6960495 49.8723639,49.7035268 49.8803939,49.7111378 Z" id="路径" fill="#FFFFFF"/></g></g></g></g></svg>